<svg width="40" height="40" viewBox="0 0 40 40" fill="none" xmlns="http://www.w3.org/2000/svg">
<path fill-rule="evenodd" clip-rule="evenodd" d="M14.4825 13.07L10.0325 18.58C9.5625 19.06 9.5625 19.54 10.0325 20.02L14.4825 25.53L11.6725 29.37L11.4425 29.13C10.0325 27.21 5.8125 21.94 4.1725 20.02C3.9425 19.54 3.9425 19.06 4.1725 18.58C5.5825 16.66 9.8025 11.39 11.4425 9.47L11.6725 9.23L14.4825 13.07ZM25.2625 13.07L29.7125 18.58C30.1825 19.06 30.1825 19.54 29.7125 20.02L25.2625 25.53L28.3125 29.13L28.5425 28.89C29.9525 26.97 34.1725 21.7 35.8125 19.78C36.0425 19.3 36.0425 18.82 35.8125 18.34C34.4025 16.42 30.1825 11.15 28.5425 9.23L28.3125 8.99L25.2625 13.07V13.07ZM22.9225 31.05V5.16C22.9225 3.96 22.2225 3 21.0425 3H18.9325C17.7625 3 16.8225 3.96 16.8225 5.16V31.05C16.8225 31.29 16.8225 31.53 17.0525 31.77L19.1625 37.28C19.3925 38.24 20.8025 38.24 21.0425 37.28L22.9225 31.77V31.05V31.05Z" fill="white" fill-opacity="0.96"/>
</svg>
