<svg width="40" height="40" viewBox="0 0 40 40" fill="none" xmlns="http://www.w3.org/2000/svg">
<path fill-rule="evenodd" clip-rule="evenodd" d="M20 6.8044C22.0587 6.8044 23.7431 8.48831 23.7431 10.5464C23.7431 12.6045 22.0587 14.2885 20 14.2885C17.9413 14.2885 16.2569 12.6045 16.2569 10.5464C16.2569 8.48831 17.9413 6.8044 20 6.8044ZM20 3C24.1798 3 27.5486 6.39901 27.5486 10.5464C27.5486 14.725 24.1798 18.0929 20 18.0929C15.8202 18.0929 12.4514 14.6938 12.4514 10.5464C12.4514 6.39901 15.8514 3 20 3ZM4.65321 19.5273C5.18349 19.7456 6.8055 20.4004 6.68073 20.0886C6.55596 19.7144 3.71743 17.2509 3.71743 17.2509C3.71743 17.2509 3 16.596 3.03119 15.0992C3.03119 15.068 3.03119 15.068 3.03119 15.0369L3 12.854C3 12.4798 3 12.1992 3 12.1992C3 11.1389 3.74862 11.5755 3.74862 11.5755L12.1706 16.6896C12.6073 16.9391 12.9817 17.5004 12.9817 17.9369V29.1007C12.9817 29.5372 12.6697 29.662 12.2954 29.3189C12.2954 29.3189 7.99083 25.7952 6.68073 24.1425C5.62018 22.8016 4.55963 21.4607 4.49725 19.652C4.49725 19.5897 4.55963 19.4961 4.65321 19.5273ZM35.3468 19.5273C35.4716 19.4961 35.5339 19.5897 35.5339 19.6209C35.4716 21.4607 34.411 22.8016 33.3193 24.1425C32.0092 25.7952 27.7046 29.3189 27.7046 29.3189C27.3303 29.6308 27.0183 29.5372 27.0183 29.1007V17.9369C27.0183 17.5004 27.3927 16.9391 27.8294 16.6896L36.2514 11.5755C36.2514 11.5755 37 11.1389 37 12.1992C37 12.1992 37 12.4798 37 12.854L36.9688 15.0369C36.9688 15.068 36.9688 15.068 36.9688 15.0992C36.9688 16.596 36.2514 17.2509 36.2514 17.2509C36.2514 17.2509 33.4128 19.7144 33.2881 20.0886C33.1945 20.4004 34.8165 19.7768 35.3468 19.5273ZM14.6972 29.0695C14.6349 29.1007 14.4789 29.1942 14.4789 28.9136C14.4477 28.0716 14.4789 23.9866 14.4789 23.9866C14.4789 23.55 14.8532 22.9887 15.3211 22.7704L24.7413 18.2176C25.2092 17.9993 25.5835 18.1864 25.5835 18.623V23.6747C25.5835 23.6747 25.5835 23.7995 25.4899 23.9242C25.2092 24.236 24.0239 25.2963 23.9615 25.4834C23.8991 25.7017 24.6789 25.421 25.3339 25.1715C25.5835 25.078 25.6147 25.2027 25.6147 25.3274V29.5684C25.6147 30.005 25.2404 30.5663 24.7725 30.7846L15.3523 35.3374C14.8844 35.5557 14.5101 35.3686 14.5101 34.932V30.691C14.5101 30.5975 14.5413 30.4104 14.7284 30.2233C15.4459 29.5684 16.1321 28.9136 16.1945 28.7265C16.2257 28.5082 15.3523 28.82 14.6972 29.0695ZM19.4697 36.7406C20.0312 37.0213 20.5927 37.146 20.8422 36.7406L22.9321 33.061C23.1505 32.6556 22.9633 32.4997 22.4954 32.718L17.9725 34.8696C17.5046 35.0879 17.4734 35.5245 17.8789 35.8051L19.4697 36.7406Z" fill="white" fill-opacity="0.96"/>
</svg>
