<svg width="40" height="40" viewBox="0 0 40 40" fill="none" xmlns="http://www.w3.org/2000/svg">
<path d="M11.24 23.08C10.8 21.97 10.58 20.76 10.63 19.5C10.81 14.58 14.99 10.64 20.19 10.47C22.38 10.47 24.49 11.21 26.15 12.56L30.86 7.96C27.95 5.43 24.15 4.01 20.19 4C11.21 4 4 11.05 4 19.83C4 20.95 4.12 22.04 4.34 23.09H11.24V23.08Z" fill="#E00034"/>
<path d="M35.29 16.96H20.19V23.08H28.87C28.05 26.96 24.68 29.19 20.19 29.19C18.37 29.13 16.68 28.6 15.24 27.74H6.16003C8.95003 32.47 14.16 35.65 20.19 35.65C28.29 35.65 35.65 29.9 35.65 19.82C35.63 18.86 35.51 17.89 35.29 16.95V16.96Z" fill="#E00034"/>
<path d="M35.29 16.95V16.96H35.32L35.29 16.95Z" fill="#E00034"/>
</svg>
