<svg width="40" height="40" viewBox="0 0 40 40" fill="none" xmlns="http://www.w3.org/2000/svg">
<path d="M32.57 4H7.43C5.54 4 4 5.54 4 7.43V32.57C4 34.46 5.54 36 7.43 36H32.57C34.46 36 36 34.46 36 32.57V7.43C36 5.54 34.46 4 32.57 4ZM29.08 15.34C29.09 15.54 29.09 15.75 29.09 15.95C29.09 22.14 24.38 29.28 15.76 29.28C13.1 29.28 10.64 28.51 8.57 27.18C8.95 27.22 9.31 27.24 9.7 27.24C11.89 27.24 13.91 26.5 15.51 25.24C13.45 25.2 11.72 23.85 11.13 21.99C11.85 22.1 12.5 22.1 13.24 21.9C11.1 21.46 9.49 19.58 9.49 17.3V17.24C10.11 17.59 10.84 17.8 11.6 17.83C10.29 16.96 9.51 15.5 9.51 13.93C9.51 13.06 9.74 12.26 10.15 11.57C12.46 14.41 15.92 16.27 19.81 16.47C19.15 13.29 21.52 10.71 24.38 10.71C25.73 10.71 26.94 11.27 27.8 12.19C28.86 11.99 29.87 11.6 30.77 11.06C30.42 12.15 29.68 13.06 28.71 13.64C29.65 13.54 30.57 13.28 31.41 12.91C30.77 13.85 29.97 14.67 29.06 15.34H29.08Z" fill="white" fill-opacity="0.96"/>
</svg>
