<svg width="48" height="48" viewBox="0 0 48 48" fill="none" xmlns="http://www.w3.org/2000/svg">
<rect width="48" height="48" rx="4" class="bezel"/>
<path d="M36 10H11.9937C10.8937 10 10 10.9063 10 12.0188V35.9813C10 37.0938 10.8937 38 11.9937 38H36C37.1 38 38 37.0938 38 35.9813V12.0188C38 10.9063 37.1 10 36 10ZM18.4625 34H14.3125V20.6375H18.4688V34H18.4625ZM16.3875 18.8125C15.0562 18.8125 13.9813 17.7312 13.9813 16.4062C13.9813 15.0813 15.0562 14 16.3875 14C17.7125 14 18.7937 15.0813 18.7937 16.4062C18.7937 17.7375 17.7188 18.8125 16.3875 18.8125ZM34.0187 34H29.8687V27.5C29.8687 25.95 29.8375 23.9563 27.7125 23.9563C25.55 23.9563 25.2188 25.6438 25.2188 27.3875V34H21.0688V20.6375H25.05V22.4625H25.1062C25.6625 21.4125 27.0188 20.3062 29.0375 20.3062C33.2375 20.3062 34.0187 23.075 34.0187 26.675V34Z" fill="white"/>
</svg>
