<svg width="40" height="40" viewBox="0 0 40 40" fill="none" xmlns="http://www.w3.org/2000/svg">
<path fill-rule="evenodd" clip-rule="evenodd" d="M20.37 4C11.88 4 5 10.88 5 19.37C5 27.86 11.88 34.74 20.37 34.74C23.01 34.74 25.5 34.07 27.68 32.89C29.3 33.97 31.78 35.21 34.95 35.21C35.14 35.21 35.3 35.1 35.38 34.93C35.46 34.75 35.42 34.55 35.29 34.42C35.26 34.39 33.04 31.98 32.2 29.19C34.41 26.53 35.75 23.11 35.75 19.37C35.74 10.88 28.86 4 20.37 4ZM20.35 29.58C14.83 29.58 10.35 25.1 10.35 19.58C10.35 14.06 14.83 9.58 20.35 9.58C25.87 9.58 30.35 14.06 30.35 19.58C30.35 25.1 25.87 29.58 20.35 29.58Z" fill="white" fill-opacity="0.96"/>
<path d="M23.81 22.08C25.1907 22.08 26.31 20.9607 26.31 19.58C26.31 18.1993 25.1907 17.08 23.81 17.08C22.4293 17.08 21.31 18.1993 21.31 19.58C21.31 20.9607 22.4293 22.08 23.81 22.08Z" fill="white" fill-opacity="0.96"/>
<path d="M16.89 22.08C18.2707 22.08 19.39 20.9607 19.39 19.58C19.39 18.1993 18.2707 17.08 16.89 17.08C15.5093 17.08 14.39 18.1993 14.39 19.58C14.39 20.9607 15.5093 22.08 16.89 22.08Z" fill="white" fill-opacity="0.96"/>
</svg>
