<svg width="48" height="48" viewBox="0 0 48 48" fill="none" xmlns="http://www.w3.org/2000/svg">
<rect width="48" height="48" rx="4" class="bezel"/>
<path d="M39.3321 15.5997C38.963 14.1802 37.8792 13.0661 36.5024 12.6888C34.0066 12 24 12 24 12C24 12 13.9934 12 11.4976 12.6888C10.1208 13.0661 9.03698 14.1802 8.66789 15.5997C8 18.1693 8 23.524 8 23.524C8 23.524 8 28.8786 8.66789 31.4482C9.03698 32.8677 10.1208 33.9339 11.4976 34.3112C13.9934 35 24 35 24 35C24 35 34.0066 35 36.5024 34.3112C37.8792 33.9339 38.963 32.8617 39.3321 31.4482C40 28.8786 40 23.524 40 23.524C40 23.524 40 18.1693 39.3321 15.5997ZM20.7309 28.3875V18.6604L29.0912 23.524L20.7309 28.3875Z" fill="white"/>
</svg>
