<svg width="40" height="40" viewBox="0 0 40 40" fill="none" xmlns="http://www.w3.org/2000/svg">
<path fill-rule="evenodd" clip-rule="evenodd" d="M27.5626 11.8C27.5626 16.1078 24.0704 19.6 19.7627 19.6C15.4548 19.6 11.9626 16.1078 11.9626 11.8C11.9626 7.49219 15.4548 4 19.7627 4C24.0704 4 27.5626 7.49219 27.5626 11.8ZM23.6326 11.8C23.6326 13.9373 21.8999 15.67 19.7626 15.67C17.6252 15.67 15.8926 13.9373 15.8926 11.8C15.8926 9.66266 17.6252 7.92999 19.7626 7.92999C21.8999 7.92999 23.6326 9.66266 23.6326 11.8Z" fill="#E00034"/>
<path d="M6.95255 21.38H33.5226C34.2126 21.38 34.6925 22.07 34.4526 22.72L33.5026 25.3C33.3626 25.69 32.9926 25.95 32.5725 25.95H25.7694C26.7061 26.6501 27.6751 27.3773 28.607 28.0767C30.5436 29.5302 32.32 30.8634 33.3127 31.5825C33.6626 31.8325 33.6526 32.4925 33.3127 32.7425L29.4327 35.6225L29.4226 35.6325C29.1226 35.8525 28.7626 35.8525 28.4526 35.6325L20.9526 30.2225C20.3027 29.6725 19.4427 29.6725 18.7926 30.2225L11.2826 35.6425C10.9826 35.8525 10.6326 35.8525 10.3326 35.6425L6.23258 32.7225C5.88261 32.4725 5.8726 31.8125 6.23258 31.5625C7.73515 30.4885 11.0597 28.1055 13.9869 25.95H6.0026C5.30253 25.95 4.82255 25.25 5.06254 24.6L6.01261 22.03C6.16264 21.64 6.53263 21.38 6.95255 21.38Z" fill="#E00034"/>
</svg>
