<svg width="48" height="48" viewBox="0 0 48 48" fill="none" xmlns="http://www.w3.org/2000/svg">
<rect width="48" height="48" rx="4" class="bezel"/>
<path d="M18.7032 33.7664C18.7032 33.8987 18.5548 34.0046 18.3677 34.0046C18.1548 34.0244 18.0065 33.9185 18.0065 33.7664C18.0065 33.634 18.1548 33.5281 18.3419 33.5281C18.5355 33.5083 18.7032 33.6142 18.7032 33.7664ZM16.6968 33.4686C16.6516 33.6009 16.7806 33.7531 16.9742 33.7928C17.1419 33.859 17.3355 33.7928 17.3742 33.6605C17.4129 33.5281 17.2903 33.376 17.0968 33.3164C16.929 33.2701 16.7419 33.3363 16.6968 33.4686ZM19.5484 33.3561C19.3613 33.4024 19.2323 33.5281 19.2516 33.6803C19.271 33.8127 19.4387 33.8987 19.6323 33.8524C19.8194 33.8061 19.9484 33.6803 19.929 33.548C19.9097 33.4223 19.7355 33.3363 19.5484 33.3561ZM23.7935 8C14.8452 8 8 14.9676 8 24.1453C8 31.4835 12.5032 37.763 18.9355 39.973C19.7613 40.1252 20.0516 39.6025 20.0516 39.1724C20.0516 38.7621 20.0323 36.4991 20.0323 35.1096C20.0323 35.1096 15.5161 36.1021 14.5677 33.1377C14.5677 33.1377 13.8323 31.2122 12.7742 30.7159C12.7742 30.7159 11.2968 29.6771 12.8774 29.6969C12.8774 29.6969 14.4839 29.8293 15.3677 31.4041C16.7806 33.9582 19.1484 33.2238 20.071 32.787C20.2194 31.7283 20.6387 30.9939 21.1032 30.5571C17.4968 30.1469 13.8581 29.6109 13.8581 23.2454C13.8581 21.4258 14.3484 20.5126 15.3806 19.348C15.2129 18.9179 14.6645 17.1446 15.5484 14.8551C16.8968 14.425 20 16.6417 20 16.6417C21.2903 16.2712 22.6774 16.0793 24.0516 16.0793C25.4258 16.0793 26.8129 16.2712 28.1032 16.6417C28.1032 16.6417 31.2065 14.4184 32.5548 14.8551C33.4387 17.1512 32.8903 18.9179 32.7226 19.348C33.7548 20.5192 34.3871 21.4324 34.3871 23.2454C34.3871 29.6308 30.5871 30.1403 26.9806 30.5571C27.5742 31.0799 28.0774 32.0724 28.0774 33.6274C28.0774 35.8573 28.0581 38.6166 28.0581 39.1592C28.0581 39.5893 28.3548 40.112 29.1742 39.9598C35.6258 37.763 40 31.4835 40 24.1453C40 14.9676 32.7419 8 23.7935 8ZM14.271 30.8218C14.1871 30.888 14.2065 31.0402 14.3161 31.1659C14.4194 31.2718 14.5677 31.3181 14.6516 31.2321C14.7355 31.1659 14.7161 31.0137 14.6065 30.888C14.5032 30.7821 14.3548 30.7358 14.271 30.8218ZM13.5742 30.2858C13.529 30.3719 13.5935 30.4777 13.7226 30.5439C13.8258 30.6101 13.9548 30.5902 14 30.4976C14.0452 30.4116 13.9806 30.3057 13.8516 30.2395C13.7226 30.1998 13.6194 30.2197 13.5742 30.2858ZM15.6645 32.6415C15.5613 32.7275 15.6 32.926 15.7484 33.0517C15.8968 33.2039 16.0839 33.2238 16.1677 33.1179C16.2516 33.0319 16.2129 32.8334 16.0839 32.7076C15.9419 32.5555 15.7484 32.5356 15.6645 32.6415ZM14.929 31.6688C14.8258 31.735 14.8258 31.907 14.929 32.0592C15.0323 32.2114 15.2065 32.2775 15.2903 32.2114C15.3935 32.1254 15.3935 31.9533 15.2903 31.8011C15.2 31.6489 15.0323 31.5828 14.929 31.6688Z" fill="white"/>
</svg>
