<svg width="40" height="40" viewBox="0 0 40 40" fill="none" xmlns="http://www.w3.org/2000/svg">
<path d="M19 32.5V30.09C18.77 30.07 18.54 30.04 18.32 30C17.96 29.9 17.68 29.65 17.6 29.29L17.1 27.03C16.47 26.77 15.89 26.43 15.36 26.02L13.15 26.73C12.8 26.84 12.41 26.74 12.18 26.46C11.86 26.07 11.57 25.66 11.3 25.22L11.11 24.9C10.87 24.47 10.66 24.01 10.48 23.54C10.35 23.2 10.46 22.81 10.73 22.57L12.44 21.01C12.4 20.68 12.37 20.34 12.37 20C12.37 19.66 12.39 19.32 12.44 18.99L10.73 17.43C10.46 17.18 10.35 16.8 10.48 16.46C10.66 15.99 10.87 15.53 11.11 15.1L11.3 14.78C11.56 14.34 11.86 13.93 12.18 13.54C12.41 13.26 12.8 13.16 13.15 13.27L15.36 13.97C15.89 13.56 16.48 13.22 17.1 12.96L17.6 10.7C17.68 10.34 17.96 10.05 18.32 9.99C18.54 9.95 18.77 9.93 19 9.9V7.5C19 5.57 17.43 4 15.5 4C13.69 4 12.21 5.37 12.02 7.12C10.29 7.56 9 9.13 9 11C9 11.37 9.05 11.74 9.15 12.09C7.35 12.48 6 14.08 6 16C6 16.88 6.32 17.8 6.86 18.48C5.17 19.28 4 21 4 23C4 25.14 5.34 26.96 7.22 27.67C7.08 28.08 7 28.53 7 28.99C7 31.2 8.79 32.99 11 32.99C11.35 32.99 11.69 32.95 12.02 32.86C12.21 34.62 13.69 35.99 15.5 35.99C17.43 35.99 19 34.42 19 32.49V32.5Z" fill="white" fill-opacity="0.96"/>
<path d="M27.98 32.87C28.3 32.96 28.65 33 29 33C31.21 33 33 31.21 33 29C33 28.54 32.92 28.09 32.78 27.68C34.67 26.97 36 25.14 36 23.01C36 21.02 34.83 19.29 33.14 18.49C33.68 17.81 34 16.89 34 16.01C34 14.09 32.65 12.49 30.85 12.1C30.95 11.76 31 11.39 31 11.01C31 9.14 29.71 7.57 27.98 7.13C27.79 5.38 26.31 4.01 24.5 4.01C22.57 4.01 21 5.58 21 7.51V9.92C21.23 9.94 21.46 9.97 21.68 10.01C22.04 10.07 22.32 10.36 22.4 10.72L22.9 12.98C23.49 13.24 24.11 13.58 24.64 13.99L26.85 13.29C27.2 13.18 27.58 13.28 27.82 13.56C28.14 13.95 28.43 14.36 28.7 14.8L28.89 15.12C29.13 15.55 29.34 16.01 29.51 16.48C29.64 16.82 29.53 17.2 29.26 17.45L27.54 19.01C27.58 19.34 27.61 19.68 27.61 20.02C27.61 20.36 27.59 20.7 27.54 21.03L29.26 22.59C29.53 22.84 29.64 23.22 29.51 23.56C29.34 24.03 29.13 24.49 28.89 24.92L28.7 25.24C28.44 25.68 28.15 26.09 27.82 26.48C27.58 26.76 27.2 26.86 26.85 26.75L24.64 26.04C24.11 26.45 23.49 26.79 22.9 27.05L22.4 29.31C22.32 29.67 22.04 29.92 21.68 30.02C21.46 30.06 21.23 30.08 21 30.1V32.51C21 34.44 22.57 36.01 24.5 36.01C26.31 36.01 27.79 34.64 27.98 32.88V32.87Z" fill="white" fill-opacity="0.96"/>
<path d="M16.83 20C16.83 21.75 18.25 23.17 20 23.17C21.75 23.17 23.17 21.75 23.17 20C23.17 18.25 21.75 16.83 20 16.83C18.25 16.83 16.83 18.25 16.83 20Z" fill="white" fill-opacity="0.96"/>
</svg>
