<svg width="48" height="48" viewBox="0 0 48 48" fill="none" xmlns="http://www.w3.org/2000/svg">
<rect width="48" height="48" rx="4" class="bezel"/>
<path d="M39.3937 17.9815L24.7687 8.23203C24.2687 7.92579 23.7375 7.91954 23.2312 8.23203L8.60625 17.9815C8.23125 18.2315 8 18.6753 8 19.1252V28.8748C8 29.3185 8.23125 29.7685 8.60625 30.0185L23.2312 39.768C23.7312 40.0742 24.2625 40.0805 24.7687 39.768L39.3937 30.0185C39.7687 29.7685 40 29.3247 40 28.8748V19.1252C40 18.6815 39.7687 18.2315 39.3937 17.9815ZM25.375 11.9443L36.1437 19.1252L31.3375 22.3376L25.375 18.3565V11.9443ZM22.625 11.9443V18.3565L16.6625 22.3376L11.8563 19.1252L22.625 11.9443ZM10.75 21.6939L14.1937 24L10.75 26.2999V21.6939ZM22.625 36.0494L11.8563 28.8748L16.6625 25.6624L22.625 29.6435V36.0557V36.0494ZM24 27.2436L19.1438 23.9937L24 20.7439L28.8563 23.9937L24 27.2436ZM25.375 36.0494V29.6435L31.3375 25.6624L36.1437 28.8748L25.375 36.0494ZM37.25 26.2999L33.8062 23.9937L37.25 21.6939V26.2999Z" fill="white"/>
</svg>
