<svg width="210" height="48" viewBox="0 0 210 48" fill="none" xmlns="http://www.w3.org/2000/svg">
<g clip-path="url(#clip0_714_1030)">
<rect width="48" height="48" rx="4" fill="#E00034"/>
<circle cx="24" cy="24" r="24" fill="#E00034"/>
<path fill-rule="evenodd" clip-rule="evenodd" d="M11.008 15.9496C13.3989 15.9496 15.3371 14.0114 15.3371 11.6205C15.3371 9.22959 13.3989 7.29138 11.008 7.29138C8.61709 7.29138 6.67889 9.22959 6.67889 11.6205C6.67889 14.0114 8.61709 15.9496 11.008 15.9496ZM14.0906 17.7409H6.56533C6.17253 17.7409 5.85376 18.0597 5.85376 18.4524V19.845C5.85376 20.2378 6.17253 20.5566 6.56533 20.5566H7.2616V40.3363C7.2616 40.7025 7.55866 40.9995 7.9248 40.9995H14.0901C14.4562 40.9995 14.7533 40.7025 14.7533 40.3363V18.4046C14.7533 18.0384 14.4562 17.7414 14.0901 17.7414L14.0906 17.7409ZM18.281 9.02637H27.7342C36.2286 9.02637 42.1461 13.465 42.1461 25.0134C42.1461 36.5618 36.1334 41 27.7342 41H18.281C17.8882 41 17.5695 40.6812 17.5695 40.2884V35.4703C17.5695 35.0716 17.8927 34.7484 18.2914 34.7484H27.7342C32.7453 34.7484 34.8449 31.0741 34.8449 25.0134C34.8449 18.9528 32.7453 15.278 27.7342 15.278H25.0755C24.8835 15.278 24.7281 15.4334 24.7281 15.6254V32.698C24.7281 33.0533 24.4399 33.341 24.0851 33.341H18.2914C17.8927 33.341 17.5695 33.0178 17.5695 32.6191V9.73793C17.5695 9.34514 17.8882 9.02637 18.281 9.02637Z" fill="white"/>
</g>
<path fill-rule="evenodd" clip-rule="evenodd" d="M53 17.4285L60.4647 16.7661V10.8046H53V17.4285ZM60.1507 19.1716H58.8252L53.2791 19.6248V36.9514H60.1507V19.1716ZM70.5106 18.9624C65.5923 18.9624 62.8366 21.612 62.8366 24.7845C62.8366 31.6872 70.9292 29.7 70.9292 31.4083C70.9292 31.9312 70.1269 31.9312 68.6968 31.9312C67.5457 31.9312 65.2784 31.6872 63.5343 31.3037H63.2552V36.8468C64.8249 37.1606 66.6039 37.4046 68.4526 37.4046C73.1267 37.4046 77.9404 36.289 77.9404 31.478C77.9404 24.9239 69.813 26.9111 69.813 25.1679C69.813 24.7147 70.5106 24.4358 71.5222 24.4358C72.464 24.4358 74.4523 24.6101 76.5452 25.2725H76.9637V19.6248C75.0104 19.1367 73.057 18.9624 70.5106 18.9624ZM93.0093 20.2523V19.2413C90.149 18.9276 87.9864 19.5202 86.4864 22.0303H86.3469L85.9981 19.1716H85.1609L80.1031 19.6248V36.9514H86.9748V27.9918C87.9515 26.3533 89.4165 25.2725 92.6605 25.4817L93.0093 20.2523ZM110.694 26.3533C110.694 21.089 107.939 18.9624 102.706 18.9624C100.369 18.9624 97.7184 19.3459 95.3813 20.1478L95.8347 25.3771C98.1021 24.6101 100.858 24.2267 102.113 24.2267C103.718 24.2267 103.823 24.8542 103.823 25.7955V26.1441L101.66 26.423C97.9276 26.9459 94.1953 27.6083 94.1953 31.9312C94.1953 35.5918 96.6719 37.1955 99.009 37.2652C101.625 37.3 103.055 36.3239 104.241 35.3826H104.381V37.3H104.73C106.299 37.1257 109.125 36.9863 110.659 36.8468V26.3533H110.694ZM103.823 31.9661C103.299 32.2799 102.706 32.489 102.183 32.489C101.59 32.489 101.172 32.1404 101.172 31.3037C101.172 30.5367 101.8 30.2927 102.462 30.1881L103.788 30.0138V31.9661H103.823ZM120.252 36.9514V10.5955H118.892L113.38 11.1533V36.9863H120.252V36.9514ZM138.111 31.234H136.193V18.4395H138.111C141.948 18.4395 143.518 20.9147 143.518 24.8542C143.518 28.7936 141.948 31.234 138.111 31.234ZM150.878 24.8542C150.878 16.1386 145.646 12.7221 138.146 12.7221H128.937V36.9514H138.146C145.576 36.9514 150.878 33.6046 150.878 24.8542ZM171.214 36.2542V19.1716H169.993L164.342 19.6248V30.5716C163.436 31.1991 162.563 31.5478 161.796 31.5478C160.785 31.5478 160.192 30.9551 160.192 29.5955V19.1367H158.971L153.32 19.6248V30.7808C153.32 35.801 156.32 37.4046 159.354 37.4046C161.587 37.4046 163.401 36.3588 164.935 35.3826V37.4046H165.773L171.214 36.2542ZM180.876 10.5955H179.516L174.005 11.1533V36.9863H180.876V30.5716L185.271 36.9863H193.852L187.085 28.201L193.573 19.4505H184.992L180.911 25.6211V10.5955H180.876ZM199.992 25.6909C200.131 24.4707 200.41 23.6689 201.805 23.6689C202.747 23.6689 203.096 24.401 203.096 25.412V25.6909H199.992ZM209.2 30.8854C207.77 31.3386 205.503 31.8964 203.933 31.8964C201.178 31.8964 199.992 31.6175 199.992 29.3863H209.724C209.828 28.689 209.898 28.0267 209.898 26.7367C209.898 22.9367 208.014 18.9624 201.805 18.9624C195.527 18.9624 192.632 23.3551 192.632 28.3404C192.632 34.3019 195.527 37.3698 202.329 37.3698C204.038 37.3698 206.445 37.0909 209.2 36.3239V30.8854Z" fill="white"/>
<defs>
<clipPath id="clip0_714_1030">
<rect width="48" height="48" rx="4" fill="white"/>
</clipPath>
</defs>
</svg>
