<?xml version="1.0" encoding="UTF-8"?><svg id="a" xmlns="http://www.w3.org/2000/svg" viewBox="0 0 50 50"><defs><style>.cls-1{fill:#fff;}.cls-2{fill:#bf0000;}</style></defs><circle id="b" class="cls-2" cx="24.76" cy="24.76" r="24.76"/><circle class="cls-1" cx="13.43" cy="12.49" r="4.24"/><path class="cls-1" d="M16.46,18.49h-7.38c-.39,0-.7,.31-.7,.7v1.37c0,.39,.31,.7,.7,.7h.68v19.39c0,.36,.29,.65,.65,.65h6.04c.36,0,.65-.29,.65-.65V19.14c0-.36-.29-.65-.65-.65h.01Z"/><path class="cls-1" d="M29.83,9.94h-9.27c-.39,0-.7,.31-.7,.7v22.43c0,.39,.32,.71,.71,.71h5.68c.35,0,.63-.28,.63-.63V16.41c0-.19,.15-.34,.34-.34h2.61c4.91,0,6.97,3.6,6.97,9.54s-2.06,9.54-6.97,9.54h-9.26c-.39,0-.71,.32-.71,.71v4.72c0,.39,.31,.7,.7,.7h9.27c8.23,0,14.13-4.35,14.13-15.67s-5.8-15.67-14.13-15.67Z"/></svg>