<svg width="48" height="48" viewBox="0 0 48 48" fill="none" xmlns="http://www.w3.org/2000/svg">
<rect x="8" y="11" width="32" height="26" rx="1" fill="white"/>
<rect width="48" height="48" rx="4" fill="#0072A3"/>
<path d="M38.9914 33.3345C39.3819 33.7249 39.3819 34.3582 38.9914 34.7486L34.7487 38.9913C34.3582 39.3819 33.7251 39.3819 33.3345 38.9913L24.1985 29.8553L15.0625 38.9913C14.672 39.3819 14.0388 39.3819 13.6483 38.9913L9.40559 34.7486C9.01509 34.3582 9.01509 33.7249 9.40559 33.3345L18.5416 24.1985L9.29292 14.9498C8.90236 14.5591 8.90236 13.9261 9.29292 13.5355L13.5355 9.29279C13.9261 8.9024 14.5592 8.9024 14.9498 9.29279L24.1985 18.5416L33.4472 9.29279C33.8378 8.9024 34.4709 8.9024 34.8615 9.29279L39.1041 13.5355C39.4946 13.9261 39.4946 14.5591 39.1041 14.9498L29.8554 24.1985L38.9914 33.3345Z" fill="white"/>
</svg>
