<svg id="Layer_1" data-name="Layer 1" xmlns="http://www.w3.org/2000/svg" viewBox="0 0 1600.32 900.24"><defs><style>.cls-1{fill:#e1251b;}.cls-2{fill:#93d500;}.cls-3{fill:#61a60e;}</style></defs><path class="cls-1" d="M730.08,658.79c3.4,13.26,10.91,34.76,26.69,53.7,0,0-45.76-4-69.41-27.48A243.77,243.77,0,0,0,730.08,658.79Zm-6.35-207.26a16.22,16.22,0,0,0,16.21,16.22H840.11c-2.55,10.93-5.75,21.77-9.39,32.47H739.94a16.22,16.22,0,0,0,0,32.43h78.41s-73.15,162.52-220,162.52a190.55,190.55,0,0,1-78.44-16.77c-20.94,29.41-75.08,34.09-75.08,34.09,20.07-24.08,26.77-52.29,28.63-62.44-61.09-48.1-90.21-117.4-90.21-117.4h78.41a16.22,16.22,0,0,0,0-32.43H370.9c-3.64-10.7-6.84-21.54-9.4-32.47H461.67a16.22,16.22,0,0,0,0-32.43H356a196.25,196.25,0,0,1-.63-32.52H461.67a16.22,16.22,0,0,0,0-32.43H360.74c12.37-45.31,44.84-85,87.19-105.45,43-20.78,95.11-21.31,138.7-2,0-.71.07-1.43.12-2.14l.5-8.54c.65-5.61,1.24-11.29,2.08-16.91,1-5.55,1.88-11.2,3-16.74L596.2,202a16,16,0,1,1,30,10.47l-.27.58-6.71,14.1c-2.14,4.74-4,9.56-6,14.38-1.85,4.85-3.47,9.75-5.19,14.68l-2.11,7.46c-.41,1.4-.8,2.8-1.15,4.2,45.48-24.23,102.55-25.4,149-3C796,285.4,828.5,325.06,840.88,370.37H739.94a16.22,16.22,0,0,0,0,32.43H846.22a196.25,196.25,0,0,1-.62,32.52H739.94A16.21,16.21,0,0,0,723.73,451.53Zm-107.87,28.9c10,4.05,25.18-10.15,33.92-31.72s-27.47-36.23-36.2-14.66S605.86,476.39,615.86,480.43Zm-65.7-31.72c8.74,21.57,23.92,35.77,33.92,31.72s11-24.81,2.28-46.38S541.42,427.14,550.16,448.71ZM433.2,562A309.65,309.65,0,0,0,459,595.81c40.94,46.43,87.84,70,139.4,70,51.77,0,99.6-23.68,142.17-70.38A324.64,324.64,0,0,0,767,562Z"/><path class="cls-2" d="M1024.38,533.15q27.64,0,41.48-13t13.82-35.58a69.3,69.3,0,0,0-1.44-14.91q-3.37-15.87-11.54-20l2.4-3.36q2.4-3.37,4.81-11.31a59.56,59.56,0,0,0,2.41-17.31q0-26.69-18.76-38.71t-60.35-12h-88V533.15ZM991.92,450V430.72h7a6.79,6.79,0,0,1,4.81,1.8,6.44,6.44,0,0,1,1.92,4.93V450Zm25.24,13.71a6.49,6.49,0,0,1,1.93,4.81,6.74,6.74,0,0,1-2.05,4.93,6.44,6.44,0,0,1-4.68,2H991.92V461.73h20.44A6.52,6.52,0,0,1,1017.16,463.66Zm93.3-84.28Q1090,394.17,1090,419.9T1104.93,456q14.91,10.35,44.24,12.51v5.77a186,186,0,0,1-32.34-2.65q-15-2.64-19.35-4.32c-2.89-1.12-5-2-6.5-2.65v59.87l6.5,2.89q6.24,2.64,24.52,5.41a284.57,284.57,0,0,0,42.08,2.76q41.6,0,61.56-13.46t20-38q0-20.44-13.71-30.54t-45-12.5V434.8q33.91,0,53.38,8.9V374.93l-7.21-2.64q-7.46-2.66-24.65-5.17a253.29,253.29,0,0,0-36.9-2.53Q1130.89,364.59,1110.46,379.38ZM942.27,594.69V583.83a1.14,1.14,0,0,0-1.24-1.24H910.44a1.24,1.24,0,0,0-.91.33,1.22,1.22,0,0,0-.33.91v55.55a1.14,1.14,0,0,0,1.24,1.25H941a1.26,1.26,0,0,0,.91-.33,1.29,1.29,0,0,0,.33-.92V628.52a1.28,1.28,0,0,0-.33-.91,1.26,1.26,0,0,0-.91-.33H925.24a.44.44,0,0,1-.5-.5v-8a.44.44,0,0,1,.5-.5h8.18a1.14,1.14,0,0,0,1.24-1.24V606.14a1.25,1.25,0,0,0-.33-.92,1.22,1.22,0,0,0-.91-.33h-8.18a.44.44,0,0,1-.5-.5v-8a.44.44,0,0,1,.5-.49H941a1.22,1.22,0,0,0,.91-.34A1.27,1.27,0,0,0,942.27,594.69Zm4.87,45.94h16.29a21.45,21.45,0,0,0,9.63-2.07,15.55,15.55,0,0,0,6.49-5.85,16.23,16.23,0,0,0,2.31-8.66V599.17a16.23,16.23,0,0,0-2.31-8.66,15.55,15.55,0,0,0-6.49-5.85,21.45,21.45,0,0,0-9.63-2.07H947.14a1.24,1.24,0,0,0-.91.33,1.22,1.22,0,0,0-.33.91v55.55a1.14,1.14,0,0,0,1.24,1.25Zm14.3-13.85V596.43a.44.44,0,0,1,.5-.49H963a2.88,2.88,0,0,1,2.4,1.16,4.8,4.8,0,0,1,.91,3.07V623a5.15,5.15,0,0,1-1,3,3,3,0,0,1-2.23,1.25l-1.16.08A.44.44,0,0,1,961.44,626.78Zm42.16,14.51a18.93,18.93,0,0,0,9.34-2.24,15.67,15.67,0,0,0,6.28-6.3,19.12,19.12,0,0,0,2.23-9.37V583.83a1.14,1.14,0,0,0-1.24-1.24h-13.06a1.24,1.24,0,0,0-.91.33,1.22,1.22,0,0,0-.33.91v41a3.61,3.61,0,0,1-.62,2.24,2,2,0,0,1-1.69.83,2.1,2.1,0,0,1-1.74-.83,3.49,3.49,0,0,1-.66-2.24v-41a1.14,1.14,0,0,0-1.24-1.24H986.9a1.14,1.14,0,0,0-1.24,1.24v39.55a19.23,19.23,0,0,0,2.23,9.37,15.67,15.67,0,0,0,6.28,6.3A19.14,19.14,0,0,0,1003.6,641.29Zm39.59,0a20.13,20.13,0,0,0,9.47-2.15A15.4,15.4,0,0,0,1059,633a18.59,18.59,0,0,0,2.28-9.33v-.33a1.4,1.4,0,0,0-.33-.95,1.18,1.18,0,0,0-.91-.38l-13.06-.41c-.83,0-1.24.39-1.24,1.16V625a3.2,3.2,0,0,1-.71,2.2,2.61,2.61,0,0,1-3.72,0,3.19,3.19,0,0,1-.7-2.2V598.34a3.36,3.36,0,0,1,.7-2.24,2.5,2.5,0,0,1,3.72,0,3.36,3.36,0,0,1,.71,2.24v2.07c0,.78.41,1.16,1.24,1.16l13.06-.41a1.17,1.17,0,0,0,.91-.37,1.45,1.45,0,0,0,.33-1v-.41q0-8-5-12.77t-13.15-4.73q-8.26,0-13.18,4.73t-4.92,12.77v24.21q0,8,5,12.85T1043.19,641.29Zm44.48-.66H1101c.78,0,1.16-.33,1.16-1v-.33l-11.74-55.64a1.28,1.28,0,0,0-1.4-1.07h-15a1.28,1.28,0,0,0-1.4,1.07L1060.8,639.3c-.16.89.19,1.33,1.08,1.33h13a1.16,1.16,0,0,0,1.33-1.16l.82-6.22a.48.48,0,0,1,.17-.33.57.57,0,0,1,.41-.17h7.27a.57.57,0,0,1,.42.17.47.47,0,0,1,.16.33l.91,6.22A1.16,1.16,0,0,0,1087.67,640.63Zm-8.85-20.32,2-14.92c.06-.22.14-.33.25-.33s.2.11.25.33l2.23,14.92c.11.34,0,.5-.41.5h-3.89C1079,620.81,1078.82,620.65,1078.82,620.31Zm56.46-37.72h-35.79a1.22,1.22,0,0,0-.91.33,1.19,1.19,0,0,0-.33.91v10.86a1.16,1.16,0,0,0,1.24,1.25h9.5a.44.44,0,0,1,.5.49v43a1.25,1.25,0,0,0,.33.92,1.22,1.22,0,0,0,.91.33h13.06a1.14,1.14,0,0,0,1.24-1.25v-43a.43.43,0,0,1,.49-.49h9.76a1.21,1.21,0,0,0,.91-.34,1.22,1.22,0,0,0,.33-.91V583.83a1.22,1.22,0,0,0-.33-.91A1.24,1.24,0,0,0,1135.28,582.59Zm6.11,58h13.06a1.22,1.22,0,0,0,.91-.33,1.25,1.25,0,0,0,.33-.92V583.83a1.14,1.14,0,0,0-1.24-1.24h-13.06a1.24,1.24,0,0,0-.91.33,1.22,1.22,0,0,0-.33.91v55.55a1.14,1.14,0,0,0,1.24,1.25Zm36.46.66q8.34,0,13.35-4.81t5-12.93V599.67q0-8.13-5-12.94t-13.35-4.81q-8.36,0-13.35,4.81t-5,12.94v23.88q0,8.13,5,12.93T1177.85,641.29Zm0-13.35a2.45,2.45,0,0,1-2.07-1,4.55,4.55,0,0,1-.74-2.74V599a4.49,4.49,0,0,1,.74-2.73,2.44,2.44,0,0,1,2.07-1,2.41,2.41,0,0,1,2.06,1,4.43,4.43,0,0,1,.75,2.73v25.21a4.48,4.48,0,0,1-.75,2.74A2.42,2.42,0,0,1,1177.85,627.94ZM1224,583.83l.08,25q0,.33-.24.33t-.33-.33l-6.37-25.21a1.24,1.24,0,0,0-1.32-1.07h-14.55a1.14,1.14,0,0,0-1.24,1.24v55.55a1.25,1.25,0,0,0,.33.92,1.22,1.22,0,0,0,.91.33h12.9a1.16,1.16,0,0,0,1.24-1.25l-.17-24.87c0-.22.08-.33.25-.33a.33.33,0,0,1,.33.25l6.28,25.12a1.25,1.25,0,0,0,1.32,1.08h14.72a1.14,1.14,0,0,0,1.24-1.25V583.83a1.22,1.22,0,0,0-.33-.91,1.24,1.24,0,0,0-.91-.33h-12.9a1.24,1.24,0,0,0-.91.33A1.22,1.22,0,0,0,1224,583.83Z"/><path class="cls-3" d="M1036.8,560.81H909.56v-6.46H1036.8Zm202.55-6.46H1112.11v6.46h127.24ZM1066.83,550a3.25,3.25,0,0,0,2.43-1,3.3,3.3,0,0,0,1-2.4,3.27,3.27,0,0,0-1-2.44,3.34,3.34,0,0,0-2.43-.94,3.26,3.26,0,0,0-2.4.94,3.29,3.29,0,0,0-.93,2.44,3.25,3.25,0,0,0,1,2.42A3.2,3.2,0,0,0,1066.83,550Zm-2.67,21.84h5.5a.48.48,0,0,0,.47-.47V552.23a.45.45,0,0,0-.14-.33.44.44,0,0,0-.33-.13h-5.5a.44.44,0,0,0-.33.13.45.45,0,0,0-.14.33v19.12a.48.48,0,0,0,.47.47Zm18.26-20.36a4,4,0,0,0-3.25,1.39c-.11.16-.21.23-.32.23s-.07,0-.07-.07v-.78a.45.45,0,0,0-.14-.33.44.44,0,0,0-.33-.13h-5.5a.44.44,0,0,0-.33.13.42.42,0,0,0-.14.33v19.12a.42.42,0,0,0,.14.33.45.45,0,0,0,.33.14h5.5a.48.48,0,0,0,.47-.47v-12.6a2.12,2.12,0,0,1,.35-1.32,1.19,1.19,0,0,1,1-.47c.82,0,1.24.58,1.24,1.75v12.64a.44.44,0,0,0,.13.33.45.45,0,0,0,.33.14h5.51a.45.45,0,0,0,.33-.14.44.44,0,0,0,.13-.33V558.28a8.35,8.35,0,0,0-1.32-5A4.71,4.71,0,0,0,1082.42,551.46Z"/></svg>