<?xml version="1.0" encoding="UTF-8"?>
<svg id="Layer_1" data-name="Layer 1" xmlns="http://www.w3.org/2000/svg" xmlns:xlink="http://www.w3.org/1999/xlink" viewBox="0 0 1600 900">
  <defs>
    <style>
      .cls-1 {
        fill: none;
      }

      .cls-2 {
        fill: #195c7d;
      }

      .cls-3 {
        fill: #7c878e;
      }
    </style>
    <symbol id="Logo_Color" data-name="Logo Color" viewBox="0 0 457.15 139.62">
      <g>
        <use width="156.87" height="139.62" xlink:href="#Logomark_Color"/>
        <g>
          <path class="cls-2" d="M156.9,41.09v-22.74h14.56v3.43h-10.48v6.82h9.46v3.39h-9.46v9.09h-4.07Z"/>
          <path class="cls-2" d="M185,41.39c-1.99,0-3.78-.46-5.36-1.39s-2.82-2.26-3.73-4c-.91-1.74-1.37-3.83-1.37-6.27s.46-4.55,1.37-6.29c.91-1.75,2.15-3.08,3.73-4.01s3.36-1.39,5.36-1.39,3.76.46,5.33,1.39c1.57.93,2.81,2.26,3.72,4.01.91,1.74,1.37,3.84,1.37,6.29s-.46,4.53-1.37,6.28c-.91,1.74-2.15,3.08-3.72,4-1.57.92-3.35,1.38-5.33,1.38ZM185,37.75c1.23,0,2.32-.31,3.27-.92s1.7-1.52,2.24-2.72.81-2.65.81-4.37-.27-3.21-.81-4.4-1.28-2.1-2.24-2.72-2.04-.92-3.27-.92-2.34.31-3.29.93c-.96.62-1.71,1.53-2.25,2.72-.54,1.2-.82,2.66-.82,4.39s.27,3.17.82,4.36c.54,1.19,1.29,2.1,2.25,2.72.96.62,2.05.93,3.29.93Z"/>
          <path class="cls-2" d="M208.5,41.42c-1.85,0-3.47-.35-4.85-1.05-1.38-.7-2.46-1.66-3.22-2.9-.76-1.24-1.14-2.66-1.14-4.28v-14.85h4.07v14.51c0,.95.21,1.79.63,2.53s1.02,1.33,1.79,1.75c.77.42,1.68.63,2.72.63s1.96-.21,2.72-.63c.77-.42,1.36-1,1.79-1.75.42-.74.63-1.59.63-2.53v-14.51h4.07v14.85c0,1.62-.38,3.04-1.15,4.28-.77,1.24-1.84,2.2-3.22,2.9-1.38.7-2.99,1.05-4.84,1.05Z"/>
          <path class="cls-2" d="M222.28,41.09v-22.74h4.61l7.86,12.53c.33.52.67,1.11,1.04,1.76.37.66.75,1.39,1.14,2.2.4.81.79,1.71,1.17,2.69h-.46c-.07-.85-.13-1.73-.19-2.63-.06-.9-.1-1.75-.12-2.56s-.04-1.49-.04-2.05v-11.93h4.13v22.74h-4.62l-7.1-11.28c-.45-.72-.87-1.43-1.27-2.14-.4-.7-.82-1.5-1.28-2.38-.46-.88-1.01-1.95-1.66-3.2h.58c.06,1.11.12,2.16.17,3.15.05.99.09,1.88.13,2.66.04.78.05,1.41.05,1.89v11.29h-4.15Z"/>
          <path class="cls-2" d="M250.08,18.35v22.74h-4.07v-22.74h4.07ZM253.7,41.09h-5.75v-3.52h5.55c1.59,0,2.91-.29,3.97-.88,1.06-.58,1.86-1.46,2.4-2.62s.81-2.62.81-4.37-.27-3.17-.81-4.33c-.54-1.16-1.33-2.03-2.37-2.61-1.04-.58-2.34-.87-3.9-.87h-5.78v-3.52h6.03c2.26,0,4.2.45,5.81,1.36,1.62.91,2.86,2.21,3.73,3.91.87,1.7,1.3,3.72,1.3,6.07s-.43,4.41-1.3,6.11c-.87,1.7-2.13,3.01-3.77,3.92-1.64.91-3.62,1.37-5.93,1.37Z"/>
          <path class="cls-2" d="M265.81,41.09l7.93-22.74h5.17l8.12,22.74h-4.47l-4.04-11.81c-.4-1.22-.81-2.6-1.24-4.14-.43-1.54-.9-3.29-1.42-5.26h.85c-.51,1.98-.97,3.75-1.38,5.3-.41,1.55-.8,2.92-1.17,4.1l-3.91,11.81h-4.46ZM270.44,35.46v-3.28h11.98v3.28h-11.98Z"/>
          <path class="cls-2" d="M286.32,21.79v-3.43h18.1v3.43h-7v19.3h-4.07v-19.3h-7.02Z"/>
          <path class="cls-2" d="M306.91,41.09v-3.43h4.01v-15.87h-4.01v-3.43h12.08v3.43h-4v15.87h4v3.43h-12.08Z"/>
          <path class="cls-2" d="M332.23,41.39c-1.99,0-3.78-.46-5.36-1.39s-2.82-2.26-3.73-4c-.91-1.74-1.37-3.83-1.37-6.27s.46-4.55,1.37-6.29c.91-1.75,2.15-3.08,3.73-4.01s3.36-1.39,5.36-1.39,3.76.46,5.33,1.39c1.57.93,2.81,2.26,3.72,4.01.91,1.74,1.37,3.84,1.37,6.29s-.46,4.53-1.37,6.28c-.91,1.74-2.15,3.08-3.72,4-1.57.92-3.35,1.38-5.33,1.38ZM332.23,37.75c1.23,0,2.32-.31,3.27-.92s1.7-1.52,2.24-2.72.81-2.65.81-4.37-.27-3.21-.81-4.4-1.28-2.1-2.24-2.72-2.04-.92-3.27-.92-2.34.31-3.29.93c-.96.62-1.71,1.53-2.25,2.72-.54,1.2-.82,2.66-.82,4.39s.27,3.17.82,4.36c.54,1.19,1.29,2.1,2.25,2.72.96.62,2.05.93,3.29.93Z"/>
          <path class="cls-2" d="M346.52,41.09v-22.74h4.61l7.86,12.53c.33.52.67,1.11,1.04,1.76.37.66.75,1.39,1.14,2.2.4.81.79,1.71,1.17,2.69h-.46c-.07-.85-.13-1.73-.19-2.63-.06-.9-.1-1.75-.12-2.56s-.04-1.49-.04-2.05v-11.93h4.13v22.74h-4.62l-7.1-11.28c-.45-.72-.87-1.43-1.27-2.14-.4-.7-.82-1.5-1.28-2.38-.46-.88-1.01-1.95-1.66-3.2h.58c.06,1.11.12,2.16.17,3.15.05.99.09,1.88.13,2.66.04.78.05,1.41.05,1.89v11.29h-4.15Z"/>
          <path class="cls-2" d="M377.51,41.09v-14.95c0-.91.19-1.67.57-2.27.38-.6.89-1.06,1.54-1.36.65-.31,1.36-.46,2.13-.46.56,0,1.06.04,1.49.13.43.09.75.17.95.24l-.65,2.46c-.14-.04-.31-.08-.51-.13-.2-.04-.43-.07-.7-.07-.59,0-1.02.15-1.28.44-.26.29-.38.71-.38,1.25v14.71h-3.16ZM383.63,27.44v2.49h-4.63v-2.49h4.63Z"/>
          <path class="cls-2" d="M391.49,41.37c-1.33,0-2.48-.29-3.46-.89-.98-.59-1.73-1.41-2.26-2.47-.53-1.05-.8-2.28-.8-3.68s.27-2.66.8-3.72c.53-1.06,1.29-1.89,2.26-2.47s2.13-.88,3.46-.88,2.49.29,3.47.88,1.73,1.41,2.26,2.47c.53,1.06.8,2.3.8,3.72s-.27,2.63-.8,3.68c-.53,1.05-1.29,1.88-2.26,2.47-.98.59-2.13.89-3.47.89ZM391.49,38.79c.74,0,1.36-.2,1.85-.6.49-.4.86-.94,1.1-1.61.24-.68.36-1.43.36-2.26s-.12-1.59-.36-2.27-.61-1.21-1.1-1.61-1.11-.6-1.85-.6-1.35.2-1.84.6-.85.93-1.09,1.61c-.24.67-.36,1.43-.36,2.28s.12,1.58.36,2.26c.24.67.6,1.21,1.09,1.61.48.4,1.1.6,1.84.6Z"/>
          <path class="cls-2" d="M400.79,41.09v-13.65h3.08v2.28h.15c.24-.79.67-1.4,1.28-1.82.61-.43,1.31-.64,2.09-.64.18,0,.38,0,.6.02.22.02.41.04.56.06v2.92c-.13-.04-.34-.08-.63-.11s-.58-.05-.87-.05c-.59,0-1.11.13-1.58.38-.47.25-.83.6-1.1,1.04-.26.44-.4.95-.4,1.53v8.03h-3.17Z"/>
        </g>
        <g>
          <path class="cls-2" d="M156.95,85.31v-36.38h9.86v28.42h14.7v7.96h-24.56Z"/>
          <path class="cls-2" d="M200.85,85.8c-3.3,0-6.29-.72-8.97-2.15-2.68-1.43-4.8-3.54-6.36-6.31-1.56-2.78-2.34-6.17-2.34-10.19s.78-7.47,2.34-10.25,3.68-4.89,6.36-6.31c2.68-1.42,5.67-2.14,8.97-2.14s6.29.71,8.96,2.14c2.67,1.42,4.79,3.53,6.36,6.31,1.57,2.78,2.36,6.2,2.36,10.25s-.79,7.44-2.36,10.22c-1.57,2.78-3.69,4.88-6.36,6.3-2.67,1.42-5.66,2.14-8.96,2.14ZM200.85,77.2c1.64,0,3.02-.39,4.14-1.16,1.11-.77,1.96-1.91,2.53-3.41.57-1.5.85-3.33.85-5.49s-.29-4.02-.85-5.53c-.57-1.51-1.41-2.65-2.53-3.42-1.12-.77-2.5-1.16-4.14-1.16s-3,.39-4.11,1.16c-1.12.77-1.96,1.91-2.54,3.42-.58,1.5-.87,3.35-.87,5.53s.29,4,.87,5.49c.58,1.5,1.42,2.63,2.54,3.41,1.11.77,2.49,1.16,4.11,1.16Z"/>
          <path class="cls-2" d="M238.25,85.75c-3.12,0-5.86-.55-8.21-1.65-2.35-1.1-4.18-2.66-5.49-4.69-1.31-2.03-1.96-4.42-1.96-7.19v-23.29h9.86v22.46c0,1.14.25,2.14.76,3.02.5.87,1.19,1.55,2.06,2.05.87.5,1.87.74,2.99.74s2.15-.25,3.03-.74c.88-.5,1.57-1.18,2.08-2.05.5-.87.76-1.88.76-3.02v-22.46h9.86v23.29c0,2.77-.66,5.16-1.98,7.19-1.32,2.03-3.16,3.59-5.52,4.69-2.36,1.1-5.1,1.65-8.23,1.65Z"/>
          <path class="cls-2" d="M257.73,85.31v-7.96h6.32v-20.46h-6.32v-7.96h22.51v7.96h-6.32v20.46h6.32v7.96h-22.51Z"/>
          <path class="cls-2" d="M298.8,85.75c-3.16,0-5.91-.47-8.26-1.4-2.35-.94-4.18-2.38-5.48-4.33-1.3-1.95-1.96-4.45-1.98-7.5h9.38c.06,1.11.35,2.04.84,2.81.5.77,1.2,1.34,2.1,1.73.9.39,1.99.59,3.26.59,1.06,0,1.94-.13,2.66-.39.72-.26,1.26-.62,1.62-1.09.37-.46.55-1,.55-1.6,0-.55-.17-1.04-.53-1.45-.35-.41-.92-.79-1.72-1.13-.8-.34-1.87-.65-3.22-.93l-3.66-.78c-3.21-.68-5.73-1.85-7.58-3.5-1.85-1.65-2.77-3.9-2.77-6.75,0-2.31.63-4.33,1.88-6.07,1.25-1.73,2.98-3.08,5.19-4.05,2.21-.97,4.75-1.45,7.63-1.45s5.49.49,7.63,1.48c2.14.99,3.79,2.37,4.96,4.15,1.16,1.78,1.75,3.86,1.77,6.24h-9.47c-.08-1.19-.52-2.11-1.31-2.77-.79-.66-1.98-.99-3.58-.99-1.01,0-1.84.12-2.49.35-.65.24-1.13.57-1.44.99-.31.42-.46.9-.46,1.44,0,.57.17,1.07.5,1.5.33.43.86.8,1.59,1.12.72.32,1.66.6,2.79.84l2.98.63c2,.42,3.72.99,5.16,1.68,1.44.7,2.62,1.52,3.54,2.45.92.94,1.6,1.99,2.03,3.16.43,1.17.65,2.45.65,3.83,0,2.39-.59,4.42-1.77,6.09-1.18,1.67-2.87,2.93-5.07,3.8s-4.83,1.29-7.91,1.29Z"/>
          <path class="cls-2" d="M316.37,85.31v-7.96h6.32v-20.46h-6.32v-7.96h22.51v7.96h-6.32v20.46h6.32v7.96h-22.51Z"/>
          <path class="cls-2" d="M341.42,85.31l11.79-36.38h13.48l12.23,36.38h-11.18l-4.22-14.11c-.91-3.06-1.77-6.24-2.56-9.53-.8-3.3-1.55-6.57-2.27-9.83h2.25c-.68,3.26-1.38,6.53-2.08,9.83-.7,3.29-1.49,6.47-2.37,9.53l-4.03,14.11h-11.04ZM350.16,78.33v-7.37h20.02v7.37h-20.02Z"/>
          <path class="cls-2" d="M382.39,85.31v-36.38h10.74l8.67,14.28c.75,1.24,1.45,2.47,2.1,3.71.65,1.24,1.28,2.6,1.89,4.09.61,1.49,1.23,3.23,1.87,5.21h-.85c-.08-1.32-.18-2.84-.3-4.58-.12-1.73-.23-3.44-.33-5.13-.1-1.68-.15-3.1-.15-4.26v-13.33h10.16v36.38h-10.74l-8.08-13.28c-.91-1.51-1.71-2.93-2.41-4.24-.69-1.31-1.36-2.7-2-4.16-.64-1.46-1.38-3.16-2.21-5.08h1.03c.13,1.71.26,3.41.38,5.1.12,1.69.22,3.26.29,4.71.07,1.45.11,2.67.11,3.66v13.28h-10.16Z"/>
          <path class="cls-2" d="M419.65,85.31l11.79-36.38h13.48l12.23,36.38h-11.18l-4.22-14.11c-.91-3.06-1.77-6.24-2.56-9.53-.8-3.3-1.55-6.57-2.27-9.83h2.25c-.68,3.26-1.38,6.53-2.08,9.83-.7,3.29-1.49,6.47-2.37,9.53l-4.03,14.11h-11.04ZM428.39,78.33v-7.37h20.02v7.37h-20.02Z"/>
        </g>
        <g>
          <path class="cls-2" d="M166.59,117.42c-1.99,0-3.77-.46-5.34-1.39s-2.8-2.26-3.71-4-1.36-3.83-1.36-6.27.46-4.55,1.37-6.29c.91-1.75,2.15-3.08,3.72-4.01,1.57-.93,3.34-1.39,5.32-1.39,1.24,0,2.4.18,3.49.53,1.08.35,2.05.87,2.9,1.54.85.68,1.55,1.5,2.1,2.48.55.98.92,2.09,1.1,3.33h-4.1c-.13-.68-.36-1.28-.68-1.8s-.72-.96-1.2-1.32c-.48-.36-1.02-.63-1.62-.82-.6-.19-1.24-.28-1.92-.28-1.24,0-2.34.31-3.3.94-.96.62-1.71,1.54-2.26,2.73-.54,1.2-.82,2.65-.82,4.37s.27,3.2.82,4.39c.55,1.19,1.3,2.09,2.27,2.7s2.05.92,3.27.92c.68,0,1.32-.09,1.92-.28.6-.19,1.14-.46,1.62-.82.48-.36.89-.8,1.21-1.33.33-.52.55-1.12.67-1.79h4.12c-.15,1.09-.49,2.11-1,3.06s-1.19,1.79-2.02,2.51c-.83.72-1.8,1.29-2.91,1.69-1.1.41-2.33.61-3.67.61Z"/>
          <path class="cls-2" d="M189.66,117.42c-1.99,0-3.78-.46-5.36-1.39s-2.82-2.26-3.73-4c-.91-1.74-1.37-3.83-1.37-6.27s.46-4.55,1.37-6.29c.91-1.75,2.15-3.08,3.73-4.01s3.36-1.39,5.36-1.39,3.76.46,5.33,1.39c1.57.93,2.81,2.26,3.72,4.01.91,1.74,1.37,3.84,1.37,6.29s-.46,4.53-1.37,6.28c-.91,1.74-2.15,3.08-3.72,4-1.57.92-3.35,1.38-5.33,1.38ZM189.66,113.77c1.23,0,2.32-.31,3.27-.92s1.7-1.52,2.24-2.72.81-2.65.81-4.37-.27-3.21-.81-4.4-1.28-2.1-2.24-2.72-2.04-.92-3.27-.92-2.34.31-3.29.93c-.96.62-1.71,1.53-2.25,2.72-.54,1.2-.82,2.66-.82,4.39s.27,3.17.82,4.36c.54,1.19,1.29,2.1,2.25,2.72.96.62,2.05.93,3.29.93Z"/>
          <path class="cls-2" d="M203.94,117.11v-22.74h4.61l7.86,12.53c.33.52.67,1.11,1.04,1.76.37.66.75,1.39,1.14,2.2.4.81.79,1.71,1.17,2.69h-.46c-.07-.85-.13-1.73-.19-2.63-.06-.9-.1-1.75-.12-2.56s-.04-1.49-.04-2.05v-11.93h4.13v22.74h-4.62l-7.1-11.28c-.45-.72-.87-1.43-1.27-2.14-.4-.7-.82-1.5-1.28-2.38-.46-.88-1.01-1.95-1.66-3.2h.58c.06,1.11.12,2.16.17,3.15.05.99.09,1.88.13,2.66.04.78.05,1.41.05,1.89v11.29h-4.15Z"/>
          <path class="cls-2" d="M237.36,117.42c-1.99,0-3.77-.46-5.34-1.39s-2.8-2.26-3.71-4-1.36-3.83-1.36-6.27.46-4.55,1.37-6.29c.91-1.75,2.15-3.08,3.72-4.01,1.57-.93,3.34-1.39,5.32-1.39,1.24,0,2.4.18,3.49.53,1.08.35,2.05.87,2.9,1.54.85.68,1.55,1.5,2.1,2.48.55.98.92,2.09,1.1,3.33h-4.1c-.13-.68-.36-1.28-.68-1.8s-.72-.96-1.2-1.32c-.48-.36-1.02-.63-1.62-.82-.6-.19-1.24-.28-1.92-.28-1.24,0-2.34.31-3.3.94-.96.62-1.71,1.54-2.26,2.73-.54,1.2-.82,2.65-.82,4.37s.27,3.2.82,4.39c.55,1.19,1.3,2.09,2.27,2.7s2.05.92,3.27.92c.68,0,1.32-.09,1.92-.28.6-.19,1.14-.46,1.62-.82.48-.36.89-.8,1.21-1.33.33-.52.55-1.12.67-1.79h4.12c-.15,1.09-.49,2.11-1,3.06s-1.19,1.79-2.02,2.51c-.83.72-1.8,1.29-2.91,1.69-1.1.41-2.33.61-3.67.61Z"/>
          <path class="cls-2" d="M250.69,117.11v-22.74h8.5c1.74,0,3.2.3,4.39.92s2.09,1.46,2.7,2.56c.61,1.09.92,2.36.92,3.81s-.31,2.7-.92,3.77c-.62,1.07-1.52,1.89-2.72,2.47-1.2.58-2.68.87-4.43.87h-6.07v-3.37h5.54c1.03,0,1.87-.14,2.52-.43.65-.29,1.13-.71,1.45-1.27s.47-1.24.47-2.03-.16-1.51-.47-2.08c-.32-.57-.8-1.01-1.46-1.32-.66-.31-1.5-.46-2.54-.46h-3.8v19.32h-4.07ZM263.48,117.11l-5.52-10.31h4.46l5.63,10.31h-4.56Z"/>
          <path class="cls-2" d="M271.08,117.11v-22.74h14.77v3.43h-10.7v6.13h9.9v3.39h-9.9v6.35h10.76v3.43h-14.83Z"/>
          <path class="cls-2" d="M288.98,97.81v-3.43h18.1v3.43h-7v19.3h-4.07v-19.3h-7.02Z"/>
          <path class="cls-2" d="M310.63,117.11v-22.74h14.77v3.43h-10.7v6.13h9.9v3.39h-9.9v6.35h10.76v3.43h-14.83Z"/>
        </g>
        <g>
          <path class="cls-2" d="M338.75,117.11v-13.64h2.44v11.58h6.02v2.06h-8.47Z"/>
          <path class="cls-2" d="M349.35,117.11v-13.64h2.44v11.58h6.02v2.06h-8.47Z"/>
          <path class="cls-2" d="M365.24,117.3c-1.2,0-2.26-.28-3.2-.83-.94-.55-1.68-1.35-2.22-2.4s-.81-2.3-.81-3.76.27-2.73.82-3.78c.55-1.05,1.29-1.85,2.23-2.4.94-.56,2.01-.83,3.19-.83.75,0,1.44.11,2.09.32.65.21,1.23.52,1.74.92s.93.9,1.26,1.49c.33.59.55,1.25.66,2h-2.46c-.08-.41-.21-.77-.41-1.08s-.43-.58-.72-.79-.61-.38-.97-.49-.74-.17-1.15-.17c-.75,0-1.41.19-1.98.56-.58.38-1.03.92-1.35,1.64-.33.72-.49,1.59-.49,2.62s.17,1.92.49,2.64c.33.71.78,1.25,1.36,1.62.58.37,1.23.55,1.96.55.41,0,.79-.06,1.15-.17.36-.11.68-.28.97-.49s.53-.48.73-.8.33-.67.4-1.08h2.47c-.09.65-.29,1.26-.6,1.84-.31.57-.71,1.07-1.21,1.51-.5.43-1.08.77-1.74,1.02-.66.24-1.4.37-2.2.37Z"/>
        </g>
        <path class="cls-3" d="M456.28,123H157.76c-.66,0-1.08.71-.76,1.29l7.81,14.06c.44.79,1.28,1.29,2.19,1.29h280.03c.91,0,1.74-.49,2.19-1.29l7.81-14.06c.32-.58-.1-1.29-.76-1.29Z"/>
      </g>
    </symbol>
    <symbol id="Logomark_Color" data-name="Logomark Color" viewBox="0 0 156.87 139.62">
      <g>
        <path class="cls-3" d="M13.04,115.55L63,26.77c.48-.85,1.7-.85,2.18,0l12.23,21.73,13.12,23.31c.21.38.21.85,0,1.23l-11.34,20.14c-.48.85-1.7.85-2.18,0l-11.29-20.05c-.48-.85-1.7-.85-2.18,0l-24.57,43.65c-.22.39-.64.64-1.09.64H14.12c-.96,0-1.56-1.03-1.09-1.86Z"/>
        <path class="cls-3" d="M92.01,66.37c.48.85,1.7.85,2.18,0l10.96-19.47c.21-.38.21-.84,0-1.23L79.89.64c-.48-.85-1.7-.85-2.18,0l-10.96,19.47c-.21.38-.21.84,0,1.23l25.26,45.04Z"/>
        <path class="cls-2" d="M71.98,117.41h71.5c.96,0,1.56-1.03,1.09-1.86l-9.15-16.26c-.22-.39-.64-.64-1.09-.64h-27.77c-.96,0-1.56-1.03-1.09-1.86l13.93-24.75c.21-.38.21-.85,0-1.23l-10.57-18.78c-.48-.85-1.7-.85-2.18,0l-35.75,63.52c-.47.83.13,1.86,1.09,1.86Z"/>
        <path class="cls-3" d="M156.66,137.05l-7.05-13.13c-.3-.57-.9-.92-1.54-.92H9.37c-.62,0-1.2.33-1.51.87L.24,137c-.68,1.17.16,2.63,1.51,2.63h153.37c1.32,0,2.17-1.41,1.54-2.58Z"/>
      </g>
    </symbol>
  </defs>
  <rect class="cls-1" width="1600.32" height="900"/>
  <use width="457.15" height="139.62" transform="translate(226.7 274.9) scale(2.51)" xlink:href="#Logo_Color"/>
</svg>