<?xml version="1.0" encoding="UTF-8"?>
<svg id="Layer_1" data-name="Layer 1" xmlns="http://www.w3.org/2000/svg" viewBox="0 0 1600 900">
  <defs>
    <style>
      .cls-1 {
        fill: none;
      }

      .cls-2 {
        fill: #b2a97e;
      }

      .cls-3 {
        fill: #3b6e8f;
      }
    </style>
  </defs>
  <path class="cls-2" d="M343.04,338.2l-99.39,72.51,113.35,85.53,113.09-85.5-99.58-71.6v-35.25l148.85,97.73v130.47l-49.27,38.35v-97.62l-52.83,44.43v94.29l-60.15,46.78-60.64-48.24v-92.84l-52.83-44.43v95.25l-45.23-35.98v-129.04l144.62-99.16v34.32ZM310.04,418.56c0-25.79,20.91-46.7,46.71-46.7s46.7,20.91,46.7,46.7-20.9,46.69-46.7,46.69-46.71-20.9-46.71-46.69M175,346.24c0-18.98,15.38-34.36,34.36-34.36s34.35,15.38,34.35,34.36-15.37,34.35-34.35,34.35-34.36-15.39-34.36-34.35M477.76,346.24c0-18.98,15.38-34.36,34.35-34.36s34.35,15.38,34.35,34.36-15.39,34.35-34.35,34.35-34.35-15.39-34.35-34.35M329.67,269.55c0-14.96,12.13-27.08,27.08-27.08s27.06,12.12,27.06,27.08-12.11,27.05-27.06,27.05-27.08-12.11-27.08-27.05"/>
  <polygon class="cls-3" points="663.05 505.29 663.05 413.51 662.8 413.51 631.16 505.29 615.58 505.29 583.96 415.63 583.7 415.63 583.7 505.29 568.69 505.29 568.69 398.11 593.8 398.11 624.79 485.54 625.09 485.57 655.23 398.11 681.05 398.11 681.05 505.29 663.05 505.29"/>
  <path class="cls-3" d="M709.53,460.26c0,2.73.26,5.53.8,8.41.52,2.87,1.3,5.7,2.34,8.44,1.02,2.76,2.33,5.36,3.92,7.8,1.57,2.45,3.39,4.6,5.48,6.45,2.12,1.84,4.46,3.31,7.08,4.39,2.58,1.09,5.46,1.63,8.61,1.63,2.52,0,4.97-.32,7.35-.95,2.37-.63,4.74-1.4,7.12-2.31v7.76c-2.23.95-4.26,1.75-6.11,2.41-1.84.66-3.69,1.2-5.53,1.6-1.85.4-3.76.7-5.74.87-1.97.18-4.15.27-6.6.27-6.47,0-12.05-1.05-16.74-3.19-4.71-2.13-8.6-5.07-11.69-8.84-3.07-3.78-5.36-8.22-6.85-13.36-1.48-5.13-2.24-10.71-2.24-16.73,0-5.52.65-10.47,1.9-14.85,1.26-4.36,3.24-8.07,5.91-11.11,2.68-3.05,6.08-5.35,10.22-6.95,4.14-1.6,9.1-2.39,14.85-2.39,4.56,0,8.69.55,12.38,1.67,3.69,1.1,6.84,2.8,9.44,5.09,2.63,2.28,4.64,5.17,6.03,8.67,1.43,3.5,2.14,7.64,2.14,12.39v2.82h-44.08ZM734.76,446.79c-.48-1.86-1.23-3.52-2.25-5-1.01-1.47-2.28-2.66-3.86-3.55-1.58-.89-3.45-1.33-5.61-1.33s-4.06.46-5.66,1.37c-1.6.92-2.93,2.12-4.02,3.59-1.1,1.48-1.96,3.14-2.59,4.99-.64,1.85-1.05,3.74-1.25,5.67h25.95c0-1.97-.24-3.9-.72-5.74"/>
  <path class="cls-3" d="M797.75,450.05c-3.15.74-5.79,2-7.88,3.8-2.11,1.79-3.67,4.18-4.74,7.17-1.06,2.98-1.59,6.7-1.59,11.16v33.1h-18.79v-74h18.79v18.53h.32c1.41-2.69,2.87-5.21,4.43-7.57,1.55-2.34,3.29-4.43,5.24-6.25,1.94-1.82,4.16-3.29,6.66-4.4,2.5-1.11,5.4-1.78,8.68-1.98v19.39c-4.23-.03-7.94.3-11.11,1.04"/>
  <path class="cls-3" d="M855.82,456.3v-3.26c0-1.66-.06-3.44-.23-5.33-.15-1.9-.51-3.64-1.12-5.24-.6-1.58-1.53-2.91-2.76-3.96-1.24-1.06-2.99-1.6-5.21-1.6-2.47,0-4.52.8-6.11,2.39-1.57,1.59-2.83,3.54-3.74,5.85-.92,2.3-1.55,4.71-1.9,7.25-.35,2.53-.52,4.72-.52,6.59,0,2.64.21,5.4.63,8.32.44,2.9,1.12,5.78,2.03,8.61.9,2.83,2.07,5.55,3.49,8.16,1.4,2.61,3.09,4.9,5.08,6.86,1.95,1.97,4.2,3.54,6.74,4.71,2.52,1.16,5.37,1.74,8.56,1.74,2.54,0,5-.25,7.43-.76,2.45-.49,4.83-1.17,7.21-2.04v7.9c-2.05.76-3.98,1.41-5.82,1.97-1.84.56-3.7,1.02-5.54,1.4-1.85.38-3.72.67-5.63.89-1.88.2-3.89.29-6.01.29-6.52,0-12.19-1.01-17.03-3.03-4.83-2.03-8.84-4.85-12.04-8.5-3.16-3.64-5.54-8.02-7.12-13.14-1.57-5.11-2.34-10.77-2.34-16.99,0-5.47.66-10.4,2.01-14.81,1.35-4.4,3.41-8.15,6.14-11.27,2.76-3.11,6.24-5.5,10.44-7.16,4.19-1.67,9.11-2.51,14.79-2.51,4.69,0,8.85.46,12.4,1.41,3.56.92,6.54,2.46,8.96,4.58,2.4,2.13,4.18,4.87,5.4,8.27,1.22,3.38,1.84,7.52,1.84,12.42h-20.04Z"/>
  <path class="cls-3" d="M903.42,460.26c0,2.73.26,5.53.78,8.41.53,2.87,1.34,5.7,2.37,8.44,1.02,2.76,2.34,5.36,3.9,7.8,1.58,2.45,3.4,4.6,5.5,6.45,2.1,1.84,4.46,3.31,7.06,4.39,2.61,1.09,5.48,1.63,8.61,1.63,2.54,0,5-.32,7.36-.95,2.38-.63,4.76-1.4,7.13-2.31v7.76c-2.24.95-4.26,1.75-6.11,2.41-1.86.66-3.68,1.2-5.55,1.6-1.82.4-3.74.7-5.71.87-1.97.18-4.18.27-6.6.27-6.48,0-12.07-1.05-16.77-3.19-4.71-2.13-8.58-5.07-11.66-8.84-3.1-3.78-5.36-8.22-6.87-13.36-1.48-5.13-2.23-10.71-2.23-16.73,0-5.52.62-10.47,1.89-14.85,1.27-4.36,3.24-8.07,5.89-11.11,2.69-3.05,6.09-5.35,10.25-6.95,4.11-1.6,9.07-2.39,14.85-2.39,4.55,0,8.67.55,12.38,1.67,3.67,1.1,6.82,2.8,9.44,5.09,2.62,2.28,4.62,5.17,6.02,8.67,1.41,3.5,2.13,7.64,2.13,12.39v2.82h-44.08ZM928.64,446.79c-.49-1.86-1.24-3.52-2.22-5-1.03-1.47-2.32-2.66-3.9-3.55-1.56-.89-3.43-1.33-5.61-1.33s-4.07.46-5.65,1.37c-1.58.92-2.92,2.12-4.02,3.59-1.07,1.48-1.94,3.14-2.57,4.99-.64,1.85-1.05,3.74-1.25,5.67h25.94c0-1.97-.25-3.9-.72-5.74"/>
  <path class="cls-3" d="M990.09,450.05c-3.15.74-5.81,2-7.89,3.8-2.1,1.79-3.67,4.18-4.72,7.17-1.07,2.98-1.6,6.7-1.6,11.16v33.1h-18.79v-74h18.79v18.53h.29c1.44-2.69,2.91-5.21,4.46-7.57,1.54-2.34,3.28-4.43,5.23-6.25,1.94-1.82,4.17-3.29,6.67-4.4,2.51-1.11,5.41-1.78,8.7-1.98v19.39c-4.26-.03-7.96.3-11.12,1.04"/>
  <path class="cls-3" d="M1122.83,450.15c0,3.48-.13,7.04-.41,10.65-.28,3.61-.76,7.14-1.48,10.58-.7,3.45-1.69,6.75-2.96,9.95-1.27,3.18-2.9,6.12-4.89,8.84-1.99,2.7-4.4,5.12-7.21,7.23-2.81,2.13-6.1,3.81-9.91,5.1-3.33,1.15-6.81,1.91-10.43,2.26-3.61.35-7.2.53-10.73.53h-28.7v-107.18h28.7c8.89,0,16.41,1.12,22.54,3.37,6.12,2.25,11.07,5.57,14.84,9.95,3.74,4.36,6.47,9.8,8.14,16.27,1.68,6.47,2.5,13.95,2.5,22.46M1101.42,450.15c0-3.44-.05-6.82-.15-10.14-.1-3.31-.41-6.43-.92-9.37-.48-2.93-1.3-5.64-2.38-8.11-1.09-2.48-2.62-4.62-4.6-6.42-1.95-1.79-4.46-3.2-7.48-4.21-3.05-1-6.74-1.51-11.08-1.51h-8.33v81.98h8.34c4.21,0,7.79-.48,10.77-1.44,2.99-.96,5.49-2.42,7.51-4.37,2.01-1.94,3.6-4.4,4.78-7.36,1.16-2.95,2.02-6.43,2.56-10.42.4-3.14.68-6.25.78-9.34.15-3.08.2-6.18.2-9.31"/>
  <path class="cls-3" d="M1198.08,468.34c0,5.83-.6,11.1-1.79,15.86-1.18,4.75-3.11,8.83-5.8,12.21-2.67,3.39-6.19,6.01-10.55,7.86-4.35,1.84-9.64,2.76-15.92,2.76s-11.57-.92-15.94-2.76c-4.34-1.85-7.87-4.47-10.54-7.86-2.68-3.39-4.64-7.46-5.83-12.21-1.23-4.76-1.84-10.04-1.84-15.86s.61-11.13,1.84-15.9c1.19-4.78,3.15-8.86,5.83-12.23,2.67-3.36,6.2-5.96,10.54-7.81,4.37-1.84,9.67-2.77,15.94-2.77s11.57.93,15.92,2.77c4.36,1.85,7.88,4.46,10.55,7.81,2.69,3.38,4.62,7.45,5.8,12.23,1.19,4.77,1.79,10.09,1.79,15.9M1177.64,458.8c-.05-1.99-.21-3.96-.49-5.98-.28-1.99-.69-3.95-1.25-5.86-.56-1.94-1.35-3.63-2.39-5.11-1.04-1.46-2.31-2.67-3.86-3.57-1.53-.9-3.4-1.37-5.63-1.37s-4.01.44-5.52,1.33c-1.52.9-2.79,2.09-3.83,3.58-1.03,1.49-1.85,3.19-2.44,5.09-.57,1.9-1.01,3.85-1.31,5.85-.29,2.01-.5,3.99-.58,5.93-.06,1.94-.09,3.71-.09,5.29v8.74c0,1.57.03,3.33.09,5.27.08,1.97.27,3.94.52,5.93.29,2,.73,3.95,1.31,5.85.57,1.9,1.4,3.6,2.43,5.1s2.3,2.69,3.82,3.57c1.51.9,3.39,1.32,5.6,1.32s4.1-.44,5.63-1.35c1.55-.92,2.82-2.12,3.86-3.58,1.04-1.48,1.83-3.17,2.39-5.1.56-1.93.97-3.88,1.25-5.89.28-2.01.44-3.99.49-5.96.05-1.98.09-3.75.09-5.31v-8.43c0-1.57-.04-3.36-.09-5.32"/>
  <polygon class="cls-3" points="1281.48 505.29 1265.32 505.29 1250.32 460.21 1250.01 460.21 1236.43 505.29 1220.44 505.29 1201.68 431.29 1218.89 431.29 1230.9 484.13 1231.19 484.1 1245.76 431.29 1255.55 431.29 1271.56 483.07 1271.85 483.06 1282.48 431.29 1297.95 431.29 1281.48 505.29"/>
  <path class="cls-3" d="M1349.17,505.29v-46.13c0-1.47-.03-3.12-.09-4.97-.04-1.86-.33-3.59-.83-5.24-.52-1.65-1.31-3.02-2.4-4.15-1.1-1.11-2.69-1.65-4.85-1.65-2.3,0-4.34.57-6.02,1.74-1.7,1.16-3.16,2.69-4.38,4.6-1.22,1.9-2.2,4.04-2.97,6.41-.76,2.38-1.35,4.79-1.78,7.25-.44,2.45-.74,4.83-.92,7.14-.17,2.29-.27,4.28-.27,5.94v29.07h-18.77v-74h18.77v16.63h.27c1.28-2.59,2.67-5,4.18-7.25,1.53-2.25,3.28-4.18,5.25-5.81,1.95-1.62,4.15-2.89,6.6-3.83,2.43-.95,5.22-1.41,8.37-1.41,3.85,0,7,.67,9.42,2.01,2.42,1.34,4.34,3.15,5.7,5.43,1.36,2.28,2.3,4.91,2.76,7.88.49,2.99.73,6.1.73,9.35v50.99h-18.77Z"/>
  <path class="cls-3" d="M1425,484.81c0,4.15-.81,7.64-2.43,10.47-1.62,2.84-3.74,5.13-6.41,6.87-2.63,1.74-5.69,3-9.1,3.76-3.4.75-6.9,1.13-10.5,1.13-3.29,0-6.54-.27-9.77-.8-3.22-.53-6.46-1.25-9.63-2.16v-16.84c1.36,1.2,2.79,2.35,4.32,3.45,1.51,1.08,3.1,2.04,4.77,2.87,1.67.83,3.39,1.49,5.17,1.98,1.77.47,3.59.71,5.45.71,1.17,0,2.4-.11,3.7-.33,1.28-.24,2.47-.64,3.57-1.22,1.07-.58,1.98-1.35,2.67-2.27.71-.93,1.07-2.14,1.07-3.61,0-1.21-.42-2.43-1.22-3.63-.8-1.22-1.85-2.42-3.15-3.6-1.28-1.2-2.73-2.35-4.35-3.46s-3.22-2.18-4.78-3.19c-1.58-1-3.04-1.95-4.41-2.83-1.37-.89-2.47-1.7-3.33-2.4-1.63-1.26-3.04-2.53-4.29-3.79-1.24-1.26-2.3-2.6-3.17-4.02-.83-1.43-1.48-2.98-1.95-4.68-.46-1.68-.68-3.59-.68-5.72,0-3.85.73-7.15,2.18-9.91,1.47-2.77,3.43-5.02,5.85-6.79,2.42-1.76,5.22-3.07,8.43-3.91,3.19-.84,6.5-1.25,9.92-1.25,2.98,0,5.89.28,8.72.84,2.84.56,5.66,1.18,8.49,1.9v15.41c-1.24-1.06-2.58-2.12-3.97-3.15-1.37-1.03-2.83-1.95-4.31-2.73-1.48-.79-3.05-1.42-4.66-1.9-1.62-.47-3.29-.72-4.99-.72-1.05,0-2.14.13-3.22.37-1.08.26-2.08.67-2.96,1.21-.87.57-1.61,1.29-2.15,2.17-.56.89-.83,1.96-.83,3.23,0,1.16.4,2.33,1.2,3.53.82,1.18,1.84,2.36,3.11,3.52,1.26,1.16,2.68,2.28,4.29,3.37,1.57,1.1,3.16,2.12,4.67,3.12,1.55.99,2.99,1.92,4.38,2.8,1.36.9,2.44,1.65,3.25,2.32,1.71,1.36,3.25,2.75,4.6,4.13,1.38,1.4,2.53,2.84,3.51,4.4.94,1.55,1.68,3.23,2.17,5.09.51,1.85.77,3.94.77,6.26"/>
  <path class="cls-3" d="M1072.87,562.54l-2.48-2.43c-1.8,1.13-3.79,1.99-5.97,2.53-2.2.56-4.61.83-7.24.83-4.02,0-7.23-.92-9.68-2.81-2.45-1.89-3.68-4.35-3.68-7.37,0-2.5.76-4.6,2.33-6.31,1.52-1.71,3.66-2.81,6.35-3.27-.87-.59-1.56-1.32-2-2.21-.45-.88-.69-1.87-.69-2.95,0-2.47,1.09-4.37,3.27-5.69,2.19-1.31,5.3-1.97,9.39-1.97s7.42.67,9.72,2.01c2.28,1.35,3.44,3.23,3.44,5.65,0,1.88-.66,3.39-1.98,4.52-1.3,1.14-3.22,1.84-5.69,2.13l5.25,4.65c1.11-.7,2.21-1.55,3.32-2.56,1.1-1.01,2.13-2.16,3.13-3.48l5.27,4.68c-.82,1.13-1.72,2.19-2.7,3.22-.99,1.03-2.13,2.04-3.37,3.03l8.63,7.82h-14.62ZM1064.81,555l-7.11-6.52c-.73.4-1.24.89-1.59,1.46-.34.56-.52,1.2-.52,1.92,0,1.19.51,2.2,1.53,3.07,1,.85,2.26,1.27,3.72,1.27.68,0,1.33-.1,1.99-.29.66-.2,1.32-.5,1.98-.91M1063.29,541.05c.95-.33,1.67-.7,2.16-1.17.49-.46.74-.97.74-1.55s-.25-1-.74-1.35c-.49-.33-1.15-.5-2-.5s-1.49.14-1.97.42c-.46.27-.7.68-.7,1.21,0,.47.21.94.64,1.44.42.48,1.04.98,1.87,1.5"/>
  <path class="cls-3" d="M1136.88,544.5c-.21-1.93-.89-3.39-2.05-4.39-1.18-1.01-2.74-1.51-4.76-1.51-2.58,0-4.57.73-5.93,2.17-1.35,1.44-2.05,3.52-2.05,6.25s.7,4.76,2.05,6.19c1.38,1.43,3.35,2.14,5.94,2.14,1.85,0,3.37-.41,4.51-1.27,1.14-.85,1.9-2.11,2.25-3.78h13.9c-.63,4.31-2.7,7.57-6.18,9.76-3.51,2.2-8.33,3.3-14.48,3.3-6.93,0-12.14-1.37-15.66-4.12-3.5-2.76-5.28-6.82-5.28-12.21s1.78-9.5,5.28-12.25c3.52-2.75,8.73-4.13,15.65-4.13,6.45,0,11.45,1.2,14.97,3.59,3.53,2.38,5.39,5.82,5.62,10.28h-13.78Z"/>
  <path class="cls-3" d="M1154.27,547.01c0-5.41,1.77-9.5,5.28-12.25,3.53-2.75,8.74-4.13,15.64-4.13s12.13,1.39,15.66,4.13c3.52,2.76,5.27,6.84,5.27,12.25s-1.75,9.46-5.27,12.21c-3.53,2.75-8.74,4.12-15.66,4.12s-12.11-1.37-15.64-4.12c-3.51-2.76-5.28-6.82-5.28-12.21M1167.23,547.01c0,2.69.68,4.76,2.04,6.19,1.36,1.43,3.33,2.14,5.92,2.14s4.58-.71,5.93-2.14c1.36-1.43,2.05-3.5,2.05-6.19s-.69-4.81-2.05-6.25c-1.35-1.44-3.34-2.17-5.93-2.17s-4.56.73-5.92,2.17c-1.36,1.44-2.04,3.52-2.04,6.25"/>
  <polygon class="cls-3" points="1201.76 562.54 1201.76 531.44 1219.62 531.44 1224.89 550.39 1230.58 531.44 1248.21 531.44 1248.21 562.54 1237.02 562.54 1237.02 538.26 1229.62 562.54 1220.24 562.54 1212.91 538.26 1212.91 562.54 1201.76 562.54"/>
  <path class="cls-3" d="M1255.84,562.54v-31.11h23.24c4.41,0,7.79.89,10.21,2.65,2.39,1.74,3.58,4.24,3.58,7.44s-1.19,5.69-3.58,7.45c-2.42,1.75-5.8,2.63-10.21,2.63h-11.19v10.94h-12.05ZM1274.49,538.13h-6.6v6.69h6.6c1.94,0,3.3-.25,4.06-.75.74-.49,1.11-1.35,1.11-2.59s-.37-2.11-1.11-2.61c-.76-.49-2.12-.75-4.06-.75"/>
  <path class="cls-3" d="M1292.54,562.54l13.48-31.11h15.29l12.55,31.11h-13.05l-1.01-3.06h-13.24l-1.12,3.06h-12.9ZM1309.4,551.8h7.72l-3.75-10.93-3.97,10.93Z"/>
  <polygon class="cls-3" points="1336.88 562.54 1336.88 531.44 1351.12 531.44 1363.13 549.36 1363.13 531.44 1374.79 531.44 1374.79 562.54 1361.27 562.54 1348.22 544.33 1348.22 562.54 1336.88 562.54"/>
  <polygon class="cls-3" points="1392.18 562.54 1392.18 553.75 1378.52 531.44 1392.7 531.44 1398.3 544.24 1404.26 531.44 1418.08 531.44 1404.26 553.75 1404.26 562.54 1392.18 562.54"/>
  <rect class="cls-1" x="0" width="1600.08" height="900.48"/>
</svg>