<svg id="Layer_1" data-name="Layer 1" xmlns="http://www.w3.org/2000/svg" xmlns:xlink="http://www.w3.org/1999/xlink" viewBox="0 0 1600.32 900.24"><defs><style>.cls-1{fill:none;}.cls-2{clip-path:url(#clip-path);}.cls-3,.cls-4{fill:#656669;}.cls-3{fill-rule:evenodd;}.cls-5{fill:#5a3c80;}</style><clipPath id="clip-path"><rect class="cls-1" width="1600.32" height="900.24"/></clipPath></defs><g class="cls-2"><polygon class="cls-3" points="1098.68 434.28 1022 434.28 1022 227.37 576.7 227.37 576.7 434.28 500.18 434.28 500.18 150.76 1098.68 150.76 1098.68 434.28"/><path class="cls-4" d="M509.33,739.36a75.63,75.63,0,0,1-7.85-1.19v-7.25a91.81,91.81,0,0,0,13.68,1.3,25.4,25.4,0,0,0,6.13-.59,7.81,7.81,0,0,0,3.87-2.26,7.93,7.93,0,0,0,1.9-4.46,55.73,55.73,0,0,0,.48-8.27,73.72,73.72,0,0,0-.42-9.76,5.58,5.58,0,0,0-1.9-3.74c-1-.76-2.88-1.41-5.65-2l-11.31-2.26a8.22,8.22,0,0,1-5.35-3.21,13.75,13.75,0,0,1-2.26-6.42,91.73,91.73,0,0,1-.48-10.59q0-12.13,4.35-17.37T519,656.08a65.79,65.79,0,0,1,8.69.54,31.42,31.42,0,0,1,5.71,1.13v7.14a45.26,45.26,0,0,0-5.48-.84q-3.45-.34-6.78-.35a21.42,21.42,0,0,0-6.9.89,7.55,7.55,0,0,0-3.8,2.8,11.21,11.21,0,0,0-1.55,4.52,51.51,51.51,0,0,0-.36,6.78,54.66,54.66,0,0,0,.42,8.09,6,6,0,0,0,1.54,3.51,8,8,0,0,0,3.87,1.49l10.11,2.14a19.6,19.6,0,0,1,6.67,2.55q2.37,1.6,3.68,5.66a13.87,13.87,0,0,1,.89,4.63c.12,2,.18,4.84.18,8.57q0,9.17-1.54,14.34a13.26,13.26,0,0,1-5.41,7.67q-3.87,2.49-11.25,2.5A79.41,79.41,0,0,1,509.33,739.36Z"/><path class="cls-4" d="M634.88,657v46.51q0,15.83-1.08,23t-5,10.23q-4,3.1-12.91,3.1t-13-3.1q-4-3.09-5-10.23t-1.07-23V657H605v50.79a146.21,146.21,0,0,0,.59,15.95q.6,4.76,2.8,6.6t7.43,1.84q5.24,0,7.44-1.84t2.79-6.6a145.52,145.52,0,0,0,.6-15.95V657Z"/><path class="cls-4" d="M665.57,668h-.72l-8,40.81h16.66Zm13.8,70.91-4.64-22.73h-19l-4.53,22.73h-8.33L659.62,657H671l16.66,81.85Z"/><path class="cls-4" d="M721.66,697a8.52,8.52,0,0,0,2.68-5.23,65.13,65.13,0,0,0,.59-10.12,63.75,63.75,0,0,0-.59-10,8.5,8.5,0,0,0-2.68-5.18c-1.39-1.18-3.55-1.78-6.48-1.78H704.59v34.14h10.59Q719.58,698.79,721.66,697Zm4.46,41.88-8.68-32.6H704.59v32.6h-8.33V657h19.87q7.62,0,11.3,3a13.8,13.8,0,0,1,4.76,8.09,68.12,68.12,0,0,1,1.07,13.5,57.09,57.09,0,0,1-1.54,14.75,11.9,11.9,0,0,1-6.67,8l9.64,34.5Z"/><polygon class="cls-4" points="744.92 738.89 744.92 657.04 776.09 657.04 776.09 664.65 753.25 664.65 753.25 693.68 773.24 693.68 773.24 701.29 753.25 701.29 753.25 731.27 776.09 731.27 776.09 738.89 744.92 738.89"/><polygon class="cls-4" points="814.63 738.89 814.63 664.77 800.12 664.77 800.12 657.04 837.36 657.04 837.36 664.77 822.84 664.77 822.84 738.89 814.63 738.89"/><polygon class="cls-4" points="875.31 738.89 875.31 701.41 853.78 701.41 853.78 738.89 845.45 738.89 845.45 657.04 853.78 657.04 853.78 693.56 875.31 693.56 875.31 657.04 883.64 657.04 883.64 738.89 875.31 738.89"/><polygon class="cls-4" points="896.96 738.89 896.96 657.04 928.13 657.04 928.13 664.65 905.29 664.65 905.29 693.68 925.28 693.68 925.28 701.29 905.29 701.29 905.29 731.27 928.13 731.27 928.13 738.89 896.96 738.89"/><path class="cls-4" d="M956.09,668h-.71l-8,40.81h16.66Zm13.8,70.91-4.64-22.73h-19l-4.52,22.73h-8.32L950.14,657h11.42l16.66,81.85Z"/><polygon class="cls-4" points="989.88 738.89 989.88 664.77 975.36 664.77 975.36 657.04 1012.6 657.04 1012.6 664.77 998.09 664.77 998.09 738.89 989.88 738.89"/><polygon class="cls-4" points="1020.69 738.89 1020.69 657.04 1051.86 657.04 1051.86 664.65 1029.01 664.65 1029.01 693.68 1049 693.68 1049 701.29 1029.01 701.29 1029.01 731.27 1051.86 731.27 1051.86 738.89 1020.69 738.89"/><path class="cls-4" d="M1087.15,697a8.52,8.52,0,0,0,2.68-5.23,65.13,65.13,0,0,0,.59-10.12,63.75,63.75,0,0,0-.59-10,8.5,8.5,0,0,0-2.68-5.18c-1.39-1.18-3.55-1.78-6.49-1.78h-10.58v34.14h10.58Q1085.07,698.79,1087.15,697Zm4.46,41.88-8.69-32.6h-12.84v32.6h-8.33V657h19.87q7.61,0,11.3,3a13.85,13.85,0,0,1,4.76,8.09,68.12,68.12,0,0,1,1.07,13.5,57,57,0,0,1-1.55,14.75,11.86,11.86,0,0,1-6.66,8l9.63,34.5Z"/><path class="cls-5" d="M1001.91,434.41H957.07V389.57h44.84ZM548.55,491.12H543v55h5.53q5.25,0,7.28-1.31c1.36-.87,2.29-3.15,2.77-6.84a173.19,173.19,0,0,0,.73-19.51,169.5,169.5,0,0,0-.73-19.22c-.48-3.68-1.41-6-2.77-6.84S552.05,491.12,548.55,491.12Zm129,118.8q1.46-2.91,1.89-14t.44-45.13q0-34.06-.44-45.13t-1.89-14q-1.45-2.91-6.41-2.91c-3.3,0-5.43,1-6.41,2.91s-1.6,6.6-1.89,14-.44,22.42-.44,45.13.15,37.76.44,45.13.92,12,1.89,14,3.11,2.91,6.41,2.91S676.58,611.86,677.55,609.92ZM939.6,651H846.72V613.12l45.13-122H848.17V450.65H939.6v37.56L894.18,610.5H939.6Zm-107.73,0H739V613.12l45.13-122H740.44V450.65h91.43v37.56L786.45,610.5h45.42Zm266.81-159.85h-32.13v38.43h31.74V570h-31.74V610.5h32.13V651h-77V450.65h77ZM1001.91,651H957.07V450.64h44.84ZM500.17,450.65h56.25q20.08,0,30.28,7.13T600.53,479q3.65,14.11,3.64,38.87,0,22.43-2.91,36.1t-11.65,21.55L609.12,651h-46l-14-65.51H543V651H500.17ZM633.72,643.84q-11.21-9.47-13.68-28.53t-2.48-64.5q0-45.42,2.48-64.64t13.68-28.53q11.22-9.33,37.42-9.32t37.41,9.32q11.22,9.32,13.69,28.53t2.48,64.64q0,45.42-2.48,64.5t-13.69,28.53q-11.2,9.46-37.41,9.46T633.72,643.84Z"/><path class="cls-4" d="M573.37,730.38q2.26-1.85,3.09-8.68t.83-23.74q0-16.89-.83-23.73t-3.09-8.69c-1.51-1.23-4.16-1.84-8-1.84s-6.47.61-8,1.84-2.54,4.13-3.09,8.69-.84,12.47-.84,23.73.28,19.17.84,23.74,1.58,7.45,3.09,8.68,4.16,1.84,8,1.84S571.86,731.61,573.37,730.38Zm4.31,18.89-5-10.15a26.11,26.11,0,0,1-7.25.72q-9.52,0-13.62-3.21c-2.74-2.15-4.5-6-5.3-11.43s-1.19-14.55-1.19-27.24.4-21.77,1.19-27.24,2.56-9.28,5.3-11.42,7.27-3.22,13.62-3.22,10.88,1.07,13.62,3.22,4.5,6,5.29,11.42,1.19,14.55,1.19,27.24q0,18.21-1.07,26.29t-4.88,11.66l6.87,13.36Z"/></g></svg>