<?xml version="1.0" encoding="UTF-8"?>
<svg id="Layer_1" xmlns="http://www.w3.org/2000/svg" xmlns:xlink="http://www.w3.org/1999/xlink" version="1.1" viewBox="0 0 432 288">
  <!-- Generator: Adobe Illustrator 29.6.1, SVG Export Plug-In . SVG Version: 2.1.1 Build 9)  -->
  <defs>
    <style>
      .st0, .st1, .st2, .st3, .st4 {
        fill: none;
      }

      .st5, .st6, .st7 {
        font-family: ITCAvantGardeStd-Bk, 'ITCAvantGardeStd Bk';
      }

      .st8 {
        fill: url(#New_Gradient_Swatch1);
      }

      .st9 {
        fill: url(#linear-gradient2);
      }

      .st10 {
        fill: url(#linear-gradient1);
      }

      .st11 {
        fill: url(#linear-gradient9);
      }

      .st12 {
        fill: url(#linear-gradient3);
      }

      .st13 {
        fill: url(#linear-gradient6);
      }

      .st14 {
        fill: url(#linear-gradient8);
      }

      .st15 {
        fill: url(#linear-gradient7);
      }

      .st16 {
        fill: url(#linear-gradient5);
      }

      .st17 {
        fill: url(#linear-gradient4);
      }

      .st18, .st19 {
        fill: #010101;
      }

      .st6, .st20, .st21, .st22, .st23, .st24, .st25 {
        fill: #f89521;
      }

      .st6, .st7 {
        font-size: 42.65px;
      }

      .st20 {
        font-family: FuturaStd-Bold, 'FuturaStd Bold';
      }

      .st20, .st21, .st26, .st22, .st23, .st19, .st27, .st28 {
        font-weight: 700;
      }

      .st20, .st29 {
        font-size: 63.12px;
      }

      .st30 {
        fill: url(#linear-gradient31);
      }

      .st31 {
        fill: url(#linear-gradient30);
      }

      .st32 {
        fill: url(#linear-gradient38);
      }

      .st33 {
        fill: url(#linear-gradient32);
      }

      .st34 {
        fill: url(#linear-gradient39);
      }

      .st35 {
        fill: url(#linear-gradient34);
      }

      .st36 {
        fill: url(#linear-gradient37);
      }

      .st37 {
        fill: url(#linear-gradient35);
      }

      .st38 {
        fill: url(#linear-gradient33);
      }

      .st39 {
        fill: url(#linear-gradient36);
      }

      .st40 {
        fill: url(#linear-gradient40);
      }

      .st41 {
        fill: url(#linear-gradient41);
      }

      .st42 {
        fill: url(#linear-gradient42);
      }

      .st43 {
        fill: url(#linear-gradient46);
      }

      .st44 {
        fill: url(#linear-gradient43);
      }

      .st45 {
        fill: url(#linear-gradient44);
      }

      .st46 {
        fill: url(#linear-gradient45);
      }

      .st47 {
        fill: url(#linear-gradient28);
      }

      .st48 {
        fill: url(#linear-gradient29);
      }

      .st49 {
        fill: url(#linear-gradient18);
      }

      .st50 {
        fill: url(#linear-gradient13);
      }

      .st51 {
        fill: url(#linear-gradient12);
      }

      .st52 {
        fill: url(#linear-gradient15);
      }

      .st53 {
        fill: url(#linear-gradient16);
      }

      .st54 {
        fill: url(#linear-gradient11);
      }

      .st55 {
        fill: url(#linear-gradient10);
      }

      .st56 {
        fill: url(#linear-gradient17);
      }

      .st57 {
        fill: url(#linear-gradient14);
      }

      .st58 {
        fill: url(#linear-gradient19);
      }

      .st59 {
        fill: url(#linear-gradient23);
      }

      .st60 {
        fill: url(#linear-gradient22);
      }

      .st61 {
        fill: url(#linear-gradient24);
      }

      .st62 {
        fill: url(#linear-gradient25);
      }

      .st63 {
        fill: url(#linear-gradient21);
      }

      .st64 {
        fill: url(#linear-gradient20);
      }

      .st65 {
        fill: url(#linear-gradient27);
      }

      .st66 {
        fill: url(#linear-gradient26);
      }

      .st1 {
        stroke: #fff;
      }

      .st1, .st2, .st3, .st4 {
        stroke-miterlimit: 10;
      }

      .st67 {
        fill: url(#New_Gradient_Swatch);
      }

      .st68 {
        fill: url(#linear-gradient);
      }

      .st21, .st28 {
        font-family: VistaSansOT-Bold, 'VistaSansOT Bold';
        font-size: 53.73px;
      }

      .st2 {
        stroke: #bf2030;
        stroke-width: 4px;
      }

      .st26, .st22 {
        font-family: ITCAvantGardeStd-Bold, 'ITCAvantGardeStd Bold';
      }

      .st26, .st22, .st19 {
        font-size: 180px;
      }

      .st26, .st29, .st7, .st27, .st69, .st70, .st71, .st28, .st72 {
        fill: #616161;
      }

      .st3 {
        stroke: #616161;
      }

      .st73 {
        isolation: isolate;
      }

      .st29 {
        font-family: FuturaStd-Medium, 'FuturaStd Medium';
        font-weight: 500;
      }

      .st23, .st27 {
        font-family: QuattrocentoSans-Bold, 'QuattrocentoSans Bold';
        font-size: 56.65px;
      }

      .st74 {
        clip-path: url(#clippath-1);
      }

      .st75 {
        fill: url(#New_Gradient_Swatch_15);
      }

      .st76 {
        fill: url(#New_Gradient_Swatch_13);
      }

      .st77 {
        fill: url(#New_Gradient_Swatch_11);
      }

      .st78 {
        fill: url(#New_Gradient_Swatch_14);
      }

      .st79 {
        fill: url(#New_Gradient_Swatch_12);
      }

      .st80 {
        fill: url(#New_Gradient_Swatch_17);
      }

      .st81 {
        fill: url(#New_Gradient_Swatch_18);
      }

      .st82 {
        fill: url(#New_Gradient_Swatch_16);
      }

      .st83, .st84 {
        font-family: ITCAvantGardeStd-Demi, 'ITCAvantGardeStd Demi';
        font-weight: 300;
      }

      .st85, .st86 {
        fill: #fff;
      }

      .st87 {
        fill: #f5a800;
      }

      .st4 {
        stroke: #f89521;
        stroke-width: .5px;
      }

      .st19 {
        font-family: NexusMixOT-Bold, 'NexusMixOT Bold';
      }

      .st84, .st70 {
        font-size: 59.24px;
      }

      .st88 {
        fill: #76777a;
      }

      .st89 {
        fill: url(#New_Gradient_Swatch_1);
      }

      .st24, .st86, .st72 {
        font-size: 47.93px;
      }

      .st24, .st72 {
        font-family: DustismoBold, DustismoBold;
      }

      .st69 {
        letter-spacing: 0em;
      }

      .st86 {
        font-family: ProximaNova-Semibold, 'Proxima Nova';
        font-weight: 600;
      }

      .st90 {
        clip-path: url(#clippath);
      }
    </style>
    <linearGradient id="linear-gradient" x1="97.25" y1="210.11" x2="97.25" y2="5.1" gradientUnits="userSpaceOnUse">
      <stop offset="0" stop-color="#fff"/>
      <stop offset="1" stop-color="#f89521"/>
    </linearGradient>
    <linearGradient id="linear-gradient1" x1="291.76" y1="224.61" x2="291.76" y2="0" xlink:href="#linear-gradient"/>
    <linearGradient id="linear-gradient2" y1="49.11" y2="364.22" xlink:href="#linear-gradient"/>
    <linearGradient id="linear-gradient3" x1="278.81" y1="419.6" x2="-6.35" y2="254.96" gradientUnits="userSpaceOnUse">
      <stop offset="0" stop-color="#fff"/>
      <stop offset=".78" stop-color="#f89521"/>
    </linearGradient>
    <linearGradient id="linear-gradient4" x1="291.76" y1="55.11" x2="291.76" y2="369.61" xlink:href="#linear-gradient"/>
    <linearGradient id="linear-gradient5" x1="124.17" y1="412.95" x2="428.12" y2="234.9" gradientUnits="userSpaceOnUse">
      <stop offset="0" stop-color="#fff"/>
      <stop offset=".14" stop-color="#fde4c7"/>
      <stop offset=".3" stop-color="#fbc88c"/>
      <stop offset=".45" stop-color="#f9b25e"/>
      <stop offset=".59" stop-color="#f8a23c"/>
      <stop offset=".69" stop-color="#f89828"/>
      <stop offset=".77" stop-color="#f89521"/>
    </linearGradient>
    <linearGradient id="New_Gradient_Swatch_1" data-name="New Gradient Swatch 1" x1="12.63" y1="136.61" x2="201.88" y2="245.87" gradientUnits="userSpaceOnUse">
      <stop offset="0" stop-color="#616161"/>
      <stop offset="1" stop-color="#0f0f0f"/>
    </linearGradient>
    <linearGradient id="New_Gradient_Swatch_11" data-name="New Gradient Swatch 1" x1="107.25" y1="460.12" x2="107.25" y2="258.63" xlink:href="#New_Gradient_Swatch_1"/>
    <linearGradient id="linear-gradient6" x1="281.76" y1="460.12" x2="281.76" y2="258.63" gradientUnits="userSpaceOnUse">
      <stop offset="0" stop-color="#bf2030"/>
      <stop offset="1" stop-color="#11090a"/>
    </linearGradient>
    <linearGradient id="New_Gradient_Swatch" data-name="New Gradient Swatch" x1="376.39" y1="136.61" x2="187.14" y2="245.87" gradientUnits="userSpaceOnUse">
      <stop offset="0" stop-color="#bf2030"/>
      <stop offset="1" stop-color="#11090a"/>
    </linearGradient>
    <linearGradient id="linear-gradient7" x1="154.52" y1="219.95" x2="154.52" y2="127.61" xlink:href="#linear-gradient"/>
    <linearGradient id="linear-gradient8" x1="234.5" y1="219.95" x2="234.5" y2="127.61" xlink:href="#linear-gradient"/>
    <linearGradient id="linear-gradient9" x1="203.14" y1="233.72" x2="105.91" y2="289.86" xlink:href="#linear-gradient"/>
    <linearGradient id="linear-gradient10" x1="185.88" y1="233.72" x2="283.11" y2="289.86" xlink:href="#linear-gradient"/>
    <symbol id="SJ_Logo_Mark" viewBox="0 0 389.02 483.23">
      <g>
        <polygon class="st68" points="0 112.3 194.51 224.61 194.51 0 0 112.3"/>
        <polygon class="st10" points="389.02 112.3 194.51 224.61 194.51 0 389.02 112.3"/>
        <polygon class="st9" points="0 112.3 194.51 224.61 194.51 483.22 0 370.92 0 112.3"/>
        <polygon class="st12" points="0 370.93 194.51 483.23 194.51 258.63 0 370.93"/>
        <polygon class="st17" points="389.02 112.3 194.51 224.61 194.51 483.22 389.02 370.92 389.02 112.3"/>
        <polygon class="st16" points="389.02 370.93 194.51 483.23 194.51 258.63 389.02 370.93"/>
        <polygon class="st89" points="20 123.85 194.51 23.09 194.51 258.63 20 359.38 20 123.85"/>
        <polygon class="st77" points="194.51 460.12 20 359.38 194.51 258.63 194.51 460.12"/>
        <polygon class="st13" points="369.02 359.38 194.51 258.63 194.51 460.12 369.02 359.38"/>
        <polygon class="st67" points="369.02 123.85 194.51 23.09 194.51 258.63 369.02 359.38 369.02 123.85"/>
        <polygon class="st15" points="194.51 127.61 114.54 172.61 194.51 219.95 194.51 127.61 194.51 127.61"/>
        <polygon class="st14" points="194.51 219.95 274.48 172.61 194.51 127.61 194.51 219.95 194.51 219.95"/>
        <polygon class="st11" points="114.54 172.61 114.54 304.8 194.51 350.97 194.51 218.78 114.54 172.61"/>
        <polygon class="st55" points="194.51 218.78 194.51 350.97 274.48 304.8 274.48 172.61 194.51 218.78"/>
      </g>
    </symbol>
    <linearGradient id="linear-gradient11" x1="43.39" y1="90.87" x2="43.39" y2=".78" gradientUnits="userSpaceOnUse">
      <stop offset="0" stop-color="#fefefe"/>
      <stop offset=".11" stop-color="#fdfcf9"/>
      <stop offset=".22" stop-color="#fdf7eb"/>
      <stop offset=".35" stop-color="#fcf0d4"/>
      <stop offset=".48" stop-color="#fbe5b5"/>
      <stop offset=".61" stop-color="#f9d78c"/>
      <stop offset=".75" stop-color="#f8c65a"/>
      <stop offset=".89" stop-color="#f6b220"/>
      <stop offset=".96" stop-color="#f5a800"/>
    </linearGradient>
    <linearGradient id="linear-gradient12" x1="55.41" y1="28.92" x2="2.06" y2="82.27" gradientUnits="userSpaceOnUse">
      <stop offset="0" stop-color="#fefefe"/>
      <stop offset=".11" stop-color="#fdfcf9"/>
      <stop offset=".22" stop-color="#fdf7eb"/>
      <stop offset=".35" stop-color="#fcf0d4"/>
      <stop offset=".48" stop-color="#fbe5b5"/>
      <stop offset=".61" stop-color="#f9d78c"/>
      <stop offset=".75" stop-color="#f8c65a"/>
      <stop offset=".89" stop-color="#f6b220"/>
      <stop offset=".96" stop-color="#f5a800"/>
    </linearGradient>
    <linearGradient id="linear-gradient13" x1="16342.5" y1="28.33" x2="16289.15" y2="81.68" gradientTransform="translate(16373.29) rotate(-180) scale(1 -1)" gradientUnits="userSpaceOnUse">
      <stop offset="0" stop-color="#fefefe"/>
      <stop offset=".11" stop-color="#fdfcf9"/>
      <stop offset=".22" stop-color="#fdf7eb"/>
      <stop offset=".35" stop-color="#fcf0d4"/>
      <stop offset=".48" stop-color="#fbe5b5"/>
      <stop offset=".61" stop-color="#f9d78c"/>
      <stop offset=".75" stop-color="#f8c65a"/>
      <stop offset=".89" stop-color="#f6b220"/>
      <stop offset=".96" stop-color="#f5a800"/>
    </linearGradient>
    <linearGradient id="linear-gradient14" x1="3.6" y1="73.62" x2="41.15" y2="51.34" gradientUnits="userSpaceOnUse">
      <stop offset=".01" stop-color="#666"/>
      <stop offset="1" stop-color="#231f20"/>
    </linearGradient>
    <linearGradient id="linear-gradient15" x1="40.42" y1="48.44" x2="1.96" y2="26.11" gradientUnits="userSpaceOnUse">
      <stop offset="0" stop-color="#000"/>
      <stop offset="1" stop-color="#666"/>
    </linearGradient>
    <linearGradient id="linear-gradient16" x1="43.9" y1="49.99" x2="81.41" y2="27.98" gradientUnits="userSpaceOnUse">
      <stop offset="0" stop-color="#160000"/>
      <stop offset="1" stop-color="#ac1e2d"/>
    </linearGradient>
    <linearGradient id="linear-gradient17" x1="34.47" y1="66.49" x2="70.84" y2="88.45" gradientUnits="userSpaceOnUse">
      <stop offset="0" stop-color="#160000"/>
      <stop offset="1" stop-color="#ac1e2d"/>
    </linearGradient>
    <linearGradient id="linear-gradient18" x1="30.63" y1="42.56" x2="62.31" y2="61.3" gradientUnits="userSpaceOnUse">
      <stop offset="0" stop-color="#fefefe"/>
      <stop offset="1" stop-color="#f5a800"/>
    </linearGradient>
    <linearGradient id="linear-gradient19" x1="43.39" y1="12.03" x2="43.39" y2="48.83" gradientUnits="userSpaceOnUse">
      <stop offset="0" stop-color="#fefefe"/>
      <stop offset="1" stop-color="#f5a800"/>
    </linearGradient>
    <linearGradient id="linear-gradient20" x1="34.19" y1="77.91" x2="34.19" y2="39.37" gradientUnits="userSpaceOnUse">
      <stop offset="0" stop-color="#fefefe"/>
      <stop offset="1" stop-color="#f5a800"/>
    </linearGradient>
    <symbol id="cube_it" viewBox="0 0 86.79 100.21">
      <g id="Mark">
        <polygon class="st54" points="86.79 75.16 43.39 100.21 0 75.16 0 25.05 43.39 0 86.79 25.05 86.79 75.16"/>
        <polygon class="st51" points="0 25.05 0 75.16 43.39 100.21 43.39 48.48 0 25.05"/>
        <polygon class="st50" points="86.79 25.05 86.79 75.16 43.39 100.21 43.39 48.48 86.79 25.05"/>
        <polygon class="st57" points="81.99 72.39 43.39 94.67 4.8 72.39 4.8 27.64 43.39 5.54 81.99 27.64 81.99 72.39"/>
        <polygon class="st52" points="4.8 27.64 43.39 5.54 43.39 50.11 4.8 72.39 4.8 27.64"/>
        <polygon class="st53" points="81.99 27.64 81.99 72.39 43.39 50.11 43.39 5.54 81.99 27.64"/>
        <polygon class="st56" points="43.39 50.11 43.39 94.67 81.99 72.39 43.39 50.11"/>
        <polygon class="st49" points="61.79 60.73 43.39 71.35 24.99 60.73 24.99 39.48 43.39 28.86 61.79 39.48 61.79 60.73"/>
        <polygon class="st58" points="43.39 28.86 24.99 39.48 43.39 49.43 61.79 39.48 43.39 28.86"/>
        <polygon class="st64" points="43.39 71.35 24.99 60.73 24.99 39.48 43.39 49.43 43.39 71.35"/>
      </g>
    </symbol>
    <symbol id="linear_divider" viewBox="0 0 4 237.52">
      <line class="st2" x1="2" x2="2" y2="237.52"/>
    </symbol>
    <symbol id="logo_full" viewBox="0 0 378 100.21">
      <g>
        <use width="267.5" height="52.82" transform="translate(110.5 23.94)" xlink:href="#logotype"/>
        <use width="86.79" height="100.21" xlink:href="#cube_it"/>
      </g>
    </symbol>
    <symbol id="logo_marks" viewBox="0 0 244.57 237.52">
      <g>
        <use width="389.02" height="483.23" transform="translate(0 .01) scale(.49)" xlink:href="#SJ_Logo_Mark"/>
        <use width="4" height="237.52" transform="translate(240.57)" xlink:href="#linear_divider"/>
      </g>
    </symbol>
    <symbol id="logotype" viewBox="0 0 267.5 52.82">
      <g id="type">
        <path class="st87" d="M10.14,35.9c.34,6.85,4.93,8.15,7.12,8.15,3.91,0,6.92-3.15,6.92-6.71,0-4.32-3.63-5.41-10.69-8.22-3.84-1.37-12.68-4.52-12.68-14.11S9.39,0,17.61,0c6.71,0,15.62,3.56,16.03,14.8h-10.07c-.41-2.33-1.3-6.23-6.3-6.23-3.36,0-6.24,2.33-6.24,5.75-.07,3.77,2.67,4.73,11.24,8.29,7.74,3.36,12.06,7.06,12.06,14.25,0,8.15-5,15.76-16.92,15.76S-.07,45.7,0,35.9h10.14Z"/>
        <path class="st87" d="M70.97,32.95c0,5.41-.48,8.63-1.58,11.17-1.03,2.12-3.02,4.32-5.07,5.62-2.95,1.99-6.44,2.88-9.66,2.88-2.19,0-13.5-.75-15.62-12.26-.21-1.03-.27-2.19-.34-3.36h10.89c0,.48.07.89.14,1.37.76,3.29,2.81,5.27,5.41,5.27,2.81-.07,4.32-1.58,4.93-3.29.62-1.58.68-3.36.68-4.93V.96h10.21v31.99Z"/>
        <path class="st88" d="M88.09,9.93h-10.96V.96h32.06v8.97h-10.89v41.72h-10.21V9.93Z"/>
        <path class="st88" d="M114.61,35.83c.41,6.03,5.75,9.39,10.89,9.32,4.38,0,7.33-1.99,9.04-5.07h9.25c-1.78,4.18-4.45,7.33-7.61,9.45-3.15,2.19-6.85,3.29-10.75,3.29-11.58,0-19.87-9.39-19.87-19.87s8.36-20.07,19.73-20.07c5.62,0,10.55,2.12,14.04,5.75,4.59,4.73,6.3,10.62,5.55,17.2h-30.28ZM136.05,28.98c-.34-3.56-4.11-8.56-10.69-8.5-6.65,0-10.28,4.8-10.62,8.5h21.31Z"/>
        <path class="st88" d="M190.51,37.95c-2.12,8.36-9.59,14.87-19.32,14.87-11.92,0-20.14-9.25-20.14-20.01s8.57-19.94,19.8-19.94c9.45,0,17.47,5.96,19.66,15.14h-9.18c-1.57-3.97-5.21-6.78-10.14-6.78-3.29-.07-5.82,1.1-8.02,3.22-1.92,2.05-3.08,5.07-3.08,8.36,0,6.78,4.73,11.58,11.1,11.58,5.62,0,8.77-3.36,10.14-6.44h9.18Z"/>
        <path class="st88" d="M197.83.96h8.98v17.54c2.12-3.97,6.64-5.69,11.1-5.62,5.82,0,9.45,1.99,11.65,5.28,2.26,3.29,2.95,7.74,2.95,12.81v20.69h-8.98v-20.28c0-2.88-.48-5.34-1.71-7.12-1.3-1.78-3.36-2.95-6.51-2.95-3.56,0-5.69,1.44-6.92,3.29-1.23,1.85-1.57,4.11-1.57,6.03v21.03h-8.98V.96Z"/>
        <path class="st88" d="M257.57,24.18c-.07-1.99-1.1-4.04-4.59-4.04-3.01,0-4.45,1.92-4.45,3.77.07,2.4,2.81,3.7,6.37,4.73,6.03,1.64,12.54,3.43,12.6,11.51.14,7.74-6.37,12.67-14.25,12.67-5.82,0-13.7-3.01-14.39-12.13h8.98c.34,4.04,3.84,4.86,5.55,4.86,2.81,0,5.21-1.85,5.14-4.39,0-3.22-2.81-4.11-9.73-6.51-5.07-1.58-9.18-4.38-9.25-9.8,0-7.4,6.23-11.99,13.49-11.99,5.07,0,12.61,2.26,13.36,11.3h-8.84Z"/>
      </g>
    </symbol>
    <linearGradient id="linear-gradient21" x1="-2159.24" y1="-801.33" x2="-1970" y2="-692.07" gradientUnits="userSpaceOnUse">
      <stop offset="0" stop-color="#616161"/>
      <stop offset="1" stop-color="#0f0f0f"/>
    </linearGradient>
    <linearGradient id="New_Gradient_Swatch_12" data-name="New Gradient Swatch 1" x1="-2064.62" y1="-477.81" x2="-2064.62" y2="-679.31" xlink:href="#New_Gradient_Swatch_1"/>
    <linearGradient id="linear-gradient22" x1="-1890.11" y1="-477.81" x2="-1890.11" y2="-679.31" xlink:href="#linear-gradient6"/>
    <linearGradient id="linear-gradient23" x1="-1795.49" y1="-801.33" x2="-1984.73" y2="-692.07" xlink:href="#linear-gradient6"/>
    <linearGradient id="linear-gradient24" x1="-2017.35" y1="-717.98" x2="-2017.35" y2="-810.33" xlink:href="#linear-gradient"/>
    <linearGradient id="linear-gradient25" x1="-1937.38" y1="-717.98" x2="-1937.38" y2="-810.33" xlink:href="#linear-gradient"/>
    <linearGradient id="linear-gradient26" x1="-1968.74" y1="-704.21" x2="-2065.97" y2="-648.08" xlink:href="#linear-gradient"/>
    <linearGradient id="linear-gradient27" x1="-1985.99" y1="-704.21" x2="-1888.77" y2="-648.08" xlink:href="#linear-gradient"/>
    <linearGradient id="New_Gradient_Swatch_13" data-name="New Gradient Swatch 1" x1="-1556.24" y1="-801.33" x2="-1367" y2="-692.07" xlink:href="#New_Gradient_Swatch_1"/>
    <linearGradient id="New_Gradient_Swatch_14" data-name="New Gradient Swatch 1" x1="-1461.62" y1="-477.81" x2="-1461.62" y2="-679.31" xlink:href="#New_Gradient_Swatch_1"/>
    <linearGradient id="linear-gradient28" x1="-1287.11" y1="-477.81" x2="-1287.11" y2="-679.31" xlink:href="#linear-gradient6"/>
    <linearGradient id="linear-gradient29" x1="-1192.49" y1="-801.33" x2="-1381.73" y2="-692.07" xlink:href="#linear-gradient6"/>
    <linearGradient id="linear-gradient30" x1="-1414.35" y1="-787.24" x2="-1374.37" y2="-717.98" xlink:href="#linear-gradient"/>
    <linearGradient id="linear-gradient31" x1="-1334.38" y1="-787.24" x2="-1374.37" y2="-717.98" xlink:href="#linear-gradient"/>
    <linearGradient id="linear-gradient32" x1="-1365.74" y1="-704.21" x2="-1462.97" y2="-648.08" xlink:href="#linear-gradient"/>
    <linearGradient id="linear-gradient33" x1="-1382.99" y1="-704.21" x2="-1285.77" y2="-648.08" xlink:href="#linear-gradient"/>
    <linearGradient id="New_Gradient_Swatch_15" data-name="New Gradient Swatch 1" x1="-1556.24" y1="-206.33" x2="-1367" y2="-97.07" xlink:href="#New_Gradient_Swatch_1"/>
    <linearGradient id="New_Gradient_Swatch_16" data-name="New Gradient Swatch 1" x1="-1461.62" y1="117.19" x2="-1461.62" y2="-84.31" xlink:href="#New_Gradient_Swatch_1"/>
    <linearGradient id="linear-gradient34" x1="-1287.11" y1="117.19" x2="-1287.11" y2="-84.31" xlink:href="#linear-gradient6"/>
    <linearGradient id="linear-gradient35" x1="-1192.49" y1="-206.33" x2="-1381.73" y2="-97.07" xlink:href="#linear-gradient6"/>
    <linearGradient id="linear-gradient36" x1="3897.64" y1="5134.71" x2="3897.64" y2="4929.7" xlink:href="#linear-gradient"/>
    <linearGradient id="linear-gradient37" x1="4092.15" y1="5149.21" x2="4092.15" y2="4924.6" xlink:href="#linear-gradient"/>
    <linearGradient id="linear-gradient38" x1="3897.64" y1="4973.71" x2="3897.64" y2="5288.83" xlink:href="#linear-gradient"/>
    <linearGradient id="linear-gradient39" x1="4079.19" y1="5344.2" x2="3794.04" y2="5179.57" xlink:href="#linear-gradient3"/>
    <linearGradient id="linear-gradient40" x1="4092.15" y1="4979.71" x2="4092.15" y2="5294.21" xlink:href="#linear-gradient"/>
    <linearGradient id="linear-gradient41" x1="3924.56" y1="5337.56" x2="4228.51" y2="5159.5" xlink:href="#linear-gradient5"/>
    <linearGradient id="New_Gradient_Swatch_17" data-name="New Gradient Swatch 1" x1="3813.02" y1="5061.21" x2="4002.26" y2="5170.47" xlink:href="#New_Gradient_Swatch_1"/>
    <linearGradient id="New_Gradient_Swatch_18" data-name="New Gradient Swatch 1" x1="3907.64" y1="5384.73" x2="3907.64" y2="5183.23" xlink:href="#New_Gradient_Swatch_1"/>
    <linearGradient id="linear-gradient42" x1="4082.15" y1="5384.73" x2="4082.15" y2="5183.23" xlink:href="#linear-gradient6"/>
    <linearGradient id="New_Gradient_Swatch1" data-name="New Gradient Swatch" x1="4176.77" y1="5061.21" x2="3987.53" y2="5170.47" xlink:href="#New_Gradient_Swatch"/>
    <linearGradient id="linear-gradient43" x1="3954.91" y1="5144.56" x2="3954.91" y2="5052.21" xlink:href="#linear-gradient"/>
    <linearGradient id="linear-gradient44" x1="4034.88" y1="5144.56" x2="4034.88" y2="5052.21" xlink:href="#linear-gradient"/>
    <linearGradient id="linear-gradient45" x1="4003.52" y1="5158.33" x2="3906.3" y2="5214.46" xlink:href="#linear-gradient"/>
    <linearGradient id="linear-gradient46" x1="3986.27" y1="5158.33" x2="4083.49" y2="5214.46" xlink:href="#linear-gradient"/>
    <clipPath id="clippath">
      <polygon class="st0" points="3017.62 6475.32 3017.16 6310.75 3191.85 6209.88 3192.31 6374.45 3017.62 6475.32"/>
    </clipPath>
    <clipPath id="clippath-1">
      <polygon class="st0" points="3813.27 6395.06 3809.82 6201.67 4090.3 6405.51 4093.75 6598.89 3813.27 6395.06"/>
    </clipPath>
  </defs>
  <polygon class="st25" points="-1782.86 -567.02 -1977.37 -454.72 -2171.88 -567.02 -2171.88 -825.64 -1977.37 -937.94 -1782.86 -825.64 -1782.86 -567.02"/>
  <polygon class="st63" points="-2151.88 -814.09 -1977.37 -914.84 -1977.37 -679.31 -2151.88 -578.56 -2151.88 -814.09"/>
  <polygon class="st79" points="-1977.37 -477.81 -2151.88 -578.56 -1977.37 -679.31 -1977.37 -477.81"/>
  <polygon class="st60" points="-1802.86 -578.56 -1977.37 -679.31 -1977.37 -477.81 -1802.86 -578.56"/>
  <polygon class="st59" points="-1802.86 -814.09 -1977.37 -914.84 -1977.37 -679.31 -1802.86 -578.56 -1802.86 -814.09"/>
  <polygon class="st61" points="-1977.37 -810.33 -2057.34 -764.16 -1977.37 -717.98 -1977.37 -810.33 -1977.37 -810.33"/>
  <polygon class="st62" points="-1977.37 -717.98 -1897.39 -764.16 -1977.37 -810.33 -1977.37 -717.98 -1977.37 -717.98"/>
  <polygon class="st66" points="-2057.34 -765.33 -2057.34 -633.14 -1977.37 -586.97 -1977.37 -719.16 -2057.34 -765.33"/>
  <polygon class="st65" points="-1977.37 -719.16 -1977.37 -586.97 -1897.39 -633.14 -1897.39 -765.33 -1977.37 -719.16"/>
  <polygon class="st25" points="-1179.86 -567.02 -1374.37 -454.72 -1568.88 -567.02 -1568.88 -825.63 -1374.37 -937.94 -1179.86 -825.64 -1179.86 -567.02"/>
  <polygon class="st76" points="-1548.88 -814.09 -1374.37 -914.84 -1374.37 -679.31 -1548.88 -578.56 -1548.88 -814.09"/>
  <polygon class="st78" points="-1374.37 -477.81 -1548.88 -578.56 -1374.37 -679.31 -1374.37 -477.81"/>
  <polygon class="st47" points="-1199.86 -578.56 -1374.37 -679.31 -1374.37 -477.81 -1199.86 -578.56"/>
  <polygon class="st48" points="-1199.86 -814.09 -1374.37 -914.84 -1374.37 -679.31 -1199.86 -578.56 -1199.86 -814.09"/>
  <polygon class="st31" points="-1374.37 -810.33 -1454.34 -764.16 -1374.37 -717.98 -1374.37 -810.33 -1374.37 -810.33"/>
  <polygon class="st30" points="-1374.37 -717.98 -1294.39 -764.16 -1374.37 -810.33 -1374.37 -717.98 -1374.37 -717.98"/>
  <polygon class="st33" points="-1454.34 -765.33 -1454.34 -633.14 -1374.37 -586.97 -1374.37 -719.16 -1454.34 -765.33"/>
  <polygon class="st38" points="-1374.37 -719.16 -1374.37 -586.97 -1294.39 -633.14 -1294.39 -765.33 -1374.37 -719.16"/>
  <polygon class="st25" points="-1179.86 27.98 -1374.37 140.28 -1568.88 27.98 -1568.88 -230.63 -1374.37 -342.94 -1179.86 -230.64 -1179.86 27.98"/>
  <polygon class="st75" points="-1548.88 -219.09 -1374.37 -319.84 -1374.37 -84.31 -1548.88 16.44 -1548.88 -219.09"/>
  <polygon class="st82" points="-1374.37 117.19 -1548.88 16.44 -1374.37 -84.31 -1374.37 117.19"/>
  <polygon class="st35" points="-1199.86 16.44 -1374.37 -84.31 -1374.37 117.19 -1199.86 16.44"/>
  <polygon class="st37" points="-1199.86 -219.09 -1374.37 -319.84 -1374.37 -84.31 -1199.86 16.44 -1199.86 -219.09"/>
  <polygon class="st85" points="-1374.37 -215.33 -1454.34 -170.33 -1454.34 -38.14 -1374.37 8.03 -1294.39 -38.14 -1294.39 -170.33 -1374.37 -215.33"/>
  <line class="st1" x1="-1454.37" y1="-766.33" x2="-1373.37" y2="-719.33"/>
  <line class="st1" x1="-1373.37" y1="-719.33" x2="-1295.37" y2="-765.33"/>
  <use width="389.02" height="483.23" transform="translate(4850.49 3264.41)" xlink:href="#SJ_Logo_Mark"/>
  <rect class="st25" x="4527.21" y="3376.71" width="258.63" height="258.63"/>
  <rect class="st25" x="4785.84" y="3441.37" width="64.66" height="129.31"/>
  <rect class="st25" x="5301.51" y="3376.72" width="517.25" height="258.63"/>
  <rect class="st25" x="5236.85" y="3441.37" width="64.66" height="129.31"/>
  <text class="st19" transform="translate(4567.69 3570.68)"><tspan x="0" y="0">SJ</tspan></text>
  <text class="st19" transform="translate(5352.9 3570.68)"><tspan x="0" y="0">Techs</tspan></text>
  <g id="SJ_Logo_Mark1" data-name="SJ_Logo_Mark">
    <polygon class="st39" points="3800.38 5036.9 3994.89 5149.21 3994.89 4924.6 3800.38 5036.9"/>
    <polygon class="st36" points="4189.4 5036.9 3994.89 5149.21 3994.89 4924.6 4189.4 5036.9"/>
    <polygon class="st32" points="3800.38 5036.9 3994.89 5149.21 3994.89 5407.82 3800.38 5295.52 3800.38 5036.9"/>
    <polygon class="st34" points="3800.38 5295.53 3994.89 5407.84 3994.89 5183.23 3800.38 5295.53"/>
    <polygon class="st40" points="4189.4 5036.9 3994.89 5149.21 3994.89 5407.82 4189.4 5295.52 4189.4 5036.9"/>
    <polygon class="st41" points="4189.4 5295.53 3994.89 5407.84 3994.89 5183.23 4189.4 5295.53"/>
    <polygon class="st80" points="3820.38 5048.45 3994.89 4947.7 3994.89 5183.23 3820.38 5283.98 3820.38 5048.45"/>
    <polygon class="st81" points="3994.89 5384.73 3820.38 5283.98 3994.89 5183.23 3994.89 5384.73"/>
    <polygon class="st42" points="4169.4 5283.98 3994.89 5183.23 3994.89 5384.73 4169.4 5283.98"/>
    <polygon class="st8" points="4169.4 5048.45 3994.89 4947.7 3994.89 5183.23 4169.4 5283.98 4169.4 5048.45"/>
    <polygon class="st44" points="3994.89 5052.21 3914.92 5097.21 3994.89 5144.56 3994.89 5052.21 3994.89 5052.21"/>
    <polygon class="st45" points="3994.89 5144.56 4074.87 5097.21 3994.89 5052.21 3994.89 5144.55 3994.89 5144.56"/>
    <polygon class="st46" points="3914.92 5097.21 3914.92 5229.4 3994.89 5275.57 3994.89 5143.38 3914.92 5097.21"/>
    <polygon class="st43" points="3994.89 5143.38 3994.89 5275.57 4074.87 5229.4 4074.87 5097.21 3994.89 5143.38"/>
  </g>
  <text class="st22" transform="translate(2534.47 4479.32)"><tspan x="0" y="0">SJ</tspan></text>
  <use width="389.02" height="483.23" transform="translate(2138.22 4474.27)" xlink:href="#SJ_Logo_Mark"/>
  <line class="st2" x1="2631.72" y1="4474.27" x2="2631.72" y2="4957.49"/>
  <text class="st26" transform="translate(2534.47 5063.06)"><tspan x="0" y="0">Techs</tspan></text>
  <g class="st73">
    <g class="st90">
      <g>
        <path class="st25" d="M3064.89,6283.19c-26.96,15.56-44.8,44.34-44.73,69.17.06,22.47,14.09,27.87,36.75,24.02,18.75-2.54,26.18,1.7,26.22,16.59.05,16.08-10.62,33.38-28.93,43.95-12.35,7.13-24.09,9.17-32.13,8.12l-4.48,19.88c7.43,1.4,22.05-2.55,35.42-10.27,32.71-18.89,48.5-49.32,48.43-73.91-.07-23.41-12.04-29.52-35.53-26.39-19.16,2.54-27.61.08-27.66-14.82-.03-10.88,7.13-28.04,26.06-38.97,12.55-7.25,21.82-7.87,26.36-7.64l4.89-19.64c-6.18-.46-16.48,1.7-30.68,9.9"/>
        <path class="st25" d="M3191.86,6212.49l-17.9,10.34.3,104.98c.09,31.21-9.35,44.95-25.4,54.22-5.97,3.45-11.32,5.12-15.03,5.6l-2.63,18.34c4.53-.49,12.56-3.47,19.15-7.27,23.87-13.78,41.94-37.24,41.82-79.56l-.3-106.64"/>
      </g>
    </g>
  </g>
  <use width="389.02" height="483.23" transform="translate(3373.1 6014.95)" xlink:href="#SJ_Logo_Mark"/>
  <g class="st73">
    <g class="st74">
      <g>
        <polyline class="st18" points="3861.2 6242.03 3809.88 6204.73 3810.24 6225.32 3831.33 6240.64 3834.3 6407.59 3843.36 6414.17 3840.38 6247.22 3861.57 6262.62 3861.2 6242.03"/>
        <polyline class="st18" points="3909.23 6276.93 3871.79 6249.73 3875.14 6437.27 3914.12 6465.6 3913.76 6445.29 3883.72 6423.46 3882.52 6355.85 3909.47 6375.43 3909.11 6355.4 3882.16 6335.82 3881.1 6276.54 3909.59 6297.25 3909.23 6276.93"/>
        <path class="st18" d="M3955.25,6307.36c-21.49-15.62-35.49,13.48-34.45,72.19,1.1,61.49,16.4,105.57,35.94,119.78,8.43,6.13,14.94,6.46,18.15,4.4l-2.2-20.54c-3.52,2.11-9.01,1.14-14.46-2.83-16.87-12.26-27.16-48.85-27.98-94.77-.88-49.25,9.42-69.5,25.67-57.69,5.76,4.19,10.65,11.03,14.13,17.95l1.81-18.18c-2.43-5.06-7.97-14.03-16.61-20.31"/>
        <polyline class="st18" points="4035.22 6368.5 4026.17 6361.92 4027.57 6440.39 3994.04 6416.03 3992.64 6337.55 3983.7 6331.05 3987.04 6518.59 3995.99 6525.09 3994.42 6437.17 4027.95 6461.54 4029.52 6549.46 4038.57 6556.04 4035.22 6368.5"/>
        <path class="st18" d="M4072.2,6392.35c-13.47-9.79-22.04,5.41-21.52,34.63.47,26.43,7.75,47.37,19.26,66.45,9.53,16.54,13.41,29.25,13.73,46.78.34,18.92-4.78,28.11-13.93,21.46-6.17-4.48-12.13-14.3-16.26-23.9l-1.9,18.67c3.82,9.36,11.22,19.96,17.9,24.82,16.35,11.88,23.83-7.41,23.31-36.35-.49-27.54-6.73-47.18-18.67-67.95-9.75-16.97-14.12-28.66-14.43-46.19-.23-12.8,3.1-25.49,12.56-18.61,6.27,4.56,11,13.49,13.32,18.48l2.12-17.97c-3.17-6.97-8.39-15.16-15.49-20.31"/>
      </g>
    </g>
  </g>
  <path class="st85" d="M4255.84,5501.55c-7.85-3.81-15.75-6.12-23.13-6.71-7.26-.58-14,.5-19.69,3.41-5.58,2.87-10.14,7.51-13.19,14.11-3,6.49-4.54,14.88-4.15,25.36.35,9.65,2.4,18.67,5.45,26.97,3.03,8.27,7.08,15.89,11.44,22.72,4.38,6.84,9.09,12.93,13.46,18.09,4.38,5.17,8.41,9.42,11.36,12.53,6.5,6.98,11.85,12.7,16.21,17.52,4.38,4.83,7.76,8.75,10.31,12.09,2.56,3.35,4.28,6.13,5.36,8.7,1.07,2.57,1.5,4.92,1.46,7.42-.03,2.17-.46,4.14-1.25,5.77-.78,1.62-1.92,2.91-3.37,3.72-1.44.81-3.2,1.14-5.24.88-2.02-.26-4.32-1.12-6.86-2.71-1.35-.84-3.1-2.17-4.97-4.02-1.86-1.84-3.84-4.21-5.66-7.13-1.81-2.92-3.46-6.41-4.67-10.53-1.21-4.12-1.99-8.89-2.04-14.37l-40.55-24.5c.09,8.9,1.22,17.88,3.49,26.7,2.25,8.76,5.63,17.42,10.24,25.8,4.61,8.37,10.48,16.52,17.77,24.25,7.34,7.79,16.17,15.24,26.7,22.14,10.83,7.11,19.99,11.34,27.67,13.24,7.82,1.93,14.1,1.44,19.06-.9,5.04-2.38,8.71-6.66,11.22-12.23,2.55-5.66,3.89-12.64,4.28-20.29.29-5.63,0-11.28-1.14-17.18-1.14-5.93-3.13-12.1-6.24-18.73-3.11-6.64-7.34-13.72-12.92-21.45-5.57-7.71-12.47-16.04-20.92-25.19-8.09-8.77-14.42-15.64-19.37-21.15-4.93-5.49-8.5-9.66-11.08-13.05-2.57-3.38-4.16-6-5.1-8.37-.95-2.38-1.26-4.51-1.28-6.95-.02-2.51.44-4.56,1.26-6.15.83-1.6,2.02-2.75,3.47-3.46,1.46-.71,3.17-.96,5.02-.78,1.86.19,3.87.81,5.89,1.88,3.58,1.88,6.36,4.21,8.53,6.78,2.17,2.57,3.73,5.37,4.86,8.17,1.13,2.8,1.83,5.6,2.3,8.18.47,2.58.72,4.94.94,6.88l48.37,26.23c.45-13.34-1.61-25.79-5.42-37.14-3.83-11.43-9.38-21.63-15.83-30.49-6.43-8.84-13.71-16.29-21.03-22.33-7.26-5.99-14.52-10.55-21.05-13.73"/>
  <path class="st85" d="M4369.88,5580.56l-44.41,25.64.38,133.38c.01,4.59.03,10.81-1.6,17.15-1.63,6.08-4.9,12.03-11.72,15.96-9.4,5.43-12.01-2.26-12.98-9.82-.24-2.03-.48-3.78-.48-5.66l-47.23,27.27c.01,5.39.5,10.26,1.22,14.71,7.67,48.31,53.48,21.85,57.48,19.55,11.75-6.79,24.43-17.89,34.98-31.83,7.51-9.47,15.47-23.53,19.2-34.88,3.73-11.62,5.57-25.66,5.5-50.78l-.34-120.69"/>
  <text class="st6" transform="translate(1727.84 328.61) scale(1.13 1)"><tspan x="0" y="0">SJ</tspan></text>
  <text class="st7" transform="translate(1791.33 327.9) scale(1.13 1)"><tspan x="0" y="0">Techs</tspan></text>
  <text class="st70" transform="translate(2156.99 92.39)"><tspan class="st5" x="0" y="0">sj</tspan><tspan class="st83" x="37.86" y="0">Techs</tspan></text>
  <text class="st84" transform="translate(93.07 -272.82)"><tspan class="st25" x="0" y="0">SJ</tspan><tspan class="st69" x="51.13" y="0">Techs</tspan></text>
  <g id="logo_marks1" data-name="logo_marks">
    <use width="389.02" height="483.23" transform="translate(1936.86 288.64) scale(.11 .1)" xlink:href="#SJ_Logo_Mark"/>
    <use width="389.02" height="483.23" transform="translate(2113.42 52.38) scale(.1)" xlink:href="#SJ_Logo_Mark"/>
    <g id="logo">
      <rect class="st0" x="0" y="0" width="432" height="288"/>
      <use width="378" height="100.21" transform="translate(27 93.89)" xlink:href="#logo_full"/>
    </g>
  </g>
  <text class="st20" transform="translate(1737 134.52)"><tspan x="0" y="0">SJ</tspan></text>
  <text class="st29" transform="translate(1812.42 134.52)"><tspan x="0" y="0">Techs</tspan></text>
  <g id="logo_marks2" data-name="logo_marks">
    <use width="389.02" height="483.23" transform="translate(1949.02 38.07) scale(.11)" xlink:href="#SJ_Logo_Mark"/>
  </g>
  <text class="st24" transform="translate(1819.59 440.08)"><tspan x="0" y="0">SJ</tspan></text>
  <text class="st72" transform="translate(1876.86 440.08)"><tspan x="0" y="0">Techs</tspan></text>
  <use width="244.57" height="237.52" transform="translate(1741.26 390.69) scale(.27)" xlink:href="#logo_marks"/>
  <g id="logo_marks5" data-name="logo_marks">
    <rect class="st71" x="1762.89" y="185.51" width="249.13" height="58.18"/>
    <use width="389.02" height="483.23" transform="translate(1737 182.44) scale(.13)" xlink:href="#SJ_Logo_Mark"/>
  </g>
  <text class="st21" transform="translate(2183.89 246.58)"><tspan x="0" y="0">SJ</tspan></text>
  <text class="st28" transform="translate(2233.63 246.58)"><tspan x="0" y="0">Techs</tspan></text>
  <g id="logo_marks6" data-name="logo_marks">
    <use width="389.02" height="483.23" transform="translate(2111.73 191.21) scale(.15)" xlink:href="#SJ_Logo_Mark"/>
  </g>
  <text class="st23" transform="translate(2170.95 394.41)"><tspan x="0" y="0">SJ</tspan></text>
  <text class="st27" transform="translate(2233.63 394.41)"><tspan x="0" y="0">Techs</tspan></text>
  <g id="logo_marks7" data-name="logo_marks">
    <path class="st3" d="M2130.43,352.18"/>
    <path class="st3" d="M2129.09,184.39"/>
    <use width="389.02" height="483.23" transform="translate(2115.33 348.69) scale(.1)" xlink:href="#SJ_Logo_Mark"/>
  </g>
  <rect class="st25" x="2209.53" y="357.02" width="14.41" height="5.65"/>
  <line class="st4" x1="1941.13" y1="330.47" x2="1730.25" y2="330.47"/>
  <line class="st4" x1="1941.13" y1="293.23" x2="1730.25" y2="293.23"/>
  <text class="st86" transform="translate(1805.56 231.82)"><tspan x="0" y="0">SJ</tspan></text>
  <text class="st86" transform="translate(1871.05 231.82)"><tspan x="0" y="0">Techs</tspan></text>
</svg>