<?xml version="1.0" encoding="UTF-8"?>
<svg id="Layer_1" data-name="Layer 1" xmlns="http://www.w3.org/2000/svg" xmlns:xlink="http://www.w3.org/1999/xlink" viewBox="0 0 1600 900">
  <defs>
    <style>
      .cls-1 {
        fill: none;
      }

      .cls-2 {
        fill: #7a1600;
      }

      .cls-3 {
        clip-path: url(#clippath-1);
      }

      .cls-4 {
        clip-path: url(#clippath-3);
      }

      .cls-5 {
        clip-path: url(#clippath-2);
      }

      .cls-6, .cls-7 {
        fill: #af6e29;
      }

      .cls-7 {
        fill-rule: evenodd;
      }

      .cls-8 {
        fill: #673124;
      }

      .cls-9 {
        clip-path: url(#clippath);
      }
    </style>
    <clipPath id="clippath">
      <rect class="cls-1" width="1600" height="900"/>
    </clipPath>
    <clipPath id="clippath-1">
      <rect class="cls-1" width="1600" height="900"/>
    </clipPath>
    <clipPath id="clippath-2">
      <path class="cls-1" d="M160.9,239.43h348.68c20.71,0,37.52,16.81,37.52,37.52v348.68c0,20.71-16.81,37.52-37.52,37.52H160.9c-20.71,0-37.52-16.81-37.52-37.52v-348.68c0-20.71,16.81-37.52,37.52-37.52Z"/>
    </clipPath>
    <clipPath id="clippath-3">
      <rect class="cls-1" width="1600" height="900"/>
    </clipPath>
  </defs>
  <g class="cls-9">
    <g class="cls-3">
      <path class="cls-8" d="M780.18,330.8c0-5.52,1.38-7.98,9.51-7.98,13.19,0,19.79,10.74,19.79,21.78,0,15.34-5.68,21.78-19.48,21.78-9.82,0-9.82-3.53-9.82-5.37v-30.22ZM883.12,363.79c0-21.94,12.73-41.27,30.84-41.27,24.55,0,37.12,33.6,37.12,54.46,0,21.94-12.73,41.27-30.84,41.27-24.54,0-37.12-33.6-37.12-54.46M1195.65,317c3.25.01,5.95.19,5.95,3.07,0,3.38-.62,6.75-.62,10.12s.62,6.75.62,10.12c0,1.69-.47,2.92-2.77,2.92-2.45,0-2.91-2.76-3.06-4.14-1.08-9.66-5.53-13.65-23.48-13.65h-9.97c-4.29,0-5.37,1.38-5.37,7.36v26.85c0,2.45,2.61,3.22,8.75,3.22,8.9,0,15.65-2.61,18.1-9.2,1.69-4.3,2.3-4.76,3.83-4.76,2.31,0,2.31,2.15,2.31,4.3,0,4.6-.62,9.2-.62,13.81,0,2.01.12,4.03.25,6.04l.12,1.73c.13,2.01.25,4.03.25,6.04,0,2.15,0,4.3-2.92,4.3-2.3,0-2.3-4.6-4.14-7.67-3.84-6.29-8.28-7.21-17.18-7.21-7.37,0-8.75,1.99-8.75,5.83v26.23c0,11.35,2,13.04,10.13,13.04,16.11,0,25-4.91,30.22-9.97,5.22-5.06,6.75-10.28,9.2-10.28,1.85,0,2.46,1.38,2.46,2.91,0,3.07-1.23,9.05-2.3,12.12-2,6.14-8.9,13.65-16.11,13.65-10.28,0-20.56-1.23-30.84-1.23s-20.55,1.23-30.83,1.23c-4.76,0-7.06,0-7.06-2.45s3.07-3.53,5.83-4.91c5.06-2.45,5.98-6.14,5.98-14.88v-57.84c0-7.52-.76-19.02-7.21-19.79-4.75-.61-7.97-1.99-7.97-4.45s2.61-2.46,5.67-2.46c11.82,1.53,23.63,1.07,35.44,1.23,11.81,0,23.63-1.23,35.44-1.23h.65ZM1432.17,361.02c-1.53,2.61-3.68,5.52-4.3,5.52-.92,0-2.14-1.38-4.44-5.68l-13.97-25.93c-1.68-3.07-2.91-5.83-2.91-8.44,0-1.23,1.38-2.3,3.38-3.38,2.3-1.23,6.59-1.23,6.59-3.68s-2.61-2.46-5.37-2.46c-6.9,0-13.8,1.23-20.71,1.23s-13.8-1.23-20.71-1.23c-2.76,0-5.37,0-5.37,2.46s2.92,3.07,6.45,3.68c4.14.61,7.82,3.53,13.04,13.04l23.31,43.26c.77,1.23,1.23,2.45,1.23,3.99v19.18c0,7.67-2.3,13.19-10.28,14.27-3.53.46-6.75.61-6.75,3.68,0,3.22,4.3,3.22,8.59,3.22,6.91,0,13.81-1.23,19.03-1.23,7.36,0,14.26,1.23,21.17,1.23,4.29,0,8.59,0,8.59-3.22s-3.22-3.22-6.75-3.68c-7.98-1.07-10.28-6.6-10.28-14.27v-24.08c0-2.76,1.69-5.06,3.68-8.28l19.79-32.68c5.83-9.66,7.98-12.43,12.73-14.42,2.61-1.07,3.99-1.23,3.99-3.68s-1.84-2.46-3.53-2.46c-5.37,0-10.73,1.23-16.1,1.23s-10.74-1.23-16.11-1.23c-1.84,0-3.53,0-3.53,2.46s1.23,3.22,3.07,3.68c6.75,1.69,11.96,3.68,11.96,7.98,0,1.99-.46,4.45-2.3,7.52l-13.19,22.4ZM756.86,404.9c0,5.06-1.84,10.89-7.82,12.73-1.53.46-4.14,1.23-4.14,3.68s2.3,2.45,4.45,2.45c6.14,0,12.27-1.23,18.41-1.23s12.27,1.23,18.41,1.23c7.06,0,8.9-.46,8.9-2.45,0-2.45-1.23-3.53-3.22-3.68-6.44-.46-11.66-3.22-11.66-15.8v-26.08c0-2,1.07-2.76,5.06-2.76,5.68,0,8.13,3.84,10.74,8.59l17.95,32.83c3.38,6.14,8.74,9.2,13.19,9.2,5.06,0,23.16-.92,23.16-7.52,0-1.69-.61-2.76-2.45-2.76-1.38,0-3.07.46-4.76.46-1.38,0-2.61-.92-4.14-2.61-7.52-8.44-24.7-39.12-24.7-41.42,0-1.53,4.45-2.46,7.52-4.14,6.29-3.68,11.51-9.05,11.51-19.48,0-25.31-21.32-29.15-41.88-29.15-6.75,0-18.1,1.23-26.39,1.23-10.89,0-15.03-1.23-18.72-1.23s-4.3.92-4.3,2.46c0,2.45,1.23,3.38,3.22,3.68,6.44.92,11.66,3.68,11.66,12.73v69.04ZM1344.71,317c1.45,0,2.93.15,2.93,2.45,0,2.45-1.84,3.22-4.14,4.45-7.98,4.3-10.28,8.74-10.28,17.18v73.94c0,6.75-.61,8.59-2.45,8.59-1.69,0-5.68-3.84-9.52-7.67l-65.81-67.35c-3.22-3.22-6.44-6.14-7.21-6.14s-1.23.46-1.23,4.14v54.77c0,7.52,2.61,13.19,9.98,15.5,3.83,1.23,8.89.92,8.89,3.83,0,3.07-3.68,3.07-6.44,3.07-5.37,0-10.74-1.23-16.11-1.23s-10.74,1.23-16.11,1.23c-1.53,0-3.22,0-3.22-2.45s1.84-3.22,4.14-4.45c7.98-4.3,10.44-8.75,10.44-17.18v-57.84c0-5.83-2.3-14.27-7.98-17.03-5.06-2.46-7.21-2.91-7.21-5.37s.92-2.46,1.99-2.46c2.02,0,4.03.12,6.04.25l1.73.11c2.01.13,4.03.25,6.04.25,4.6,0,9.2-.61,13.81-.61,3.37,0,4.45.46,5.83,1.99l59.37,61.52c2.14,2.15,4.29,4.14,5.21,4.14,1.23,0,1.38-2.15,1.38-4.3v-34.82c0-10.12-.61-19.48-10.12-21.63-3.99-.92-8.13-1.99-8.13-4.45s2.91-2.46,5.67-2.46c5.37,0,10.74,1.23,16.11,1.23s10.74-1.23,16.11-1.23h.29ZM679.01,295.89c24.07.12,45.64,7.75,45.64,33.87,0,21.72-19.15,37.55-40.13,37.55-4.23,0-21.91-1.47-21.91-7.73,0-2.02,1.29-2.39,9.21-2.39,15.83,0,23.01-11.6,23.01-25.77,0-17.67-11.78-26.69-29.45-26.69-6.44,0-10.86,3.68-10.86,8.1v88.92c0,11.05,11.97,13.81,19.51,14.91,2.39.37,3.87,1.66,3.87,4.42,0,2.95-5.34,2.95-10.68,2.95-3.62,0-7.25-.28-10.87-.6l-3.11-.27c-3.62-.32-7.25-.6-10.87-.6s-7.25.28-10.87.6l-3.11.27c-3.62.32-7.25.6-10.87.6-4.23,0-5.34-.92-5.34-2.95,0-2.76,3.13-3.68,4.97-4.42,6.99-2.76,9.39-9.02,9.39-14.91v-81.74c0-14.73-6.44-14.36-13.99-16.75-2.39-.74-3.87-2.03-3.87-4.23,0-2.39,1.1-3.13,5.71-3.13,6.63,0,19.15,1.47,27.98,1.47s26.33-1.47,36.08-1.47h.57ZM1095.21,371.06c2.68-.2,5.36-.38,8.05-.38,3.37,0,4.45.92,4.45,2.46,0,2.45-2.61,3.22-4.14,3.68-5.99,1.84-7.37,7.67-7.37,12.73v22.4c0,2.46-26.84,13.19-46.63,13.19-31.45,0-54.31-20.25-54.31-51.39,0-32.83,24.54-58.14,55.07-58.14,18.41,0,31.76,8.13,33.91,8.13,3.83,0,2.45-4.76,7.05-4.76,1.08,0,1.54.92,1.69,1.69l2.46,21.63c.3,2.45.92,5.98.92,7.21,0,2.3-.77,3.68-2.3,3.68-1.85,0-3.53-3.68-4.15-4.76-13.5-23.47-24.39-25.93-36.05-25.93-25.46,0-33.75,19.79-33.75,44.34,0,22.24,6.14,51.39,32.37,51.39,13.65,0,20.4-4.91,20.4-19.48v-9.2c0-9.51-5.98-12.12-12.42-12.73-1.69-.15-2.92-1.23-2.92-3.68,0-2.15,2.46-2.46,8.9-2.46,2.69,0,5.37.18,8.06.38l2.3.17c2.68.2,5.37.38,8.05.38s5.37-.18,8.05-.38l2.31-.17ZM858.27,373.14c0,31.14,23.32,52.01,54.77,52.01s62.9-22.09,62.9-56.61c0-32.52-24.7-52.93-56.15-52.93s-61.52,24.55-61.52,57.53M1244.73,507.35c0-5.52,1.38-7.98,9.51-7.98,13.19,0,19.79,10.74,19.79,21.78,0,15.34-5.67,21.78-19.48,21.78-9.82,0-9.82-3.53-9.82-5.37v-30.22ZM778.09,529.13c.31-.77,1.53-3.99,2.46-3.99,1.07,0,1.69,1.07,2.76,3.07l10.43,21.02c1.23,2.46,2.3,5.22,2.3,6.14,0,.61-1.84.92-6.75.92h-16.57c-3.84,0-6.44-.46-6.44-1.84,0-.46.61-2.15,1.69-4.29l10.12-21.02ZM1176.46,512.41c0-5.06.31-10.89,6.29-12.73,1.54-.46,5.68-1.23,5.68-3.68s-2.3-2.45-4.45-2.45c-6.14,0-12.27,1.23-18.41,1.23s-12.27-1.23-18.41-1.23c-4.45,0-8.9,0-8.9,2.45s1.23,3.53,3.23,3.68c6.44.46,11.65,3.22,11.65,12.73v69.03c0,5.06-1.07,10.89-7.05,12.73-1.54.46-4.14,1.23-4.14,3.68s2.3,2.45,5.21,2.45c6.14,0,12.27-1.23,18.41-1.23s12.27,1.23,17.03,1.23c4.45,0,8.9,0,8.9-2.45s-1.23-3.53-3.22-3.68c-3.38-.31-11.82-3.22-11.82-12.73v-69.03ZM741.89,586.97c-1.23,2.45-2.46,4.14-5.06,5.98-2.15,1.53-5.98,2.45-5.98,4.91s1.84,2.45,3.99,2.45c5.22,0,10.43-1.23,15.65-1.23s10.43,1.23,15.65,1.23c2.46,0,4.14,0,4.14-2.45s-5.68-3.68-9.97-4.91c-3.22-.92-7.06-3.83-7.06-6.14,0-6.6,4.29-22.09,12.12-22.09h23.47c7.52,0,10.43.61,12.43,2.61,2.3,2.3,6.9,15.49,6.9,19.33s-2.46,7.52-6.44,8.28c-2.3.15-3.99,1.53-3.99,3.38,0,.92.92,1.99,3.07,1.99,7.36,0,14.73-1.23,21.48-1.23s14.11,1.23,21.48,1.23c2.45,0,3.99,0,3.99-2.45s-2.3-2.92-6.44-4.14c-5.83-1.69-7.98-9.05-10.74-14.88l-38.35-83.45c-.92-1.84-1.84-3.22-2.46-3.22-1.38,0-2.15,1.38-4.14,5.37l-43.72,89.44ZM1341.22,576.23c0,8.44-1.99,12.89-9.97,17.18-2.3,1.23-4.14,1.99-4.14,4.45s1.69,2.45,3.22,2.45c5.37,0,10.74-1.23,16.11-1.23s10.74,1.23,16.11,1.23c1.53,0,4.14,0,4.14-2.45s-1.69-3.53-4.14-4.45c-10.59-3.99-12.89-11.97-12.89-21.63v-40.5c0-2.91.31-3.53,1.23-3.53,1.07,0,2.15,2.15,3.07,4.3l29.91,65.05c.77,1.53,1.54,3.22,3.38,3.22s3.37-2.15,4.45-4.3l30.52-62.74c2-3.99,2.92-6.14,3.99-6.14.62,0,.77,2.76.77,4.3v49.09c0,8.44-.31,11.2-4.14,12.89-2.92,1.23-4.3,1.99-4.3,4.45s3.07,2.45,6.14,2.45c6.14-.61,12.27-.61,18.41-1.23,6.13.61,12.27.61,18.41,1.23,3.07,0,6.13,0,6.13-2.45s-1.38-3.22-4.6-4.45c-11.96-4.6-12.73-12.89-12.73-25.62v-54.46c0-9.05,2.45-10.58,7.98-12.43,4.75-1.69,7.36-2.45,7.36-4.91.15-1.69-.31-2.45-1.23-2.45-4.6,0-9.2.61-13.8.61s-9.21-.61-13.81-.61c-1.23,0-1.84.31-3.53,3.53l-33.6,64.28c-1.68,3.07-2.91,5.98-3.83,5.98-.46,0-1.54-2.61-4.6-8.9l-29.92-62.28c-1.07-2.15-2.15-2.61-5.21-2.61-4.61,0-9.21.61-13.81.61s-9.21-.61-13.81-.61c-1.38,0-1.99.46-1.99,2.45,0,2.45,2.15,2.91,7.21,5.37,5.67,2.76,7.51,11.2,7.51,17.03v57.83ZM1221.41,581.45c0,5.06-1.84,10.89-7.82,12.73-1.54.46-4.14,1.23-4.14,3.68s2.3,2.45,4.44,2.45c6.14,0,12.28-1.23,18.41-1.23s12.28,1.23,18.41,1.23c7.06,0,8.9-.46,8.9-2.45,0-2.45-1.23-3.53-3.22-3.68-6.44-.46-11.66-3.22-11.66-15.8v-26.08c0-1.99,1.07-2.76,5.06-2.76,5.68,0,8.13,3.84,10.74,8.59l17.95,32.83c3.38,6.14,8.74,9.2,13.19,9.2,5.07,0,23.17-.92,23.17-7.52,0-1.69-.62-2.76-2.46-2.76-1.38,0-3.06.46-4.75.46-1.38,0-2.61-.92-4.14-2.61-7.52-8.44-24.7-39.12-24.7-41.42,0-1.53,4.45-2.45,7.51-4.14,6.29-3.68,11.51-9.05,11.51-19.48,0-25.31-21.32-29.15-41.88-29.15-6.75,0-18.1,1.23-26.39,1.23-10.89,0-15.03-1.23-18.71-1.23s-4.3.92-4.3,2.45c0,2.45,1.23,3.38,3.22,3.68,6.45.92,11.66,3.68,11.66,12.73v69.03ZM664.19,472.43c2.43.01,4.85.18,4.85,2.95,0,2.94-3.13,3.87-4.97,4.42-7.18,2.21-9.39,9.2-9.39,15.28v79.71c0,13.99,2.21,15.65,11.6,15.65,19.33,0,30.01-5.89,36.27-11.97,6.26-6.08,8.29-12.15,12.89-12.15,2.58,0,4.23,3.31,4.23,7.36,0,15.1-14.54,26.88-28.9,26.88-12.33,0-37.56-1.47-49.89-1.47-2.98,0-5.96.28-8.94.6l-2.55.28c-2.98.32-5.96.6-8.94.6-4.23,0-7.73,0-7.73-2.95s2.95-3.31,6.99-5.89c6.26-4.05,7-10.86,7-16.94v-79.71c0-11.41-6.26-15.28-13.99-15.28-2.39,0-3.87-1.47-3.87-4.05,0-1.84,1.29-3.31,3.31-3.31,8.84,0,17.86,1.47,26.69,1.47s17.86-1.47,24.85-1.47h.48ZM1039.31,577.92c0,6.07-2.2,13.07-9.38,15.28-1.84.55-4.97,1.47-4.97,4.42s2.76,2.95,5.33,2.95c7.37,0,14.73-1.47,22.1-1.47s14.72,1.47,22.09,1.47c5.33,0,10.67,0,10.67-2.95s-1.47-4.24-3.86-4.42c-7.73-.55-13.99-3.87-13.99-16.75v-33.69c0-4.79,2.21-6.44,9.02-6.44,10.67,0,16.2.92,20.06,7.18,2.76,4.6,2.76,9.94,5.53,9.94,3.49,0,3.49-2.58,3.49-4.97,0-5.52-.73-11.04-.73-16.38s.73-10.86.73-16.38c0-2.58,0-5.16-3.49-5.16-2.77,0-2.58,4.42-4.97,8.47-4.42,7.36-9.95,8.47-20.62,8.47-6.45,0-9.02-.92-9.02-4.42v-31.48c0-6.99.73-9.02,4.97-9.02h9.75c15.1,0,28.54,0,30.38,16.38.18,1.66.74,4.97,3.68,4.97,3.31,0,3.31-2.02,3.31-3.5,0-4.05-.73-7.92-.73-11.97s.73-8.1.73-11.97-3.68-4.05-7.73-4.05c-13.62,0-27.24,1.47-40.87,1.47s-27.24-1.47-40.86-1.47c-4.42,0-8.66,0-8.66,2.95s3.87,4.42,9.58,4.42c6.99,0,8.46,4.79,8.46,17.3v80.82ZM871.67,594.49c2.3,6.29,3.07,7.21,5.06,7.21,1.84,0,2.91-.92,6.29-8.28l21.32-46.18c1.53-3.22,2.15-4.76,2.76-4.76.46,0,1.23,1.53,2.15,4.14l17.49,48.63c1.99,5.68,3.38,6.44,5.22,6.44,1.53,0,2.76-.92,5.98-9.05l28.84-74.4c3.99-10.43,4.6-12.89,8.9-16.88,3.07-2.92,6.29-2.92,6.29-5.37s-2.15-2.45-3.53-2.45c-5.22,0-10.43,1.23-15.65,1.23s-10.43-1.23-15.65-1.23c-1.53,0-3.38,0-3.38,2.45,0,1.38,1.54,2.61,4.3,4.3,3.38,2.15,11.81,1.38,11.81,8.13,0,3.38-.77,7.36-2.3,11.66l-14.11,39.89c-1.07,2.92-1.99,5.52-3.07,5.52-.61,0-.92-.92-1.69-2.92l-16.57-46.18c-1.07-2.76-3.38-7.98-3.38-10.43,0-1.99.46-4.91,4.76-6.29,2.3-.77,4.76-1.23,4.76-3.68s-1.38-2.45-3.99-2.45c-5.98,0-11.97,1.23-17.95,1.23s-11.97-1.23-17.95-1.23c-1.99,0-3.99,0-3.99,2.45s1.84,2.61,3.53,3.68c2.15,1.38,5.06,2.76,6.75,7.98l8.44,24.55-15.34,33.9c-.61,1.53-1.53,3.22-1.84,3.22-.46,0-.92-1.38-1.38-2.76l-17.49-50.16c-1.84-5.37-3.38-8.28-3.38-9.67,0-2.92.61-5.68,4.91-7.06,2.3-.77,4.76-1.23,4.76-3.68s-1.38-2.45-3.99-2.45c-5.98,0-11.97,1.23-17.95,1.23s-11.97-1.23-17.95-1.23c-1.99,0-3.99,0-3.99,2.45s1.84,2.61,3.53,3.68c2.15,1.38,4.91,2.76,6.75,7.98l31.91,86.83Z"/>
      <path class="cls-2" d="M160.9,239.43h348.68c20.71,0,37.52,16.81,37.52,37.52v348.68c0,20.71-16.81,37.52-37.52,37.52H160.9c-20.71,0-37.52-16.81-37.52-37.52v-348.68c0-20.71,16.81-37.52,37.52-37.52Z"/>
    </g>
    <g class="cls-5">
      <rect class="cls-8" x="123.38" y="239.43" width="423.72" height="423.72"/>
      <path class="cls-6" d="M547.1,395.49c-39.04-80.92-196.19-127.86-296.02-53.44-2.37,1.77-5.77,1.34-7.59-.93l-36.24-44.55c-2.8-3.44-.26-8.49,4.29-8.49h335.56v.15s0,.1,0,.1v107.15Z"/>
      <path class="cls-6" d="M547.1,239.43v33.16H210.37c-13.39,0-26.05-5.93-34.32-16.08l-13.88-17.08h384.93Z"/>
      <path class="cls-7" d="M428.74,663.15v-11.55s-.38-9.61,8.24-17.41c10.49-9.49,60.71-41.41,60.71-131.64,0-74.94-60.99-121.95-126.4-122.18-47.05-.16-91.36,27.84-109.39,69.78-22.57,52.51-1.6,120.7,64.89,124.97,43.36,2.78,84.97-34.3,78.63-77.24-4.79-32.43-18.81-46.01-42.67-57.94-11.71-5.86,64.61-37.24,93.76,39.98,12.83,33.99-1.6,75.09-23.79,103.58-45.69,58.67-139.86,60.38-193.88,11.99-38.43-34.43-49.93-86.59-39.78-134.97,4.53-21.61,13.68-42.28,26.46-60.54,76.47-109.2,254.61-92.81,307.76,28.76,9.18,21,13.82,43.11,13.82,65.91v168.5h-118.36Z"/>
    </g>
    <g class="cls-4">
      <path class="cls-6" d="M600.3,652.44h876.77c1.48,0,2.68,1.2,2.68,2.68v5.35c0,1.48-1.2,2.68-2.68,2.68h-876.77c-1.48,0-2.68-1.2-2.68-2.68v-5.35c0-1.48,1.2-2.68,2.68-2.68Z"/>
      <path class="cls-6" d="M600.3,239.43h876.77c1.48,0,2.68,1.2,2.68,2.68v5.35c0,1.48-1.2,2.68-2.68,2.68h-876.77c-1.48,0-2.68-1.2-2.68-2.68v-5.35c0-1.48,1.2-2.68,2.68-2.68Z"/>
      <path class="cls-8" d="M1514.58,594.25c.12.06.22.26.15.37-.47,1.55-.78,2.88-1,4.17-.06.38-.25.48-.56.54-.28.03-.66.03-1.97.03s-2.79-.08-8.3-.08c-1.83,0-3.45.14-4.04.21-.26,0-.44,0-.51-.03-.09-.23-.22-.82-.19-1.01,1.41-.23,2.31-.57,2.51-1.45.13-.55.22-1.53.22-4.57v-6.26c0-2.64-.13-4.3-.24-5.21-.1-.62-.36-.78-2.54-.72-.08,0-.19-.18-.1-.47l.22-.62c.03-.16.06-.16.12-.16,1.13.03,2.27.06,3.44.03,1.85-.03,3.74-.13,5.24-.18.16.03.28.88.25,1.06-1.34.21-2.61.34-2.75,1.47-.17.87-.22,2.41-.2,5.45l.03,3.87c.04,4.68.07,5.65.13,6.24.04.55.16.75.62.91.51.16,1.11.23,2.52.23,2.15,0,4.1-.23,5.07-1.86.29-.44.5-1.06.71-2.03.07-.2.13-.23.29-.23.15,0,.69.2.88.28M1496.34,594.25c.13.06.23.26.16.37-.47,1.55-.78,2.88-1.01,4.17-.05.38-.24.48-.55.54-.28.03-.67.03-1.97.03s-2.8-.08-8.3-.08c-1.82,0-3.45.14-4.05.21-.25,0-.44,0-.51-.03-.08-.23-.21-.82-.18-1.01,1.42-.23,2.33-.57,2.51-1.45.13-.55.21-1.53.21-4.57v-6.26c0-2.64-.12-4.3-.24-5.21-.1-.62-.34-.78-2.54-.72-.07,0-.18-.18-.08-.47l.21-.62c.03-.16.06-.16.11-.16,1.14.03,2.27.06,3.47.03,1.83-.03,3.71-.13,5.22-.18.15.03.28.88.25,1.06-1.35.21-2.59.34-2.75,1.47-.17.87-.23,2.41-.2,5.45l.03,3.87c.04,4.68.07,5.65.14,6.24.03.55.14.75.61.91.51.16,1.11.23,2.51.23,2.17,0,4.1-.23,5.08-1.86.28-.44.5-1.06.71-2.03.07-.2.13-.23.28-.23.16,0,.7.2.88.28M1518.68,582.1c1.64-1.85,4.15-2.72,6.3-3.23,1.41-.31,2.91-.4,4.19-.4,1.42,0,2.98.21,3.64.5.32.1.84-.11,1.2-.28.11-.03.24-.03.62.13.28.1.31.16.28.28-.63,1.56-.69,3.14-.54,5.16,0,.07-.15.13-.46.13-.5.03-.67-.06-.73-.21-.12-.38-.44-1.32-.65-1.92-.23-.54-.38-.94-.94-1.4-.56-.51-2.07-1.16-3.78-1.16-1.89,0-3.89.85-5.37,2.67-1.44,1.82-2.1,4.31-2.1,6.98,0,3.53,1.9,9.15,8.02,9.15,2.13,0,3.63-1.29,4.54-2.28.67-.72,1.01-1.52,1.22-1.99.03-.06.16-.11.44.13.35.21.44.34.41.6-.31,1.72-1.04,3.36-1.45,4.04-.21.28-.31.31-.62.31-.94,0-2.85.54-4.88.54-8.56,0-11.95-5.65-11.95-10.5,0-2.23.57-4.98,2.61-7.23"/>
    </g>
  </g>
</svg>