<?xml version="1.0" encoding="UTF-8"?>
<svg id="Layer_1" data-name="Layer 1" xmlns="http://www.w3.org/2000/svg" xmlns:xlink="http://www.w3.org/1999/xlink" viewBox="0 0 1600 900">
  <defs>
    <style>
      .cls-1 {
        fill: none;
      }

      .cls-2 {
        fill: #a19589;
      }

      .cls-3 {
        fill: #ea1d2d;
      }

      .cls-4, .cls-5, .cls-6 {
        fill-rule: evenodd;
      }

      .cls-4, .cls-7 {
        fill: #afa59b;
      }

      .cls-5 {
        fill: #717073;
      }

      .cls-8 {
        clip-path: url(#clippath-1);
      }

      .cls-6 {
        fill: #d9d4be;
      }

      .cls-9 {
        clip-path: url(#clippath);
      }
    </style>
    <clipPath id="clippath">
      <rect class="cls-1" x="0" width="1600" height="900"/>
    </clipPath>
    <clipPath id="clippath-1">
      <rect class="cls-1" x="0" width="1600" height="900"/>
    </clipPath>
  </defs>
  <g class="cls-9">
    <g class="cls-8">
      <path class="cls-5" d="M1173.61,486.57l57.14-51.43v4.64l-57.14,51.43v-4.64ZM1287.72,611.7h124.9c25.01.03,37.54-17.17,37.59-42.29l-162.49,37.64v4.65ZM1450.21,457.38v4.64l-55.97-27.27v-4.64l55.97,27.27ZM1341.04,340.51l-49.24,44.32-90.97-44.32v-4.64l90.97,44.32,49.24-44.32v4.64Z"/>
      <path class="cls-3" d="M1173.81,568.19l264.27-279.89-225.36,318.75c-26.06.05-39.03-12.91-38.91-38.86"/>
      <path class="cls-6" d="M1448.54,339.89c1.05,1.52,1.67,3.36,1.67,5.34v112.15l-55.97-27.27,54.3-90.22ZM1287.72,607.05h124.9c25.01.03,37.54-12.52,37.59-37.64l-102.04-62.77-60.45,100.42ZM1173.61,397.49l57.14,37.64-57.14,51.43v-89.08ZM1341.04,335.87l-49.24,44.32-90.97-44.32h140.21Z"/>
      <path class="cls-7" d="M310.82,341.78c-5.12-1.86-10.02-2.33-14.21-2.56-14.92-.47-35.19,10.72-48.48,17.25v105.8h29.14v-91.59c4.89-2.1,10.95-4.43,16.32-4.43,2.33,0,5.59,1.17,5.59,1.17l11.65-25.64Z"/>
      <path class="cls-7" d="M1073.65,423.83c0-16.55-9.09-30.07-29.13-35.19l-12.59-3.03c-8.63-2.34-9.78-4.9-9.78-9.79,0-6.52,4.18-10.95,11.65-10.95,6.52,0,12.58,2.32,26.56,8.15l10.03-22.14c-11.89-5.13-24.01-11.19-37.29-11.19-23.54,0-40.09,15.85-40.09,38.45,0,18.41,9.79,31,27.5,34.96l11.89,2.56c9.56,2.1,12.12,5.82,12.12,11.89,0,7.46-4.9,12.35-12.82,12.35-11.42,0-23.31-6.29-33.56-10.72l-10.96,21.67c13.05,6.06,28.44,13.98,43.12,13.98,25.17,0,43.35-16.55,43.35-41.02"/>
      <path class="cls-7" d="M672.21,341.78c-5.13-1.86-10.03-2.33-14.23-2.56-14.91-.47-35.19,10.72-48.47,17.25v105.8h29.14v-91.59c4.89-2.1,10.95-4.43,16.31-4.43,2.34,0,5.6,1.17,5.6,1.17l11.66-25.64Z"/>
      <path class="cls-7" d="M239.71,448.76l-13.75-20.51c-19.11,6.29-30.29,9.79-36.36,9.79-8.86,0-10.25-3.49-10.25-17.01v-82.27c0-13.28,1.39-17.01,10.25-17.01,6.07,0,17.02,3.5,36.36,9.79l13.75-20.51c-19.82-8.62-38.46-16.78-53.14-16.08-16.55.47-36.36,5.6-36.36,44.51v80.87c0,44.75,28.2,51.04,60.83,40.09,8.16-2.8,16.08-6.29,28.67-11.65"/>
      <path class="cls-4" d="M978.82,461.34l-5.36-22.14c-4.9,1.4-5.83,1.86-6.06,1.64-.93-.94-1.41-2.34-1.41-10.03v-103.48c0-13.05,0-24.94-3.03-37.99l-29.13,6.76c2.56,13.28,3.03,20.51,3.03,35.89v7.93c-20.04-2.8-38.69,7.93-55.93,16.78,0,0,.23,10.95,0,63.86,0,48.01,32.63,50.81,63.62,38.69,4.43,4.67,9.79,6.76,17.01,6.76,5.13,0,9.09-.94,17.25-4.67M936.87,433.84c-4.89,1.86-10.72,4.43-16.08,4.43-8.86,0-10.49-3.49-10.49-16.78.24-30.06.24-45.68.24-50.8,5.82-2.57,11.18-4.43,16.08-4.43,8.85,0,10.25,3.73,10.25,17.01v50.58Z"/>
      <path class="cls-4" d="M877.73,459.94l-5.59-22.14c-4.9,1.63-5.83,1.86-6.07,1.63-.69-.93-1.16-2.33-1.16-9.32-.23-1.86-.23-47.08-.23-48.71,0-11.18-.7-16.54-2.56-22.14-4.66-14.44-17.25-21.44-33.33-21.44-20.27,0-32.39,8.39-49.17,17.95l13.51,23.77c8.86-5.36,22.14-14.68,32.86-14.68,8.86,0,10.26,3.73,10.26,17.25v1.16c-2.56-.47-5.36-.7-8.15-.93-14.69-.47-38.69,12.12-48.25,17.48v20.51c0,38.92,19.8,44.05,36.59,44.52,8.15.47,18.88-3.04,27.5-6.53,4.43,4.43,9.79,6.29,16.32,6.29,5.36,0,9.09-.93,17.48-4.66M835.55,426.38v7.23c-6.06,2.33-11.42,4.43-16.08,4.43-9.09,0-10.49-3.73-10.49-17.01v-7.22c4.89-2.1,10.72-4.43,16.32-4.43,8.86,0,10.26,3.73,10.26,17.01"/>
      <path class="cls-4" d="M761.81,449.99s.28-9.79,3.35-64.01c2.04-38.87-17.94-45.04-34.44-46.38-14.62-1.47-35.69,8.63-49.07,14.46l-3.35,64.01c-2.04,38.87,17.71,45.04,34.2,46.6,7.9.65,17.84-2.1,26.41-5.15,8.33-3.06,15.98-6.63,22.9-9.53M735.88,383.76l-2.61,49.8c-5.23,1.83-10.74,4.57-16.32,4.28-8.85-.46-10.06-4.03-9.37-17.29,1.31-29.34,2.1-44.47,2.43-50.75,6.18-2.24,11.63-3.82,16.52-3.56,8.85.46,10.05,4.25,9.36,17.53"/>
      <path class="cls-7" d="M593.93,423.83c0-16.55-9.09-30.07-29.14-35.19l-12.59-3.03c-8.62-2.34-9.78-4.9-9.78-9.79,0-6.52,4.19-10.95,11.66-10.95,6.52,0,12.58,2.32,26.57,8.15l10.03-22.14c-11.89-5.13-24.01-11.19-37.29-11.19-23.54,0-40.09,15.85-40.09,38.45,0,18.41,9.79,31,27.5,34.96l11.89,2.56c9.55,2.1,12.11,5.82,12.11,11.89,0,7.46-4.89,12.35-12.81,12.35-11.42,0-23.31-6.29-33.56-10.72l-10.96,21.67c13.05,6.06,28.44,13.98,43.11,13.98,25.17,0,43.35-16.55,43.35-41.02"/>
      <path class="cls-7" d="M498.4,423.83c0-16.55-9.09-30.07-29.14-35.19l-12.58-3.03c-8.62-2.34-9.79-4.9-9.79-9.79,0-6.52,4.19-10.95,11.65-10.95,6.52,0,12.58,2.32,26.57,8.15l10.03-22.14c-11.89-5.13-24.01-11.19-37.29-11.19-23.54,0-40.09,15.85-40.09,38.45,0,18.41,9.79,31,27.51,34.96l11.88,2.56c9.55,2.1,12.11,5.82,12.11,11.89,0,7.46-4.89,12.35-12.81,12.35-11.42,0-23.3-6.29-33.56-10.72l-10.96,21.67c13.05,6.06,28.44,13.98,43.12,13.98,25.17,0,43.35-16.55,43.35-41.02"/>
      <path class="cls-4" d="M398.09,449.99s.29-9.79,3.35-64.01c2.04-38.87-17.94-45.04-34.43-46.38-14.63-1.47-35.7,8.63-49.07,14.46l-3.35,64.01c-2.04,38.87,17.71,45.04,34.2,46.6,7.9.65,17.85-2.1,26.41-5.15,8.33-3.06,15.98-6.63,22.9-9.53M372.16,383.76l-2.61,49.8c-5.23,1.83-10.74,4.57-16.32,4.28-8.85-.46-10.06-4.03-9.36-17.29,1.31-29.34,2.1-44.47,2.43-50.75,6.18-2.24,11.63-3.82,16.52-3.56,8.85.46,10.05,4.25,9.35,17.53"/>
      <path class="cls-2" d="M179.37,568.91h-.11c-17.73,0-27.52-20.45-27.08-36,.43-16.21,9.46-35.02,28.06-34.59,7.83.11,14.58,1.85,19.91,5.77l-2.83,4.79c-5-3.26-10.22-4.46-15.88-4.46-14.58.11-18.92,16.64-19.14,28.61-.22,11.1,5,29.59,18.71,29.48,7.83,0,11.64-2.39,19.9-7.07l3.04,4.78c-7.94,6.2-15.66,8.7-24.58,8.7M267.25,532.91c0,16.86-10.22,36.33-29.48,36.33s-29.48-19.47-29.48-36.33,10.77-34.7,29.48-34.7,29.59,17.4,29.59,34.7h-.11ZM237.77,504.3c-13.82,0-20.56,15.34-20.56,28.61-.11,14.57,7.18,30.13,20.45,30.13s20.45-15.55,20.45-30.13c0-13.27-6.63-28.61-20.34-28.61M333.49,568.26v-56.56l-21.64,55.15-6.74,2.39-22.41-55.58v54.6h-5.55v-67.22l7.94-2.61,24.58,58.52,22.52-57.21h9.25v68.52h-7.94ZM410.82,568.26v-56.56l-21.64,55.15-6.74,2.39-22.41-55.58v54.6h-5.55v-67.22l7.94-2.61,24.58,58.52,22.52-57.21h9.25v68.52h-7.94ZM455.74,569.24c-13.81,0-24.47-9.79-24.47-24.15v-44.05l8.05-2.72.11,45.47c0,11.75,5.44,19.03,16.97,18.92,11.42,0,18.16-7.72,18.16-19.14v-43.83h6.2v45.25c0,14.36-10.77,24.36-25.02,24.26M537.21,568.26l-38.4-56.12v56.12h-5.55v-67.76l6.31-2.18,40.03,58.52v-57.1h5.44v68.52h-7.83ZM559.18,568.26v-67.11l8.05-2.72v69.83h-8.05ZM604.43,505.06v63.2h-8.05v-63.2h-20.45l2.5-5.33,46.12-.11v5.44h-20.12ZM657.28,537.37v30.89h-7.94v-31.87l-20.01-35.24,7.61-2.83,17.95,31.76c5.44-10.11,17.62-31.76,17.62-31.76l5.11,2.07-20.34,36.98ZM741.36,568.91h-.11c-17.73,0-27.52-20.45-27.08-36,.43-16.21,9.46-35.02,28.06-34.59,7.83.11,14.58,1.85,19.9,5.77l-2.83,4.79c-5.01-3.26-10.23-4.46-15.88-4.46-14.58.11-18.92,16.64-19.14,28.61-.22,11.1,5,29.59,18.71,29.48,7.83,0,11.64-2.39,19.9-7.07l3.05,4.78c-7.94,6.2-15.66,8.7-24.58,8.7M816.3,568.26v-32.52h-32.52v32.52h-8.05v-67.11l8.05-2.72v31.65h32.52v-30.35h8.05v68.52h-8.05ZM861.33,569.24c-13.81,0-24.47-9.79-24.47-24.15v-44.05l8.05-2.72.11,45.47c0,11.75,5.44,19.03,16.97,18.92,11.42,0,18.16-7.72,18.16-19.14v-43.83h6.2v45.25c0,14.36-10.77,24.36-25.02,24.26M930.72,568.26l-18.16-32.09h-5.77v32.09h-7.94v-68.63h21.64c10.88,0,19.47,8.16,19.47,18.49.11,10.44-7.83,18.05-18.27,18.05l18.6,32.09h-9.57ZM919.52,505.28h-12.73v25.45l12.62-.11c7.5-.11,12.51-5.66,12.51-12.73,0-6.42-5.55-12.62-12.4-12.62M974.01,568.91h-.11c-17.73,0-27.52-20.45-27.09-36,.44-16.21,9.47-35.02,28.07-34.59,7.83.11,14.58,1.85,19.9,5.77l-2.83,4.79c-5-3.26-10.22-4.46-15.88-4.46-14.57.11-18.93,16.64-19.14,28.61-.21,11.1,5.01,29.59,18.71,29.48,7.83,0,11.64-2.39,19.91-7.07l3.04,4.78c-7.94,6.2-15.66,8.7-24.58,8.7M1048.95,568.26v-32.52h-32.52v32.52h-8.05v-67.11l8.05-2.72v31.65h32.52v-30.35h8.05v68.52h-8.05Z"/>
    </g>
  </g>
</svg>