<svg id="Layer_1" data-name="Layer 1" xmlns="http://www.w3.org/2000/svg" xmlns:xlink="http://www.w3.org/1999/xlink" viewBox="0 0 1600.32 900"><defs><style>.cls-1{fill:none;}.cls-2{clip-path:url(#clip-path);}.cls-3{fill:#c9c9cc;}.cls-4{fill:#2e2c2b;}.cls-5{fill:#173e6b;fill-rule:evenodd;}</style><clipPath id="clip-path"><rect class="cls-1" width="1600.32" height="900"/></clipPath></defs><g class="cls-2"><path class="cls-3" d="M150.2,195.34H1287.29A162.91,162.91,0,0,1,1450.2,358.25V704.66H312.47A162.26,162.26,0,0,1,150.2,542.39Z"/><path class="cls-4" d="M233.11,402.24,272.59,338l33.58,73.85L250.4,437.8Zm13,57.31,75-16.47,46.69-10.25,111.66-24.51,114.42-25.11-48.74,162.1-41.89-.37q8.15,21.54,19,43.68L411.39,663.38q-27.84-61.49-38.68-119.62l-39.49-.35a574.4,574.4,0,0,0,20.54,62.5l-77.73,22q-35.61-81.15-29.88-168.38m87.31-108.94,73.92-120.28,62.89,138.28L365.84,417.17Z"/><path class="cls-5" d="M1234.65,474.23l-17.35,45.14h32.88Zm58.29,174.08-24.64-72.42h-72.16l-26.51,72.42h-61.91l96.93-264.43,53.61-17,94.26,281.47Zm-286.34,0V537.79H935.78V648.31H869.56V386.75l66.22-22.54V479.79h70.82V376.35h66.22v272ZM760,433.61v214.7H693.74V433.61H622.37l18.2-57.26H827.92v57.26Z"/></g></svg>