<?xml version="1.0" encoding="UTF-8"?>
<svg id="Layer_1" data-name="Layer 1" xmlns="http://www.w3.org/2000/svg" viewBox="0 0 1600 900">
  <defs>
    <style>
      .cls-1 {
        fill: none;
      }

      .cls-2 {
        fill: #ea1d2d;
      }

      .cls-3 {
        fill: #fff;
      }

      .cls-4 {
        fill: #251f1e;
      }
    </style>
  </defs>
  <path class="cls-2" d="M437.58,646.18c108.14,0,209.27-87.66,225.88-195.8,16.62-108.14-57.58-195.8-165.71-195.8s-209.27,87.66-225.88,195.8c-16.62,108.14,57.58,195.8,165.71,195.8"/>
  <path class="cls-3" d="M463.78,547.46c3.73.35,7.25.67,10.69.86,15.03.83,31.02,1.52,46.86.04,20.4-1.9,37.19-7.22,51.32-16.28,24.45-15.66,38.59-49.03,41.39-73.41,1.07-9.38,2.68-19.38,1.7-29.83-.29-3.15-3.28-5.49-6.73-4.26-4.13,1.48-10.14,2.41-16.58,3.01-47.52,4.42-65.83-12.06-66.86-23.18-.36-3.91.82-6.88,1.98-8.97,1.5-2.68-1.7-3.46-3.05-3.36-15.95,1.21-28.45.45-45.37-1.34-4.31-.46-8.63-1.1-13.19-1.78-8.39-1.25-17.02-2.53-25.61-2.59-1.24,0-2.23-1.02-2.18-2.26.02-.45.04-.89.05-1.34.34-9.1.83-13.88,7.69-14.51,2.17-.21,4.94.03,8.21.71,1.13.23,2.37.51,3.67.79,6.8,1.51,16.11,3.58,24.29,2.82,8.35-.78,14.18-4.38,17.32-10.7,2.37-4.77,2.33-9.54-.12-13.78-5.34-9.25-21.48-14.4-30.71-14.97-3.59-.22-7.56-.15-11.48.21-7.52.7-25.88,3.61-33.81,15.52-6.27,9.42-4.03,19.86-1.85,29.95.55,2.57,1.09,5.04,1.47,7.44.17,1.11-.55,2.17-1.64,2.43-9.04,2.15-21.5,6.12-29.36,12.76-1.01.85-2.54.6-3.23-.53-1.89-3.09-3.15-5.99-2.66-8.54.51-2.63,2.99-5.44,7.38-8.35,10.21-6.78,16.76-15.82,17.97-24.81.98-7.24-1.32-14.12-6.84-20.45-4.65-5.35-9.74-7.8-15.11-7.31-1.98.19-4,.78-5.99,1.78-7.53,3.75-13.82,12.83-18.87,20.13-.98,1.41-1.82,2.63-2.63,3.76-19.77,27.58,4.93,53.34,19.82,67.95.49.48.71,1.16.61,1.84-8.76,63.31,4.04,103.71,11.81,114.36.74,1.01,49.73,35.13,62.77,30.46,1.28-.46,2.38-1.27,2.1-2.6-1.31-6.27-3.86-22.38,4.75-21.69M449.86,468.32c-21.66,2.02-40.36-8.51-41.76-23.51-1.39-15,15.04-28.79,36.71-30.81,21.66-2.01,40.36,8.51,41.75,23.51,1.4,15-15.04,28.79-36.7,30.81"/>
  <path class="cls-3" d="M591.63,420.93c-13.41,1.25-30.59-.59-35.82-2.1-9.72-2.8-22.52-6.91-22.97-16.52-.47-9.98,14.63-13.41,22.14-16.59,18.48-7.82,45.71-15.71,59.4,4.47,15.12,22.31-2.38,28.85-22.74,30.74"/>
  <path class="cls-3" d="M435.43,436.8c-.7-7.54,7.56-14.48,18.46-15.5,10.89-1.01,20.3,4.28,21,11.83.7,7.54-7.57,14.48-18.46,15.49-10.9,1.02-20.3-4.28-21-11.82"/>
  <path class="cls-3" d="M369.56,562.13c9.97,13.54,67.03,73.32,75.55,59.49,3.55-6.46,20.27-29.33,21.02-36.59.28-2.72-.5-4.85-1.39-6.57-1.78-3.45-4.09-2.01-4.74-1.49-5.35,4.3-36.15-3.8-73.69-36.09-1.02-.88-2.52-.81-3.39.23-2.39,2.87-14.52,11.83-14.52,11.83-1.31.71-4.85,1.02,1.16,9.19M394.31,567.01c2.46-2.45,5.7-3.21,7.23-1.68,1.53,1.54.77,4.78-1.69,7.23-2.47,2.46-5.7,3.21-7.23,1.67-1.53-1.53-.77-4.77,1.69-7.22M385.8,559.5c1.7-1.7,3.94-2.22,5-1.16,1.06,1.06.54,3.3-1.17,5-1.7,1.7-3.95,2.22-5.01,1.16-1.06-1.06-.53-3.3,1.18-5"/>
  <rect class="cls-4" x="701.99" y="532.74" width="5.77" height="49.57"/>
  <path class="cls-4" d="M751.14,560.8v21.52h-5.7v-21.16c0-3.19-.62-5.51-1.86-6.96-1.24-1.45-3.22-2.18-5.94-2.18-3.14,0-5.65.96-7.52,2.88-1.88,1.92-2.82,4.52-2.82,7.8v19.62h-5.69v-34.24h5.62v5.62c1.13-2.11,2.7-3.71,4.71-4.82,2.02-1.1,4.31-1.65,6.89-1.65,8.2,0,12.31,4.52,12.31,13.57"/>
  <path class="cls-4" d="M789.18,549.41c2.3,1.45,4.08,3.51,5.34,6.19,1.27,2.67,1.9,5.76,1.9,9.28s-.63,6.69-1.9,9.39c-1.26,2.7-3.05,4.79-5.34,6.29-2.3,1.5-4.95,2.25-7.95,2.25-2.67,0-5-.59-7-1.76-1.99-1.17-3.5-2.84-4.54-4.99v6.26h-5.7v-49.57h5.7v21.24c1.03-2.15,2.54-3.82,4.54-4.99,1.99-1.17,4.32-1.76,7-1.76,3,0,5.65.73,7.95,2.18M787.85,574.62c1.83-2.32,2.74-5.57,2.74-9.74s-.91-7.24-2.74-9.49c-1.83-2.25-4.41-3.38-7.74-3.38s-5.9,1.12-7.7,3.38c-1.8,2.25-2.71,5.46-2.71,9.63s.9,7.4,2.71,9.67c1.8,2.28,4.37,3.41,7.7,3.41s5.91-1.16,7.74-3.48"/>
  <path class="cls-4" d="M813.06,580.63c-2.46-1.45-4.36-3.53-5.7-6.23-1.34-2.69-2-5.82-2-9.39s.67-6.69,2-9.39c1.34-2.69,3.23-4.77,5.7-6.22,2.46-1.45,5.31-2.18,8.54-2.18s6.09.73,8.58,2.18c2.48,1.45,4.39,3.53,5.73,6.22,1.34,2.7,2,5.83,2,9.39s-.67,6.69-2,9.39c-1.34,2.7-3.24,4.77-5.73,6.23-2.49,1.45-5.35,2.18-8.58,2.18s-6.08-.72-8.54-2.18M829.37,574.76c1.8-2.23,2.71-5.47,2.71-9.74s-.92-7.39-2.75-9.67c-1.82-2.28-4.4-3.41-7.73-3.41s-5.91,1.14-7.73,3.41c-1.83,2.27-2.74,5.49-2.74,9.67s.9,7.45,2.71,9.7c1.8,2.25,4.39,3.38,7.77,3.38s5.97-1.11,7.77-3.34"/>
  <path class="cls-4" d="M877.71,548.07v34.24h-5.56v-5.84c-1.08,2.06-2.59,3.63-4.53,4.71-1.95,1.08-4.14,1.62-6.58,1.62-4.08,0-7.15-1.13-9.21-3.41-2.07-2.28-3.09-5.64-3.09-10.09v-21.23h5.69v21.1c0,3.05.61,5.29,1.83,6.71,1.22,1.43,3.14,2.14,5.77,2.14,3,0,5.41-.97,7.24-2.92,1.83-1.95,2.74-4.51,2.74-7.7v-19.34h5.7Z"/>
  <path class="cls-4" d="M920.32,560.8v21.52h-5.69v-21.16c0-3.19-.62-5.51-1.87-6.96-1.24-1.45-3.22-2.18-5.94-2.18-3.14,0-5.65.96-7.52,2.88-1.88,1.92-2.82,4.52-2.82,7.8v19.62h-5.69v-34.24h5.63v5.62c1.12-2.11,2.69-3.71,4.71-4.82,2.01-1.1,4.31-1.65,6.89-1.65,8.2,0,12.3,4.52,12.3,13.57"/>
  <path class="cls-4" d="M963.57,532.74v49.57h-5.69v-6.26c-1.03,2.16-2.54,3.82-4.54,4.99-1.99,1.17-4.32,1.76-6.99,1.76-3,0-5.65-.75-7.95-2.25-2.29-1.5-4.08-3.6-5.34-6.29-1.27-2.7-1.9-5.82-1.9-9.39s.63-6.61,1.9-9.28c1.27-2.67,3.05-4.74,5.34-6.19,2.3-1.45,4.95-2.18,7.95-2.18,2.67,0,5.01.59,6.99,1.76,2,1.17,3.5,2.84,4.54,4.99v-21.23h5.69ZM955.17,574.68c1.8-2.27,2.71-5.49,2.71-9.67s-.9-7.38-2.71-9.63c-1.8-2.25-4.37-3.38-7.7-3.38s-5.92,1.12-7.77,3.38c-1.85,2.25-2.78,5.41-2.78,9.49s.92,7.42,2.78,9.74c1.85,2.32,4.44,3.48,7.77,3.48s5.89-1.14,7.7-3.41"/>
  <polygon class="cls-4" points="1040.15 532.74 1044.86 532.74 1044.86 582.31 1039.59 582.31 1039.65 543.92 1023.55 574.44 1019.47 574.44 1003.3 544.2 1003.37 582.31 998.03 582.31 998.03 532.74 1002.81 532.74 1021.58 568.67 1040.15 532.74"/>
  <path class="cls-4" d="M1082.44,550.57c2.13,2.22,3.2,5.61,3.2,10.16v21.59h-5.56v-5.84c-.88,2.02-2.25,3.57-4.07,4.68-1.83,1.1-3.94,1.65-6.33,1.65-2.21,0-4.23-.45-6.09-1.34-1.85-.89-3.31-2.13-4.39-3.72-1.08-1.59-1.62-3.35-1.62-5.27,0-2.58.66-4.58,1.97-6.01,1.31-1.43,3.47-2.46,6.47-3.09s7.17-.95,12.52-.95h1.54v-2.32c0-2.86-.58-4.93-1.75-6.22-1.18-1.29-3.07-1.93-5.7-1.93-3.94,0-7.85,1.22-11.74,3.65l-1.9-4.15c1.78-1.27,3.93-2.29,6.43-3.06,2.51-.77,4.94-1.16,7.28-1.16,4.36,0,7.61,1.11,9.74,3.34M1077.38,575.46c1.8-1.9,2.7-4.34,2.7-7.35v-2.04h-1.26c-4.13,0-7.27.18-9.42.53-2.16.35-3.7.94-4.61,1.76-.92.82-1.37,2.03-1.37,3.62,0,1.83.67,3.34,2,4.54,1.34,1.2,3.01,1.79,5.03,1.79,2.81,0,5.12-.95,6.93-2.85"/>
  <path class="cls-4" d="M1117.92,552.15l-3.73.35c-3.51.33-6.06,1.43-7.63,3.3-1.57,1.88-2.36,4.2-2.36,6.96v19.55h-5.69v-34.24h5.55v5.98c1.93-3.98,5.7-6.21,11.33-6.68l2.03-.14.5,4.92Z"/>
  <polygon class="cls-4" points="1156.31 582.31 1148.93 582.31 1131.49 565.93 1131.49 582.31 1125.79 582.31 1125.79 532.74 1131.49 532.74 1131.49 563.61 1147.45 548.14 1154.69 548.14 1137.68 564.52 1156.31 582.31"/>
  <path class="cls-4" d="M1191.47,566.07h-25.03c.18,3.99,1.26,6.99,3.23,9.04,1.97,2.04,4.76,3.06,8.37,3.06,3.98,0,7.64-1.36,10.97-4.08l1.9,4.15c-1.5,1.41-3.43,2.52-5.77,3.34-2.34.82-4.74,1.23-7.17,1.23-5.34,0-9.55-1.57-12.62-4.71-3.07-3.14-4.61-7.48-4.61-13.01,0-3.51.68-6.62,2.04-9.32,1.36-2.7,3.27-4.79,5.73-6.29,2.46-1.5,5.26-2.25,8.4-2.25,4.55,0,8.11,1.49,10.69,4.46,2.58,2.98,3.87,7.07,3.87,12.27v2.11ZM1169.78,554.47c-1.81,1.88-2.87,4.53-3.2,7.95h19.9c-.1-3.47-.96-6.13-2.61-7.98-1.64-1.85-3.93-2.78-6.89-2.78s-5.4.94-7.2,2.81"/>
  <path class="cls-4" d="M1220.23,578.02l-.28,4.5c-1.08.19-2.25.28-3.51.28-4.13,0-7.24-1.08-9.32-3.23-2.09-2.15-3.13-5.15-3.13-9v-18h-6.68v-4.5h6.68v-10.41h5.69v10.41h9.71v4.5h-9.71v17.58c0,5.39,2.49,8.08,7.46,8.08,1.03,0,2.06-.07,3.09-.21"/>
  <path class="cls-4" d="M1227.9,533.23h6.89v6.4h-6.89v-6.4ZM1228.46,548.07h5.69v34.24h-5.69v-34.24Z"/>
  <path class="cls-4" d="M1276.76,560.8v21.52h-5.69v-21.16c0-3.19-.63-5.51-1.87-6.96-1.24-1.45-3.22-2.18-5.94-2.18-3.14,0-5.65.96-7.52,2.88-1.88,1.92-2.82,4.52-2.82,7.8v19.62h-5.69v-34.24h5.63v5.62c1.12-2.11,2.69-3.71,4.71-4.82,2.01-1.1,4.31-1.65,6.89-1.65,8.2,0,12.3,4.52,12.3,13.57"/>
  <path class="cls-4" d="M1320.29,548.07v31.92c0,5.11-1.31,8.96-3.94,11.57-2.62,2.6-6.51,3.9-11.67,3.9-6,0-11.04-1.55-15.12-4.64l1.9-4.22c2.3,1.5,4.45,2.58,6.47,3.24,2.02.66,4.26.99,6.75.99,3.28,0,5.77-.88,7.46-2.64,1.68-1.76,2.53-4.32,2.53-7.7v-6.05c-.99,2.2-2.5,3.89-4.54,5.06-2.04,1.17-4.44,1.76-7.21,1.76-3,0-5.66-.7-7.98-2.11-2.32-1.41-4.12-3.4-5.41-5.98-1.29-2.58-1.93-5.56-1.93-8.93s.64-6.35,1.93-8.93c1.29-2.58,3.09-4.57,5.41-5.98,2.32-1.41,4.98-2.11,7.98-2.11,2.72,0,5.09.59,7.11,1.76,2.01,1.17,3.53,2.84,4.57,4.99v-5.9h5.69ZM1311.78,573.28c1.88-2.18,2.82-5.19,2.82-9.04s-.93-6.79-2.78-8.97c-1.85-2.18-4.44-3.27-7.77-3.27s-5.94,1.09-7.84,3.27c-1.9,2.18-2.85,5.17-2.85,8.97s.95,6.85,2.85,9.04c1.9,2.18,4.51,3.27,7.84,3.27s5.86-1.09,7.73-3.27"/>
  <path class="cls-4" d="M802.24,340.55c8.13,7.44,12.2,17.62,12.2,30.53,0,15.15-4.29,26.81-12.87,34.97-8.58,8.17-20.93,12.25-37.07,12.25h-30.92l-2.5,33.39c-.51,5.67-2.46,10.11-5.86,13.33-3.39,3.23-7.84,4.84-13.35,4.84s-9.54-1.61-12.48-4.84c-2.95-3.22-4.16-7.61-3.65-13.14l8.07-105.71c.51-5.4,2.31-9.55,5.38-12.45,3.07-2.89,7.17-4.35,12.29-4.35h46.86c14.47,0,25.76,3.72,33.9,11.17M781.59,373.05c0-5.53-1.51-9.61-4.51-12.25-3.01-2.63-7.58-3.95-13.73-3.95h-24.97l-2.69,34.18h25.35c13.7,0,20.55-5.99,20.55-17.98"/>
  <path class="cls-4" d="M904.84,424.32c-1.65,1.65-3.92,2.47-6.82,2.47h-51.57c1.58,11.85,8.76,17.78,21.54,17.78,3.82,0,6.98-.36,9.48-1.09,2.5-.72,5.8-1.94,9.88-3.65,2.37-1.05,4.41-1.58,6.13-1.58,2.9,0,5.17,1.12,6.82,3.36,1.64,2.24,2.47,4.94,2.47,8.1,0,2.77-.59,5.41-1.78,7.9-1.19,2.51-3.03,4.48-5.53,5.93-3.43,1.97-7.8,3.59-13.14,4.84-5.33,1.25-10.96,1.88-16.89,1.88-10.41,0-19.6-1.98-27.57-5.93-7.97-3.95-14.16-9.52-18.57-16.7-4.42-7.18-6.62-15.58-6.62-25.19,0-10.14,2.14-19.27,6.42-27.37,4.28-8.1,10.24-14.46,17.88-19.07,7.64-4.61,16.2-6.92,25.69-6.92,14.1,0,25.06,4.25,32.9,12.75,7.84,8.49,11.76,20.38,11.76,35.66,0,2.9-.82,5.17-2.47,6.82M852.48,397.06c-2.83,2.83-4.71,7.21-5.63,13.14h31.42c-.13-5.66-1.41-9.98-3.85-12.94-2.44-2.96-5.96-4.45-10.57-4.45s-8.53,1.42-11.36,4.25"/>
  <path class="cls-4" d="M1003.48,374.73c6.14,3.76,10.88,9.12,14.24,16.11,3.36,6.98,5.04,15.28,5.04,24.9,0,10.54-1.94,19.96-5.81,28.25-3.88,8.3-9.27,14.75-16.18,19.37-6.91,4.61-14.88,6.91-23.92,6.91-11.5,0-20.73-4.15-27.7-12.45l-2.52,32.8c-.26,4.61-2.03,8.33-5.33,11.16-3.29,2.83-7.46,4.25-12.49,4.25-5.29,0-9.46-1.48-12.49-4.45-3.04-2.96-4.43-6.82-4.16-11.56l8.13-104.32c.26-4.88,2-8.79,5.23-11.76,3.22-2.96,7.42-4.45,12.59-4.45,4.52,0,8.16,1.12,10.94,3.36,2.77,2.24,4.36,5.33,4.75,9.28,3.1-4.21,7.07-7.44,11.91-9.68,4.84-2.24,10.36-3.36,16.56-3.36,8.01,0,15.08,1.88,21.2,5.63M983.54,437.26c3.42-4.74,5.13-11.13,5.13-19.17,0-7.38-1.61-13.07-4.84-17.09-3.23-4.02-7.81-6.02-13.75-6.02s-10.39,2.37-13.75,7.11c-3.36,4.74-5.04,10.93-5.04,18.57s1.55,13.67,4.65,17.68c3.1,4.02,7.55,6.03,13.36,6.03s10.81-2.37,14.24-7.11"/>
  <path class="cls-4" d="M1119.7,374.73c6.13,3.76,10.87,9.12,14.23,16.11,3.36,6.98,5.04,15.28,5.04,24.9,0,10.54-1.94,19.96-5.81,28.25-3.88,8.3-9.27,14.75-16.18,19.37-6.9,4.61-14.88,6.91-23.91,6.91-11.5,0-20.73-4.15-27.7-12.45l-2.52,32.8c-.26,4.61-2.03,8.33-5.33,11.16-3.29,2.83-7.45,4.25-12.49,4.25-5.29,0-9.46-1.48-12.49-4.45-3.04-2.96-4.43-6.82-4.17-11.56l8.14-104.32c.25-4.88,2-8.79,5.23-11.76,3.22-2.96,7.42-4.45,12.59-4.45,4.52,0,8.16,1.12,10.94,3.36,2.77,2.24,4.36,5.33,4.75,9.28,3.1-4.21,7.07-7.44,11.91-9.68,4.84-2.24,10.36-3.36,16.56-3.36,8,0,15.07,1.88,21.21,5.63M1099.75,437.26c3.42-4.74,5.13-11.13,5.13-19.17,0-7.38-1.61-13.07-4.84-17.09-3.23-4.02-7.82-6.02-13.75-6.02s-10.4,2.37-13.76,7.11c-3.36,4.74-5.03,10.93-5.03,18.57s1.55,13.67,4.65,17.68c3.1,4.02,7.55,6.03,13.36,6.03s10.81-2.37,14.24-7.11"/>
  <path class="cls-4" d="M1238.03,424.32c-1.64,1.65-3.92,2.47-6.81,2.47h-51.57c1.58,11.85,8.76,17.78,21.54,17.78,3.81,0,6.98-.36,9.48-1.09,2.5-.72,5.8-1.94,9.88-3.65,2.37-1.05,4.41-1.58,6.13-1.58,2.89,0,5.16,1.12,6.81,3.36,1.65,2.24,2.47,4.94,2.47,8.1,0,2.77-.59,5.41-1.78,7.9-1.19,2.51-3.03,4.48-5.53,5.93-3.43,1.97-7.8,3.59-13.14,4.84-5.33,1.25-10.97,1.88-16.89,1.88-10.41,0-19.6-1.98-27.57-5.93-7.97-3.95-14.16-9.52-18.57-16.7-4.41-7.18-6.62-15.58-6.62-25.19,0-10.14,2.14-19.27,6.42-27.37,4.28-8.1,10.24-14.46,17.88-19.07,7.64-4.61,16.21-6.92,25.69-6.92,14.09,0,25.06,4.25,32.9,12.75,7.83,8.49,11.75,20.38,11.75,35.66,0,2.9-.82,5.17-2.47,6.82M1185.67,397.06c-2.83,2.83-4.71,7.21-5.63,13.14h31.42c-.13-5.66-1.42-9.98-3.85-12.94-2.44-2.96-5.96-4.45-10.57-4.45s-8.54,1.42-11.37,4.25"/>
  <path class="cls-4" d="M1327.74,372.65c2.43,2.37,3.39,5.92,2.86,10.67-.53,5.27-2.11,9.09-4.74,11.46-2.64,2.37-7.25,3.89-13.83,4.54l-5.33.59c-7.38.92-12.46,2.8-15.22,5.63-2.77,2.84-4.48,7.61-5.14,14.32l-2.77,33.79c-.39,5.27-2.34,9.29-5.82,12.05-3.49,2.77-7.74,4.15-12.75,4.15s-9.12-1.38-12.35-4.15c-3.22-2.77-4.64-6.79-4.24-12.05l5.53-68.17c.52-5.14,2.6-9.09,6.22-11.86,3.62-2.76,7.81-4.15,12.55-4.15s8.26,1.28,10.96,3.85c2.7,2.57,3.99,6.22,3.86,10.96,3.68-4.35,8.06-7.8,13.14-10.37,5.07-2.57,9.97-3.98,14.72-4.25l2.37-.2c4.21-.26,7.54.79,9.98,3.16"/>
  <rect class="cls-1" x="0" width="1600.32" height="900.48"/>
</svg>