<?xml version="1.0" encoding="UTF-8"?>
<svg id="Layer_1" data-name="Layer 1" xmlns="http://www.w3.org/2000/svg" viewBox="0 0 1600 900">
  <defs>
    <style>
      .cls-1, .cls-2 {
        fill: none;
      }

      .cls-2 {
        stroke: #a09133;
        stroke-miterlimit: 10;
        stroke-width: 4px;
      }

      .cls-3 {
        fill: #c33c33;
      }

      .cls-4 {
        fill: #a09133;
      }

      .cls-5 {
        fill: #251f1e;
      }
    </style>
  </defs>
  <path class="cls-3" d="M912.23,400.62c-6.59-16.52-18.71-50.48-18.71-77.06,0-36.52,30.47-71.44,30.47-71.44,0,0,30.47,34.91,30.47,71.44,0,25.94-11.54,58.91-18.22,75.84-11.49-20.54-11.64-69.66-11.65-71.56,0,1.93-.16,53.06-12.36,72.79M940.98,427.05h0s-.03,0-.03,0c.01,0,.02,0,.03,0M897.96,375.22c.26.38-4.4-40.21-27.34-53.22-22.94-13.01-50.58,3.6-50.58,3.6,0,0,47.19,4.09,77.92,49.62M950.03,375.22c30.73-45.53,77.91-49.62,77.91-49.62,0,0-27.64-16.61-50.57-3.6-22.94,13.01-27.6,53.6-27.34,53.22M953.33,446.71c-9.36-8.53-11.76-16.75-12.33-19.56-.88.14-3.54.73-6.48,2.85,4.55,34.61,26.11,48.12,26.11,48.12,0,0,4.24-20.89-7.31-31.41M972.09,363.94c-20.63,8.47-30.47,26.44-34.71,37.34,2.08,3.17,4.5,5.44,7.31,6.44,2.97-4.05,15.56-18.83,41.08-18.83,29.55,0,48.5-21.88,48.5-21.88,0,0-31.45-15.7-62.18-3.08M903.48,407.97s.09.01.14.01c2.84-.71,5.3-2.69,7.42-5.58-3.99-10.75-13.78-29.69-35.13-38.46-30.73-12.62-62.19,3.08-62.19,3.08,0,0,18.96,21.88,48.51,21.88,26.06,0,38.64,15.43,41.26,19.08M924.6,453.17c-.56-12.15-4.62-18.64-8.59-22.12-1.78,6.72-5.01,20.7-5.01,33.62,0,17.82,13.6,31.7,13.6,31.7,0,0,13.6-13.88,13.6-31.7,0-12.92-3.23-26.9-5.01-33.62-3.98,3.48-8.03,9.97-8.6,22.12M908.2,427.15c-.58,2.83-2.99,11.05-12.33,19.56-11.54,10.52-7.3,31.41-7.3,31.41,0,0,21.55-13.51,26.11-48.12-2.93-2.11-5.59-2.7-6.47-2.85M958.22,420.97c3.14-.64,4.53-6.83,4.53-6.83,0,0-3.7-5.16-6.84-4.53-20.86,4.23-42.91,4.23-63.77,0-3.13-.63-6.83,4.53-6.83,4.53,0,0,1.39,6.19,4.53,6.83,11.18,2.27,22.69,3.4,34.19,3.4s23.01-1.13,34.19-3.4"/>
  <path class="cls-5" d="M924.62,501.64s0-.01,0-.02h0s0,.01,0,.02"/>
  <path class="cls-4" d="M891.71,426.5c.49.09.98.18,1.47.27,1.71,1.16,4.13,2.61,7.2,4.03-2.79,5.86-8.55,12.82-20.29,12.78.71-7.55,5.28-13.82,11.62-17.08M990.25,474.16c-1.45-11.42-11.13-19.65-21.98-18.53,1.03,4.41,5.77,19.3,21.98,18.53M969.16,444.25c-.01-.18-.05-.36-.07-.55-5.31.56-9.26,1.57-12.21,2.75,1.24,1.28,2.29,2.67,3.2,4.12,2.24-1.25,4.7-2.07,7.33-2.36.53-.05,1.07-.06,1.6-.08.15-1.27.23-2.55.15-3.87M970.07,434.96c.2-1.63.59-3.2,1.08-4.76-1.36-.74-2.76-1.45-4.2-2.13,1.35,2.11,2.44,4.42,3.12,6.88M922.95,512.08c.35-11.52-8.44-21.3-20-22.1.36,4.54,2.89,20.03,20,22.1M950.06,475.13c-.09,1.12-.08,2.8,0,3.95.97-.17,2.74-.12,3.61-.37-.86-.81-2.65-2.54-3.61-3.58M874.68,432.2c-2.95,1.82-5.7,3.83-8.28,6.02,2.49,2.43,5.89,4.38,10.58,5.2.27-4.05-.63-7.88-2.3-11.22M946.24,478.8c-2.48.11-4.66.33-6.6.64-.62,1.89-1.34,3.69-2.11,5.38,2.57-1.3,5.39-2.12,8.39-2.31h.08c.16-1.03.26-2.07.26-3.14,0-.18-.02-.38-.02-.57M926.23,512.08c17.11-2.07,19.64-17.55,20-22.1-11.56.8-20.35,10.58-20,22.1M969.08,509.44c-1.06-11.47-11-20.1-22.56-19.47.92,4.46,5.33,19.53,22.56,19.47M989.51,487.19c-10.45,1.22-18.07,11-17.32,22.07,15.45-2.67,17.16-17.69,17.32-22.07M859.44,540c16.21.77,20.95-14.11,21.97-18.53-10.85-1.1-20.54,7.12-21.97,18.53M946.24,544.55c-.37-11.51-9.76-20.75-21.32-20.82.64,4.5,4.11,19.83,21.32,20.82M924.62,523.73c-11.58.07-20.97,9.31-21.33,20.82,17.21-1.01,20.69-16.32,21.33-20.82M856.69,450.39s-.08-.63-.46-1.57c-.81,1.04-1.6,2.12-2.34,3.19,2.6,3.74,4.39,8.49,4.9,13.6,2.53-8.45,9.23-15.22,17.22-17.04.45-1.43.78-2.95.93-4.51.02-.18.02-.36.02-.55-18.31-1.14-20.27,6.88-20.27,6.88M990.25,540c-1.45-11.41-11.13-19.63-21.98-18.53,1.03,4.42,5.77,19.3,21.98,18.53M903.26,479.36c0,1.08.1,2.13.27,3.17,2.87.21,5.57,1.02,8.04,2.25-.78-1.7-1.5-3.51-2.12-5.41-1.83-.27-3.87-.48-6.17-.58,0,.19-.03.38-.03.57M876.98,509.27c.74-11.07-6.87-20.86-17.32-22.07.16,4.38,1.86,19.4,17.32,22.07M846.08,465.75c2.11,3.89,5.48,7.32,10.96,8.48.4-7.09-2.01-13.63-6.03-17.8-1.8,2.97-3.45,6.07-4.93,9.32M838.19,505.02c15.64.75,20.2-13.61,21.2-17.85-10.47-1.08-19.8,6.84-21.2,17.85M860.22,479.99c10.05,1.11,17.64,10.37,18.89,20.82,2.59-9.29,10.47-16.79,19.89-18.12.28-1.11.52-2.26.64-3.46.02-.19.02-.37.02-.55-1.45-.09-2.78-.12-4.03-.11-2.84,2.6-4.87,3.91-5.14,4.08l-4.53,2.84-1.05-5.18c-5.45,2.14-6.27,5.49-6.27,5.49,0,0-.39-8.59-19.21-11.54-.02.19-.07.37-.07.56-.18,1.75-.14,3.47.09,5.14.27.02.52,0,.77.03M889.17,450.33c.87-1.37,1.89-2.68,3.07-3.91-2.95-1.17-6.88-2.18-12.16-2.73,0,.19-.05.37-.06.55-.08,1.33,0,2.59.14,3.85.71,0,1.4.02,2.12.1,2.46.27,4.77,1.01,6.89,2.13M856.06,480.03c.47-1.63.81-3.33.95-5.14.02-.18.02-.35.02-.55-10.89-.83-14.81,3.07-16.17,5.38-3.02,10.02-4.93,20.95-5.96,32.5.88-.51,1.78-.96,2.73-1.25-.93-2.95-1.33-6.14-1.01-9.43,1.07-10.99,9.43-20.31,19.43-21.51M967.99,521.51c-10.84,1.28-18.74,11.42-17.96,22.9,16.02-2.76,17.79-18.35,17.96-22.9M880.09,575.22c17.24.05,21.64-15.02,22.57-19.47-11.57-.64-21.5,8-22.57,19.47M969.16,510.13c-.01-.21-.05-.38-.07-.58-20.1,2.12-20.85,10.68-20.85,10.68,0,0-1.82-8.41-22-8.05,0,.19-.02.38,0,.58.07,1.23.28,2.43.57,3.6,10.37.99,18.82,9.49,20.97,19.71,1.12-11.02,9.08-20.86,19.64-22.02.53-.06,1.07-.07,1.6-.07.15-1.27.23-2.56.15-3.85M946.52,555.75c.92,4.45,5.33,19.52,22.56,19.47-1.06-11.47-11-20.11-22.56-19.47M881.7,587.28c.17,4.55,1.94,20.13,17.97,22.9.77-11.48-7.12-21.63-17.97-22.9M969.16,575.88c-.01-.19-.05-.38-.07-.58-20.1,2.13-20.85,10.7-20.85,10.7,0,0-1.82-8.41-22-8.05,0,.19-.02.37,0,.57.07,1.24.28,2.43.57,3.61,10.37.99,18.82,9.5,20.97,19.71,1.12-11.02,9.08-20.85,19.64-22.02.53-.06,1.07-.07,1.6-.07.15-1.27.23-2.54.15-3.87M1014.31,511.95c-1.07-11.9-3.1-23.11-6.3-33.38-1.9-2.24-6.12-4.95-15.36-4.24.01.19,0,.37.02.55.15,1.84.5,3.58.99,5.22,9.76,1.47,17.83,10.64,18.89,21.43.31,3.25-.08,6.39-.98,9.3.95.26,1.86.65,2.74,1.11M950.03,610.19c16.02-2.77,17.79-18.36,17.96-22.9-10.84,1.28-18.74,11.42-17.96,22.9M909.49,479.48c-.97-3.38-2.13-8.76-2.21-12.6-2.39,3.35-4.82,9.81-3.75,15.65,2.08-.12,4.26-2.56,5.96-3.06M922.37,582.16c.29-1.18.5-2.39.57-3.63.01-.2,0-.38,0-.57-20.2-.36-22.02,8.05-22.02,8.05,0,0-.76-8.57-20.85-10.7,0,.2-.05.38-.06.58-.08,1.32,0,2.58.14,3.84.71,0,1.4.03,2.12.1,10.42,1.14,18.29,10.74,19.58,21.58,2.26-9.9,10.45-18.12,20.51-19.25M859.44,474.16c16.21.77,20.95-14.11,21.97-18.53-10.85-1.12-20.54,7.11-21.97,18.53M879.1,434.96c.68-2.45,1.77-4.74,3.11-6.85-1.43.68-2.83,1.4-4.18,2.12.48,1.54.88,3.11,1.08,4.73M946.26,479.23c-.15-4.64-1.78-9.44-4.41-12.89-.03,3.99-1.21,9.6-2.21,13.1,1.8.56,4.38-.34,6.62-.21M990.35,474.82c-.02-.19-.06-.37-.08-.56-18.82,2.95-19.21,11.54-19.21,11.54,0,0-.87-3.57-6.81-5.7-.01.07-.02.12-.03.15l-1.06,5.23-4.53-2.84c-.27-.17-2.29-1.48-5.14-4.09-1.08,0-2.23.04-3.45.12,0,.18,0,.36.02.55.12,1.24.36,2.4.68,3.56,9.17,1.53,16.79,8.91,19.34,18.02,1.24-10.45,8.84-19.7,18.87-20.81.44-.05.87-.05,1.31-.06.22-1.65.27-3.36.1-5.11M881.7,455.66c.08,2.1.5,6.55,2.51,11.01.24-3.17.82-6.59,1.95-9.93-1.41-.52-2.9-.89-4.45-1.07M948.78,430.78c2.78,5.87,8.55,12.84,20.29,12.79-.71-7.68-5.43-14.06-11.95-17.24-.68.13-1.35.26-2.03.38-.04.47-.07.89-.07.89,0,0-1.62,2.46-6.24,3.18M922.37,516.39c.29-1.19.5-2.39.57-3.62.01-.2,0-.39,0-.58-20.2-.37-22.02,8.05-22.02,8.05,0,0-.76-8.57-20.85-10.68,0,.2-.05.37-.06.58-.08,1.29,0,2.57.14,3.83.71,0,1.4.02,2.12.09,10.42,1.15,18.29,10.74,19.58,21.59,2.26-9.9,10.45-18.12,20.51-19.25M880.09,509.44c17.24.06,21.64-15.01,22.57-19.47-11.57-.63-21.5,8-22.57,19.47M881.7,521.51c.17,4.55,1.94,20.13,17.97,22.9.77-11.48-7.12-21.62-17.97-22.9M963.03,456.92c1.21,3.66,1.76,7.42,1.95,10.82,2.45-4.8,2.93-9.81,3.02-12.08-1.74.2-3.4.64-4.96,1.26M895.26,478.88c1,.32,3.24-.25,4.39-.05.09-1.36.08-2.97-.07-4.28-1.1,1.21-3.35,3.4-4.32,4.33M905.75,646.9c4.21.92,8.57,1.55,13.1,1.83,1.15-.33,2.32-.59,3.52-.72.29-1.17.5-2.37.57-3.63.01-.19,0-.36,0-.56-8.75-.16-14.02,1.33-17.19,3.08M880.93,636.84c1.9,1.19,3.86,2.3,5.88,3.34,11.7-3.26,15.05-14.77,15.84-18.58-10.09-.55-18.92,5.96-21.72,15.24M898.99,614.31c.28-1.11.52-2.25.64-3.45.02-.19.02-.37.02-.57-18.99-1.19-21.02,7.14-21.02,7.14,0,0-.39-8.59-19.21-11.54-.02.19-.07.36-.07.56-.18,1.76-.14,3.48.09,5.14.27.01.52,0,.77.05,10.05,1.09,17.64,10.35,18.89,20.8,2.59-9.29,10.47-16.8,19.89-18.14M926.23,643.7c17.11-2.05,19.64-17.56,20-22.08-11.56.78-20.35,10.57-20,22.08M902.95,621.63c.36,4.52,2.89,20.02,20,22.08.35-11.5-8.44-21.3-20-22.08M926.23,643.82c0,.2-.02.37,0,.56.07,1.25.28,2.43.57,3.61,1.29.13,2.54.37,3.76.72,4.46-.28,8.74-.89,12.89-1.8-3.2-1.74-8.46-3.24-17.22-3.08M851.61,605.96c1.18,2.01,2.39,3.97,3.68,5.86.26-.05.5-.13.77-.16.47-1.62.81-3.33.95-5.13.02-.19.02-.37.02-.55-2.04-.15-3.84-.15-5.42,0M842.06,585.07c.15-.6.27-1.14.35-1.58-.31-.04-.62-.05-.92-.07.18.56.37,1.11.57,1.65M876.01,580.21c.45-1.42.78-2.95.93-4.51.02-.19.02-.37.02-.55-18.31-1.15-20.27,6.88-20.27,6.88,0,0-.36-8.29-18.52-11.12-.02.15-.05.3-.07.45.39,1.71.82,3.38,1.27,5.04,1.22-.2,2.46-.3,3.72-.14,8.34,1.12,14.64,10.43,15.69,20.99,2.53-8.46,9.23-15.23,17.22-17.04M860.71,619.04c4.6,5.55,9.78,10.43,15.47,14.58-2.04-7.44-7.92-13.25-15.47-14.58M1010.98,505.02c-1.39-11.01-10.73-18.93-21.2-17.85,1,4.24,5.56,18.6,21.2,17.85M972.95,633.7c5.75-4.17,10.96-9.08,15.6-14.67-7.62,1.3-13.57,7.16-15.6,14.67M1010.99,570.91c-18.15,2.83-18.52,11.12-18.52,11.12,0,0-1.96-8.02-20.28-6.88.02.17,0,.36.02.55.16,1.53.46,2.99.92,4.41,8.23,1.61,15.16,8.49,17.76,17.14,1.05-10.56,7.35-19.87,15.69-20.99,1.12-.15,2.22-.08,3.3.07.42-1.56.82-3.14,1.19-4.74v-.15c-.01-.18-.05-.37-.08-.54M992.65,605.86c2.86-.61,5.13-1.83,6.98-3.43,2.78-5.2,5.21-10.75,7.27-16.57.09-.94.15-1.74.16-2.34-8.7,1.25-15.04,11.12-14.41,22.33M1007.45,584.34c.1-.29.18-.56.28-.85-.15.01-.31,0-.45,0,.05.25.1.53.17.85M1007.28,517.72c.57,2.97,2.58,10.68,7.98,15.01-.03-4.6-.16-9.14-.43-13.58-2.32-1.22-4.89-1.76-7.55-1.43M924.76,619.81s-1.29-8.5-21.47-9.38c0,.18-.03.37-.03.57,0,1.07.1,2.14.27,3.17,10.38.76,18.68,9.02,21.06,18.94,2.41-10.03,10.82-18.33,21.33-18.98.04,0,.06,0,.08,0,.16-1.01.26-2.07.26-3.13,0-.2-.02-.38-.02-.57-20.19.88-21.48,9.38-21.48,9.38M1009.51,547.15s-1.62-8.13-16.86-6.96c.01.19,0,.37.02.55.15,1.8.49,3.51.95,5.15,9.29,1.38,17.06,9.76,18.7,19.86,1.62-8.4,2.6-17.17,2.85-26.25-5.44,3.46-5.67,7.65-5.67,7.65M992.65,605.97c.01.18,0,.37.02.55.15,1.84.5,3.57.99,5.22.1,0,.2.06.29.07,1.29-1.9,2.52-3.86,3.69-5.87-1.47-.1-3.11-.12-4.98.03M946.52,621.6c.79,3.81,4.16,15.34,15.89,18.58,2.01-1.01,3.96-2.13,5.86-3.33-2.79-9.29-11.64-15.81-21.74-15.26M856.08,545.81c.46-1.6.79-3.29.93-5.07.02-.17.02-.35.02-.55-15.23-1.17-16.86,6.96-16.86,6.96,0,0-.2-4.43-6.13-7.96.25,9.1,1.22,17.93,2.83,26.36,1.74-10.2,9.74-18.61,19.21-19.74M990.26,605.89c-18.82,2.95-19.21,11.54-19.21,11.54,0,0-2.03-8.33-21.01-7.14,0,.2,0,.38.02.57.12,1.23.36,2.41.68,3.56,9.17,1.53,16.79,8.91,19.34,18.03,1.24-10.47,8.84-19.72,18.87-20.8.44-.05.87-.05,1.31-.07.22-1.67.27-3.38.1-5.12-.02-.2-.06-.37-.08-.56M842.63,583.52c.03.97.12,2.47.39,4.22,1.81,4.89,3.88,9.53,6.21,13.95,1.97,1.95,4.5,3.48,7.8,4.16.63-11.21-5.71-21.09-14.4-22.33M838.19,570.8c15.64.73,20.2-13.61,21.2-17.88-10.47-1.07-19.8,6.86-21.2,17.88M902.95,555.76c.36,4.55,2.89,20.04,20,22.09.35-11.5-8.44-21.29-20-22.09M857.04,540.08c.63-11.19-5.71-21.09-14.4-22.33.14,4.43,1.56,19.65,14.4,22.33M859.44,605.79c16.21.77,20.95-14.12,21.97-18.53-10.85-1.11-20.54,7.12-21.97,18.53M876.98,575.05c.74-11.07-6.87-20.86-17.32-22.08.16,4.38,1.86,19.41,17.32,22.08M860.22,545.78c10.05,1.1,17.64,10.35,18.89,20.81,2.59-9.31,10.48-16.83,19.91-18.14.27-1.08.51-2.21.61-3.37.02-.19.02-.37.02-.56-18.99-1.19-21.02,7.13-21.02,7.13,0,0-.39-8.59-19.21-11.54-.02.19-.07.37-.07.56-.18,1.73-.14,3.42.07,5.07.27,0,.53,0,.79.04M1003.36,466.21c-1.48-3.32-3.15-6.49-4.96-9.5-3.85,4.18-6.14,10.59-5.74,17.52,5.26-1.11,8.59-4.32,10.71-8.02M992.47,450.39s-1.96-8.02-20.28-6.88c.02.18,0,.37.02.55.16,1.53.46,3.01.92,4.41,8.23,1.62,15.16,8.48,17.76,17.14.49-4.96,2.2-9.59,4.68-13.28-.85-1.21-1.71-2.4-2.61-3.55-.41.96-.5,1.61-.5,1.61M843.1,510.48c8.34,1.11,14.64,10.44,15.69,20.99,2.53-8.46,9.23-15.24,17.22-17.03.45-1.45.78-2.95.93-4.52.02-.17.02-.35.02-.55-18.31-1.15-20.27,6.87-20.27,6.87,0,0-.36-8.27-18.52-11.12-.02.2-.07.37-.08.55-.17,1.76-.11,3.47.13,5.14,1.58-.41,3.2-.55,4.88-.33M972.19,443.42c4.7-.82,8.1-2.78,10.6-5.23-2.57-2.19-5.34-4.2-8.28-6.02-1.7,3.35-2.6,7.19-2.32,11.25M990.25,605.79c-1.45-11.42-11.13-19.64-21.98-18.53,1.03,4.41,5.77,19.3,21.98,18.53M989.51,552.97c-10.45,1.22-18.07,11.01-17.32,22.08,15.45-2.67,17.16-17.7,17.32-22.08M990.35,540.67c-.02-.19-.06-.37-.08-.56-18.82,2.95-19.21,11.54-19.21,11.54,0,0-2.03-8.32-21.01-7.13,0,.19,0,.37.02.56.12,1.2.36,2.35.65,3.48,9.18,1.51,16.82,8.89,19.36,18.02,1.24-10.46,8.84-19.71,18.87-20.8.44-.04.88-.04,1.32-.07.21-1.63.26-3.31.08-5.03M1010.98,570.8c-1.39-11.02-10.73-18.94-21.2-17.88,1,4.26,5.56,18.61,21.2,17.88M992.65,540.08c12.85-2.68,14.27-17.9,14.41-22.33-8.7,1.24-15.04,11.14-14.41,22.33M1010.97,510.71c.21-1.64.27-3.32.1-5.04-.01-.19-.05-.36-.08-.55-18.15,2.86-18.52,11.12-18.52,11.12,0,0-1.96-8.01-20.28-6.87.02.2,0,.37.02.55.16,1.54.46,3.01.92,4.41,8.23,1.62,15.16,8.49,17.76,17.14,1.05-10.55,7.35-19.88,15.69-20.99,1.5-.2,2.96-.09,4.39.23M945.91,548.28h.1c.15-1,.25-2.02.25-3.06,0-.2-.02-.37-.02-.57-20.19.9-21.48,9.38-21.48,9.38,0,0-1.29-8.49-21.47-9.38,0,.2-.03.37-.03.57,0,1.06.1,2.09.26,3.09,10.39.77,18.69,9.02,21.07,18.95,2.41-10.02,10.82-18.32,21.33-18.97M924.62,589.49c-11.58.1-20.97,9.32-21.33,20.82,17.21-.99,20.69-16.31,21.33-20.82M842.41,517.72c-2.85-.35-5.58.31-8.02,1.7-.26,4.48-.4,9.02-.41,13.64,5.73-4.26,7.86-12.29,8.43-15.34M926.23,577.85c17.11-2.05,19.64-17.54,20-22.09-11.56.8-20.35,10.58-20,22.09M946.24,610.31c-.37-11.51-9.76-20.73-21.32-20.82.64,4.51,4.11,19.83,21.32,20.82"/>
  <path class="cls-3" d="M174.01,601.76c-17.94,0-33.57-6.21-46.46-18.47-12.93-12.3-19.49-27.69-19.49-45.75s5.73-33.32,17.03-45.6c11.37-12.36,26.12-18.63,43.82-18.63,13.45,0,27.26,2.27,41.02,6.74l3.28,1.07-4.24,13.08-3.24-.97c-12.76-3.83-25.15-5.77-36.83-5.77-13.45,0-24.11,4.67-32.6,14.29-8.48,9.6-12.78,21.56-12.78,35.53s4.86,25.73,14.85,35.61c10,9.9,21.65,14.7,35.64,14.7,12.42,0,23.26-1.9,32.21-5.65l3.13-1.31,5.1,11.54-2.69,1.55c-4.48,2.59-10.35,4.61-17.43,5.99-6.91,1.35-13.74,2.03-20.31,2.03M346.69,599.78v-124.5h-14.81v51.64h-73.83v-51.64h-14.81v124.5h14.81v-58.88h73.83v58.88h14.81ZM481.43,583.07c11.53-12.34,17.38-27.69,17.38-45.62s-5.85-33.25-17.38-45.54c-11.59-12.34-26.39-18.6-43.96-18.6s-32.34,6.26-43.88,18.61c-11.48,12.28-17.3,27.61-17.3,45.53s5.82,33.27,17.29,45.61c11.54,12.4,26.3,18.7,43.89,18.7s32.38-6.29,43.96-18.69M470.49,501.68c8.53,9.56,12.85,21.6,12.85,35.77s-4.33,26.25-12.86,35.86c-8.55,9.61-19.32,14.29-32.94,14.29s-24.39-4.68-32.93-14.29c-8.54-9.61-12.86-21.68-12.86-35.86s4.3-26.22,12.78-35.78c8.48-9.56,19.25-14.21,32.93-14.21s24.48,4.65,33.03,14.22M528.4,599.78h14.81v-124.5h-14.81v124.5ZM659.89,599.72c7.09-1.38,12.95-3.4,17.43-5.99l2.68-1.55-5.08-11.53-3.13,1.31c-8.95,3.75-19.79,5.65-32.21,5.65-13.98,0-25.64-4.81-35.64-14.7-9.98-9.88-14.84-21.53-14.84-35.61s4.3-25.93,12.79-35.53c8.48-9.62,19.15-14.29,32.6-14.29,11.67,0,24.07,1.94,36.84,5.77l3.24.97,4.24-13.08-3.29-1.07c-13.77-4.48-27.57-6.74-41.03-6.74-17.69,0-32.44,6.27-43.82,18.63-11.3,12.29-17.03,27.62-17.03,45.6s6.55,33.45,19.49,45.75c12.89,12.25,28.52,18.47,46.46,18.47,6.57,0,13.4-.68,20.32-2.03M766.38,599.78v-13.82h-48.51v-46.87h42.27v-13.65h-42.27v-36.34h46.7v-13.83h-61.51v124.5h63.32Z"/>
  <path class="cls-3" d="M1122.49,599.78v-110.68h-39.8v-13.83h94.41v13.83h-39.8v110.68h-14.81ZM1195.51,599.78h14.81v-124.5h-14.81v124.5ZM1283.33,599.78v-110.68h39.8v-13.83h-94.41v13.83h39.81v110.68h14.8ZM1410.45,599.78v-14.15h-54.1v-110.35h-14.81v124.5h68.91ZM1492.19,599.78v-13.82h-48.51v-46.87h42.26v-13.65h-42.26v-36.34h46.7v-13.83h-61.51v124.5h63.32Z"/>
  <line class="cls-2" x1="781.42" y1="414.2" x2="108.05" y2="414.2"/>
  <line class="cls-2" x1="1492.19" y1="414.2" x2="1063.75" y2="414.2"/>
  <rect class="cls-1" x="0" width="1600.32" height="900.48"/>
</svg>