<?xml version="1.0" encoding="UTF-8"?>
<svg id="Layer_1" data-name="Layer 1" xmlns="http://www.w3.org/2000/svg" xmlns:xlink="http://www.w3.org/1999/xlink" viewBox="0 0 1600 900">
  <defs>
    <style>
      .cls-1 {
        fill: none;
      }

      .cls-2 {
        fill: #656569;
      }

      .cls-2, .cls-3 {
        fill-rule: evenodd;
      }

      .cls-3 {
        fill: #4a2365;
      }

      .cls-4 {
        clip-path: url(#clippath-1);
      }

      .cls-5 {
        clip-path: url(#clippath);
      }
    </style>
    <clipPath id="clippath">
      <rect class="cls-1" width="1600" height="900"/>
    </clipPath>
    <clipPath id="clippath-1">
      <rect class="cls-1" width="1600" height="900"/>
    </clipPath>
  </defs>
  <g class="cls-5">
    <g class="cls-4">
      <path class="cls-2" d="M911,539.27c11.92,0,18.57-5.69,18.57-15.78s-6.66-15.78-18.57-15.78h-21.58v31.57h21.58ZM1325.33,506.63c17.18,0,27.91,12.35,27.91,32.42s-10.73,32.42-27.91,32.42-28.03-12.35-28.03-32.42,10.74-32.42,28.03-32.42M546.06,506.63c17.18,0,27.92,12.35,27.92,32.42s-10.74,32.42-27.92,32.42-28.02-12.35-28.02-32.42,10.74-32.42,28.02-32.42M1403.27,503.62l39.84,58.09,4.61,8.05h.11l-.21-8.16v-57.98h4.18v70.86h-5.58l-39.94-58.08-4.62-8.05.22,8.16v57.98h-4.19v-70.86h5.58ZM1248.56,574.49h4.4v-70.86h-4.4v70.86ZM1182.53,507.71h-26.2v-4.08h56.8v4.08h-26.2v66.78h-4.4v-66.78ZM911.11,503.62c14.06,0,22.98,7.52,22.98,19.86,0,10.52-6.55,17.61-17.18,19.43l20.83,31.57h-5.15l-20.62-31.14h-22.55v31.14h-4.4v-70.86h26.09ZM818.99,507.71h-26.2v-4.08h56.8v4.08h-26.2v66.78h-4.4v-66.78ZM624.01,503.62l39.83,58.09,4.62,8.05h.11l-.21-8.16v-57.98h4.19v70.86h-5.58l-39.94-58.08-4.62-8.05.21,8.16v57.98h-4.19v-70.86h5.58ZM1325.33,502.55c-20.08,0-32.54,14.07-32.54,36.51s12.46,36.5,32.54,36.5,32.53-14.07,32.53-36.5-12.56-36.51-32.53-36.51M1127.99,556.56l-4.4-1.61c-3.22,10.63-11.92,16.53-23.84,16.53-16.53,0-27.48-12.35-27.48-32.42s11.05-32.42,27.59-32.42c12.13,0,19.65,5.26,22.97,15.78l4.3-2.04c-3.97-11.81-12.99-17.82-27.49-17.82-19.22,0-31.88,14.07-31.88,36.51s12.66,36.5,31.99,36.5c13.85,0,24.27-6.98,28.24-19M978.75,503.62v44.34c0,15.35,8.05,23.51,22.76,23.51s22.76-8.16,22.76-23.51v-44.34h4.4v45.2c0,17.39-9.98,26.73-27.16,26.73s-27.16-9.34-27.16-26.73v-45.2h4.4ZM738.68,502.55c-16.1,0-25.77,9.23-25.77,19.86s6.76,16,26.73,19.43c16.43,2.68,22.01,7.09,22.01,14.92,0,9.45-9.34,14.71-21.8,14.71s-22.65-5.48-25.34-16.32l-3.86,2.9c3.44,11.38,14.28,17.5,29.2,17.5,15.68,0,26.3-7.73,26.3-19,0-10.41-6.66-15.89-25.23-19.11-17.93-3.11-23.4-7.19-23.4-15.35,0-8.7,7.95-15.46,21.15-15.46,11.92,0,19.22,4.4,22.65,14.82l3.76-3.01c-4.19-10.84-13.21-15.89-26.41-15.89M546.06,502.55c-20.08,0-32.53,14.07-32.53,36.51s12.46,36.5,32.53,36.5,32.53-14.07,32.53-36.5-12.56-36.51-32.53-36.51M480.25,556.56l-4.4-1.61c-3.22,10.63-11.92,16.53-23.83,16.53-16.54,0-27.49-12.35-27.49-32.42s11.06-32.42,27.59-32.42c12.13,0,19.65,5.26,22.98,15.78l4.29-2.04c-3.97-11.81-12.99-17.82-27.49-17.82-19.22,0-31.89,14.07-31.89,36.51s12.67,36.5,32,36.5c13.85,0,24.26-6.98,28.24-19"/>
      <path class="cls-3" d="M1416.03,397.58h-22.92v32.01h22.92c12.75,0,18.98-5.29,18.98-16s-6.23-16-18.98-16M1061.38,397.58h-22.92v32.01h22.92c12.75,0,18.99-5.29,18.99-16s-6.24-16-18.99-16M739.28,397.58h-22.92v32.01h22.92c12.75,0,18.99-5.29,18.99-16s-6.24-16-18.99-16M1242.98,397.58h-19.13v34.18h19.13c14.1,0,20.34-5.97,20.34-17.09s-6.24-17.09-20.34-17.09M912.2,397.58h-19.12v69.17h19.12c20.48,0,32.55-12.88,32.55-34.58s-12.07-34.58-32.55-34.58M1147.64,396.22c18.58,0,30.1,13.43,30.1,35.94s-11.52,35.94-30.1,35.94-30.11-13.43-30.11-35.94,11.53-35.94,30.11-35.94M521.61,476.92h-21.02l-27.12-57.77-29.43,57.77h-21.29l45.59-89.51h11.02l42.27,89.51ZM1393.11,476.92h-10.85v-89.51h33.9c18.18,0,30.25,10.04,30.25,26.17,0,12.75-7.6,21.7-19.8,24.95l25.22,38.38h-12.88l-24.41-37.16h-21.43v37.16ZM1358.52,397.58h-51.94v28.89h40.42v10.17h-40.42v30.11h53.98v10.17h-64.83v-89.51h62.79v10.17ZM1223.85,476.92h-10.85v-89.51h31.6c18.04,0,30.11,10.44,30.11,27.26s-12.07,27.26-30.11,27.26h-20.75v34.99ZM1038.46,476.92h-10.85v-89.51h33.91c18.17,0,30.24,10.04,30.24,26.17,0,12.75-7.59,21.7-19.8,24.95l25.22,38.38h-12.88l-24.41-37.16h-21.43v37.16ZM911.11,476.92h-28.89v-89.51h28.89c28.07,0,45.03,16,45.03,44.75s-16.95,44.76-45.03,44.76M858.49,397.58h-51.94v28.89h40.41v10.17h-40.41v30.11h53.98v10.17h-64.83v-89.51h62.79v10.17ZM716.36,476.92h-10.85v-89.51h33.91c18.17,0,30.24,10.04,30.24,26.17,0,12.75-7.6,21.7-19.8,24.95l25.23,38.38h-12.88l-24.41-37.16h-21.43v37.16ZM685.44,397.58h-51.81v28.89h40.42v10.17h-40.42v40.28h-10.85v-89.51h62.66v10.17ZM552.54,466.74h51.26v10.17h-62.11v-89.51h10.85v79.34ZM1147.64,386.05c-25.5,0-41.5,17.77-41.5,46.11s16,46.11,41.5,46.11,41.5-17.77,41.5-46.11-16.01-46.11-41.5-46.11"/>
      <polygon class="cls-3" points="343.84 450.27 425.38 450.27 411.99 476.92 349.34 476.92 349.34 574.83 322.95 574.83 322.95 467 271.23 377.42 213.78 476.92 180.37 476.92 272.02 324.92 343.84 450.27"/>
      <polygon class="cls-2" points="164.47 476.91 148.49 476.91 240.14 324.92 256.12 324.92 164.47 476.91"/>
    </g>
  </g>
</svg>