<?xml version="1.0" encoding="UTF-8"?>
<svg id="Layer_1" data-name="Layer 1" xmlns="http://www.w3.org/2000/svg" viewBox="0 0 1600 900">
  <defs>
    <style>
      .cls-1 {
        fill: none;
      }

      .cls-2 {
        fill: #fbd603;
      }

      .cls-3 {
        fill: #b4b2b2;
      }

      .cls-4 {
        fill: #f15523;
      }

      .cls-5 {
        fill: #6e6e70;
      }

      .cls-6 {
        fill: #251f1e;
      }
    </style>
  </defs>
  <path class="cls-5" d="M664.34,582.88c0,3.59-.84,6.18-2.53,7.78-1.69,1.6-4.42,2.4-8.21,2.4h-4.67v10.09h-3.98v-29.78h8.83c3.72,0,6.4.77,8.07,2.3,1.66,1.54,2.5,3.94,2.5,7.21M660.16,582.97c0-2.08-.52-3.6-1.55-4.56-1.03-.96-2.8-1.44-5.29-1.44h-4.39v12.49h3.83c2.09,0,3.63-.2,4.59-.62.97-.41,1.68-1.07,2.13-1.98.45-.91.67-2.21.67-3.88M697.31,588.26c0,5.35-1.01,9.28-3.02,11.77-2.01,2.49-5.04,3.74-9.09,3.74s-7.15-1.27-9.13-3.81c-1.99-2.54-2.98-6.44-2.98-11.71s.98-9.11,2.95-11.67c1.96-2.56,5.02-3.84,9.17-3.84s7.13,1.26,9.12,3.77c2,2.51,2.99,6.42,2.99,11.75M693.14,588.26c0-4.12-.62-7.14-1.86-9.08-1.24-1.93-3.27-2.9-6.08-2.9s-4.84.97-6.08,2.9c-1.24,1.94-1.86,4.96-1.86,9.08s.63,7.18,1.89,9.1c1.26,1.92,3.27,2.88,6.06,2.88s4.78-.95,6.05-2.86c1.26-1.9,1.89-4.95,1.89-9.12M732.67,603.15h-4.76l-5.62-23.84-5.64,23.84h-4.67l-7.04-29.78h3.96l5.56,24.06,5.63-24.06h4.5l5.73,24.23,5.63-24.23h3.89l-7.18,29.78ZM750.59,603.15v-29.78h18.21v3.59h-14.22v8.7h12.16v3.62h-12.16v10.26h14.22v3.62h-18.21ZM797.54,603.15l-7.59-12.16h-5.18v12.16h-3.98v-29.78h9.25c3.7,0,6.35.68,7.96,2.04,1.61,1.36,2.41,3.47,2.41,6.33,0,2.44-.49,4.36-1.47,5.79-.98,1.42-2.58,2.37-4.79,2.84l8.07,12.78h-4.67ZM796.29,582.04c0-1.97-.5-3.31-1.5-4.05-1-.74-2.6-1.11-4.81-1.11h-5.22v10.58h4.97c1.66,0,2.97-.17,3.92-.52.96-.35,1.63-.91,2.03-1.68.4-.77.61-1.84.61-3.22M831.81,603.15v-29.78h18.2v3.59h-14.23v8.7h12.16v3.62h-12.16v10.26h14.23v3.62h-18.2ZM879.27,603.15l-13.45-25.57v25.57h-3.83v-29.78h5.83l12.33,23.39v-23.39h3.83v29.78h-4.71ZM915.53,580.54c-.7-1.29-1.63-2.33-2.8-3.1-1.16-.77-2.72-1.16-4.69-1.16-3,0-5.19.99-6.58,2.97-1.39,1.97-2.09,5.01-2.09,9.1s.76,7.2,2.27,9.08c1.5,1.88,3.74,2.82,6.71,2.82,1.14,0,2.21-.13,3.2-.4.98-.26,2.04-.65,3.19-1.15v-7.06h-7.23v-3.59h11.21v12.82c-1.62.9-3.23,1.62-4.83,2.13-1.6.52-3.45.77-5.54.77-4.48,0-7.79-1.29-9.94-3.85-2.15-2.57-3.23-6.44-3.23-11.62s1.08-9.16,3.24-11.72c2.16-2.56,5.38-3.84,9.67-3.84,2.44,0,4.55.43,6.31,1.3,1.78.86,3.22,2.29,4.36,4.3l-3.23,2.2ZM942.96,603.15h-12.18v-3.44h4.11v-22.96h-4.11v-3.38h12.18v3.38h-4.11v22.96h4.11v3.44ZM972.6,603.15l-13.45-25.57v25.57h-3.83v-29.78h5.83l12.33,23.39v-23.39h3.83v29.78h-4.71ZM990.53,603.15v-29.78h18.21v3.59h-14.23v8.7h12.16v3.62h-12.16v10.26h14.23v3.62h-18.21ZM1020.72,603.15v-29.78h18.2v3.59h-14.23v8.7h12.17v3.62h-12.17v10.26h14.23v3.62h-18.2ZM1066.78,603.15l-7.59-12.16h-5.19v12.16h-3.98v-29.78h9.25c3.71,0,6.36.68,7.97,2.04,1.6,1.36,2.4,3.47,2.4,6.33,0,2.44-.49,4.36-1.47,5.79-.98,1.42-2.58,2.37-4.79,2.84l8.07,12.78h-4.67ZM1065.54,582.04c0-1.97-.5-3.31-1.5-4.05-1-.74-2.6-1.11-4.81-1.11h-5.23v10.58h4.97c1.67,0,2.98-.17,3.93-.52.96-.35,1.63-.91,2.04-1.68.39-.77.6-1.84.6-3.22M1090.71,603.15h-12.18v-3.44h4.11v-22.96h-4.11v-3.38h12.18v3.38h-4.11v22.96h4.11v3.44ZM1118.59,603.15l-13.45-25.57v25.57h-3.83v-29.78h5.83l12.33,23.39v-23.39h3.83v29.78h-4.71ZM1154.85,580.54c-.71-1.29-1.64-2.33-2.8-3.1-1.16-.77-2.72-1.16-4.69-1.16-3,0-5.2.99-6.58,2.97-1.4,1.97-2.09,5.01-2.09,9.1s.75,7.2,2.26,9.08c1.5,1.88,3.74,2.82,6.71,2.82,1.15,0,2.21-.13,3.19-.4.99-.26,2.05-.65,3.2-1.15v-7.06h-7.23v-3.59h11.21v12.82c-1.62.9-3.23,1.62-4.83,2.13-1.6.52-3.44.77-5.54.77-4.47,0-7.79-1.29-9.94-3.85-2.15-2.57-3.22-6.44-3.22-11.62s1.07-9.16,3.23-11.72c2.16-2.56,5.38-3.84,9.67-3.84,2.44,0,4.55.43,6.32,1.3,1.77.86,3.22,2.29,4.35,4.3l-3.22,2.2ZM1200.44,603.15h-12.18v-3.44h4.11v-22.96h-4.11v-3.38h12.18v3.38h-4.11v22.96h4.11v3.44ZM1229.2,603.15l-13.45-25.57v25.57h-3.83v-29.78h5.83l12.34,23.39v-23.39h3.83v29.78h-4.72ZM1269.07,597.94c-.95,1.52-1.91,2.67-2.89,3.45-.99.78-2.13,1.37-3.44,1.78-1.3.4-2.84.61-4.6.61-4.46,0-7.75-1.29-9.86-3.86-2.12-2.57-3.18-6.46-3.18-11.65s1.05-9.06,3.15-11.64c2.1-2.58,5.34-3.87,9.71-3.87,1.74,0,3.29.22,4.65.65,1.37.43,2.52,1.02,3.46,1.77.94.75,1.8,1.81,2.57,3.17l-3.27,2.15c-.64-1.06-1.27-1.87-1.92-2.42-.64-.55-1.41-.99-2.32-1.31-.9-.32-1.96-.48-3.17-.48-2.98,0-5.17.99-6.57,2.98-1.39,1.98-2.1,4.99-2.1,9s.69,6.94,2.07,8.96c1.38,2.01,3.6,3.02,6.65,3.02,1.69,0,3.16-.33,4.41-1,1.25-.67,2.37-1.82,3.36-3.45l3.29,2.15Z"/>
  <path class="cls-6" d="M655.11,402.65c3.31-6.73,7.3-12.73,11.96-17.98,7.32-8.26,16.09-14.56,26.32-18.9,10.22-4.35,21.46-6.52,33.72-6.52,11.41,0,21.29,1.45,29.64,4.35,8.34,2.9,15.46,7.03,21.34,12.39,5.88,5.37,10.56,11.8,14.05,19.29,3.49,7.49,6.09,15.84,7.79,25.04l-30.41,4.35c-1.36-6.13-3.07-11.58-5.11-16.35-2.04-4.77-4.73-8.82-8.05-12.13-3.32-3.32-7.37-5.88-12.14-7.67-4.77-1.78-10.48-2.68-17.12-2.68-8.18,0-15.42,1.62-21.72,4.86-6.3,3.24-11.63,7.88-15.97,13.92-4.35,6.05-7.62,13.33-9.84,21.85-2.22,8.52-3.32,18.06-3.32,28.62s1.16,20.36,3.45,28.87c2.3,8.52,5.66,15.8,10.1,21.85,4.42,6.05,9.75,10.65,15.97,13.8,6.22,3.15,13.32,4.72,21.33,4.72,7.15,0,13.24-.93,18.27-2.81,5.02-1.88,9.24-4.51,12.64-7.92,3.41-3.4,6.09-7.54,8.05-12.39,1.95-4.86,3.36-10.35,4.22-16.48h32.7c-1.02,9.54-3.32,18.31-6.9,26.31-3.58,8.01-8.52,14.99-14.82,20.95-6.3,5.96-13.97,10.6-23,13.92-9.03,3.32-19.5,4.98-31.43,4.98-13.11,0-24.83-2.22-35.13-6.65-10.31-4.42-18.99-10.77-26.06-19.03-7.07-8.26-12.44-18.31-16.09-30.15-3.67-11.84-5.5-25.08-5.5-39.73s2-28.45,6.01-40.37c1.46-4.34,3.14-8.44,5.04-12.3M829.05,413.41h28.36v19.89c4.76-7.22,10.38-12.68,16.86-16.38,6.48-3.69,13.29-5.55,20.45-5.55,5.79,0,10.13.34,13.02,1.02l-3.32,26.83c-1.87-.51-3.83-.85-5.87-1.02-2.04-.17-4.43-.26-7.15-.26-3.92,0-7.83.6-11.75,1.79-3.92,1.19-7.58,3.23-10.99,6.12-6.98,6.12-10.47,13.68-10.47,22.69v77.74h-29.13v-132.86ZM928.44,413.41h29.13v83.55c0,10.9,1.83,18.44,5.5,22.61,3.66,4.17,9.23,6.26,16.73,6.26,4.93,0,9.24-.81,12.9-2.43,3.67-1.62,7.2-3.96,10.6-7.02,3.41-3.07,6.09-6.47,8.05-10.22,1.96-3.74,2.94-8.26,2.94-13.54v-79.21h29.13v132.86h-28.36v-19.42c-5.97,8.18-12.57,14.14-19.81,17.89-7.24,3.74-14.95,5.62-23.12,5.62-15.16,0-26.23-4-33.21-12-6.99-8.01-10.48-20.27-10.48-36.8v-88.15ZM1076.12,413.41h28.1v19.16c5.45-7.83,11.63-13.67,18.53-17.5,6.89-3.83,14.08-5.75,21.58-5.75,9.88,0,17.85,2.09,23.89,6.26,6.05,4.18,10.43,10.09,13.16,17.76,6.13-8.17,12.77-14.22,19.93-18.14,7.15-3.92,14.99-5.88,23.5-5.88,13.29,0,23.47,3.67,30.53,10.99,7.07,7.33,10.61,19.16,10.61,35.52v90.45h-29.12v-85.34c0-10.73-1.79-17.93-5.37-21.59-3.58-3.66-8.43-5.49-14.56-5.49-3.75,0-7.41.64-10.99,1.91-3.58,1.28-7.07,3.54-10.48,6.77-2.89,2.55-5.28,5.62-7.15,9.2-1.87,3.58-2.81,7.58-2.81,12.01v82.52h-29.13v-85.34c0-10.39-1.78-17.5-5.36-21.33-3.58-3.84-8.35-5.75-14.31-5.75-8.01,0-15.16,3.15-21.46,9.45-2.73,2.55-5.07,5.75-7.03,9.58-1.96,3.83-2.94,8.47-2.94,13.92v79.46h-29.12v-132.86ZM1297.63,413.41h28.36v18.4c5.45-7.32,11.71-12.9,18.78-16.74,7.07-3.83,15.2-5.75,24.4-5.75s17.54,1.66,24.53,4.98c6.98,3.32,12.82,8.05,17.5,14.18,4.69,6.14,8.18,13.5,10.47,22.1,2.31,8.6,3.46,18.18,3.46,28.74s-1.37,20.48-4.1,29.25c-2.72,8.78-6.6,16.27-11.62,22.48-5.02,6.23-11.11,10.99-18.27,14.31-7.15,3.32-15.24,4.98-24.27,4.98-7.16,0-14.14-1.35-20.95-4.04-6.81-2.69-13.2-7.66-19.16-14.91v73.01h-29.13v-191.01ZM1326.5,482.28c0,8.71.94,15.93,2.81,21.65,1.87,5.72,4.39,10.29,7.54,13.71,3.15,3.42,6.81,5.81,10.98,7.17,4.18,1.37,8.57,2.05,13.16,2.05s9.2-.85,13.29-2.56c4.09-1.71,7.67-4.44,10.73-8.19,3.07-3.76,5.45-8.63,7.16-14.61,1.7-5.97,2.55-13.23,2.55-21.78s-.89-16.01-2.68-21.9c-1.79-5.89-4.18-10.67-7.16-14.35-2.98-3.68-6.42-6.28-10.34-7.82-3.92-1.53-8.01-2.31-12.27-2.31-10.39,0-18.95,3.42-25.68,10.25-6.73,6.83-10.09,17.59-10.09,32.28v6.4Z"/>
  <path class="cls-4" d="M206.01,474.7l30.68,17.83-30.88,17.83-30.68-17.83,30.88-17.83ZM283.22,430.12l-30.89,17.83,30.68,17.83,30.89-17.83-30.68-17.83M321.83,407.83l-30.89,17.83,30.69,17.83,30.88-17.83-30.68-17.83M360.43,385.54l-30.88,17.83,30.68,17.83,30.88-17.83-30.68-17.83M244.37,496.99l-30.89,17.83,30.69,17.83,30.88-17.83-30.68-17.83M321.57,452.41l-30.88,17.83,30.68,17.83,30.89-17.83-30.69-17.83M398.79,407.83l-30.89,17.83,30.69,17.83,30.88-17.83-30.68-17.83M282.72,519.28l-30.89,17.83,30.68,17.83,30.89-17.83-30.68-17.83M359.93,474.7l-30.88,17.83,30.68,17.83,30.88-17.83-30.68-17.83M437.14,430.12l-30.89,17.83,30.68,17.83,30.89-17.83-30.68-17.83M475.75,407.83l-30.89,17.83,30.69,17.83,30.88-17.83-30.68-17.83"/>
  <path class="cls-2" d="M244.62,452.41l30.68,17.83-30.88,17.83-30.69-17.83,30.89-17.83ZM282.97,474.7l-30.89,17.83,30.68,17.83,30.89-17.83-30.68-17.83M321.33,496.99l-30.89,17.83,30.68,17.83,30.89-17.83-30.68-17.83M398.28,496.99l-30.88,17.83,30.68,17.83,30.89-17.83-30.69-17.83M436.89,474.7l-30.89,17.83,30.68,17.83,30.89-17.83-30.68-17.83M475.5,452.41l-30.89,17.83,30.69,17.83,30.88-17.83-30.68-17.83M359.43,563.86l-30.89,17.83,30.68,17.83,30.89-17.83-30.68-17.83M475.24,496.99l-30.88,17.83,30.68,17.83,30.89-17.83-30.69-17.83M244.87,407.83l-30.89,17.83,30.68,17.83,30.89-17.83-30.68-17.83M283.47,385.54l-30.89,17.83,30.68,17.83,30.89-17.83-30.68-17.83M322.08,363.25l-30.88,17.83,30.68,17.83,30.88-17.83-30.68-17.83M399.04,363.25l-30.88,17.83,30.68,17.83,30.88-17.83-30.68-17.83M437.39,385.54l-30.89,17.83,30.68,17.83,30.89-17.83-30.68-17.83M360.93,296.38l-30.89,17.83,30.69,17.83,30.88-17.83-30.68-17.83"/>
  <path class="cls-3" d="M321.07,541.57l30.68,17.83-30.88,17.83-30.69-17.83,30.89-17.83ZM359.68,519.28l-30.88,17.83,30.68,17.83,30.89-17.83-30.69-17.83M398.03,541.57l-30.89,17.83,30.69,17.83,30.88-17.83-30.68-17.83M436.64,519.28l-30.88,17.83,30.68,17.83,30.89-17.83-30.69-17.83M513.85,474.7l-30.89,17.83,30.68,17.83,30.89-17.83-30.68-17.83M206.26,430.12l-30.89,17.83,30.68,17.83,30.89-17.83-30.68-17.83M360.69,340.96l-30.89,17.83,30.68,17.83,30.89-17.83-30.68-17.83M514.1,430.12l-30.88,17.83,30.68,17.83,30.89-17.83-30.69-17.83M206.51,385.54l-30.88,17.83,30.69,17.83,30.88-17.83-30.68-17.83M245.12,363.25l-30.88,17.83,30.68,17.83,30.89-17.83-30.69-17.83M283.73,340.96l-30.89,17.83,30.68,17.83,30.89-17.83-30.68-17.83M322.33,318.67l-30.89,17.83,30.68,17.83,30.89-17.83-30.68-17.83M399.29,318.67l-30.89,17.83,30.68,17.83,30.89-17.83-30.68-17.83M437.65,340.96l-30.89,17.83,30.68,17.83,30.89-17.83-30.68-17.83M476,363.25l-30.88,17.83,30.68,17.83,30.88-17.83-30.68-17.83M514.35,385.54l-30.89,17.83,30.69,17.83,30.88-17.83-30.68-17.83"/>
  <rect class="cls-1" width="1600.32" height="900.48"/>
</svg>