<?xml version="1.0" encoding="UTF-8"?>
<svg id="Layer_1" data-name="Layer 1" xmlns="http://www.w3.org/2000/svg" viewBox="0 0 1600 900">
  <defs>
    <style>
      .cls-1, .cls-2 {
        fill: none;
      }

      .cls-2 {
        stroke: #251f1e;
        stroke-miterlimit: 3.86;
        stroke-width: 13.69px;
      }

      .cls-3 {
        fill: #ef8b21;
      }

      .cls-4 {
        fill: #fff;
      }

      .cls-4, .cls-5 {
        fill-rule: evenodd;
      }

      .cls-5 {
        fill: #251f1e;
      }
    </style>
  </defs>
  <path class="cls-3" d="M453.53,256.43h54.2v79.8l49.07,55.89v84.31s-12.1-13.45-12.1-13.45l-82.61,74.38,37.72,41.89,56.99-51.32v164s-329.92,0-329.92,0l206.34-186.64,17.64,19.6,82.61-74.38-78.61-87.31-82.61,74.38,17.96,19.95-163.34,147.07v-212.48l115.85-128.19c46.61,77.3,52.99,131.22,19.14,161.73l82.55-74.33c-27.1-29.69-60.08-59.85-98.92-90.46l48.72-53.91,59.3,67.54v-18.07Z"/>
  <path class="cls-2" d="M1197.66,552.32h36.66l.58-71.56h29.91l.3-29.91h-96.48l-.3,29.91h29.92l-.59,71.56ZM1156.03,522.55c-5.29.88-10.71,1.32-16.14,1.32-21.26,0-26.1-11.88-26.1-22.43,0-8.51,4.4-22.14,27.86-22.14,3.52,0,9.83.59,14.96,1.61l4.84-30.35c-8.8-1.76-15.83-2.64-26.83-2.64-39.74,0-58.66,21.12-58.66,53.67,0,29.33,18.92,53.67,54.4,53.67,6.02,0,11.44-.29,16.28-.73,4.99-.58,9.68-1.32,13.93-2.2l-4.54-29.77ZM983.53,552.32h83.13l.29-26.98h-47.36l.15-10.85h47.21l.3-26.1h-47.22v-10.55h47.22l.29-26.98h-83.28l-.73,101.47ZM892.58,552.32h36.07l.15-34.46h47.5l.15-27.86h-47.51v-11.29h47.51l.15-27.86h-83.28l-.73,101.47ZM823.57,475.19h8.18c8.91,0,10.96,4.11,10.96,11,0,8.65-5.26,9.38-11.84,9.38h-7.45l.15-20.38ZM822.69,552.32l.43-32.4h5.4c3.36,0,5.41,1.76,7.45,7.92l8.62,24.48h40.47c-13.64-36.36-18.33-42.82-28.45-45.02,12.76-.88,21.85-12.46,21.85-25.95,0-16.72-8.95-30.5-37.39-30.5h-53.6l-.73,101.47h35.93ZM695.81,552.32h83.14l.29-26.98h-47.36l.14-10.85h47.22l.29-26.1h-47.21v-10.55h47.21l.29-26.98h-83.28l-.74,101.47ZM597.95,552.32h36.66l.29-32.4h20.23c22.88,0,33.28-14.96,33.28-33.87,0-28.15-16.87-35.19-39.44-35.19h-50.15l-.88,101.47ZM635.19,475.19h8.21c5.13,0,11,1.76,11,9.09,0,6.3-3.08,11.29-13.49,11.29h-5.87l.15-20.38Z"/>
  <path class="cls-4" d="M1197.66,552.32h36.66l.58-71.56h29.91l.3-29.91h-96.48l-.3,29.91h29.92l-.59,71.56ZM1156.03,522.55c-5.29.88-10.71,1.32-16.14,1.32-21.26,0-26.1-11.88-26.1-22.43,0-8.51,4.4-22.14,27.86-22.14,3.52,0,9.83.59,14.96,1.61l4.84-30.35c-8.8-1.76-15.83-2.64-26.83-2.64-39.74,0-58.66,21.12-58.66,53.67,0,29.33,18.92,53.67,54.4,53.67,6.02,0,11.44-.29,16.28-.73,4.99-.58,9.68-1.32,13.93-2.2l-4.54-29.77ZM983.53,552.32h83.13l.29-26.98h-47.36l.15-10.85h47.21l.3-26.1h-47.22v-10.55h47.22l.29-26.98h-83.28l-.73,101.47ZM892.58,552.32h36.07l.15-34.46h47.5l.15-27.86h-47.51v-11.29h47.51l.15-27.86h-83.28l-.73,101.47ZM823.57,475.19h8.18c8.91,0,10.96,4.11,10.96,11,0,8.65-5.26,9.38-11.84,9.38h-7.45l.15-20.38ZM822.69,552.32l.43-32.4h5.4c3.36,0,5.41,1.76,7.45,7.92l8.62,24.48h40.47c-13.64-36.36-18.33-42.82-28.45-45.02,12.76-.88,21.85-12.46,21.85-25.95,0-16.72-8.95-30.5-37.39-30.5h-53.6l-.73,101.47h35.93ZM695.81,552.32h83.14l.29-26.98h-47.36l.14-10.85h47.22l.29-26.1h-47.21v-10.55h47.21l.29-26.98h-83.28l-.74,101.47ZM597.95,552.32h36.66l.29-32.4h20.23c22.88,0,33.28-14.96,33.28-33.87,0-28.15-16.87-35.19-39.44-35.19h-50.15l-.88,101.47ZM635.19,475.19h8.21c5.13,0,11,1.76,11,9.09,0,6.3-3.08,11.29-13.49,11.29h-5.87l.15-20.38Z"/>
  <path class="cls-2" d="M1176.56,384.69h88.35l.31-28.67h-50.33l.16-11.53h50.17l.31-27.74h-50.17v-11.22h50.17l.31-28.67h-88.5l-.78,107.82ZM1106.65,302.73h8.69c9.47,0,11.64,4.36,11.64,11.69,0,9.19-5.58,9.97-12.57,9.97h-7.92l.16-21.66ZM1105.71,384.69l.47-34.43h5.74c3.57,0,5.75,1.87,7.92,8.41l9.17,26.02h43c-14.49-38.64-19.47-45.5-30.23-47.83,13.56-.93,23.22-13.24,23.22-27.58,0-17.77-9.51-32.41-39.72-32.41h-56.97l-.78,107.82h38.18ZM953.91,276.86l-.62,43.94c-.16,7.79-.16,16.52-.16,23.22,0,19.95,12.31,43.79,51.73,43.79,43.17,0,55.01-20.1,55.16-53.6l.63-57.34h-38.96l-.62,60.93c-.16,10.75-4.52,15.74-14.18,15.74-10.44,0-14.49-4.68-14.49-14.03,0-6.55.15-13.09.15-19.63l.31-43.01h-38.95ZM873.99,384.69h38.95l.62-76.04h31.79l.31-31.79h-102.53l-.31,31.79h31.79l-.62,76.04ZM833.38,353.06c-5.61.94-11.38,1.4-17.14,1.4-22.59,0-27.74-12.62-27.74-23.84,0-9.04,4.68-23.53,29.6-23.53,3.74,0,10.44.62,15.9,1.71l5.14-32.25c-9.35-1.87-16.83-2.8-28.52-2.8-42.23,0-62.33,22.44-62.33,57.03,0,31.17,20.1,57.03,57.81,57.03,6.38,0,12.15-.31,17.29-.78,5.3-.63,10.29-1.4,14.8-2.34l-4.83-31.63ZM701.1,384.69h38.96l.93-107.82h-38.96l-.93,107.82ZM597.95,384.69h38.96l.31-34.43h21.51c24.3,0,35.37-15.9,35.37-36,0-29.92-17.92-37.4-41.92-37.4h-53.29l-.94,107.82ZM637.53,302.73h8.73c5.46,0,11.69,1.87,11.69,9.66,0,6.7-3.27,12-14.34,12h-6.23l.15-21.66Z"/>
  <path class="cls-4" d="M1176.56,384.69h88.35l.31-28.67h-50.33l.16-11.53h50.17l.31-27.74h-50.17v-11.22h50.17l.31-28.67h-88.5l-.78,107.82ZM1106.65,302.73h8.69c9.47,0,11.64,4.36,11.64,11.69,0,9.19-5.58,9.97-12.57,9.97h-7.92l.16-21.66ZM1105.71,384.69l.47-34.43h5.74c3.57,0,5.75,1.87,7.92,8.41l9.17,26.02h43c-14.49-38.64-19.47-45.5-30.23-47.83,13.56-.93,23.22-13.24,23.22-27.58,0-17.77-9.51-32.41-39.72-32.41h-56.97l-.78,107.82h38.18ZM953.91,276.86l-.62,43.94c-.16,7.79-.16,16.52-.16,23.22,0,19.95,12.31,43.79,51.73,43.79,43.17,0,55.01-20.1,55.16-53.6l.63-57.34h-38.96l-.62,60.93c-.16,10.75-4.52,15.74-14.18,15.74-10.44,0-14.49-4.68-14.49-14.03,0-6.55.15-13.09.15-19.63l.31-43.01h-38.95ZM873.99,384.69h38.95l.62-76.04h31.79l.31-31.79h-102.53l-.31,31.79h31.79l-.62,76.04ZM833.38,353.06c-5.61.94-11.38,1.4-17.14,1.4-22.59,0-27.74-12.62-27.74-23.84,0-9.04,4.68-23.53,29.6-23.53,3.74,0,10.44.62,15.9,1.71l5.14-32.25c-9.35-1.87-16.83-2.8-28.52-2.8-42.23,0-62.33,22.44-62.33,57.03,0,31.17,20.1,57.03,57.81,57.03,6.38,0,12.15-.31,17.29-.78,5.3-.63,10.29-1.4,14.8-2.34l-4.83-31.63ZM701.1,384.69h38.96l.93-107.82h-38.96l-.93,107.82ZM597.95,384.69h38.96l.31-34.43h21.51c24.3,0,35.37-15.9,35.37-36,0-29.92-17.92-37.4-41.92-37.4h-53.29l-.94,107.82ZM637.53,302.73h8.73c5.46,0,11.69,1.87,11.69,9.66,0,6.7-3.27,12-14.34,12h-6.23l.15-21.66Z"/>
  <path class="cls-5" d="M580.87,652.5c1.14,22.73,13.68,41.02,36.25,41.02,4.02,0,7.64-.24,10.88-.61,3.33-.49,6.46-1.1,9.3-1.83l-3.04-24.66c-3.52.73-7.15,1.09-10.77,1.09-12.27,0-16.35-7.35-17.23-14.99l-25.38-.03ZM631.86,652.5c1.14,22.73,13.68,41.02,36.25,41.02s35.1-18.29,36.25-41.02h-25.28c-.53,9.2-3.38,16.23-10.97,16.23s-10.44-7.04-10.97-16.21l-25.28-.02ZM705.85,652.5l-.23,38.59h21.55l-.54-38.59h-20.78ZM729.85,652.5l12.48,38.59h30.24l.27-38.59h-21.61v2.99s-.92-2.99-.92-2.99h-20.46ZM797.66,652.5l-.26,38.59h24.49l.26-38.59h-24.49ZM847.43,652.5l-.23,38.59h24l.29-26.85h3.61c2.25,0,3.61,1.46,4.97,6.56l5.76,20.29h27.03c-9.11-30.13-12.25-35.48-19-37.3,1.6-.13,3.11-.58,4.51-1.3h-50.95ZM920.85,652.5l-11.73,38.59h26.93l2.74-13.49h21.84l2.64,13.49h26.45l-11.11-38.59h-23.1l.71,3.48h-13.02l.7-3.48h-23.05ZM986.15,652.5c1.14,22.73,13.67,41.02,36.25,41.02,4.01,0,7.64-.24,10.87-.61,3.33-.49,6.47-1.1,9.31-1.83l-3.04-24.66c-3.53.73-7.15,1.09-10.78,1.09-12.27,0-16.35-7.35-17.23-14.99l-25.38-.03ZM1065.32,652.5l-.25,38.59h24.48l.25-38.59h-24.48ZM1114.59,652.5l-.27,38.59h24.49l.26-38.59h-24.48ZM1147.79,652.5l-.22,38.59h21.54l-.54-38.59h-20.78ZM1171.78,652.5l12.49,38.59h30.24l.27-38.59h-21.61v2.99s-.92-2.99-.92-2.99h-20.47ZM1216.32,652.5c1.05,22.75,12.59,41.02,38.51,41.02,10.77,0,18.21-.98,26.93-2.92l.33-38.1h-24l-.13,16.23h-3.82c-8.74,0-12.76-7.3-13.34-16.23h-24.48ZM1372.21,681.3c-1.43.24-2.89.36-4.36.36-5.76,0-7.06-3.21-7.06-6.08,0-2.3,1.18-5.99,7.53-5.99.96,0,2.66.16,4.05.44l1.31-8.21c-2.38-.48-4.29-.71-7.26-.71-10.76,0-15.87,5.71-15.87,14.52,0,7.94,5.11,14.53,14.72,14.53,1.63,0,3.09-.08,4.4-.2,1.35-.16,2.62-.35,3.78-.6l-1.24-8.06ZM1327.49,689.36h23.02l.08-8.1h-13.18l.24-19.37h-9.92l-.24,27.46ZM1303.01,689.36h23.01l.08-8.1h-13.17l.23-19.37h-9.92l-.23,27.46Z"/>
  <path class="cls-5" d="M606.25,652.5c-.14-1.17-.2-2.38-.2-3.57,0-7.05,2.94-18.35,18.61-18.35,2.35,0,6.56.48,9.99,1.33l3.23-25.15c-5.88-1.46-10.58-2.19-17.92-2.19-26.54,0-39.18,17.5-39.18,44.47,0,1.16.03,2.31.09,3.45h25.38ZM657.14,652.5c-.07-1.11-.09-2.27-.09-3.45,0-10.82,2.54-19.68,11.06-19.68s11.07,8.87,11.07,19.68c0,1.18-.03,2.34-.1,3.47l25.28-.02c.06-1.14.09-2.29.09-3.45,0-24.3-12.63-44.47-36.34-44.47s-36.33,20.17-36.33,44.47c0,1.16.03,2.31.08,3.45h25.28ZM726.64,652.5l-.14-10.37,3.35,10.37h20.46l-13.85-45.49h-30.34l-.27,45.49h20.78ZM772.84,652.5l.32-45.49h-21.74l-.18,45.49h21.61ZM822.15,652.5l.13-20.71h19.98l.19-24.79h-64.44l-.2,24.79h19.98l-.14,20.71h24.49ZM898.39,652.5c6.07-3.09,10.08-11.13,10.08-20.22,0-13.85-5.97-25.27-24.97-25.27h-35.8l-.26,45.49h50.95ZM943.9,652.5l5.77-28.72,5.85,28.72h23.11l-13.09-45.49h-30.85l-13.83,45.49h23.05ZM1011.53,652.5c-.14-1.17-.2-2.38-.2-3.57,0-7.05,2.94-18.35,18.61-18.35,2.35,0,6.56.48,9.99,1.33l3.23-25.15c-5.87-1.46-10.57-2.19-17.92-2.19-26.54,0-39.17,17.5-39.17,44.47,0,1.16.03,2.31.09,3.45h25.38ZM1089.8,652.5l.14-20.71h19.98l.2-24.79h-64.45l-.19,24.79h19.98l-.14,20.71h24.48ZM1139.07,652.5l.32-45.49h-24.48l-.32,45.49h24.48ZM1168.57,652.5l-.14-10.37,3.35,10.37h20.47l-13.85-45.49h-30.34l-.27,45.49h20.78ZM1214.78,652.5l.32-45.49h-21.74l-.19,45.49h21.61ZM1240.8,652.5c-.05-.77-.08-1.56-.08-2.36,0-8.5,2.74-20.77,20.66-20.77,5.69,0,10.88.73,15.48,1.7l2.94-23.45c-6.57-2.07-14.01-3.04-22.43-3.04-30.36,0-41.13,19.69-41.13,44.47,0,1.17.02,2.33.08,3.49l24.48-.04ZM1282.08,652.5l.07-7.34h-24l-.06,7.34h23.99ZM871.79,627.18h5.46c5.95,0,7.32,3.4,7.32,9.11,0,7.17-3.51,7.78-7.9,7.78h-4.98l.1-16.89Z"/>
  <rect class="cls-1" x="0" width="1600.56" height="900.48"/>
</svg>