<svg id="Layer_1" data-name="Layer 1" xmlns="http://www.w3.org/2000/svg" xmlns:xlink="http://www.w3.org/1999/xlink" viewBox="0 0 1600.32 900.24"><defs><style>.cls-1{fill:none;}.cls-2{clip-path:url(#clip-path);}.cls-3{fill:#00ab52;}.cls-4{fill:#fcc52f;}.cls-5{fill:#007db9;}</style><clipPath id="clip-path"><rect class="cls-1" width="1600.32" height="900.24"/></clipPath></defs><g class="cls-2"><path class="cls-3" d="M354.16,683.24c-97.93,0-177.61-79.68-177.61-177.61A177,177,0,0,1,224,385l10.31,11.83A161.92,161.92,0,0,0,354.16,667.55c19.18,0,28.31,15.69,0,15.69"/><path class="cls-4" d="M438.41,368.28,344.75,499l22.51-174.82a209.5,209.5,0,0,1,43.51,9.28l-2.72,9.6c38.85,12,30.36,25.25,30.36,25.25"/><path class="cls-3" d="M492.51,392.65c-6.32-105.82-77.81-118.34-106.75-119-6.66-.16-12.74,5.78-13.59,12.38l-4,31A217.51,217.51,0,0,1,413,326.55l6.6,2.17-2.73,9.63c16.14,5.85,25.5,12.79,28.54,21.12a14.75,14.75,0,0,1-.64,12.23c11.67,6.93,22.24,16.86,30.47,25.88a174.84,174.84,0,0,1,31.83,53.27c3.76,11,8.25,27.31,8.91,44.06,0,1.35.08,2.7.08,4.06,0,30.83-39.45,51.82-105.69,51.82,0,0,6.67,40.46,43.22,40.46-14,6.54-28.9,10.13-43.22,10.13,0,0-1.72,20.5,36.53,20.5,0,0-11.89,13.87-36.53,13.87,0,0,1.81,13.34,24.65,13.34S533,609.81,533,499c0-49.18-22.28-85.15-40.45-106.32m-94.7-86.09c-7.1,2.46-14.67-.77-16.91-7.21s1.71-13.66,8.82-16.13,14.67.77,16.91,7.21-1.71,13.66-8.82,16.13"/><path class="cls-4" d="M333.6,486.88l-109.81-126A198.93,198.93,0,0,1,265.69,338l4.62,9a161.38,161.38,0,0,1,20.4-4.33Z"/><path class="cls-4" d="M329.32,447.09q-6.66-22.43-13.34-44.85l-13.17-44.31q-5-16.94-10.07-33.85l-4-13.49a235.72,235.72,0,0,1,43.91-6.38c6.31-.31,12.61-.29,18.94-.13,2.94.07,5.89.12,8.83.33a7.92,7.92,0,0,1,1.65.06L339.58,481.59l-10.26-34.5"/><path class="cls-3" d="M279.62,305.36l-4-13.45c-35.36-1.22-60.16,16.3-72.2,27.38-4.9,4.51-4.75,12.8-.37,17.82l16,18.31.56-.39A206.42,206.42,0,0,1,263,331.24l6.12-2.46,5,9.71c3.83-.94,9.12-2.09,14.52-2.87Zm-51.24,34.75c-7.1,2.46-14.67-.77-16.91-7.21s1.71-13.66,8.82-16.13,14.67.77,16.91,7.21-1.71,13.66-8.82,16.13"/><path class="cls-3" d="M276.08,225.79c-6.37,1.93-9.87,9.06-8,15.45l18.56,62.41.34-.09A243,243,0,0,1,332.27,297c3.47-.18,7.07-.26,11-.26,2.63,0,5.41,0,8.49.11l1.36,0c2.44.06,5,.12,7.52.29h.72a9.72,9.72,0,0,1,2.06.21L365,285.08c1.33-10.31,10.52-18.7,20.5-18.7h.43c12.55.3,32.74,2.72,52.74,13.21-39.43-82.42-130.53-63.5-162.59-53.8m50.18,29.33c-2.81,10.43-14.42,16.39-25.93,13.29s-18.56-14.07-15.75-24.51,14.42-16.39,25.93-13.29,18.55,14.07,15.75,24.51"/><path class="cls-5" d="M644.15,416.26v5.35q0,4.71,2.36,7.34c1.58,1.75,4.44,2.63,8.6,2.63h9.08v33H577v-33q7.85,0,11.22-2.09c2.26-1.4,3.39-4,3.39-7.88V376.55q0-5.88-3.39-8T577,366.49v-33h96.08q13.18,0,22.09,3.12a36.13,36.13,0,0,1,14.29,8.68,31.5,31.5,0,0,1,7.65,13.49,63,63,0,0,1,2.28,17.46,57.72,57.72,0,0,1-2.28,17,29,29,0,0,1-7.65,12.6,34.13,34.13,0,0,1-14.29,7.84q-8.91,2.63-22.09,2.62Zm0-21.1h9.62q7.49,0,10.33-3.92T667,380.91a17.78,17.78,0,0,0-2.85-10.24q-2.85-4.19-10.33-4.18h-9.62Z"/><path class="cls-5" d="M774.87,421.07q.36,13.28,5,18.3t13.4,5a20,20,0,0,0,5.75-.84,15.63,15.63,0,0,0,5.21-2.77,16.49,16.49,0,0,0,4.13-5.07,21.33,21.33,0,0,0,2.27-8h32.42q-1.79,11.49-6.55,19.23a38.33,38.33,0,0,1-12.24,12.51,51.94,51.94,0,0,1-17.41,6.86,107.2,107.2,0,0,1-22.12,2.09,84.54,84.54,0,0,1-23.6-3.2,56.46,56.46,0,0,1-19.37-9.75,45.41,45.41,0,0,1-13-16.48Q724,429.08,724,415.37a55.44,55.44,0,0,1,4.46-23A45,45,0,0,1,741,375.88a55,55,0,0,1,19-10,81.82,81.82,0,0,1,24.18-3.39q16.2,0,27.87,4.28a49.71,49.71,0,0,1,19.06,11.92A46.8,46.8,0,0,1,842,397.12a74.31,74.31,0,0,1,3.29,23.95Zm13.18-34.55q-6.24,0-9.22,4.41t-4,14.56H801q-.54-8.73-3.74-13.85a10.21,10.21,0,0,0-9.17-5.12"/><path class="cls-5" d="M918.59,333.45V422q0,6,2.93,7.8a14,14,0,0,0,7.48,1.82h2.41v33h-75v-33h3.47c3.14,0,5.47-1,7-3a10.49,10.49,0,0,0,2.27-6.46V376.55c0-3.44-1.09-6-3.25-7.61a12.14,12.14,0,0,0-7.53-2.45h-1.95v-33Z"/><path class="cls-5" d="M1002.64,366.49V422c0,4,1,6.58,2.94,7.79a13.93,13.93,0,0,0,7.48,1.83h2.41v33h-75v-33H944q4.72,0,7-3a10.43,10.43,0,0,0,2.27-6.46V409.58q0-5.16-3.24-7.61a12.2,12.2,0,0,0-7.53-2.45h-2v-33ZM951.8,344.58a17.26,17.26,0,0,1,5.83-13.09q5.83-5.43,16.61-5.43,10.95,0,16.87,5.43a17.58,17.58,0,0,1,0,26.31q-5.91,5.4-16.87,5.39-10.77,0-16.61-5.39a17.28,17.28,0,0,1-5.83-13.22"/><path class="cls-5" d="M1087.41,386.52a13.1,13.1,0,0,0-11.75,6.5q-4.1,6.51-4.1,21.64t4.23,21.5q4.23,6.38,13,6.37a17.17,17.17,0,0,0,5.07-.8,15.16,15.16,0,0,0,4.68-2.36,12.78,12.78,0,0,0,3.47-4,13,13,0,0,0,1.56-5.74h28.76q-2.85,19.86-16,29.34t-37.44,9.48a78.58,78.58,0,0,1-22.8-3.2,51.84,51.84,0,0,1-18.43-9.75A45.21,45.21,0,0,1,1025.35,439q-4.45-9.93-4.45-23.64,0-13.08,4.45-23a45,45,0,0,1,12.51-16.52,55,55,0,0,1,19.06-10,81.71,81.71,0,0,1,24.17-3.39q14,0,23.6,3.47a48,48,0,0,1,15.54,8.69,31.37,31.37,0,0,1,8.45,11.21,29,29,0,0,1,2.54,11.27,28.38,28.38,0,0,1-1.2,8.19,20.7,20.7,0,0,1-3.92,7.3,20,20,0,0,1-6.9,5.3,23.52,23.52,0,0,1-10.24,2,22.85,22.85,0,0,1-9.43-1.65,15.17,15.17,0,0,1-5.66-4.09A15.53,15.53,0,0,1,1091,409a17.43,17.43,0,0,1-.84-5.13c0-3.62.85-6.5,2.58-8.63a13.73,13.73,0,0,1,6-4.45c-1.3-1-2.63-2-4-2.9s-3.79-1.38-7.35-1.38"/><path class="cls-5" d="M1187.68,378.87a39.83,39.83,0,0,0-7.8.66,36.64,36.64,0,0,0-5.56,1.56,16.83,16.83,0,0,0-3.83,2q-1.52,1.13-2.67,2l.89.89c1.13-.6,2.36-1.19,3.7-1.78a12.71,12.71,0,0,1,5.12-.89,13.14,13.14,0,0,1,9.08,3.43q3.83,3.42,3.83,10.9a13.57,13.57,0,0,1-5.84,11.45q-5.82,4.31-15.62,4.31-9.35,0-14.92-5.38t-5.56-15.27a22,22,0,0,1,3-10.82,29.07,29.07,0,0,1,9.4-9.67,56.46,56.46,0,0,1,16.21-7q9.82-2.76,23.73-2.76,16.56,0,27.07,3.12t16.34,8a25.72,25.72,0,0,1,8,11.13,37.91,37.91,0,0,1,2.18,12.56v34.81a74,74,0,0,0,.53,11q.54,2.89,4,2.89a3.91,3.91,0,0,0,3.87-2.62c.74-1.75,1.12-4.77,1.12-9V423.21h10.15v11.31a67.78,67.78,0,0,1-1.34,14.2,23.87,23.87,0,0,1-5.07,10.6,23.06,23.06,0,0,1-10.15,6.67q-6.42,2.28-16.39,2.28a49.06,49.06,0,0,1-14.91-1.92,28.74,28.74,0,0,1-9.4-4.76,17.88,17.88,0,0,1-4.94-5.93,12.9,12.9,0,0,1-1.47-5.47h-1.42a14.77,14.77,0,0,1-3.08,6.94,23,23,0,0,1-7,5.84,43.15,43.15,0,0,1-10.77,4.09,59.52,59.52,0,0,1-14.3,1.56,61.21,61.21,0,0,1-13.93-1.47,29.67,29.67,0,0,1-10.68-4.63,21.38,21.38,0,0,1-6.86-8.19,27,27,0,0,1-2.45-12q0-8.55,4.81-13.49a34.18,34.18,0,0,1,12.11-7.83,98,98,0,0,1,15.89-4.72,127.53,127.53,0,0,0,15.9-4.41,38,38,0,0,0,12.1-6.68q4.82-4.1,4.81-11.57a14.23,14.23,0,0,0-4.18-10.73q-4.19-4.05-13.71-4.05m17.89,38.55a15.31,15.31,0,0,1-4.89,4.59c-2,1.16-3.85,2.28-5.66,3.38a20.24,20.24,0,0,0-4.72,3.92,8.9,8.9,0,0,0-2,6.1,9.3,9.3,0,0,0,1.6,5.3q1.61,2.35,6.24,2.36a8.37,8.37,0,0,0,6.81-3.25c1.75-2.17,2.62-5.22,2.62-9.13Z"/><path class="cls-5" d="M1362.11,407.71a15.2,15.2,0,0,0-.84-5.56,8.39,8.39,0,0,0-2.14-3.21,6.51,6.51,0,0,0-2.89-1.46,14.24,14.24,0,0,0-3.12-.36q-5.79,0-8.64,3.38t-2.85,9.62v12.73q0,4.72,1.65,6.73t6.37,2h4.8v33H1280v-33h5.25a6.74,6.74,0,0,0,5.56-2.36,8.67,8.67,0,0,0,1.92-5.65V406.65c0-2.8-.82-4.68-2.45-5.66a10.6,10.6,0,0,0-5.56-1.47H1280v-33h52.89L1331,391h1.51q2-13.73,12-21.11t27.34-7.39q12.19,0,19.86,3.48a31.44,31.44,0,0,1,11.88,8.76,29.48,29.48,0,0,1,5.74,11.49,48.53,48.53,0,0,1,1.52,11.62v25q0,4.72,1.65,6.73c1.09,1.33,3.22,2,6.36,2h4.81v33h-61.62Z"/><path class="cls-5" d="M687.52,635.82l-2.94-8.91Q679,632,669.13,635.82a62.24,62.24,0,0,1-22.66,3.83,92.83,92.83,0,0,1-27.25-3.92,60.29,60.29,0,0,1-22.39-12.29,58.21,58.21,0,0,1-15.14-21.5q-5.57-13.14-5.56-31.57T582,538.81a61.26,61.26,0,0,1,15.59-21.51A62.14,62.14,0,0,1,619.49,505a81.36,81.36,0,0,1,25-3.91A71,71,0,0,1,658,502.26a62.45,62.45,0,0,1,10.55,2.89,45.5,45.5,0,0,1,7.66,3.65c2.08,1.27,3.77,2.33,5.07,3.16v-7.3h29.39v48.53H679.51q-.36-9.45-5.66-15.28t-14.74-5.83a23.19,23.19,0,0,0-9,1.74,17.59,17.59,0,0,0-7.39,6.1,33.15,33.15,0,0,0-5,11.75,79.64,79.64,0,0,0-1.83,18.7,113.06,113.06,0,0,0,1.21,18,35.85,35.85,0,0,0,3.74,11.76,15.71,15.71,0,0,0,6.45,6.5,20.6,20.6,0,0,0,9.44,2,23.51,23.51,0,0,0,3.16-.27,16.85,16.85,0,0,0,3.65-.93,10.67,10.67,0,0,0,3-1.74,3.6,3.6,0,0,0,1.29-2.93v-4.9a7.54,7.54,0,0,0-2.85-6.37q-2.85-2.17-10.68-2.18V560h75.15v29.39q-7.85,0-11.22,2.09c-2.26,1.4-3.39,4-3.39,7.88v36.51Z"/><path class="cls-5" d="M793.3,537.69l-1.51,24.49h1.51q3.12-14.07,10.37-21.28t18.84-7.22a29,29,0,0,1,11.8,2.19,21.36,21.36,0,0,1,8,5.83,22.62,22.62,0,0,1,4.36,8.42A36.21,36.21,0,0,1,848,560a28.33,28.33,0,0,1-1.25,8.28,20.71,20.71,0,0,1-4,7.39,19.88,19.88,0,0,1-7.12,5.3,25.71,25.71,0,0,1-10.78,2q-8.9,0-14-4.54a14.15,14.15,0,0,1-5.12-11,17,17,0,0,1,.71-5.29,20.35,20.35,0,0,1,1.47-3.57c.51-.92.85-1.59,1-2s0-.62-.63-.62q-1.87,0-4,4.27T802,573.67v20.39q0,4.71,1.64,6.72t6.37,2h5.34v33h-75v-33h5.25a6.74,6.74,0,0,0,5.57-2.37,8.65,8.65,0,0,0,1.92-5.65V577.85q0-4.19-2.46-5.65a10.57,10.57,0,0,0-5.56-1.47h-4.72v-33Z"/><path class="cls-5" d="M853.49,586.58a54.66,54.66,0,0,1,4.54-23,44.41,44.41,0,0,1,13-16.52,58,58,0,0,1,20.26-10,105.14,105.14,0,0,1,52.89,0,57.54,57.54,0,0,1,20.22,10,45.1,45.1,0,0,1,12.95,16.52q4.59,9.89,4.59,23a54.15,54.15,0,0,1-4.59,22.88,45.63,45.63,0,0,1-12.95,16.7,56.67,56.67,0,0,1-20.22,10.1,104.84,104.84,0,0,1-52.89,0A57.11,57.11,0,0,1,871,626.16a44.93,44.93,0,0,1-13-16.7,54.77,54.77,0,0,1-4.54-22.88m50.67,0a103.13,103.13,0,0,0,.67,12.69,28.06,28.06,0,0,0,2.18,8.37,10.18,10.18,0,0,0,4.1,4.63,13.18,13.18,0,0,0,6.59,1.46,12.93,12.93,0,0,0,6.54-1.46,10.52,10.52,0,0,0,4.1-4.63,26.36,26.36,0,0,0,2.18-8.37,110.71,110.71,0,0,0,.62-12.69q0-15-2.8-21t-10.64-6a13.88,13.88,0,0,0-6.59,1.38,9.64,9.64,0,0,0-4.1,4.54,28.06,28.06,0,0,0-2.18,8.37,102.9,102.9,0,0,0-.67,12.69"/><path class="cls-5" d="M1118.31,595.66q0,4.27,2.45,5.7a10.85,10.85,0,0,0,5.56,1.42h4.73v33h-52.9v-24.4h-1.42q-2.06,13.62-11.13,20.66t-26.45,7q-12.2,0-19.85-3.48a31,31,0,0,1-11.85-8.77,30.33,30.33,0,0,1-5.74-11.49,47.62,47.62,0,0,1-1.56-11.62V579.45q0-4.71-1.65-6.72c-1.09-1.34-3.22-2-6.36-2h-5.35v-33H1049v56.19a15.7,15.7,0,0,0,.8,5.56,7.76,7.76,0,0,0,2.09,3.21,6.6,6.6,0,0,0,2.94,1.47,14.39,14.39,0,0,0,3.07.35q5.88,0,8.68-3.38t2.81-9.62v-12q0-4.71-1.65-6.72c-1.1-1.34-3.22-2-6.37-2h-5.25v-33h62.15Z"/><path class="cls-5" d="M1232.64,638.76a80.53,80.53,0,0,1-10.15-.58,53.07,53.07,0,0,1-8.1-1.65,54.94,54.94,0,0,1-7-2.54c-2.19-1-4.39-2-6.58-3.07v27.84c0,3.15.54,5.39,1.64,6.72s3.25,2,6.46,2h5.25v15.74h-75V667.49h5.34a6.74,6.74,0,0,0,5.56-2.36,8.7,8.7,0,0,0,1.92-5.66V577.85q0-4.19-2.49-5.65a10.88,10.88,0,0,0-5.61-1.47h-4.72v-33H1197V556h1.51a31.7,31.7,0,0,1,11.67-15.32q8.36-6.06,23-6,20.92,0,32.72,13.22t11.8,38.78q0,25.54-12.06,38.86t-33,13.32M1227,587.47a71.57,71.57,0,0,0-.54-9,25.38,25.38,0,0,0-2-7.49,12.83,12.83,0,0,0-3.92-5,10.56,10.56,0,0,0-6.45-1.82,11.65,11.65,0,0,0-6.6,1.73,11.52,11.52,0,0,0-4,4.77,25.08,25.08,0,0,0-2,7.21,66.09,66.09,0,0,0-.57,8.91v21.9c1,1.54,2.88,2.78,5.6,3.7a23.92,23.92,0,0,0,7.58,1.38,9.08,9.08,0,0,0,6.45-2.28,16,16,0,0,0,3.92-6,33,33,0,0,0,2-8.45,83.91,83.91,0,0,0,.54-9.53"/><path class="cls-5" d="M648.85,231v26.09H634.2q0-3-.15-5.19a12.35,12.35,0,0,0-.7-3.56,3.77,3.77,0,0,0-1.62-2,5.7,5.7,0,0,0-2.91-.65h-2.77v29.39c0,1.92.56,3.24,1.69,3.94s3,1,5.61,1v16.52H592.53V280.09q3.91,0,5.58-1c1.12-.7,1.67-2,1.67-3.94V245.72h-2.71a5.65,5.65,0,0,0-2.91.65,3.86,3.86,0,0,0-1.65,2,11.16,11.16,0,0,0-.69,3.56c-.09,1.47-.14,3.2-.14,5.19H577V231Z"/><path class="cls-5" d="M700,245.54a22.42,22.42,0,0,1,9.55,1.74,15.64,15.64,0,0,1,5.75,4.38,15.16,15.16,0,0,1,2.83,5.75,24.71,24.71,0,0,1,.75,5.81v12.51a5.34,5.34,0,0,0,.83,3.36c.54.67,1.6,1,3.18,1h2.4v16.52H694.48V268.16a7.56,7.56,0,0,0-.42-2.78,4.09,4.09,0,0,0-1.07-1.61,3.27,3.27,0,0,0-1.45-.73,7.05,7.05,0,0,0-1.56-.18,5.33,5.33,0,0,0-4.31,1.69,7.28,7.28,0,0,0-1.43,4.81v6.37a5.34,5.34,0,0,0,.83,3.36c.55.67,1.61,1,3.18,1h3.29v16.52H653.43V280.09h2.63a3.34,3.34,0,0,0,2.78-1.18,4.35,4.35,0,0,0,1-2.83l-.09-23.5a4.45,4.45,0,0,0-1.62-3.81,6.12,6.12,0,0,0-3.76-1.23h-.9V231h30.81v16.51a13.77,13.77,0,0,1-.53,3,13.19,13.19,0,0,1-2,4.18l.89.45a19.06,19.06,0,0,1,6.45-7q4.05-2.61,11-2.61"/><path class="cls-5" d="M753.43,274.84q.18,6.63,2.52,9.15a8.7,8.7,0,0,0,6.7,2.51,10,10,0,0,0,2.87-.42,7.69,7.69,0,0,0,2.6-1.38,8.28,8.28,0,0,0,2.07-2.54,10.7,10.7,0,0,0,1.14-4h16.2a25.61,25.61,0,0,1-3.27,9.61,19.28,19.28,0,0,1-6.12,6.26,26,26,0,0,1-8.7,3.43,54.46,54.46,0,0,1-11.07,1,42.16,42.16,0,0,1-11.8-1.6,28.13,28.13,0,0,1-9.68-4.88,22.68,22.68,0,0,1-6.52-8.23A27.21,27.21,0,0,1,728,272a27.81,27.81,0,0,1,2.22-11.49,22.64,22.64,0,0,1,6.26-8.26,27.61,27.61,0,0,1,9.53-5,45.3,45.3,0,0,1,26,.45,24.79,24.79,0,0,1,9.53,6,23.42,23.42,0,0,1,5.43,9.21,37.19,37.19,0,0,1,1.65,12ZM760,257.56a5.19,5.19,0,0,0-4.61,2.21c-1,1.47-1.65,3.89-2,7.28h13a14.63,14.63,0,0,0-1.87-6.93,5.1,5.1,0,0,0-4.58-2.56"/><rect class="cls-3" x="353.33" y="667.49" width="779.38" height="15.74"/></g></svg>