<?xml version="1.0" encoding="UTF-8"?>
<svg id="Layer_1" data-name="Layer 1" xmlns="http://www.w3.org/2000/svg" viewBox="0 0 1600 900">
  <defs>
    <style>
      .cls-1 {
        fill: none;
      }

      .cls-2 {
        fill: #a0d0f0;
      }

      .cls-3 {
        fill: #fff;
      }

      .cls-4 {
        fill: #8dc43f;
      }

      .cls-5 {
        fill: #251f1e;
      }
    </style>
  </defs>
  <path class="cls-5" d="M831.89,304.52c.09-.04,6.18-30.31,6.59-33.5,1.23-9.16,4.22-17.34,8.11-25.92,5.86-12.92,10.48-23.79,20.9-34.23,11.22-11.23,17.98-25.89,33.41-32.64,26.35-11.55,53.24-13.58,81.43-16.7,13.68-1.53,26.19-1.14,39.68,1.73,13.54,2.87,26.92,7.82,40.45,10.26,13.49,2.4,29.41,5.33,42.01,10.78,14.97,6.47,24.96,16.53,38.2,25.28,20.39,13.47,43.76,34.32,48.02,59.76,2.5,14.86,1.23,29.08,1.12,44.21-.09,14.98-1.12,28.86-7.16,42.82-5.56,12.72-12.58,20.69-22.72,30.01-10.46,9.62-28.13,12.45-41.57,15.63-13.06,3.1-25.24,9.93-38.29,13.18-14.55,3.65-28.24,2.82-42.95,3.55-3.26.14-14.36.8-16.66,3.03l-28.3,40.89s-9.3-6.52-12.56-8.46c4.38-6.59,10.19-21.74,8.09-39.47-19.37,4.81-38.72-4.79-58.17-4.62-8.53.07-15.96-3.22-24.02-4.06-10.92-1.11-18.33-7.16-27.39-12.69-15.59-9.55-25.07-24.82-33.12-40.64-7.8-15.29-15.09-31.02-15.09-48.71"/>
  <path class="cls-2" d="M856.72,255.82c2.89-9.71,16.32-32.09,21.83-36.88,9.32-8.07,18.49-14.7,28.15-22.24,9.1-7.09,23.52-11.44,34.48-15.63,13.26-5.08,31.18-.53,45.03-3.51,21.31-4.56,39.85,1.12,60.9,5.83,38.98,8.73,69.18,25.03,97.57,52.4,27.19,26.26,37.93,80.86,22.64,114.69-16.37,36.19-58.23,37.65-92.06,42.8-14.61,2.21-29.67,2.32-44.3,4.24,0,0-7.84,1.35-12.24,2.32-2.67.59-12.67,17.73-12.67,17.73,0,0-5.07-16.93-8.44-17.73-5.52-1.32-8.36-2.24-10.09-2.78-22.45-6.66-64.07-5.9-83.76-12.54-18.37-6.16-23.23-20.93-33.89-35.3-10.9-14.74-24.2-32.36-24.32-50.58-.11-12.7,11.17-42.82,11.17-42.82"/>
  <path class="cls-4" d="M1011.19,341.65c-.72-4.15-2.59-7.82-4.46-11.55-.46-.89-1.14-1.5-1.53-2.44-.45-.98-.7-1.64-1.28-2.57-.89-1.48-1.41-3.21-2.36-4.7-1.72-2.89-3.72-5.54-5.43-8.45-.75-1.27-1.64-2.64-2.26-3.94-.57-1.25-1.21-2.26-1.99-3.44-.73-1.07-1.82-1.89-2.49-2.98-.23-.37-.39-.86-.61-1.27-.36-.61-.71-1.14-1.07-1.75-.75-1.21-1.35-2.57-2.16-3.85-.86-1.35-3.42-4.13-3.85-4.38-.3-.18-2.19-.91-2.67-1.05-.64-.18-1.34-.23-2-.39-1.5-.41-2.9-1.07-4.4-1.5-1.93-.57-3.74-1.76-5.65-2.48-2.8-1.07-5.51-2.1-8.46-2.67-2.58-.5-5.19-1.62-7.68-2.46-2.41-.8-4.79-1.62-7.16-2.57-1.92-.77-3.74-1.66-5.65-2.57-.62-.3-1.32-.57-2.01-.82,0-.61-.02-1.21-.11-1.75-.09-.46-.39-.8-.46-1.28-.07-.39.05-.87.04-1.27-.05-.93-.52-1.71-.77-2.57-.59-1.96-1.87-4.1-3.1-5.67-1.3-1.59-2.46-3.23-4.28-4.29-1.53-.87-3.21-1.87-5.04-2.03-1.89-.18-3.67-.46-5.67-.41-.93.04-1.64.41-2.55.44-.87.04-1.71.2-2.55.41-.43.09-.91.25-1.28.41-.46.21-.82.59-1.3.78-.41.2-.85.2-1.28.39-.46.21-.8.7-1.26.89-.52.21-.71.18-1.21.5-.23.16-.66.53-.93.75-.68.48-1.25,1.16-1.82,1.73-.84.82-1.52,1.82-2.12,2.87-.25-.04-.46-.07-.66-.11-1.28-.2-2.58-.09-3.87-.09s-2.37.12-3.58.43c-.8.16-1.64.21-2.41.41-1.09.27-1.98.87-3.08,1.19-3.78,1.1-7.14,3.47-10.65,5.22-3.39,1.67-6.58,4.01-9.43,6.4-1.89,1.59-3.6,3.6-5.04,5.58-1.27,1.78-2.57,3.33-3.08,5.56-1.28,5.43.32,11.21,2.58,16.23.37.84.45,1.73.82,2.57.39.91.91,1.75,1.3,2.64,1,2.33,1.75,4.54,3.12,6.68,1.09,1.73,2.41,3.39,3.31,5.2.45.89.78,1.76,1.36,2.57.73,1.05,1.3,2.39,2.15,3.33,2.23,2.57,3.8,5.76,5.86,8.52,2.24,3.03,4.86,6.29,8.14,8.23,1,.59,1.43,1.32,2.23,2.07.77.71,1.66.96,2.37,1.78,1.41,1.6,3.12,2.44,4.79,3.74,3.72,2.83,8.07,4.56,12.08,6.95.7.43,1.43.73,2.05,1.28.45.39.73.87,1.23,1.19.66.41,1.16.45,1.75,1.03.61.57.87,1.1,1.59,1.62,1.37,1.02,2.99,1.64,4.31,2.67,1.09.87,2.23,1.71,3.47,2.35,1.96.96,4.21.96,6.33.96,3.05,0,5.93.43,8.98.43,5.83,0,11.55,1.05,17.27,1.8,3.28.43,6.5,1.11,9.73,1.62.77.09,1.5.36,2.24.45.94.11,1.87-.11,2.82.05,1.91.36,3.79.07,5.67.45,1.48.28,2.82.37,4.37.34,1.48-.05,2.8-.54,4.26-.78,2.46-.38,5.01-.77,7.23-1.87,1.3-.62,2.58-1.43,3.79-2.16,1.32-.78,2.21-2.05,3.42-2.94.98-.71,2-1.3,2.89-2.17,1.03-1.03,1.85-2.28,2.85-3.33.75-.78,1.28-1.05,1.85-2.03.5-.96,1.23-1.66,1.8-2.57.82-1.3,1.53-2.92,2.03-4.35.66-1.85.31-3.58.52-5.45.11-.95.41-1.75.44-2.71.06-1.12-.16-2.01-.33-3.1"/>
  <path class="cls-4" d="M932.47,250.33c.64.98,1.55,1.96,2.24,2.98.94,1.41,1.75,2.55,3.31,3.31,2.69,1.35,5.81.2,8.46-.85,1.19-.48,2.09-1.21,3.08-2.01,1.16-.93,1.37-2.55,1.8-3.87.57-1.8,1.02-5.97-.5-7.38-.87-.78-1.94-1.57-3.05-1.91-1.16-.36-2.21-1-3.42-.98-1.12.04-2.25.02-3.39,0-.91,0-1.53.16-2.1.45-2.41-.05-4.76,1.98-6.56,3.3-.52.36-1.05.68-1.32,1.3-.25.64.09.91.14,1.71.16,1.48.46,2.73,1.28,3.96"/>
  <path class="cls-4" d="M958.2,245.08c1.53,1.1,3.08.25,4.61-.43.71-.32,1.41-.27,2.16-.62.62-.3,1.28-.78,1.8-1.28,1.25-1.21,1.48-2.58.85-4.06-.54-1.23-1.71-2.96-3.1-3.33-.78-.23-2.69.3-3.67,1.14l.66-1.12c-.85.85-2.12,1.16-2.89,2.23-.75,1.05-1.16,2.46-1.48,3.65-.16.68-.45.96-.23,1.8.21.89.53,1.5,1.28,2.03"/>
  <path class="cls-4" d="M1008.53,197.32c1-.09,1.98-.93,2.98-1.19,1.53-.39,3.04-.53,4.61-.52,3.3.02,6.77-.34,10.01.11,1.57.21,3.02.77,4.64.77s3.45.32,4.99.82c5.15,1.75,10.76,1.84,16.03,3.1,2.28.55,4.85.82,7.06,1.62,1.23.41,2.24.7,3.54.94,1.2.25,2.23.86,3.41,1.11,2.44.52,4.83,1.32,7.14,2.23,1.2.46,2.37.87,3.57,1.28,1.6.54,3.01,1.5,4.56,2.16,1.07.45,2.17.78,3.22,1.25,1.05.46,1.85,1.19,2.85,1.73,2.03,1.09,4.08,2.19,6.11,3.3,2.12,1.18,4.23,2.48,6.42,3.53,2.4,1.19,4.54,2.76,7.04,3.83,2.06.91,4.27,2.05,6.11,3.35,1.78,1.28,3.9,1.92,5.54,3.49,1.94,1.91,4.31,3.3,6.41,5.04,2.41,2.01,4.8,4.12,7.29,6,3.3,2.51,6.13,5.38,9.09,8.32,1.08,1.12,2.21,2.26,3.26,3.4,1.26,1.34,2.74,2.58,3.88,4.04.52.66.77,1.46,1.25,2.16.52.8,1.26,1.37,1.73,2.23.91,1.6,1.74,3.28,2.55,4.9.69,1.39,1.55,2.76,2.15,4.19.3.73.27,1.28.5,2.05.27.98.86,2,1.18,2.98.57,1.51,1.1,3.06,1.64,4.6.51,1.57.41,2.76.49,4.38.11,1.6.45,3.06.45,4.7s-.39,3.01-.41,4.58c-.05,1.99-1.18,3.67-1.6,5.58-.25.87-.47,1.42-.88,2.23-.51,1.03-1.15,1.71-1.71,2.65-.5.84-.71,1.67-1.37,2.49-.71.84-1.35,1.76-2.14,2.55-1.32,1.35-1.92,2.98-3.42,4.28-3.03,2.66-6.8,4.92-10.8,5.88-2.26.57-4.45.95-6.82.95-2.78.02-5.26-1.14-8-1.28-2.89-.16-5.42-.96-8.16-1.8-.96-.3-2.07-.71-2.96-1.16-.5-.27-.98-.57-1.39-.89-.73-.36-1.48-.46-2.17-.84-1.44-.73-2.99-1.59-4.26-2.57-.52-.43-.93-.7-1.6-.86-.27-.07-.48-.16-.75-.28-.59.14-1.02,1.1-1.41,1.5-.5.5-1.16.75-1.69,1.25-.73.68-1.07,1.03-2.02,1.48-2.58,1.25-4.84,2.96-7.46,4.15-2.99,1.34-5.76,3.4-8.57,5.06-1.3.77-2.71,1.53-4.08,2.24-.75.43-1.75.85-2.6,1.1,1.17-1.35,1.85-3.6,2.56-5.26.59-1.48,1.43-2.87,2.09-4.31,1.3-2.82,2.78-5.67,3.78-8.62.89-2.74,1.24-5.79,2.31-8.46.46-1.19,1.05-2.33,1.5-3.55.12-.29.41-.93.48-1.19.27-1.32-1.05-2.74-1.59-3.87-.8-1.67-1.99-2.83-3.56-3.78-1-.6-1.98-1.16-2.92-1.8-.57-.39-1.09-1-1.71-1.34-.95-.52-1.78-.62-2.66-1.34-3.17-2.62-7.57-3.85-11.33-5.47-2.01-.85-4.13-1.21-6.09-2.12-2.48-1.16-4.94-2.07-7.59-2.67-2.36-.53-4.49-1.62-6.85-2.14-2.01-.45-3.83-1.57-5.64-2.46-1.52-.75-3.28-1.35-4.71-2.21-1.94-1.23-3.85-2.35-5.97-3.35-1.96-.94-4.06-1.6-6.02-2.57-1.58-.8-3.12-1.73-4.68-2.57-1.45-.77-2.77-1.69-4.14-2.57-1.69-1.1-3.6-1.92-5.25-3.08-1.66-1.16-3.39-1.96-5.15-2.9-1.38-.71-2.48-1.8-3.82-2.57-2.51-1.41-4.35-3.72-6.01-5.97-.28-.38-.64-.87-.85-1.28-.36-.66-.27-1.14-.48-1.84-.21-.6-.7-1.09-.91-1.67-.27-.64-.27-1.28-.41-1.94-.36-1.59-.75-2.73-.75-4.4s-.69-3.15-.44-4.79c.28-2.08.75-4.26,1.3-6.29.25-.91.53-1.78.84-2.67.36-1.07.98-1.92,1.39-2.99.68-1.76,1.87-3.53,2.99-5.06.2-.21.43-.39.68-.48.21-.38.25-.73.52-1.11.45-.68,1.23-1.5,1.82-2.16,2.1-2.3,5.47-3.01,8.02-4.67,2.42-1.59,5.08-3.55,8.09-3.51"/>
  <path class="cls-3" d="M879.19,278.04c1.59-.77,2.92-1.64,4.22-2.83,1.57-1.41,2.99-2.16,4.97-2.62,2.08-.5,3.9-1.39,5.97-1.48,1.14-.05,2.01-.55,3.22-.53,1.25.02,2.58-.2,3.78.11,1.02.25,2.23.93,3.26,1,1.26.09,1.39-.82,1.99-1.67,1.18-1.6,2.99-2.92,4.61-4.1,1.62-1.21,3.74-1.76,5.79-1.75,1.09,0,2.16-.02,3.26,0,1.41.02,2,.5,3.22,1.05,1,.52,1.75.96,2.69,1.62,1.16.8,1.37,1.5,2.03,2.69.53.89.84,1.64,1.23,2.66.2.53.36,1.07.55,1.6.16.44.43,1.1.55,1.57.11.46-.05,1.12-.05,1.62.05.7.29.96.45,1.6.23.94-.28,2.41.09,3.24.41.93,1.8.38,2.74.61,1.21.32,2.4.3,3.64.53,4.61.94,9.02,3.08,13.65,4.13,2.09.48,3.9,1.96,5.95,2.57,2.46.73,4.72,2.03,7.14,2.92,2.12.8,4.4,1.21,6.33,2.14.93.43,2.09.77,2.87,1.32.77.57,1.55,1.44,2.17,2.16,1.42,1.67,2.85,3.39,4.17,5.06.77.98,1.02,2.03,1.59,3.1.78,1.32,1.85,2.41,2.71,3.71.78,1.19,1.87,2.01,2.6,3.21.69,1.19,1.23,2.17,2.19,3.24.66.75.87,1.27,1.3,2.1.48,1.02,1.3,1.85,1.89,2.8.64,1.02,1.25,2.09,1.76,3.1.5.95,1.3,1.55,1.76,2.66.95,2.26,2.33,4.26,3.49,6.38.59,1.07,1,2.09,1.37,3.24.32,1.09,1.07,2.12,1.37,3.19.68,2.37.84,4.58.22,6.95-.29,1.1-.22,2.08-.65,3.19-.44,1.09-.67,2.16-1.21,3.21-1.03,2.01-2.03,3.74-3.54,5.35-1.25,1.32-2.49,2.4-4.44,2.69-2.32.36-4.61.69-6.89,1.16-.38.07-.7.38-1.19.43-.53.07-1,0-1.51.11-.34.09-.68.36-1.18.43-.52.07-1.14,0-1.64-.02h-8.25c-5.42,0-10.69.05-15.93-.95-1.27-.23-2.64-.12-3.9-.11-1.27.02-2.16-.48-3.39-.57-1.37-.07-2.85.21-4.22.04-1.37-.16-2.46-.55-3.87-.55-1.42.02-2.39-.07-3.69-.39-1.05-.29-2.14.09-3.22-.11-2.57-.43-4.79-1.62-7.04-2.83-2.14-1.18-4.33-2.28-6.45-3.44-2.44-1.34-4.74-3.05-7.04-4.54-1.87-1.23-3.94-2.33-5.93-3.47-2.62-1.53-4.65-3.56-7.04-5.36-1.05-.8-1.71-1.84-2.69-2.8-1.07-1.03-2.01-2-2.82-3.21-1.25-1.8-2.57-3.56-3.8-5.31-.66-.98-1.37-1.94-2.05-2.8-.8-1.03-1.28-2.23-2.16-3.24-.77-.89-1.57-1.98-2.05-3.07-.29-.64-.21-.89-.64-1.48-.37-.59-.87-1-1.21-1.73-.48-.96-1.05-1.75-1.64-2.64-.34-.5-.48-1.12-.8-1.64-.32-.55-.77-.73-1.1-1.18-1.44-1.92-2.12-4.19-3.21-6.27-1.18-2.28-1.69-4.6-2.3-6.95-.62-2.57-1-5.45-.02-8.02.52-1.28.59-2.49,1.25-3.74.55-1.07,1.1-2.14,1.62-3.17.87-1.73,3.07-5.9,3.07-5.9"/>
  <path class="cls-3" d="M1020.86,204.01c-1.14.39-2.26.12-3.4.34-1.7.32-3.74,1.16-5.31,1.84-2.6,1.12-4.92,2.76-6.72,4.88-.93,1.09-1.87,2.08-2.78,3.19-1.01,1.21-1.53,1.73-2.1,3.19-.43,1-.91,2.09-1.16,3.14-.34,1.53-.12,3.26-.14,4.83,0,2.44.55,4.7,1.49,6.98.59,1.48,1.38,2.83,2.32,4.13.93,1.32,1.84,2.82,3.26,3.76,1.5,1.03,3.16,1.5,4.56,2.78,1.86,1.67,3.92,2.83,5.95,4.29,3.8,2.74,7.68,5.13,12.07,6.95,2.37.98,4.26,2.69,6.62,3.67,1.06.45,2.21.54,3.28,1.02,1.16.48,2.19,1.16,3.35,1.66,3.96,1.75,8.13,3.1,12.1,4.79,3.74,1.6,7.41,3.4,11.1,4.97,4.33,1.84,8.79,3.65,13.03,5.68,2.83,1.35,5.64,2.74,8.33,4.4,1.06.66,2.25,1.1,3.3,1.73,1.03.61,1.77,1.52,2.75,2.16,1.14.75,1.17,1.16,1.53,2.49.39,1.46.09,3.19.09,4.69,0,1.32-.36,2.1-.61,3.3-.2,1.16.43,2.66.04,3.74-.13.37-.25.64-.65.8.93-.57,2.34-.5,3.41-.93,1.07-.43,2.33-.85,3.31-1.44,1.52-.89,3.48-2.71,5.4-2.01.87.32,1.94,1.12,2.87,1.5,1.12.46,2.17,1.21,3.3,1.76,2.44,1.16,4.57,2.07,7.18,2.67,1.15.27,2.17,1.05,3.27,1.39,1.02.28,2.29.12,3.34.12,2.42-.04,4.74,1.1,7.16,1.07,2.24,0,4.56.11,6.63-.85,2.24-1.03,4.79-3.03,6.22-4.88.9-1.14,1.63-2.41,2.26-3.71.64-1.34,1.32-2.46,2.07-3.71,1.33-2.21,2.12-4.94,2.94-7.39.94-3.01-.34-4.4-1.77-6.91-.85-1.53-1.44-2.49-2.74-3.76-1.45-1.37-2.57-2.78-3.85-4.28-1.94-2.35-4.08-4.49-5.9-6.93-2.12-2.83-5.06-5.76-7.95-7.98-2.58-2.03-4.72-4.6-7.59-6.31-1.28-.77-2.19-1.87-3.38-2.8-1.62-1.23-3.24-2.46-4.85-3.74-2.05-1.6-4.27-2.76-6.45-4.28-.94-.66-1.99-.93-2.9-1.57-1.23-.84-1.94-1.91-3.39-2.58-4.88-2.26-9.55-5.06-14.16-7.75-8.07-4.7-16.86-8.7-25.36-12.22-1.97-.82-3.93-2.01-6.07-2.55-2-.53-4.1-1-6.04-1.73-1.8-.7-3.73-.7-5.53-1.21-1.03-.3-1.58-.93-2.74-1-.93-.04-1.82.12-2.76-.11-1.71-.43-3.14-.98-4.94-.96-1.8,0-3.28-.57-5-.57-1.64.04-3.28,0-4.96-.02l-3.33.27Z"/>
  <path class="cls-5" d="M407.01,610.14h-51.1c.27,17.34,8.03,37.36,27.78,37.36,9.28,0,18.23-2.99,25.12-9.28l12.56,14.95c-8.38,9.26-21.85,14.36-38.59,14.36-32.27,0-49.61-23.32-49.61-64.87s17.66-65.46,49.61-65.46,44.88,20.9,44.88,53.22c0,16.43-5.42,19.72-20.65,19.72M382.78,557.22c-15.84,0-25.11,12.56-27.19,33.76h45.17c3.85,0,5.67-3.28,5.67-8.05,0-16.45-7.77-25.71-23.64-25.71"/>
  <path class="cls-5" d="M528.54,645.12c-7.47,14.02-22.43,22.41-43.67,22.41-33.16,0-49.61-21.54-49.61-64.87,0-35.58,13.18-64.61,49.61-64.61,22.43,0,37.08,8.39,43.67,25.16l-18.55,8.66c-4.15-9.57-14.36-13.77-25.12-13.77-24.5,0-28.97,22.75-28.97,44.56,0,29.6,9.57,44.85,28.97,44.85,13.51,0,23.06-4.49,28.72-14.36l14.95,11.97Z"/>
  <path class="cls-5" d="M582.07,666.93c-32.25,0-49.6-23.32-49.6-64.87s16.43-64.57,49.6-64.57,49.94,21.54,49.94,64.57-16.75,64.87-49.94,64.87M582.07,557.51c-19.4,0-28.97,15.25-28.97,44.54,0,20.92,6.88,44.85,28.97,44.85,19.46,0,29.33-15.23,29.33-44.85s-9.87-44.54-29.33-44.54"/>
  <path class="cls-4" d="M780.22,615.61c-1.76,9.25-8.05,37.65-10.76,46.93h-107.96s.05-12.28.05-37.68v-119.57c0-25.41-2.1-26.87-26.32-28.7v-8.36h51.74s-.02,11.65-.02,37.06v118.08c0,16.18,1.48,22.15,6.86,25.12,5.99,3.3,16.16,3.87,28.7,3.87,16.46,0,26.62-1.48,33.48-9.25,5.1-5.99,10.74-15.55,15.23-29.31l8.98,1.82Z"/>
  <path class="cls-4" d="M854.59,528.32c36.76,0,64.57,29.6,64.57,66.66,0,48.13-35.3,71.13-64.89,71.13-40.93,0-65.44-32.89-65.44-66.03,0-49.36,38.25-71.75,65.44-71.75h.32ZM850.99,538.18c-18.25,0-34.37,18.53-34.37,52.31,0,37.67,16.43,65.76,40.95,65.76,18.53,0,33.78-13.74,33.78-54.72,0-34.96-14.02-63.36-40.05-63.36h-.3Z"/>
  <path class="cls-4" d="M1022.62,546.91c5.69,6.57,8.43,17.26,8.43,28.06,0,32.27-26.9,47.8-52.31,47.8-5.08,0-10.49-.89-15.27-1.51-4.19,2.73-8.94,8.09-8.94,12.28,0,6,5.38,11.63,18.82,11.63,10.76,0,21.52-.29,31.4-.29,18.53,0,43.06,5.99,43.06,35.28s-34.97,59.19-74.74,59.19c-33.19,0-51.44-19.44-51.71-36.45,0-6.57,2.66-12.26,7.16-16.73,5.97-6.01,17.66-15.56,24.8-20.94-10.76-3.3-18.23-10.17-22.11-16.46-2.69-4.49-3.58-9.55-3.3-12.54,11.96-4.49,21.52-12.24,26.34-18.23-13.51-5.68-26.34-19.74-26.34-40.07,0-34.07,30.5-49.61,53.24-49.61h.3c26.39,0,41.17,18.58,41.17,18.58M984.71,665.8c-14.04,0-20.63,1.82-26.01,6.58-7.77,6.31-13.76,14.66-13.76,23.34,0,16.16,17.35,28.38,39.45,28.38,28.44,0,43.06-14.63,43.06-33.18,0-10.16-5.07-17.64-13.73-21.22-7.47-2.99-16.13-3.9-28.71-3.9h-.3ZM978.12,537.27c-12.85,0-24.5,12.56-24.5,35.89s11.37,40.04,28.1,40.04c13.15-.28,24.82-11.96,24.82-35.56s-11.03-40.36-28.1-40.36h-.32Z"/>
  <path class="cls-4" d="M1107.37,528.32c36.74,0,64.57,29.6,64.57,66.66,0,48.13-35.26,71.13-64.88,71.13-40.92,0-65.44-32.89-65.44-66.03,0-49.36,38.24-71.75,65.44-71.75h.31ZM1103.78,538.18c-18.24,0-34.4,18.53-34.4,52.31,0,37.67,16.46,65.76,40.98,65.76,18.53,0,33.75-13.74,33.75-54.72,0-34.96-14.03-63.36-40.04-63.36h-.29Z"/>
  <path class="cls-4" d="M1254.31,567.15c-5.69-17.62-16.15-29.56-30.77-29.56-11.39,0-19.46,8.94-19.46,20.6,0,13.18,11.96,20.35,25.41,26.03,22.43,9.25,37.66,20.03,37.66,40.64,0,27.23-25.4,41.25-49.32,41.25-15.25,0-29-5.65-34.37-10.12-2.1-4.2-4.79-24.54-4.79-35.3l7.77-1.51c5.36,19.74,18.83,37.08,36.76,37.08,11.08,0,21.24-8.37,21.24-20.92,0-13.17-8.68-20.33-23.63-27.21-17.92-8.39-37.35-18.23-37.35-41.23,0-20.94,17.91-38.58,45.44-38.58,12.26-.32,20.33,2.67,26.58,5.08,2.41,6.86,5.69,24.52,6.61,31.96l-7.78,1.78Z"/>
  <path class="cls-4" d="M988.18,532.01l2.03-39.07c-2.3-4.81-10.26-10.92-15.04-13.67l-2.42,1.73c1.64,10.82,3.65,38.15,4.03,52.81-3.64,6.36,16.53-6.13,11.4-1.8"/>
  <rect class="cls-1" x="0" width="1600.32" height="900"/>
</svg>