<?xml version="1.0" encoding="UTF-8"?>
<svg id="Layer_1" data-name="Layer 1" xmlns="http://www.w3.org/2000/svg" viewBox="0 0 1600 900">
  <defs>
    <style>
      .cls-1 {
        fill: none;
      }

      .cls-2 {
        fill: #002d42;
      }

      .cls-3 {
        fill: #fff;
      }

      .cls-4 {
        fill: #219ebc;
      }
    </style>
  </defs>
  <rect class="cls-1" x="-20" width="1600.56" height="900.48"/>
  <g>
    <path class="cls-2" d="M398.86,315.88l-201.1,201.1c28.11,84.17,107.6,145.03,201.1,145.03,116.9,0,212-95.1,212-212,0-44.74-13.97-86.26-37.72-120.51l-80.33,80.33-93.95-93.94Z"/>
    <path class="cls-4" d="M210.46,472.93c-.91-7.53-1.43-15.17-1.43-22.93,0-104.68,85.16-189.84,189.84-189.84,58.04,0,110.04,26.2,144.89,67.37l15.7-15.7c-38.91-45.16-96.45-73.84-160.59-73.84-116.9,0-212,95.1-212,212,0,14.48,1.47,28.62,4.25,42.29l19.35-19.35Z"/>
    <g>
      <path class="cls-2" d="M712.27,431.98l56.3-148.16h14.39l55.67,148.16h-11.85l-38.31-102.44c-1.69-4.37-3.14-8.25-4.34-11.64-1.2-3.39-2.36-6.63-3.49-9.74-1.13-3.1-2.26-6.38-3.39-9.84-1.13-3.46-2.4-7.37-3.81-11.75h3.6c-1.41,4.66-2.72,8.75-3.91,12.28-1.2,3.53-2.4,6.88-3.6,10.05-1.2,3.17-2.43,6.49-3.7,9.95-1.27,3.46-2.75,7.44-4.45,11.96l-38.1,101.17h-11.01ZM735.34,387.33l4.02-10.58h72.6l4.02,10.58h-80.64Z"/>
      <path class="cls-2" d="M858.31,431.98v-148.16h56.93c7.48,0,14.14,1.84,20,5.5,5.85,3.67,10.48,8.71,13.86,15.13,3.39,6.42,5.08,13.79,5.08,22.12,0,8.89-1.69,16.76-5.08,23.6-3.38,6.85-8.01,12.21-13.86,16.09-5.85,3.88-12.52,5.82-20,5.82h-46.35v59.9h-10.58ZM868.89,361.51h48.26c4.94,0,9.34-1.52,13.23-4.55,3.88-3.03,6.95-7.2,9.21-12.49,2.26-5.29,3.39-11.39,3.39-18.31,0-6.06-1.13-11.5-3.39-16.3-2.26-4.8-5.33-8.57-9.21-11.32-3.88-2.75-8.29-4.13-13.23-4.13h-48.26v67.09Z"/>
      <path class="cls-2" d="M974.92,431.98v-148.16h86.14v10.58h-75.56v126.99h74.71v10.58h-85.29ZM980,360.87v-10.58h69v10.58h-69Z"/>
      <path class="cls-2" d="M1076.94,431.98l55.45-79.16,6.77,7.62-50.16,71.54h-12.06ZM1184.88,431.98l-52.07-72.38-54.82-75.77h13.12l46.99,65.61,59.9,82.54h-13.12ZM1141.28,360.45l-5.93-7.62,48.47-69h12.06l-54.6,76.62Z"/>
    </g>
    <g>
      <path class="cls-4" d="M715.13,614.05v-148.16h31.75v148.16h-31.75ZM729.73,494.47v-28.57h85.51v28.57h-85.51ZM729.73,555.21v-27.3h76.62v27.3h-76.62Z"/>
      <path class="cls-4" d="M900.32,616.17c-11.01,0-21.09-1.91-30.26-5.72-9.17-3.81-17.18-9.13-24.02-15.98-6.84-6.84-12.1-14.95-15.77-24.34-3.67-9.38-5.5-19.58-5.5-30.58s1.83-21.38,5.5-30.69c3.67-9.31,8.92-17.39,15.77-24.23,6.84-6.84,14.85-12.17,24.02-15.98,9.17-3.81,19.19-5.71,30.05-5.71s21.06,1.9,30.16,5.71c9.1,3.81,17.07,9.17,23.92,16.09,6.84,6.92,12.1,15.03,15.77,24.34,3.67,9.31,5.5,19.47,5.5,30.48s-1.83,21.17-5.5,30.48c-3.67,9.31-8.93,17.43-15.77,24.34-6.84,6.92-14.82,12.28-23.92,16.09-9.1,3.81-19.08,5.72-29.95,5.72ZM900.11,586.12c6.35,0,12.13-1.16,17.36-3.49,5.22-2.33,9.74-5.57,13.55-9.74,3.81-4.16,6.8-9.06,8.99-14.71,2.19-5.64,3.28-11.85,3.28-18.63s-1.1-12.98-3.28-18.62c-2.19-5.64-5.18-10.55-8.99-14.71-3.81-4.16-8.33-7.41-13.55-9.74-5.22-2.33-11.01-3.49-17.36-3.49s-11.93,1.16-17.14,3.49c-5.22,2.33-9.81,5.57-13.76,9.74-3.95,4.16-6.95,9.07-9,14.71-2.05,5.64-3.07,11.85-3.07,18.62s1.02,12.98,3.07,18.63c2.04,5.64,5.04,10.55,9,14.71,3.95,4.16,8.53,7.41,13.76,9.74,5.22,2.33,10.93,3.49,17.14,3.49Z"/>
      <path class="cls-4" d="M1069.21,616.17c-10.87,0-20.85-1.87-29.95-5.61-9.1-3.74-17-9.03-23.71-15.87-6.7-6.84-11.89-14.95-15.56-24.34-3.67-9.38-5.5-19.65-5.5-30.8s1.9-20.92,5.72-30.16c3.81-9.24,9.17-17.28,16.08-24.13,6.91-6.84,15.03-12.17,24.34-15.98,9.31-3.81,19.4-5.72,30.27-5.72,7.06,0,14,.95,20.85,2.86,6.84,1.91,13.12,4.69,18.84,8.36,5.72,3.67,10.62,8.04,14.71,13.12l-19.89,22.01c-3.25-3.39-6.7-6.31-10.37-8.78-3.67-2.47-7.51-4.37-11.53-5.72-4.02-1.34-8.29-2.01-12.81-2.01-6.07,0-11.75,1.13-17.04,3.39-5.29,2.26-9.92,5.4-13.86,9.42-3.95,4.02-7.09,8.89-9.42,14.6-2.33,5.71-3.49,12.03-3.49,18.94s1.13,13.44,3.39,19.15c2.26,5.72,5.43,10.58,9.53,14.6,4.09,4.02,8.99,7.13,14.71,9.31,5.72,2.19,12.03,3.28,18.94,3.28,4.52,0,8.89-.63,13.12-1.9,4.23-1.27,8.15-3.03,11.75-5.29,3.6-2.26,6.81-4.87,9.63-7.83l15.66,24.76c-3.53,3.81-8.15,7.27-13.87,10.37-5.71,3.11-12.1,5.54-19.15,7.3-7.06,1.76-14.18,2.65-21.38,2.65Z"/>
      <path class="cls-4" d="M1144.98,614.05l58.2-148.16h28.36l57.78,148.16h-32.59l-29.84-79.79c-.85-2.26-1.87-5.15-3.07-8.68-1.2-3.53-2.43-7.27-3.7-11.22-1.27-3.95-2.47-7.73-3.6-11.32-1.13-3.6-1.98-6.59-2.54-9h5.71c-.85,3.11-1.8,6.39-2.86,9.84-1.06,3.46-2.15,6.98-3.28,10.58-1.13,3.6-2.33,7.09-3.6,10.48-1.27,3.39-2.47,6.7-3.6,9.95l-29.84,79.16h-31.54ZM1172.07,582.94l10.37-25.4h67.94l10.58,25.4h-88.89Z"/>
      <path class="cls-4" d="M1314.3,614.05v-148.16h31.75v119.58h67.09v28.57h-98.84Z"/>
    </g>
    <path class="cls-3" d="M398.86,483.25c-18.33,0-33.25-14.91-33.25-33.25s14.91-33.25,33.25-33.25,33.25,14.91,33.25,33.25-14.91,33.25-33.25,33.25Z"/>
  </g>
</svg>