<?xml version="1.0" encoding="UTF-8"?>
<svg id="Layer_1" data-name="Layer 1" xmlns="http://www.w3.org/2000/svg" xmlns:xlink="http://www.w3.org/1999/xlink" viewBox="0 0 1600 900">
  <defs>
    <style>
      .cls-1 {
        fill: none;
      }

      .cls-2 {
        fill: #f89830;
      }

      .cls-3 {
        fill: #f5dd1d;
      }

      .cls-4 {
        fill: #c03b2c;
      }

      .cls-5 {
        clip-path: url(#clippath-1);
      }

      .cls-6 {
        fill: #fff;
      }

      .cls-7 {
        fill: #672365;
      }

      .cls-8 {
        fill: #838080;
      }

      .cls-9 {
        fill: #1e79bb;
      }

      .cls-10 {
        clip-path: url(#clippath);
      }
    </style>
    <clipPath id="clippath">
      <rect class="cls-1" width="1600" height="900"/>
    </clipPath>
    <clipPath id="clippath-1">
      <rect class="cls-1" width="1600" height="900"/>
    </clipPath>
  </defs>
  <g class="cls-10">
    <g class="cls-5">
      <path class="cls-7" d="M911.46,544.66c.36-1.38.92-2.7,1.67-3.92,1.16-2.05,1.53-4.49,1.92-7.07.09-.58.17-1.16.27-1.73-.13-.69-.19-1.36-.25-2.01-.07-.79-.14-1.53-.33-2.2-1.41-2.91-1.62-6.02-1.83-9.02-.04-.69-.09-1.37-.15-2.05-.08-2.74-.41-5.44-.73-8.06-.36-2.98-.74-6.05-.76-9.16-.3-6.93-.11-12.68.58-18.02.08-1.3.42-2.59.76-3.84.23-.86.46-1.68.58-2.49l.02-.12.04-.12c.65-2.06,1.68-3.91,2.67-5.7.31-.56.62-1.12.92-1.68.18-.43.46-.98.73-1.53.6-1.19,1.13-2.26,1.27-3.32-.42.05-.84.1-1.26.15l-1.46.16-.3-1.44c-.42-2.03-.37-3.9.16-5.57,1.81-4.47,3.5-7.85,5.36-10.77.24-.48.58-1.08.93-1.69,1.18-2.08,2.3-4.06,2.39-6.09-.54.14-1.09.38-1.71.64-.67.29-1.36.58-2.12.79l-.16.04-.36.02c-1.17,0-2.68-.61-3.21-3.5-.23-2.65.08-5.33.94-8.32-.1-.22-.23-.45-.36-.69-.44-.8-.98-1.79-.98-3.05-.2-3.52.29-7.06.86-10.67.53-3.4,1.65-6.64,2.73-9.76.37-1.08.75-2.16,1.09-3.24,1.94-4.6,4.47-8.95,7.57-13.05,1.16-1.77,2.48-3.58,3.77-5.32,1.89-2.57,3.84-5.22,5.4-8.02-.48-.76-2.51-5.33-2.51-5.33-1.26-1.65-1.46-3.6-1.65-5.31l-.06-.58c-.26-3.84-.38-7.5.88-11.07.28-.82.56-1.67.83-2.53.94-2.9,1.92-5.9,3.29-8.75-.02-.03-.03-.05-.05-.08-.12-.2-.23-.39-.32-.58-.04-.02-.35-.13-.56-.21-.73-.26-1.84-.66-2.39-1.89l-.09-.2-.04-.21c-.32-1.98-.01-3.86.29-5.68l.14-.88c.86-4.16,1.55-8.14.65-11.87-.19-.4-.57-.77-1-1.21-.44-.44-.95-.95-1.35-1.59l-.3-.48.06-.56c.16-1.52.8-3.01,1.79-4.17l.83-1.01c2.3-2.81,4.68-5.72,6.36-8.92.82-1.49,1.68-3.12,2.49-4.85-2.25,2.98-4.88,5.1-7.84,6.3-.76.35-1.66.55-2.61.55-1.85,0-3.57-.72-5.1-1.35l-.86-.35-.19-.16c-3.88-3.17-6-7.3-5.79-11.32.44-3.99,1.95-6.9,4.37-8.54,1.12-.98,2.59-1.51,4.16-1.51,2,0,3.96.87,5.23,2.32,2.33,2.74,2.53,7.03.49,10.46l-.11.18-.15.15c-1.05,1.02-2.69,2.23-4.55,2.23-.79,0-1.53-.22-2.21-.64-1.01-.73-1.9-1.76-2.42-2.91.18,1.05.59,2.08,1.22,3.04,1.34,2.05,3.42,3.42,5.59,3.71,2.17-.28,4.33-1.75,6.41-4.37l.1-.13c1.54-2.05,3.14-4.17,3.83-6.52l.38-1.21c.73-2.29,1.43-4.45,1.35-6.66-.04-5.51-.83-9.63-2.47-13.02-1.88-4.5-5.13-8.29-8.28-11.95-.55-.64-1.1-1.29-1.65-1.93-1.23-1.3-2-2.27-2.67-3.12-1.02-1.29-1.75-2.22-3.86-3.91-1.15-1.07-1.72-1.62-2.13-2.02-.77-.75-.96-.93-3.07-2.68-.16-.14-11.51-10.57-8.59-14.54,3.04-4.13,7.85-1.35,9.72.34,2.22,2.01,4.52,4.09,6.68,6.29,1.03.87,2.05,1.94,3.03,2.98,1.37,1.45,2.66,2.81,4.21,3.83.75.53,1.4,1.08,2.02,1.61,1.17,1,2.27,1.94,3.55,2.33l.1.03.09.04c.8.36,1.68.54,2.63.54,1.9,0,3.85-.76,5.23-2.02.43-.34.26-1.38.15-1.95-.14-.35-.28-.66-.41-.93l-.24.7c-.25.71-7.42,2.41-7.89-.31-.27-1.53.04-3.08,1.04-4.33,1.25-1.54,3.37-2.51,5.55-2.51.88,0,1.73.16,2.48.48,2.42.57,4.35,2.72,5.19,5.8.78,2.16.43,4.74-1,6.97-1.59,2.47-4.26,4.16-6.98,4.43-.55.14-1.11.2-1.71.2-.43,0-.85-.04-1.26-.09.6.78,1.23,1.52,1.85,2.24,1.14.86,2.34,1.69,3.51,2.49,1.2.82,2.39,1.65,3.55,2.52,10.29,5.83,27.33,9.72,31.23,9.82h.27c.53,0,1.06-.04,1.59-.09.63-.06,1.26-.11,1.88-.11,1.14,0,2.07.18,2.94.55,1.52.52,2.86,1.91,3.75,3.97l.03.08.03.08c.47,1.5.23,2.95-.01,4.24,1.1.59,2.35.96,3.66,1.35,1.19.35,2.42.71,3.6,1.26l1.52.7-.74,1.5c-.48.99-1.18,1.62-1.96,2.03,2.96,1.75,5.96,3.6,8.64,5.91,5.3,4.05,10.01,9.35,13.53,15.29.37.71.69,1.33,1.02,1.94,1.66,3.14,3.37,6.39,3.94,10.12.6,2.29-1.07,3.6-2.07,4.39-.27.21-.56.45-.76.65.09.36.2.72.33,1.1.27.84.58,1.8.63,2.86l.03.57-.34.46c-.59.82-1.36,1.17-2.01,1.32.24.34.49.66.75.98,2.02,2.44,4.33,5.37,6.13,8.6.86,1.52,1.53,3.12,2.18,4.67.54,1.29,1.05,2.5,1.66,3.68l.06.12.04.12c1.14,3.47,2.44,7.51,3.34,11.61.75,3.88,1.33,8.04,1.89,13.51.14,1.83-.68,3.26-1.35,4.41-.47.83-.88,1.54-.93,2.25.1.53.27,1.07.46,1.64.27.88.56,1.79.65,2.82l.14,1.56-1.55.2c-.37.05-.73.08-1.1.12-.07,0-.15.01-.22.02-.33.87-.28,1.96-.16,2.8.59,3.38,1.28,7.06,2.25,10.66.85,3.52,1.52,6.93.4,10.32-.62,3.22-1.62,6.55-2.96,9.88l-.07.16c-1.26,2.35-2.03,4.89-2.86,7.57-.48,1.59-.99,3.22-1.6,4.82l-.28.85c-.84,2.49-1.63,4.84-1.93,7.29l-.19,1.57-1.58-.16c-.26-.02-.52-.07-.78-.11-.24-.04-.48-.1-.72-.1l-.18.03c-2.17,1.19-3.76,3.24-5.48,5.6-2.54,3.2-4.31,7-6.02,10.67l-.9,1.92c-1.3,3.48-2.51,7.22-3.69,10.83-.46,1.41-.91,2.82-1.38,4.23-1.26,4.14-2.64,7.41-4.35,10.27-1.33,2.19-3.06,3.78-5.02,4.61-.6.24-1.12.71-1.72,1.25-.45.4-.91.82-1.46,1.19l-.12.08-.13.06c-.48.22-1,.32-1.54.32-.39,0-.75-.05-1.1-.12-2.96,7-7.86,12.74-13.46,18.93-3.71,4.77-8.33,9.42-14.9,14.98-6.8,5.53-14.48,9.46-21.1,12.57-1.06.49-2.12.86-3.15,1.22-.94.33-1.83.64-2.68,1.02-8.37,3.64-17.26,6-25.66,8.1l-2.65.67.68-2.65Z"/>
      <path class="cls-7" d="M792.94,595.33c-4.55,0-9.19-.09-13.17-.17-3.27-.18-6.57-.24-9.75-.3-5.55-.11-11.28-.22-16.93-.91-1.21-.11-2.47-.15-3.73-.2-1.73-.06-3.52-.13-5.31-.37-2.76-.16-5.58-.68-8.31-1.2-2.48-.46-5.05-.94-7.57-1.12-2.36-.2-4.7-.46-7.04-.72-3.8-.43-7.73-.87-11.6-1-2.18-.16-4.31-.28-6.44-.4-8.01-.46-16.29-.93-24.26-3.14-4.92-.87-8.59-3.92-12.14-6.87-.97-.81-1.95-1.62-2.93-2.37-.86-.46-1.71-.98-2.52-1.49-2.07-1.3-4.02-2.52-6.11-2.52-.32,0-.63.03-.95.08-.84.09-1.58.12-2.31.12-5.78,0-11.24-2.25-15.35-4.21l-2.05-.98,1.58-1.62c.24-.25.5-.49.76-.74-.49-.2-2.73-1.06-2.73-1.06,0,0,.32-1.82.36-2.05-.93-.4-1.85-.79-2.78-1.18-3.64-1.53-7.41-3.12-10.93-5.18-13.69-7.2-25.98-18.85-35.48-33.63-.34-.54-.69-1.05-1.05-1.56-1.23-1.76-2.63-3.74-2.77-6.3l-.12-2.3,2.18.65c-.55-.9-1.01-1.88-1.3-2.98l-.24-.94.71-.66c.42-.39.86-.66,1.31-.87-.66-.92-1.38-1.81-2.12-2.73-1-1.24-2.04-2.53-2.95-3.92-2.17-3.07-4.26-6.63-6.55-11.15-2.4-5.57-3.8-11.58-4.21-17.96-.08-1.23-.2-2.47-.32-3.7-.26-2.58-.52-5.25-.39-7.96,0-2.48-.23-5.12-.44-7.66-.17-1.98-.34-4.03-.41-6.06-.11-3.27-.75-6.69-1.26-9.44-.18-1.11.28-13.53.49-14.9.09-1.45.76-2.6,1.34-3.61.32-.54.61-1.05.78-1.55.23-.64.38-1.33.54-2.05.3-1.35.64-2.88,1.54-4.27l1.52-2.35,1.28,2.49c2.13,4.13,4.64,8.35,8.48,11.17,3.33,2.39,7.12,3.87,11.14,5.43,3.82,1.49,7.78,3.03,11.31,5.44.99.62,1.78,1.47,2.55,2.3.96,1.04,1.79,1.93,2.88,2.16.46.13.83.21,1.19.29,1.04.24,2.22.5,3.32,1.16.79.47,1.69.84,2.64,1.23,1.52.63,3.09,1.28,4.48,2.44.9.64,1.74,1.47,2.55,2.27.48.47.95.95,1.46,1.39,12.04,5.27,22.08,12.3,29.84,20.89,1.37,1.42,2.72,2.95,4.03,4.43.92,1.04,1.83,2.08,2.77,3.1,2.48,3.14,4.3,6.55,6.05,9.85.49.92.97,1.83,1.47,2.74,1.48,2.36,2.5,5,3.5,7.55.57,1.48,1.17,3,1.84,4.43.56,1.21,1.07,2.43,1.58,3.65,1.14,2.71,2.22,5.28,3.72,7.64,3.17,4.71,7.52,8.61,11.72,12.38,3,2.83,6.2,5.5,9.29,8.09,2.69,2.25,5.47,4.57,8.11,6.99.93.91,1.93,1.66,2.99,2.47.94.71,1.9,1.44,2.82,2.28,1.74,1.64,4.21,1.9,6.82,2.18,1.21.13,2.46.26,3.67.54l.17.04.15.07c2.1.98,3.65,2.53,5.15,4.04.86.86,1.67,1.68,2.55,2.36.54.15,1.15.21,1.79.27.83.08,1.77.16,2.7.47l.19.06.17.1c1.11.69,2.1,1.5,3.06,2.28,1.27,1.03,2.46,2.01,3.82,2.64.04.02.11.05.3.05.22,0,.45-.03.67-.06.35-.04.71-.08,1.06-.08.71,0,1.32.15,1.87.45l.4.18c1.27.56,2.58,1.15,3.79,1.15.29,0,.56-.03.83-.1,3.74-.88,6.83-3.47,7.91-6.6.53-1.94.52-3.35-.06-4.35-.35-.42-.77-.82-1.22-1.24-.71-.67-1.44-1.36-2.04-2.27-1.37-2.55-.85-5.26-.48-7.24l.33-1.72,1.69.46c1.39.37,2.47,1.17,3.43,1.88.96.7,1.78,1.3,2.72,1.41,1.73.28,3.4.4,5.18.52,3.77.27,7.66.55,11.32,2.32.66.36,1.3.54,1.87.54s1.1-.18,1.51-.54c.32-.5.58-1.07.86-1.68.39-.85.8-1.73,1.41-2.57l.93-1.29,1.31.91c1.42.98,2.37,2.32,2.77,3.87,1.19,3.87,4.26,6.98,7.31,9.82l1.19,1.04c2.04,1.8,4,3.53,6.2,4.75-.05-3.68.05-7.43,1.03-11.1l.02-.09.03-.08c2.81-7.15,7.89-12.88,13.93-15.72,1.99-.94,4.27-1.38,7.16-1.38.91,0,1.87.04,3.13.13,4.58.71,8.9,3.1,12.3,6.74,2.36,2.51,3.34,5.77,4.05,8.93.8,2.96.02,6.44-2.1,9.22-2.06,2.7-4.98,4.24-8,4.24-.58,0-1.17-.06-1.74-.17-2.6-.3-4.89-1.92-6.29-4.43-1.61-2.9-1.79-6.41-.46-9.18,1.02-2.72,4.02-4.57,7.06-4.79,4.59-.34,6.33,10.5,2.69,12.13-1.03.46-2.1-.35-2.72-.64l-1.22-.58.35-1.31c.29-1.09,1.3-3.72,1.3-3.72-1.1.36-2.28,1.46-3.07,2.54-.79,1.08-.41,2.25-.11,2.85.67,1.33,2.03,2.27,3.31,2.29h.14s.14.03.14.03c.25.05.5.07.75.07,1.73,0,3.54-1.16,4.61-2.94l.07-.12.09-.1c1.51-1.77,1.01-4.43.24-7.06-1.32-4.64-5.78-7.34-8.33-8.54-1.42-.71-3.05-1.02-5.3-1.02-1.04,0-2.08.06-3.1.12l-.34.02c-2.89.31-5.75,2.18-8.67,5.73-2.02,2.91-3.77,5.66-3.97,8.73-.05.79-.13,1.59-.21,2.38-.27,2.72-.52,5.29.24,7.69,1.7,6.12,5.1,11.1,9.58,14.08,2.11,1.6,4.51,2.5,7.06,3.46.69.26,1.38.52,2.06.79,3.12,1.15,6.02,2,8.84,2.58.28.06.53.09.82.09.96,0,1.99-.32,3.08-.66.36-.11.73-.23,1.09-.33,8.85-2.64,34.36-9.9,34.62-9.98l1.09-.31.67.91c.22.31.56.96.27,1.9-.88,2.86-9.87,9.58-24.45,14.75-2.61.93-5.3,1.61-7.9,2.28-2.07.53-4.21,1.07-6.25,1.73-9.77,2.95-20.48,4.83-31.86,5.6-6.06.59-12.65.86-20.68.86h0Z"/>
      <path class="cls-7" d="M574.02,379.53c-.58,0-1.66-.21-2.46-1.62-1.66-2.94-3.31-8.07-1.77-15.87.41-1.79.81-3.54,1.2-5.29,2.66-11.85,5.42-24.1,10.78-35.34.75-1.48,1.42-3.01,2.07-4.52-5.94-.61-12.29-1.9-16.88-6.39l-.07-.07-.06-.08c-.5-.63-1.04-1.25-1.58-1.87-2.21-2.55-4.5-5.19-5.14-8.84-1.12-4.29.65-10.26,5.51-12.29,1.4-.84,2.99-1.27,4.74-1.27,2.27,0,4.65.74,6.72,2.08l.08.05.07.06c2.79,2.29,4.17,6.95,1.8,10.24l-.11.15-.13.12c-1.44,1.27-3.5,2.06-5.37,2.06s-3.5-.78-4.53-2.19c-.71-.81-1.36-2.48-.89-3.98.31-.95,1.02-1.66,1.99-1.98.52-.3,1.08-.46,1.66-.46,1.22,0,2.18.66,2.95,1.2.13.09.27.18.39.27-.09-.28-.23-.56-.42-.84-.68-.97-1.94-1.71-3.19-1.89-.2-.03-.4-.04-.6-.04-1.4,0-2.84.64-3.94,1.77-1.12,1.14-1.74,2.61-1.71,4.04-.12,3.97,2.6,7.35,4.9,9.49,2.03,1.91,4.81,2.65,7.75,3.44l1.19.32c.74.21,1.5.31,2.27.31,2.11,0,4.4-.78,6.8-2.32,6.56-11.9,14.02-23.54,22.19-34.58,3.22-4.35,6.06-9.11,8.8-13.71,1.05-1.77,2.1-3.53,3.18-5.28l.4-.78c3.43-6.6,6.98-13.42,8.65-20.7,1.08-4.21,2-9.51-.46-13.53l-.26-.43.02-.5c.04-.85.13-1.69.26-2.49l.2-1.22,1.23-.14c1.22-.14,2.45-.21,3.65-.23l.18-.3c.7-1.17,1.43-2.37,2.54-3.39l.38-.35.51-.07c.25-.03.5-.05.74-.05.86,0,1.66.18,2.37.35.42.1.82.19,1.19.23,3.15-6.01,6.41-11.05,9.94-15.39,6.64-8.33,15.55-15.34,26.45-20.8.78-.34,1.46-.65,2.15-.96,2.11-.96,4.3-1.95,6.68-2.52l2.17-.52-.16,2.22c0,.07.04.29.07.44.14.71.39,2.05-.7,3.08-.37.4-.71.84-1.04,1.31,9.21-6.46,18.11-11.17,27.07-14.32,2.52-.95,5.16-1.57,7.71-2.17,2.03-.48,4.14-.97,6.12-1.63l.17-.06.18-.02c.37-.04.74-.06,1.11-.06.39,0,.79.02,1.18.06l1.81.19-.39,1.77c-.08.38-.18.75-.28,1.12,3.35-1.86,6.88-3.46,10.68-5.13.57-.34,1.16-.66,1.76-.99,2.43-1.34,4.73-2.61,6.01-4.78l.77-1.3,1.35.66c1.65.81,2.37,2.37,2.95,3.62.16.34.31.68.47.97,1.22-.35,2.43-.74,3.62-1.12,2.39-.76,4.87-1.55,7.42-2.06,3.06-.93,6.65-1.4,10.83-1.4,1.01,0,2.01.03,3.01.07l.59.03.43.4c.28.25.55.51.82.78l.22-.02c3.84-.41,7.81-.84,11.78-.84.62,0,1.23.01,1.85.03,7.64.34,15.71.89,23.26,3.44,2.02.52,4.12,1.2,6.15,1.85,1.84.59,3.73,1.2,5.61,1.71l.52.16c1.14.33,2.42.71,3.53,1.61l1.02.82-.58,1.17c-.26.53-.59.97-.95,1.35,9.37,1.32,18.14,5.12,25.04,10.92,4.85,4.03,10.52,8.91,15.73,14.52.62.63,1.27,1.31,1.91,2,1.32,1.41,2.56,2.73,3.97,3.91,1.45,1.07,2.04,2.77,2.46,4.44l.34,1.36-1.29.53c-1.55.64-3.02,1.3-4.02,2.38-3.22,3.18-8.31,6.97-14.59,7.2-4.63-.03-8.83-1.54-12.88-3-1.99-.72-4.06-1.46-6.08-1.99-2.21-.54-4.5-.97-6.94-1.28.04.47-.03.98-.33,1.51l-.19.34-.32.22c-3.89,2.64-8.68,4.03-13.85,4.03-.94,0-1.89-.04-2.84-.14l-.55,1.63-1.06.1c-3.03.27-5.91,1.25-8.95,2.29-.63.21-1.26.43-1.9.64-5.62,1.89-11.05,5.16-16.13,9.72-2.86,2.14-5.22,4.58-7.71,7.16-.7.73-1.4,1.45-2.1,2.17-1.84,2.1-3.7,4.41-5.5,6.63-3.76,4.65-7.65,9.46-12.25,13.57-2.5,2.7-6.17,3.58-9.41,4.36-.01,0-.02,0-.04,0,.53,1.91.97,3.72,1.28,5.58l.12.76-.5.58c-.62.71-1.46,1.09-2.42,1.09-.71,0-1.37-.2-1.95-.38-.4-.12-.82-.24-1.08-.24h-.08s-.15.02-.15.02c-1.52.08-5.15.54-5.96,2.99l-.03.1-.04.09c-.75,1.58.02,3.44.84,5.42.15.36.3.72.43,1.07.07.22.2.47.29.62.35.66.89,1.65.55,2.75-.14.46-.5,1.09-1.38,1.52l-.34.17h-.38c-.55,0-1.11-.04-1.66-.09-.48-.04-.97-.08-1.45-.08-.82,0-1.41.12-1.9.41l-.14.08-.15.05c-2.98,1.01-5.33,3.44-7.59,5.79l-.66.69c-5.23,6.59-9.75,11.88-14.11,16.52-4.22,4.59-8.99,8.35-14.19,11.18l-.12.07-.13.05c-5.21,1.76-10.23,2.65-14.92,2.65-.65,0-1.3-.02-1.94-.05.23.39.46.78.7,1.17.78,1.3,1.6,2.64,2.14,4.16l.39,1.08-.88.73c-.67.56-1.39,1.09-2.12,1.62-1.89,1.39-3.68,2.7-4.63,4.58.11.28.23.57.37.86.46,1.04.98,2.22.92,3.66.11,4.53-2.95,8.35-5.19,11.14-.56.85-1.68,1.45-2.84,1.45-.94,0-1.8-.4-2.39-1.11-3.07-2.97-7.01-5.5-11.72-7.53-7.08-3.43-14.65-6.16-22.56-8.14-7.08-2.49-13.71-3.73-19.85-3.73-4.76,0-9.22.76-13.23,2.26-15.15,5.65-19.56,11.7-19.6,11.76l-.07.1-.1.1s-4.42,5.13-8.66,27.7c-.21,1.1-.37,2.14-.51,3.14-.22,1.02-.42,1.91-.6,2.8-.29,1.45-1.55,3.49-3.44,3.49"/>
      <path class="cls-6" d="M1002.01,388.61c-2.47-5.31-5.01-10.6-6.94-16.14-.86-2.57-2.26-4.95-2.88-7.6-.76-3.96-1.74-7.88-2.7-11.8-1.2-3.62-2-7.35-2.6-11.11-.65-4.33-1.77-8.58-2.62-12.87.22-.07.66-.21.88-.29,3.1.94,5.45,3.33,8.01,5.2,6.27,5.39,12.15,11.21,17.71,17.32,2.06,2.6,4.26,5.09,6.1,7.86,2.03,3.23,4.42,6.24,6.28,9.58,1.87,3.19,3.33,6.58,5.03,9.86,1.57,3.36,2.66,6.91,4.05,10.35,1.28,2.98,1.81,6.19,2.54,9.34,1.09,4.98,1.49,10.31-.19,15.21-.8,4.23-2.29,8.27-3.66,12.34-.92,2.77-1.71,5.58-2.75,8.3-8.35-9.9-13.59-21.89-19.99-33.04-2.39-4.02-3.99-8.43-6.27-12.52"/>
      <path class="cls-6" d="M1013.58,433.12c-.85-4.1-1.29-8.26-2.22-12.35-.76-4.33-2.39-8.41-3.48-12.65,4.09,5.69,7.16,12.02,10.7,18.06,1.7,3.33,4.04,6.26,6.11,9.36.53.71-.19,1.47-.72,1.9-3.15,2.63-5.15,6.27-7.75,9.37-.85-4.57-1.86-9.1-2.64-13.68"/>
      <path class="cls-6" d="M1002.76,457.38c.17-6.77.77-13.52.81-20.29-.47-13.37-1.03-26.82-4-39.92-.41-2.33-1.52-4.79-.4-7.11,2.6,3.54,4.06,7.76,5.26,11.94,2.98,8.57,4.69,17.51,6.13,26.43.65,6.39,1.28,12.81.92,19.24-.27,3.88.02,7.84-.98,11.63-.48,3.04-1.52,5.95-2.44,8.87-1.49,4.25-2.59,8.72-5.06,12.55-.68,1.24-1.71,2.22-2.92,2.93.02-1.5.17-3.01.47-4.48.83-3.71.96-7.53,1.32-11.32.15-3.51.79-6.97.89-10.49"/>
      <path class="cls-6" d="M1033.96,375.38c-1.46-3.5-2.87-7.05-4.91-10.27-2.12-3.67-4.34-7.3-6.89-10.7-3.07-4.06-5.97-8.26-9.38-12.05-6.34-7.88-13.53-15.04-21-21.85-3.63-3.39-7.86-6.04-11.82-9.01-1.04-.66-1.45-1.83-1.79-2.95,1.17.33,2.38.68,3.39,1.39,3.08,2.2,6.28,4.26,9.2,6.68,3.54,2.95,7.29,5.65,10.58,8.89,1.23,1.29,2.78,2.18,4.07,3.4,4.32,4.42,8.65,8.88,12.12,14.03,3.92,4.59,6.75,9.95,10.09,14.94,3.09,5.09,5.91,10.41,7.55,16.17.59,1.98,1.48,3.86,1.89,5.89-.48.11-.96.22-1.44.32-.37-1.68-1.05-3.27-1.66-4.88"/>
      <path class="cls-6" d="M1022.58,365.11c-2.51-4.08-5.07-8.14-8.15-11.82-5.25-6.19-11.09-11.85-16.96-17.44-4.03-3.53-8.23-6.86-11.97-10.71-2.14-2.27-3.64-5.04-4.73-7.95,1.54.41,3.08.91,4.41,1.81,6.61,3.87,12.26,9.11,17.69,14.46,3.73,3.14,6.44,7.21,9.78,10.72,3.02,3.26,5.65,6.86,8.31,10.42,3.67,5.27,7.31,10.62,9.85,16.55,1.37,3.61,3.12,7.12,3.86,10.93.03,1.74-.68,3.4-.5,5.15-1.36-3.05-2.99-5.98-4.34-9.04-2.47-4.34-4.41-8.98-7.26-13.09"/>
      <path class="cls-6" d="M1025.81,351.8c-.98-1.44-2-2.86-2.89-4.36-1.97-3.47-4.74-6.38-7.12-9.55-7.96-9.52-16.73-18.39-26.53-26.02-5.33-4.69-11.12-8.99-15.36-14.76-1.99-2.93-3.47-6.16-5-9.35,1.14.12,2.34.07,3.39.59,6.15,2.93,11.67,6.96,17.44,10.53,4.89,3.78,9.57,7.82,14.12,12.01,2.03,1.87,3.76,4.08,5.97,5.76,2.93,2.24,4.87,5.43,7.29,8.15,2.98,3.58,6.27,6.93,8.71,10.93,1.9,3.05,4.12,5.92,5.64,9.19,3.35,6.31,5.92,13.13,6.88,20.24.21,2.19.76,4.47-.09,6.6-1.68-1.9-2.76-4.21-4.14-6.32-2.99-4.42-5.32-9.23-8.31-13.65"/>
      <path class="cls-6" d="M999.8,419.98c-.72-4.61-1.17-9.26-2.17-13.82-1.04-6.61-3.36-12.93-4.65-19.47-.38-3.38-1.04-6.78-.7-10.19,1.31,2.42,2.01,5.09,2.57,7.76,1.12,4.19,2.42,8.35,3.06,12.65,3.2,12.01,3.45,24.52,4.24,36.85.32,5.03-.34,10.05-.35,15.08-.29,3.27-.01,6.58-.6,9.83-.6,3.36-.09,6.86-1.16,10.15-.49,2.91-.96,5.83-1.51,8.74-.72,2.95-1.76,5.79-2.82,8.64-.54-.18-1.08-.36-1.62-.53.48-1.39.92-2.79,1.37-4.2,2.12-6.03,2.68-12.44,3.94-18.68,1.77-14.19,1.73-28.58.4-42.81"/>
      <path class="cls-6" d="M998.32,418.96c.82,8.53,1.41,17.14.79,25.71-.05,2.96.08,5.99-.67,8.88-.09-1.98.21-3.95.22-5.93.17-4.31-.23-8.61-.56-12.9-.74-7.89-1.49-15.81-3.08-23.58-1.39-5.99-3.41-12.04-2.63-18.28,1.32,1.65,1.61,3.79,2.16,5.76,1.92,6.63,2.57,13.54,3.77,20.33"/>
      <path class="cls-6" d="M1021.61,324.47c-5.62-6.41-11.64-12.49-18.29-17.82-8.16-7.19-17.24-13.27-26.71-18.59-3.27-1.85-6.74-3.41-9.63-5.84,4.27-.09,7.67,2.73,11.44,4.26,6.7,3.67,12.76,8.37,18.75,13.09,6.39,4.66,12.21,10.03,18.04,15.34,2.71,2.5,5.14,5.27,7.61,8-.41.52-.81,1.05-1.21,1.56"/>
      <path class="cls-6" d="M957.94,504.03c1.62-4.62,2.84-9.41,4.99-13.82.91-3,2.22-5.85,3.73-8.6-.51,2.35-1.94,4.34-2.57,6.64-1.41,4.82-3.12,9.55-4.57,14.36-.45,2.9-1.66,5.62-2.03,8.53-.76,2.2-.85,4.54-1.59,6.74-.52,3.25-.74,6.54-.94,9.82-.99.49-1.93,1.19-3.06,1.33.65-4.45,1.49-8.88,2.28-13.3,1.13-3.94,2.5-7.8,3.76-11.7"/>
      <path class="cls-6" d="M987.38,290.67c2.78.68,4.76,2.81,7.19,4.17,3.78,1.93,6.72,5.08,10.09,7.6,3.18,2.3,6,5.05,9.17,7.35,3.15,3.1,6.72,5.92,8.98,9.78-2.81-1.05-4.47-3.71-6.73-5.53-5.57-5.19-11.13-10.43-17.29-14.93-3.61-3.06-7.41-5.89-11.4-8.43"/>
      <path class="cls-6" d="M955.31,503.64c1.63-3.07,2.39-6.52,4.08-9.56-.46,1.71-1.3,3.31-1.56,5.07-.24,2.17-1.65,3.96-2.11,6.08-2.55,6.94-3.69,14.27-4.74,21.56-.2,1.17-.07,2.44-.65,3.51-.83.48-1.76.73-2.67,1.01.04-2.41,1.04-4.62,1.53-6.93.35-2.61,1.47-5.03,1.8-7.64,1.26-4.42,2.74-8.78,4.31-13.1"/>
      <path class="cls-6" d="M928.65,475.22c4.74-3.68,9.76-7.01,15.05-9.83,7.21-4.21,14.51-8.34,22.22-11.56,3.2-1.51,6.55-2.75,10.02-3.47-.22.84-.46,1.67-.69,2.5-3.94.94-7.87,2.03-11.51,3.85-3.79,1.89-7.52,3.93-11.01,6.33-3.55,2.18-7.03,4.47-10.22,7.15-5.14,3.84-9.62,8.45-14.22,12.9-2.87,3.27-5.99,6.3-9.24,9.18-1.06.96-2.32,1.64-3.65,2.14-2.32-3-1.03-7.47,1.65-9.81,3.2-3.89,7.52-6.53,11.59-9.38"/>
      <path class="cls-6" d="M932.31,480.97c6.36-6.16,13.19-11.92,20.83-16.45,4.6-2.86,9.15-5.9,14.23-7.81,1.97-.79,4.07-1.65,6.23-1.26-1.06,3.49-4.61,5.01-7.52,6.65-7.11,3.34-13.66,7.74-19.88,12.49-6.49,5.28-12.9,10.77-18.17,17.31-2.51,3.36-4.79,6.97-6.04,10.99-.86,2.08-.67,4.39-.2,6.54.56,2.45,2.83,4.28,5.29,4.55,2.81-.75,5.79-3.62,4.79-6.75-.17-1.42-1.83-1.42-2.88-1.85-.34.89-.65,1.78-.96,2.67.31.13.93.4,1.24.53.26-.58.52-1.17.78-1.75.21.76.44,1.51.52,2.29-.36,1.4-1.61,2.54-2.97,2.98-1.56.73-2.9-.82-3.86-1.85-.79-1.66-.87-3.58-.8-5.4.36-2.33,1.84-4.28,2.58-6.49,5.56-9.8,14.66-16.72,23.17-23.79,6.71-4.99,14.28-9.09,22.52-10.8-.7,2.06-1.31,4.18-2.35,6.09-3.96,9.33-8.61,18.38-13.82,27.07-1.3,2.68-3.29,4.93-4.61,7.6-3.66,6.18-8,11.91-12.73,17.31-3.08,3.95-6.42,7.68-10.05,11.13-3.51,3.7-7.6,6.79-11.9,9.51,1.08-2.5,1.63-5.18,2.6-7.71,2.51-2.11,5.28-3.88,7.91-5.83,3.63-2.82,6.8-6.17,10.37-9.07,2.21-2.09,4.61-4.05,6.36-6.57-1.67.82-2.93,2.21-4.44,3.27-2.71,1.89-5.09,4.19-7.83,6.05-4.02,2.64-7.92,5.63-12.62,6.98.22-.68.43-1.37.63-2.07-.87-.9-1.72-1.89-2.02-3.15-1.04-4.1-.94-8.37-1.34-12.56-.17-1.94-.59-3.9-.3-5.85.23-2.62,1.47-4.99,2.56-7.34,3.85-6.67,9.45-12.07,14.65-17.67"/>
      <path class="cls-6" d="M969,409.49c5.34-2.3,10.6-5.19,16.5-5.77-.35,8.69-2.45,17.19-4.09,25.69-2.02,6.19-4.98,12.36-9.79,16.88-3.07,2.47-6.58,4.3-9.91,6.39-4.88,2.63-9.59,5.58-14.33,8.45-4.02,1.91-7.82,4.25-11.63,6.53-1.42.83-2.97,1.42-4.3,2.39-3.74,2.61-7.67,4.96-11.8,6.88-.87.41-1.83.53-2.77.67-.08-5.01,3.32-9.02,4.85-13.56.69-1.58.15-3.31-.41-4.84-.96.08-1.93.18-2.89.29.55-2.18,1.25-4.32,2.03-6.43,5.63-12.29,15.42-22.15,26.26-30.01,7.19-4.89,14.29-10.05,22.29-13.57"/>
      <path class="cls-6" d="M953.24,503.19c-.09,1.16-.12,2.35-.53,3.45-1.27,3.79-2.63,7.56-3.33,11.51-1.46,4.67-2.15,9.52-3.49,14.22-.9.48-1.87.8-2.81,1.16.21-2.16.74-4.27,1.52-6.29,2.87-8.02,4.73-16.44,8.65-24.04"/>
      <path class="cls-6" d="M938.52,522.94c3.61-4.09,6.96-8.41,9.85-13.04-.42,3.32-1.85,6.37-2.72,9.58-.9,3.37-2.31,6.59-3.17,9.97-.25,1.69-.72,3.34-1.28,4.95-7.14,3.01-14.36,6.11-22.04,7.44,3.16-2.56,6.54-4.9,9.25-7.97,3.6-3.42,6.93-7.11,10.11-10.92"/>
      <path class="cls-6" d="M951.98,412.4c2.49-3.11,5.04-6.19,7.38-9.42,4.35-5.18,7.54-11.18,11.01-16.96,1.25-2.97,3.06-5.66,4.12-8.71,1.46-2.67,2.11-5.7,3.49-8.41,2.04-4.63,2.67-9.85,5.63-14.06.32.08.95.23,1.27.31,1.22,5.98,1.61,12.09,2.08,18.16-.08,3.64.17,7.27.17,10.91.05,3.95-2.36,7.36-4.97,10.1-3.71,3.58-7.57,7.01-11.61,10.22-3.68,2.62-7.44,5.11-10.91,8-5.26,3.55-10.46,7.18-15.65,10.81-5.95,4.64-11.66,9.69-16.33,15.64.11-1.6.37-3.31-.56-4.74,4.98-2.12,9.06-5.82,12.86-9.59,4.2-3.9,8.3-7.91,12.03-12.26"/>
      <path class="cls-6" d="M962.17,345.52c3.61-3.86,6.9-8.02,9.8-12.43,1.49-2.18,2.48-4.64,3.88-6.88.2,1.34.5,2.79-.17,4.05-2.75,5.69-6.69,10.7-11.05,15.23-4.97,4.87-10.36,9.28-15.5,13.97-2.17,1.98-4.03,4.29-6.37,6.08,1.12-2.11,2.44-4.13,3.88-6.05,4.59-5.29,10.73-8.9,15.53-13.97"/>
      <path class="cls-6" d="M973.35,272.51c1.44-.81,3.07-.24,4.58-.05,3.53.4,7.08.85,10.64.67,1.8.08,3.61-.32,5.41-.05-.18.69-.39,1.36-.65,2.01-2.23,1.09-4.8.8-7.2.81-4.48.01-8.67-1.82-12.78-3.39"/>
      <path class="cls-6" d="M974.83,270.19c-4.61-1.6-9.59-2.08-13.94-4.45-2.31-.74-4.47-1.89-6.3-3.49,2.56.41,4.72,1.87,7.11,2.76,4.59,2.07,9.42,3.56,14.21,5.09,3.66.63,7.39.7,11.09.95,2.13.24,4.28-.91,6.35-.06-1.85.74-3.87.7-5.83.65-4.28.1-8.52-.62-12.69-1.44"/>
      <path class="cls-6" d="M942.98,337.49c1.77-3.7,3.42-7.47,5.26-11.14,3.27-6.6,7.3-12.86,9.74-19.85,2-4.09,2.97-8.57,4.6-12.8,2.64,1.14,3.35,4.2,4.49,6.57.95,2.58,2.8,4.91,2.83,7.75.08,3.35.1,6.75-.62,10.04-1.23,7.72-3.9,15.23-8.03,21.88-2.36,3.23-4.8,6.44-7.78,9.14-3.57,3.65-7.06,7.43-11.14,10.54-1.78,1.36-3.41,2.94-5.31,4.14-.44-4.15-.71-8.5.8-12.48.47-1.31.61-2.71,1.02-4.04,1.49-3.19,2.91-6.42,4.14-9.73"/>
      <path class="cls-6" d="M945.73,323.14c3.8-5.45,7.09-11.24,10.03-17.2,1.36-2.21,1.86-4.81,3.19-7.02-1.14,3.89-2.43,7.74-3.86,11.54-1.38,2.93-3,5.75-4.43,8.65-2.48,4.62-5.93,8.62-9.63,12.3-.82.82-1.87,1.33-2.87,1.88.37-1.03.29-2.38,1.28-3.06,2.54-1.94,4.23-4.7,6.3-7.09"/>
      <path class="cls-6" d="M952.61,301.9c1.95-3.9,3.05-8.14,5.08-12-.2,2.31-.61,4.59-1.29,6.8-.35,2.37-1.18,4.61-2.22,6.75-1.19,3.67-2.92,7.11-4.77,10.48-2.4,5.47-5.72,10.66-10.21,14.66.58-1.9.14-4.22,1.65-5.75,5.03-6.29,8.28-13.74,11.78-20.93"/>
      <path class="cls-6" d="M954.85,288.27c-.22,1.95-.98,3.78-1.4,5.67-.47,2.74-1.45,5.35-2.37,7.95-1.8,3.43-3.25,7.02-5.12,10.43-1.31,3.51-3.57,6.55-6,9.36-.32-1.75.34-3.46,1.55-4.73,3.38-4.32,6.41-9,8.46-14.11-.29-.18-.89-.55-1.18-.73-1.89,1.91-3.01,4.4-4.68,6.47-1.51,1.88-3.26,3.62-5.33,4.89-.29-.02-.87-.08-1.15-.1.89-2.38,2.89-4.04,4.34-6.06,2.85-3.51,4.56-7.72,6.6-11.71,1.71-3.24,2.58-6.82,3.74-10.27.9-2.62,1-5.41,1.48-8.12.27.11.82.35,1.09.47,1.06,3.46.46,7.09,0,10.59"/>
      <path class="cls-4" d="M1038.26,371.77c-1.68-1.9-2.76-4.21-4.14-6.32-2.99-4.42-5.32-9.23-8.31-13.65-.98-1.44-2-2.86-2.89-4.36-1.97-3.47-4.74-6.38-7.12-9.55-7.96-9.52-16.73-18.39-26.53-26.02-5.33-4.68-11.12-8.99-15.36-14.76-1.99-2.93-3.47-6.16-5-9.35,1.14.12,2.34.07,3.39.59,6.15,2.93,11.67,6.96,17.43,10.53,4.89,3.77,9.57,7.82,14.12,12.01,2.03,1.87,3.76,4.08,5.97,5.76,2.93,2.24,4.87,5.43,7.29,8.15,2.98,3.58,6.27,6.93,8.71,10.92,1.9,3.05,4.12,5.92,5.64,9.19,3.35,6.31,5.92,13.13,6.88,20.24.21,2.19.76,4.47-.09,6.6"/>
      <path class="cls-3" d="M1022.82,322.91c-.41.53-.81,1.05-1.21,1.56-5.62-6.41-11.64-12.49-18.29-17.82-8.16-7.19-17.23-13.27-26.71-18.59-3.27-1.85-6.74-3.41-9.63-5.84,4.27-.09,7.67,2.73,11.44,4.26,6.7,3.67,12.76,8.37,18.75,13.09,6.39,4.66,12.21,10.03,18.04,15.34,2.71,2.5,5.13,5.27,7.61,8"/>
      <path class="cls-4" d="M1016.08,314.03c-5.57-5.19-11.13-10.44-17.29-14.93-3.61-3.06-7.41-5.89-11.4-8.43,2.78.68,4.76,2.81,7.18,4.17,3.78,1.93,6.72,5.08,10.09,7.6,3.18,2.3,6,5.05,9.17,7.35,3.15,3.1,6.72,5.93,8.98,9.78-2.81-1.05-4.47-3.71-6.73-5.53"/>
      <path class="cls-2" d="M1037.06,379.93c-.48.11-.96.22-1.44.32-.37-1.68-1.05-3.27-1.66-4.87-1.46-3.5-2.87-7.06-4.91-10.27-2.12-3.67-4.34-7.3-6.89-10.7-3.07-4.06-5.97-8.26-9.38-12.06-6.34-7.88-13.53-15.04-21-21.84-3.63-3.39-7.86-6.04-11.82-9.01-1.04-.66-1.44-1.83-1.79-2.94,1.17.33,2.38.68,3.39,1.39,3.08,2.21,6.28,4.26,9.2,6.68,3.55,2.95,7.29,5.65,10.59,8.89,1.23,1.29,2.78,2.18,4.07,3.4,4.32,4.42,8.65,8.88,12.12,14.03,3.92,4.59,6.75,9.95,10.09,14.94,3.09,5.09,5.91,10.41,7.55,16.17.59,1.98,1.48,3.86,1.89,5.89"/>
      <path class="cls-9" d="M1034.18,387.23c-1.36-3.05-3-5.98-4.34-9.04-2.47-4.33-4.41-8.97-7.26-13.09-2.51-4.07-5.07-8.14-8.15-11.82-5.25-6.19-11.09-11.85-16.96-17.44-4.03-3.53-8.23-6.86-11.97-10.71-2.14-2.27-3.64-5.04-4.72-7.95,1.54.41,3.08.91,4.41,1.81,6.61,3.87,12.26,9.11,17.69,14.46,3.73,3.14,6.44,7.21,9.78,10.72,3.02,3.27,5.65,6.86,8.31,10.42,3.67,5.27,7.3,10.62,9.85,16.55,1.37,3.61,3.12,7.12,3.86,10.93.03,1.74-.68,3.4-.5,5.15"/>
      <path class="cls-2" d="M1008.28,401.13c-2.39-4.02-3.99-8.43-6.27-12.52-2.47-5.31-5.01-10.6-6.94-16.13-.86-2.57-2.26-4.95-2.88-7.6-.76-3.96-1.74-7.88-2.7-11.8-1.2-3.62-2-7.35-2.6-11.12-.65-4.33-1.77-8.58-2.62-12.87.22-.07.66-.21.88-.29,3.11.94,5.45,3.33,8.01,5.21,6.27,5.39,12.15,11.21,17.71,17.32,2.06,2.6,4.26,5.09,6.1,7.86,2.03,3.23,4.42,6.24,6.28,9.58,1.87,3.19,3.34,6.58,5.03,9.86,1.57,3.36,2.66,6.91,4.05,10.35,1.28,2.98,1.81,6.19,2.53,9.34,1.1,4.98,1.5,10.31-.18,15.2-.8,4.23-2.29,8.28-3.66,12.34-.92,2.76-1.71,5.58-2.75,8.3-8.35-9.9-13.59-21.89-19.99-33.04"/>
      <path class="cls-9" d="M1016.22,446.8c-.85-4.57-1.86-9.11-2.64-13.68-.85-4.1-1.29-8.27-2.22-12.35-.76-4.33-2.39-8.41-3.48-12.65,4.09,5.69,7.16,12.02,10.7,18.06,1.7,3.33,4.04,6.26,6.11,9.36.53.71-.19,1.47-.72,1.9-3.15,2.63-5.15,6.26-7.75,9.37"/>
      <path class="cls-2" d="M1001.87,467.87c.15-3.51.79-6.97.89-10.49.17-6.76.77-13.51.81-20.28-.47-13.37-1.03-26.82-4-39.92-.41-2.33-1.52-4.79-.4-7.11,2.6,3.54,4.05,7.76,5.26,11.94,2.98,8.57,4.69,17.51,6.13,26.43.65,6.39,1.28,12.81.92,19.24-.27,3.88.02,7.84-.98,11.63-.48,3.04-1.52,5.94-2.44,8.87-1.49,4.25-2.59,8.72-5.06,12.55-.68,1.24-1.71,2.22-2.92,2.93.02-1.5.18-3.01.47-4.48.83-3.71.96-7.53,1.32-11.32"/>
      <path class="cls-3" d="M995.46,481.47c2.12-6.03,2.68-12.44,3.94-18.68,1.77-14.19,1.73-28.58.39-42.81-.72-4.61-1.17-9.26-2.17-13.82-1.04-6.6-3.36-12.92-4.65-19.47-.38-3.38-1.04-6.78-.7-10.19,1.31,2.42,2.01,5.09,2.57,7.76,1.12,4.19,2.42,8.35,3.06,12.65,3.2,12.01,3.45,24.52,4.24,36.85.32,5.03-.34,10.05-.35,15.09-.29,3.27,0,6.59-.6,9.83-.6,3.36-.09,6.86-1.16,10.15-.49,2.91-.96,5.83-1.51,8.74-.72,2.95-1.76,5.8-2.82,8.64-.54-.18-1.08-.35-1.62-.53.48-1.39.92-2.79,1.37-4.2"/>
      <path class="cls-2" d="M994.55,398.64c1.92,6.64,2.57,13.54,3.77,20.33.81,8.54,1.41,17.14.79,25.72-.05,2.96.08,5.99-.67,8.88-.09-1.98.21-3.95.22-5.93.18-4.31-.23-8.61-.56-12.9-.74-7.89-1.49-15.81-3.09-23.59-1.38-5.99-3.41-12.04-2.63-18.28,1.32,1.65,1.61,3.79,2.16,5.76"/>
      <path class="cls-4" d="M956.41,526.53c.3-12.22,4.9-23.7,8.57-35.21,1.23-3.46,2.16-7.06,3.87-10.34,1.22-3.65,3.36-6.89,4.56-10.54,1.01-1.95,1.73-4.04,2.74-5.99,1.75-4.41,2.86-9.07,4.89-13.36,1.06-4.96,3.09-9.66,4.22-14.6.38-2.42,1.47-4.68,1.78-7.12.76-4.03,1.42-8.07,2.15-12.1,1.63,9.9,2.54,19.9,3.13,29.91.03,9.88.37,19.96-2.61,29.5-1.33,4.57-3.23,9.29-7.03,12.38-1.36.9-3.21,1.52-4.79.89-2.59-1.92-2.59-6.45.03-8.34.69.35,1.38.71,2.04,1.12-.32.84-.68,1.68-.88,2.56.17.65,1.39.75,1.86.37,1.15-.45.74-1.88.67-2.85-.32-1.81-1.97-2.99-3.77-2.92-3.71,1.37-4.14,6.57-2.31,9.61,1.32,2.7,5.04,2.67,7.34,1.33,2.56-1.84,4.52-4.43,5.91-7.23,2.83-6.93,4.34-14.35,4.71-21.82.08-5.83.35-11.66,0-17.49-.5-4.67-.67-9.37-1.34-14.02-.36-5.26-1.43-10.45-1.57-15.74.48.34,1.15.52,1.35,1.14,1.19,2.76,1.57,5.78,2.2,8.69.84,5.71,1.6,11.44,2.06,17.19.93,5.94.64,11.97.66,17.95-.12,5.08-1.42,10.02-2.25,14.99-4.39,18.55-15.62,35.11-30.5,46.9-2.45,1.86-4.86,3.82-7.67,5.12"/>
      <path class="cls-3" d="M951.9,529.03c.65-4.45,1.49-8.88,2.28-13.3,1.13-3.94,2.5-7.81,3.76-11.7,1.62-4.62,2.84-9.41,4.99-13.82.91-3,2.22-5.85,3.73-8.6-.51,2.35-1.94,4.33-2.57,6.64-1.41,4.82-3.12,9.55-4.58,14.36-.45,2.9-1.66,5.62-2.03,8.53-.76,2.2-.85,4.54-1.59,6.74-.52,3.25-.74,6.53-.94,9.82-1,.49-1.93,1.19-3.06,1.33"/>
      <path class="cls-4" d="M949.19,524.39c.35-2.61,1.47-5.03,1.8-7.64,1.26-4.42,2.74-8.78,4.31-13.1,1.63-3.07,2.39-6.51,4.08-9.56-.45,1.71-1.3,3.3-1.55,5.06-.24,2.17-1.65,3.96-2.11,6.08-2.55,6.94-3.7,14.27-4.74,21.56-.2,1.17-.07,2.44-.65,3.52-.83.48-1.76.72-2.67,1.01.04-2.41,1.04-4.62,1.53-6.93"/>
      <path class="cls-3" d="M917.66,498.64c3.85-6.67,9.45-12.07,14.65-17.67,6.37-6.15,13.19-11.92,20.83-16.45,4.59-2.86,9.14-5.9,14.23-7.82,1.97-.79,4.07-1.65,6.23-1.26-1.06,3.49-4.61,5.01-7.52,6.65-7.11,3.34-13.66,7.74-19.88,12.49-6.49,5.28-12.9,10.77-18.17,17.31-2.51,3.36-4.79,6.96-6.03,10.99-.86,2.08-.67,4.39-.2,6.54.56,2.45,2.83,4.28,5.29,4.55,2.81-.75,5.79-3.62,4.79-6.75-.17-1.42-1.83-1.42-2.88-1.86-.34.89-.65,1.78-.96,2.67.31.13.93.4,1.24.53.26-.59.52-1.17.78-1.75.21.76.44,1.51.52,2.29-.36,1.4-1.61,2.54-2.97,2.98-1.56.73-2.9-.82-3.86-1.86-.79-1.66-.87-3.58-.8-5.39.36-2.34,1.84-4.28,2.58-6.49,5.56-9.8,14.66-16.73,23.17-23.79,6.71-4.99,14.28-9.09,22.52-10.8-.71,2.06-1.31,4.18-2.35,6.09-3.96,9.33-8.61,18.38-13.82,27.07-1.3,2.68-3.29,4.94-4.61,7.6-3.66,6.18-8,11.92-12.73,17.31-3.08,3.95-6.42,7.68-10.05,11.13-3.51,3.7-7.6,6.79-11.9,9.51,1.08-2.5,1.63-5.18,2.6-7.71,2.51-2.11,5.28-3.88,7.91-5.83,3.63-2.82,6.8-6.17,10.37-9.07,2.21-2.09,4.61-4.05,6.36-6.57-1.67.82-2.93,2.21-4.43,3.27-2.71,1.89-5.1,4.19-7.83,6.05-4.02,2.64-7.92,5.63-12.62,6.98.21-.68.43-1.37.63-2.07-.87-.9-1.72-1.89-2.02-3.15-1.04-4.1-.94-8.36-1.34-12.55-.17-1.94-.59-3.9-.3-5.85.23-2.62,1.46-4.99,2.56-7.34"/>
      <path class="cls-9" d="M917.06,484.6c3.2-3.89,7.52-6.53,11.59-9.38,4.74-3.68,9.76-7.01,15.05-9.84,7.21-4.21,14.51-8.34,22.22-11.55,3.2-1.51,6.55-2.74,10.01-3.47-.22.84-.46,1.67-.69,2.5-3.94.93-7.87,2.03-11.51,3.85-3.79,1.89-7.52,3.93-11.01,6.33-3.55,2.18-7.03,4.47-10.21,7.15-5.14,3.84-9.62,8.44-14.22,12.89-2.87,3.27-5.99,6.3-9.24,9.18-1.06.96-2.32,1.64-3.65,2.15-2.32-3.01-1.03-7.47,1.65-9.81"/>
      <path class="cls-4" d="M946.71,423.06c7.19-4.89,14.29-10.05,22.29-13.57,5.35-2.3,10.6-5.19,16.5-5.78-.35,8.69-2.45,17.19-4.09,25.69-2.02,6.19-4.98,12.35-9.79,16.88-3.07,2.47-6.58,4.31-9.91,6.39-4.88,2.63-9.58,5.58-14.33,8.45-4.02,1.91-7.82,4.25-11.63,6.53-1.42.83-2.97,1.42-4.3,2.39-3.74,2.61-7.67,4.96-11.8,6.88-.87.41-1.83.53-2.77.67-.09-5.01,3.32-9.02,4.85-13.56.69-1.58.15-3.31-.41-4.84-.96.08-1.93.17-2.89.29.55-2.18,1.24-4.32,2.03-6.43,5.64-12.29,15.42-22.15,26.26-30.01"/>
      <path class="cls-9" d="M927.08,434.25c4.98-2.12,9.06-5.82,12.86-9.59,4.2-3.9,8.3-7.91,12.04-12.26,2.49-3.11,5.04-6.19,7.38-9.42,4.35-5.18,7.54-11.18,11.01-16.96,1.25-2.97,3.07-5.66,4.12-8.71,1.47-2.67,2.11-5.7,3.49-8.41,2.04-4.62,2.67-9.85,5.63-14.06.32.08.95.23,1.27.31,1.22,5.98,1.62,12.09,2.08,18.16-.08,3.64.17,7.27.16,10.91.05,3.95-2.36,7.36-4.97,10.11-3.71,3.58-7.57,7.01-11.61,10.21-3.67,2.62-7.44,5.1-10.91,8-5.26,3.55-10.45,7.18-15.65,10.81-5.95,4.64-11.66,9.69-16.33,15.64.11-1.6.37-3.31-.57-4.74"/>
      <path class="cls-2" d="M936.92,384.1c1.72-2.41,3.84-4.5,5.63-6.86,3.07-3.91,6.83-7.19,10.2-10.83,5.35-5.11,11.19-9.79,15.73-15.68,2.39-3.14,4.16-6.79,7.23-9.37.42.67,1.03,1.29,1.07,2.11.24,3.88-.58,7.7-1.06,11.53-1.01,4.01-1.65,8.17-3.59,11.88-1.08,2.95-2.26,5.85-3.52,8.72-4.13,8.62-8.25,17.48-14.8,24.59-2.29,3.01-5.18,5.45-8.12,7.79-2.36,2.16-5.3,3.53-8.19,4.84-2.81,1.09-6.54,1.36-8.81-.93-3.25-3.53-.43-9.38,3.62-10.85,1.35-.57,2.77.3,3.58,1.37.89,1.38-.38,2.8-1.12,3.93-.58-.61-1.17-1.22-1.81-1.78-.21.65-.42,1.29-.62,1.93.92.58,1.86,1.24,2.98,1.31.59-.25,1.23-.6,1.37-1.29.44-1.3,1.11-2.7.64-4.1-.34-1.45-1.6-2.42-2.87-3.05-1.76-.38-3.43.51-4.81,1.49-2.16,1.83-3.81,4.47-3.76,7.38-.23,3.05,2.01,5.94,4.91,6.74,1.73.52,3.59.44,5.32-.05,4.2-1.19,7.93-3.61,11.25-6.4,4.22-3.31,7.67-7.46,10.85-11.74,3.5-4.71,5.96-10.05,8.8-15.17,1-2.47,2.21-4.85,3.13-7.35,1.47-2.65,2.04-5.67,3.49-8.33,1.06-2.88,2.11-5.8,2.59-8.85,1.24-3.93,1.5-8.07,2.09-12.13.35-2.28.21-4.66,1.12-6.83,1.39,3.5,1.08,7.38.6,11.03-1.7,8.41-3.34,16.93-6.93,24.78-1.13,3.94-3.25,7.46-4.86,11.2-3.72,7.12-7.38,14.44-12.89,20.37-2.89,3.3-5.96,6.44-9.03,9.58-2.8,3.01-6.24,5.32-9.64,7.58-4.98,2.88-10.28,5.54-16.06,6.24.46-1.39.98-2.77,1.46-4.16-.77-.25-1.56-.5-2.34-.74.39-2.48,1.04-4.9,1.39-7.39.33-2.65,1.51-5.1,1.97-7.73.25-1.45,1.06-2.7,1.52-4.08,2.61-7.67,7.57-14.22,12.3-20.69"/>
      <path class="cls-4" d="M938.84,347.22c1.49-3.19,2.91-6.42,4.14-9.73,1.77-3.7,3.42-7.47,5.26-11.14,3.28-6.6,7.3-12.86,9.74-19.85,2-4.09,2.97-8.57,4.59-12.8,2.64,1.14,3.36,4.2,4.49,6.57.95,2.58,2.8,4.91,2.83,7.75.08,3.35.1,6.74-.62,10.03-1.22,7.72-3.9,15.23-8.03,21.88-2.36,3.23-4.8,6.44-7.78,9.14-3.57,3.65-7.06,7.43-11.14,10.54-1.78,1.36-3.41,2.94-5.31,4.14-.45-4.15-.71-8.5.8-12.48.47-1.31.61-2.71,1.03-4.04"/>
      <path class="cls-3" d="M939.43,330.22c2.54-1.95,4.23-4.7,6.3-7.09,3.8-5.45,7.09-11.24,10.02-17.2,1.36-2.21,1.86-4.81,3.19-7.02-1.14,3.89-2.43,7.75-3.86,11.54-1.38,2.93-3,5.75-4.43,8.65-2.48,4.62-5.93,8.62-9.63,12.3-.82.82-1.87,1.33-2.87,1.88.37-1.03.29-2.38,1.28-3.06"/>
      <path class="cls-9" d="M953.76,277.21c.27.11.82.35,1.09.47,1.06,3.46.46,7.08,0,10.59-.22,1.95-.98,3.78-1.4,5.67-.47,2.73-1.45,5.35-2.37,7.95-1.8,3.43-3.25,7.03-5.12,10.43-1.31,3.51-3.57,6.55-6,9.36-.32-1.75.34-3.46,1.55-4.73,3.38-4.32,6.41-9,8.46-14.11-.29-.18-.89-.55-1.18-.73-1.89,1.91-3.01,4.4-4.68,6.47-1.51,1.88-3.26,3.62-5.33,4.89-.29-.02-.87-.08-1.15-.1.88-2.38,2.89-4.04,4.34-6.06,2.85-3.51,4.56-7.72,6.6-11.71,1.71-3.24,2.58-6.82,3.74-10.27.9-2.62,1-5.41,1.48-8.12"/>
      <path class="cls-3" d="M958.58,272.1c4.25,6.19,7.61,12.91,10.88,19.66,2.7,6.55,5.45,13.1,7.56,19.87,2.59,6.77,4.79,13.68,6.7,20.67.98,4.21,1.71,8.46,2.3,12.73.85,4.21,1.73,8.44,2.19,12.72,1.41,10.26,2.35,20.61,2.26,30.98-.01,3.62.08,7.24-.44,10.83-.27,9.62-2.51,19.03-3.86,28.52-.37,1.65-1,3.24-1.2,4.93-.61,2.7-1.71,5.25-2.28,7.95-.45,2.59-1.39,5.05-2.24,7.52-1.67,3.47-2.55,7.25-4.08,10.77-1.08,2.04-1.58,4.32-2.65,6.35-1.94,4.17-4.21,8.18-6.62,12.09,1.51-4.93,3.98-9.47,5.78-14.29,1.25-3.97,3.3-7.69,3.98-11.84.7-2.97,1.85-5.81,2.68-8.74,1.94-8.2,3.79-16.42,5.37-24.7,1.98-11.44,3.24-23.02,3.4-34.64-.2-5.36-.03-10.73-.61-16.07-.22-4.76-1.24-9.41-1.71-14.14-1.17-6.78-2.89-13.45-4.76-20.08-2.49-11.11-6.84-21.71-11.84-31.9-1.92-4.5-4.32-8.77-6.18-13.29-1.71-3.39-3.36-6.81-5.11-10.18-6.13-10.24-12.99-20.01-20.04-29.64-4.52-5.63-9.36-11-14.08-16.46-.75-.9-1.57-1.72-2.41-2.53-1.65-1.59-.93-2.11.89-.57,4.84,4.1,9.21,8.75,13.58,13.34,4.28,4.79,8.22,9.87,11.96,15.09,3.41,5.11,7.52,9.73,10.61,15.05"/>
      <path class="cls-3" d="M993.35,270.98c-1.85.74-3.87.7-5.83.65-4.28.1-8.52-.62-12.69-1.44-4.61-1.6-9.59-2.08-13.94-4.45-2.31-.74-4.47-1.89-6.3-3.49,2.56.41,4.72,1.87,7.11,2.75,4.59,2.07,9.42,3.56,14.21,5.09,3.66.63,7.39.7,11.09.94,2.13.24,4.28-.91,6.35-.06"/>
      <path class="cls-4" d="M993.33,275.09c-2.23,1.08-4.8.8-7.2.81-4.48.01-8.67-1.82-12.78-3.39,1.44-.81,3.07-.24,4.58-.06,3.53.41,7.08.85,10.64.67,1.8.08,3.61-.33,5.41-.05-.18.69-.39,1.36-.65,2.01"/>
      <path class="cls-4" d="M1020.51,303.44c1.41,2.24,3.57,3.96,4.55,6.47.86,2.15,2.2,4.51,1.31,6.86-2.02-1.15-3.79-2.67-5.63-4.06-4.39-3.48-9.03-6.65-13.17-10.42-7.55-6.11-15.09-12.29-23.36-17.42-2.22-1.48-4.6-2.73-6.69-4.41,2.03.3,3.71,1.51,5.6,2.17,1.99.67,3.72,1.9,5.75,2.46,2.58.76,5.11,1.65,7.53,2.82,5,1.57,9.78,3.81,14.25,6.56,3.65,2.52,7.4,5.19,9.85,8.98"/>
      <path class="cls-6" d="M597.74,507.22c1.8,1.27,3.58,2.7,5.79,3.19-.4-2.36-2.12-4.11-3.27-6.12-2-2.91-3.47-6.15-5.6-8.97-2.18-3.07-3.77-6.49-5.72-9.7-3.49-5.75-6.22-11.89-8.9-18.05-3.33-8.67-6.93-17.26-9.5-26.2.08,3.71.25,7.42.11,11.12-.2,5.78.26,11.55.73,17.31.97,5.28,2.99,10.39,6.11,14.78,4.74,9.08,12.06,16.59,20.25,22.63"/>
      <path class="cls-6" d="M610.52,517.86c-2.03-1.69-4.32-3.03-6.44-4.59-7.95-5.26-15.58-11.13-22.11-18.11-2.06-2.17-3.79-4.71-6.34-6.34.35,1.14.86,2.23,1.47,3.25,2.99,5.38,6.61,10.41,10.75,14.97,3.58,1.5,6.93,3.47,10.53,4.94,4.11,1.83,7.95,4.22,12.14,5.89"/>
      <path class="cls-6" d="M613.54,449.6c1.75,7.07,3.22,14.21,4.02,21.45,1.12,5.41,1.1,11.02,2.54,16.37.96,3.58,1.28,7.28,2.14,10.87,2.83,11.74,6.14,23.59,12.41,34.02,2.26,4.65,5.64,8.63,9.5,12.03-1.84-5-4.4-9.68-6.54-14.56-1.65-2.95-2.57-6.21-3.42-9.46-2.09-7.25-3.23-14.74-4.04-22.23-.98-8.83-2.99-17.5-3.92-26.33-.54-4.98-1.91-9.8-2.99-14.68-1.54-5.51-3.81-11.55-9.15-14.42-1.13-.37-2.94-1.7-3.42.12.94,2.27,2.35,4.36,2.87,6.8"/>
      <path class="cls-6" d="M615.4,524.89c-2.75-2.9-6.59-4.33-10-6.25-4.98-2.25-10.05-4.32-15.25-6-1.05-.38-2.17-.23-3.25-.24,2.68,3.25,6.03,6.14,9.97,7.71,6.18,1.59,12.42,2.94,18.54,4.78"/>
      <path class="cls-6" d="M619.44,528.86c-2.75-2.25-6.45-2.76-9.68-4.04-4.15-1.01-8.32-1.99-12.44-3.12-4.01-.87-7.66-2.85-11.5-4.24,1.87,1.53,3.58,3.39,5.89,4.25,6.38,2.61,13.18,3.97,19.98,4.9,2.7.35,5.07,1.81,7.75,2.25"/>
      <path class="cls-6" d="M652.32,558.24c-.42-1.17-1.06-2.27-2.03-3.06-5.89-4.88-12.03-9.46-17.57-14.74-1.77-1.85-4.11-2.94-6.12-4.49-5.28-4.25-12.05-6.21-18.69-7.01-4.8-.78-9.53-1.99-14.36-2.55-.11.12-.32.38-.43.51.64,2.7,2.73,4.64,4.44,6.69,6.66,7.56,14.5,14.19,23.39,18.97,3.98,1.85,8.23,3.02,12.32,4.59,3.92.93,7.94,1.47,11.97,1.59,2.37.18,4.77.07,7.1-.5"/>
      <path class="cls-6" d="M648.25,471c2.8,4.05,6.2,7.73,8.26,12.25,3.42,5.98,5.29,12.65,7.3,19.18,1.28,5.94,3.26,11.73,4.06,17.77.67,2.98,1.26,5.97,1.58,9,1.41,8.43,3.28,16.89,6.92,24.67.64,1.43,1.21,2.92,2.24,4.13-1.82-6.17-4.4-12.16-5.56-18.54-1.66-9.01-1.38-18.36.75-27.27.35-1.45.53-2.97.16-4.44-.62-2.43-1.02-4.95-2.14-7.22-1.36-2.93-2.46-5.97-3.66-8.96-2.37-4.54-4.7-9.13-7.54-13.4-1.9-2.94-4.48-5.35-6.62-8.1-4.24-4.68-8.84-9.08-14.12-12.57-4.36-2.9-8.78-5.88-13.7-7.7,6.96,7.5,16.14,12.74,22.1,21.19"/>
      <path class="cls-6" d="M667.4,530.19c-.74-6-1.83-11.95-2.96-17.89-1.22-6.27-3.87-12.12-5.87-18.15-1.89-5.35-5.4-9.85-8.23-14.69-1.87-3.06-4.55-5.48-6.98-8.07-4.8-5.29-11.15-8.99-17.81-11.43.44,2.58,1.18,5.1,1.55,7.69.84,6.64,1.8,13.27,2.97,19.86.61,2.52.65,5.13,1.13,7.68,2.08,11.38,3.63,23.07,8.64,33.62,1.84,4.11,3.85,8.16,6.54,11.78,3.63,5.51,7.98,10.6,13.2,14.67,4.77,3.6,9.45,7.34,14.59,10.4,2.36,1.14,4.71,2.31,7.11,3.37-2.29-6.39-6.4-11.96-8.52-18.43-2.36-6.64-4.02-13.5-5.37-20.4"/>
      <path class="cls-6" d="M657.87,560.84c-3.87-1.23-7.91-.2-11.87-.36-2.44-.13-4.86-.54-7.29-.77-.09.65-.17,1.3-.26,1.93,3.4,1.1,7.02,1.12,10.54.97,2.99-.36,6.12-.4,8.87-1.77"/>
      <path class="cls-6" d="M674.02,538.2c2.17,10.13,5.77,20.2,12.22,28.42,2.05,2.51,4.08,5.18,7.01,6.74-1.98-4.32-4.92-8.14-6.62-12.6-2.15-5.63-4.51-11.33-4.92-17.41-.37-4.27-.66-8.58-.29-12.86.31-3.11.87-6.22.91-9.36,0-2.9-1.95-5.41-4.31-6.91-.82.96-1.68,1.94-2.14,3.13-2.85,6.54-2.69,13.92-1.84,20.86"/>
      <path class="cls-6" d="M676.27,571.87c-4.9-.6-9.83-1.29-14.78-1.08,1.36,1.01,2.56,2.49,4.37,2.64,5.13,1.12,10.46,1.15,15.61.2-1.66-.78-3.37-1.52-5.2-1.76"/>
      <path class="cls-6" d="M744.17,573.31c-4.78-4.82-10.07-9.07-14.95-13.78-4.26-3.82-8.27-7.91-12.72-11.52-3.8-3.07-7.51-6.26-11.5-9.08-5.23-3.98-10.25-8.28-15.93-11.61-1.91-1.05-3.32,1.22-4.06,2.66-1.63,4.1-1.35,8.61-1.3,12.93-.12,3.36.8,6.64,1.57,9.87,2.39,7.68,5.77,15.38,11.78,20.92,1.14,1.07,2.67,1.5,4.09,2.08-6.8-7.77-11.89-17.71-11.54-28.26-.04-2.95,1.49-5.66,3.45-7.76,1.97-1.4,4.57-2.14,6.93-1.27,2.54.68,3.4,3.41,4.36,5.55,1.18,2.59-.82,5.55-3.22,6.56-3.13,1.25-6.64-2.97-4.54-5.74.47-1.14,1.85-1.12,2.66-.35-.38,1.29-1.84,2.75-.63,4.02.72.42,1.61.17,2.41.23.28-1.12,1.09-2.32.55-3.49-.77-1.77-2.84-2.17-4.42-2.89-2.51,1.27-3.48,4.02-4.44,6.46-1.65,5.36-.01,11.06,2.38,15.93,2.66,4.96,6.13,9.83,11.26,12.43,6.63,2.28,13.46,3.92,20.29,5.45,3.97.43,7.78,1.94,11.81,1.88.22-.77.79-1.55.49-2.38-3.35-8.29-8.97-15.4-15.05-21.85.21-.59.44-1.19.67-1.78,2.89,1.82,5.72,3.89,7.94,6.51,3,4.82,7.02,8.86,10.4,13.39,2.8,3,5.66,6.53,10.03,7.03-.11-.77-.11-1.59-.47-2.3-1.96-3.88-5.13-6.95-8.3-9.85"/>
      <path class="cls-6" d="M682.41,574.82c-4.04.78-8.16,1.14-12.27.83,5.77,1.53,11.91,2.14,17.79.79-1.7-.87-3.52-2.11-5.52-1.62"/>
      <path class="cls-6" d="M693.16,580.68c-6.4.76-12.76-.72-19.14-.93,2.92,1.67,5.97,3.28,9.3,3.95,6.99,1.54,14.16,2.23,21.32,2.15,2.23-.06,4.68.28,6.65-1.02-3.92-2.05-8.35-2.73-12.44-4.34-1.85-.86-3.81-.05-5.69.19"/>
      <path class="cls-6" d="M694.12,579.04c-1.71-.8-3.55-1.77-5.49-1.2-2.52.63-5.16.49-7.68,1.13,4.34.47,8.89,1.23,13.17.07"/>
      <path class="cls-6" d="M754.82,580.11c-5.84-6.93-11.71-13.87-18.29-20.1-3.5-3.64-7.54-6.68-11.23-10.1-1.68-1.63-4.04-2.26-6.27-1.52,7.02,6.53,14.24,12.83,21.18,19.45,4.1,3.84,7.99,7.91,12.25,11.57,2.25,1.86,3.9,4.38,6.33,6.03-.88-2.07-2.54-3.65-3.97-5.33"/>
      <path class="cls-6" d="M753.14,573.89c-4.11-5.2-8.52-10.14-12.91-15.1-1.83-1.75-3.82-4.35-6.68-3.62,4.62,4.6,9.48,8.98,13.64,14.03,3.99,4.14,7.37,8.83,11.51,12.85,1.7,1.56,2.81,3.63,4.52,5.17-2.46-5.05-6.61-8.99-10.09-13.33"/>
      <path class="cls-6" d="M804.49,568.01c-3.98-4.72-7.46-9.86-11.57-14.47-3.22-3.82-8.44-4.97-13.18-5.5,6.32,3.47,10.61,9.43,14.98,14.97,2.87,4.32,5.3,8.96,8.83,12.82,2.72,3.62,6.14,6.82,10.25,8.76,1.84,1.07,3.92.25,5.84-.06-1.8-2.05-4.11-3.56-6.02-5.49-3.53-3.25-6.04-7.38-9.12-11.02"/>
      <path class="cls-6" d="M810.25,570.41c4.37,5.3,9.05,10.96,15.79,13.21,1.86-.02,3.69-.44,5.45-1.03-2.67-1.33-5.56-2.2-8.09-3.81-4.66-2.34-8.78-5.58-13.16-8.37"/>
      <path class="cls-4" d="M823.4,578.78c2.53,1.61,5.42,2.48,8.09,3.81-1.76.58-3.6,1.01-5.45,1.02-6.74-2.25-11.42-7.91-15.79-13.21,4.38,2.79,8.49,6.03,13.15,8.37"/>
      <path class="cls-2" d="M792.93,553.53c4.11,4.61,7.59,9.75,11.57,14.47,3.08,3.64,5.59,7.77,9.12,11.02,1.92,1.94,4.22,3.44,6.02,5.49-1.92.31-4,1.13-5.84.06-4.11-1.95-7.53-5.15-10.25-8.76-3.52-3.85-5.95-8.5-8.83-12.82-4.36-5.54-8.66-11.5-14.98-14.97,4.74.53,9.96,1.67,13.18,5.49"/>
      <path class="cls-9" d="M755.65,563.04c.01-1.52,1.59-1.98,2.65-2.66,3.46-1.9,6.2-5.26,6.81-9.23.14-1.67,1.33-3.21,3.01-3.57,4.22-.65,8.35.99,12.03,2.92,5.21,2.85,9.01,7.56,12.54,12.2,2.92,3.79,4.94,8.18,7.99,11.88,3,4.11,6.51,7.79,10.43,11.03-4.52.33-7.72-3.44-10.61-6.35-3.43-4.13-6-8.88-9.28-13.12-1.77-2.05-3.13-4.46-5.22-6.23-2.04-2.02-4.74-3.41-7.6-3.71-3.13.03-6.3,2.05-6.95,5.25-1.9,3.71-.12,8.03,2.48,10.89,2.13,1.77,5.98.1,5.77-2.76-.45-1.73-2.54-2.35-4.1-1.82-.73.71-.4,1.74-.42,2.62.81-.16,1.62-.35,2.45-.52-.21.37-.63,1.11-.84,1.48-3.76-.18-5.61-5.6-2.96-8.17,1.24-1.51,3.15-2.69,5.18-2.35,3.82.54,6.63,3.49,9.03,6.27,5.15,6.33,9.46,13.35,15.33,19.09-6.31.65-12.65.82-18.98,1.21-3.45.28-7.12.36-10.27-1.32-5.34-2.02-9.81-5.83-13.39-10.2-2.62-3.79-5.36-8.04-5.08-12.85"/>
      <path class="cls-2" d="M740.23,558.78c4.39,4.96,8.8,9.9,12.91,15.1,3.47,4.34,7.63,8.28,10.08,13.33-1.71-1.54-2.82-3.61-4.52-5.17-4.14-4.02-7.52-8.71-11.51-12.85-4.16-5.05-9.03-9.42-13.64-14.03,2.86-.73,4.84,1.88,6.67,3.62"/>
      <path class="cls-2" d="M678,514.22c2.36,1.5,4.31,4.01,4.31,6.92-.04,3.14-.6,6.25-.91,9.36-.37,4.28-.07,8.59.29,12.86.41,6.08,2.78,11.78,4.92,17.41,1.71,4.46,4.65,8.28,6.63,12.6-2.92-1.56-4.96-4.22-7.01-6.74-6.46-8.23-10.05-18.29-12.22-28.42-.85-6.94-1.01-14.32,1.84-20.86.46-1.2,1.32-2.17,2.14-3.13"/>
      <path class="cls-3" d="M694.12,579.04c-4.29,1.17-8.84.41-13.17-.07,2.52-.64,5.16-.51,7.68-1.13,1.94-.57,3.79.4,5.49,1.2"/>
      <path class="cls-4" d="M639.85,457.5c5.28,3.49,9.88,7.89,14.12,12.57,2.15,2.75,4.72,5.16,6.62,8.1,2.84,4.27,5.18,8.86,7.54,13.4,1.21,2.99,2.3,6.03,3.67,8.96,1.12,2.27,1.52,4.79,2.14,7.22.37,1.47.19,2.99-.16,4.44-2.13,8.91-2.4,18.26-.75,27.27,1.16,6.38,3.74,12.36,5.56,18.54-1.04-1.21-1.61-2.7-2.24-4.13-3.64-7.78-5.51-16.24-6.92-24.67-.32-3.03-.91-6.02-1.57-9-.8-6.03-2.77-11.83-4.06-17.77-2.01-6.54-3.88-13.21-7.3-19.19-2.06-4.52-5.46-8.2-8.26-12.25-5.96-8.45-15.15-13.69-22.1-21.19,4.93,1.81,9.34,4.8,13.7,7.7"/>
      <path class="cls-3" d="M643.37,471.4c2.43,2.6,5.1,5.02,6.98,8.07,2.84,4.84,6.34,9.35,8.23,14.69,2.01,6.03,4.65,11.87,5.87,18.15,1.13,5.94,2.21,11.89,2.96,17.88,1.36,6.9,3.02,13.77,5.37,20.4,2.12,6.47,6.23,12.04,8.52,18.43-2.4-1.05-4.75-2.23-7.11-3.37-5.14-3.06-9.82-6.81-14.59-10.4-5.22-4.07-9.57-9.15-13.2-14.67-2.69-3.62-4.71-7.68-6.54-11.78-5-10.55-6.55-22.24-8.63-33.62-.49-2.54-.53-5.16-1.13-7.68-1.17-6.59-2.13-13.22-2.97-19.86-.36-2.59-1.11-5.11-1.55-7.69,6.66,2.45,13.01,6.14,17.81,11.43"/>
      <path class="cls-2" d="M614.09,442.67c5.34,2.86,7.61,8.9,9.15,14.42,1.08,4.87,2.45,9.7,2.99,14.68.92,8.83,2.94,17.51,3.91,26.33.81,7.49,1.95,14.98,4.04,22.23.85,3.25,1.76,6.51,3.42,9.46,2.14,4.87,4.7,9.55,6.54,14.56-3.86-3.4-7.23-7.38-9.5-12.03-6.27-10.43-9.58-22.27-12.41-34.02-.86-3.6-1.18-7.3-2.14-10.88-1.44-5.36-1.42-10.96-2.54-16.37-.8-7.24-2.27-14.39-4.02-21.45-.52-2.44-1.93-4.53-2.87-6.8.48-1.82,2.29-.49,3.42-.12"/>
      <path class="cls-2" d="M571.38,469.81c-.46-5.76-.92-11.53-.73-17.31.14-3.71-.03-7.42-.11-11.12,2.57,8.94,6.17,17.53,9.5,26.2,2.68,6.16,5.41,12.3,8.9,18.05,1.96,3.21,3.54,6.63,5.72,9.7,2.13,2.83,3.6,6.07,5.6,8.98,1.15,2.01,2.87,3.76,3.27,6.12-2.21-.48-3.99-1.92-5.79-3.19-8.19-6.04-15.5-13.55-20.25-22.63-3.11-4.39-5.14-9.5-6.1-14.78"/>
      <path class="cls-9" d="M577.11,492.07c-.61-1.03-1.12-2.12-1.47-3.25,2.55,1.63,4.28,4.17,6.34,6.34,6.53,6.98,14.15,12.85,22.1,18.11,2.12,1.56,4.41,2.9,6.44,4.59-4.19-1.67-8.03-4.06-12.14-5.89-3.6-1.47-6.95-3.44-10.53-4.94-4.13-4.55-7.75-9.59-10.75-14.96"/>
      <path class="cls-3" d="M586.89,512.4c1.08.01,2.2-.14,3.26.23,5.2,1.68,10.27,3.74,15.25,6,3.42,1.93,7.25,3.35,10,6.26-6.11-1.84-12.36-3.18-18.54-4.78-3.95-1.57-7.29-4.46-9.97-7.71"/>
      <path class="cls-4" d="M585.81,517.47c3.84,1.39,7.49,3.36,11.5,4.23,4.13,1.14,8.29,2.11,12.45,3.12,3.23,1.28,6.93,1.79,9.68,4.04-2.68-.44-5.06-1.9-7.75-2.25-6.8-.93-13.6-2.3-19.98-4.9-2.31-.86-4.02-2.72-5.89-4.25"/>
      <path class="cls-2" d="M633.26,557.16c-4.09-1.57-8.34-2.74-12.32-4.59-8.89-4.79-16.73-11.41-23.39-18.97-1.71-2.05-3.79-3.99-4.44-6.69.11-.13.33-.38.43-.51,4.83.55,9.57,1.77,14.36,2.55,6.64.8,13.41,2.76,18.69,7.01,2.01,1.55,4.35,2.64,6.12,4.49,5.54,5.29,11.68,9.87,17.58,14.74.97.8,1.61,1.89,2.03,3.06-2.32.57-4.72.69-7.09.5-4.03-.12-8.05-.66-11.97-1.59"/>
      <path class="cls-3" d="M638.46,561.64c.08-.64.16-1.28.26-1.93,2.43.23,4.85.64,7.29.77,3.96.17,7.99-.87,11.87.36-2.75,1.37-5.88,1.4-8.87,1.77-3.53.15-7.15.12-10.54-.97"/>
      <path class="cls-6" d="M652.57,568c-3.64-.06-7.2-.87-10.8-1.32.17-.88.29-1.77.37-2.66,3.14.31,6.32.64,9.45.17,2.07-.07,4.07-.73,6.13-.85,2.91.67,5.99,1.1,8.5,2.87-4.55.59-9.02,2.01-13.66,1.79"/>
      <path class="cls-9" d="M661.49,570.79c4.95-.21,9.88.48,14.78,1.08,1.83.24,3.54.98,5.2,1.76-5.16.96-10.49.93-15.61-.2-1.8-.16-3.01-1.63-4.37-2.64"/>
      <path class="cls-3" d="M682.41,574.82c2-.49,3.82.75,5.52,1.62-5.87,1.35-12.01.74-17.79-.79,4.11.32,8.23-.05,12.27-.83"/>
      <path class="cls-9" d="M704.64,585.85c-7.16.07-14.33-.61-21.32-2.15-3.34-.67-6.38-2.28-9.3-3.95,6.38.21,12.74,1.7,19.14.93,1.88-.25,3.84-1.05,5.69-.19,4.1,1.61,8.52,2.3,12.44,4.34-1.97,1.3-4.42.96-6.65,1.02"/>
      <path class="cls-4" d="M726.65,582.66c-6.83-1.53-13.67-3.17-20.29-5.45-5.13-2.6-8.6-7.47-11.26-12.43-2.39-4.86-4.03-10.57-2.38-15.93.96-2.45,1.93-5.2,4.44-6.46,1.58.72,3.64,1.12,4.42,2.89.54,1.17-.27,2.37-.55,3.49-.8-.05-1.69.19-2.41-.23-1.2-1.27.25-2.73.63-4.02-.81-.77-2.19-.79-2.66.35-2.1,2.77,1.41,6.99,4.54,5.74,2.4-1.01,4.4-3.97,3.22-6.56-.95-2.14-1.82-4.87-4.36-5.55-2.35-.86-4.95-.13-6.92,1.27-1.96,2.1-3.49,4.81-3.45,7.76-.35,10.55,4.75,20.49,11.54,28.26-1.42-.57-2.96-1.01-4.09-2.08-6.01-5.54-9.39-13.24-11.78-20.91-.77-3.24-1.69-6.52-1.57-9.87-.05-4.32-.33-8.83,1.3-12.93.74-1.44,2.15-3.71,4.06-2.66,5.68,3.32,10.7,7.62,15.93,11.61,3.99,2.82,7.7,6.01,11.5,9.08,4.45,3.61,8.46,7.7,12.72,11.52,4.89,4.7,10.18,8.96,14.95,13.78,3.17,2.89,6.35,5.96,8.31,9.85.36.71.35,1.53.47,2.3-4.37-.5-7.23-4.03-10.04-7.03-3.38-4.52-7.4-8.57-10.4-13.39-2.21-2.62-5.05-4.68-7.93-6.51-.24.59-.46,1.19-.68,1.78,6.09,6.45,11.7,13.56,15.05,21.85.3.83-.27,1.61-.49,2.38-4.03.06-7.84-1.45-11.81-1.89"/>
      <path class="cls-3" d="M863.65,577.95c-4.21,1.63-8.64,2.57-12.9,4.03-7.24,1.47-14.4,3.64-21.83,3.96-4.07.66-8.12,1.47-12.24,1.83-6.89.59-13.68,2.07-20.6,2.2-5.2.1-10.39.62-15.59.65-5.04-.08-10.1.63-15.11-.26-5.01-.28-10.05-.14-15.02-.9-8.19-1.23-20.72-4.94-14.02-3.67,6.47,1.2,13.06,1.36,19.6,2.04,7.65.97,15.41.31,23.07,1.2,10.72-.26,21.41-1.21,32.12-1.82,5.16-.51,10.29-1.3,15.43-1.98,5.54-.88,10.99-2.17,16.51-3.21,9.95-2.37,36.71-11.4,35.57-10.72-4.93,2.36-9.78,4.94-14.98,6.66"/>
      <path class="cls-3" d="M573.39,418.11c1.99,2.1,3.85,4.35,6.21,6.06,6.03,4.33,13.49,5.81,19.93,9.35,3.13,1.39,5.55,3.98,7.54,6.72,2.28,3.42,4.48,7.02,5.41,11.08,1.47,6.6,3.09,13.2,3.67,19.95,1.01,5.06,1.38,10.21,2.24,15.3,1.59,6.12,2.16,12.49,4.08,18.54.58,1.67.74,3.45,1.32,5.11,2.05,5.61,3.67,11.4,6.31,16.78,1.26,3.13,3.26,5.87,4.77,8.88,3.2,5.86,8.57,10.01,13.18,14.67-5.35-3.75-10.66-7.69-14.91-12.7-5.31-5.92-8.37-13.4-10.99-20.8-2.25-6.15-3.86-12.52-5.08-18.94-3.16-14.33-4.97-28.91-8.07-43.26-1-4.9-3.04-9.66-6.4-13.4-1.86-2.03-4.59-3.08-7.33-2.86-3.04-.07-5.06,2.83-5.95,5.41-.99,3.1,1.26,6.53,4.38,7.21,2.85,1.19,6.04-3.33,3.63-5.42-1.48-.87-2.97.28-3.19,1.82.87-.21,1.74-.44,2.61-.67-.34,1.07-.37,2.61-1.77,2.77-3.15.24-5.33-3.91-3.76-6.55.78-1.21,1.69-2.71,3.25-2.97,2.12,0,4.53.04,6.16,1.62,4.38,4.17,6.39,10.09,7.54,15.88,1.67,8,2.74,16.11,4.37,24.11.62,4.81,1.96,9.48,2.76,14.25,1.76,9.37,4.42,18.58,7.96,27.43,1.99,4.42,3.67,9.07,6.77,12.86-2.2-2.65-5.1-4.63-7.19-7.38-2.74-2.52-5.24-5.27-7.77-8-4.02-5.01-8.28-9.84-11.99-15.1-3.18-4.79-6.07-9.78-8.89-14.78-1.5-2.73-2.58-5.65-3.97-8.43-2.07-3.69-3.7-7.6-5.46-11.44-2.8-6.17-3.77-12.96-6.17-19.26-1.83-7.13-3.69-14.28-4.58-21.6-.31-4.06-1.1-8.15-.61-12.23"/>
      <path class="cls-2" d="M919.16,541.84c3.16-2.56,6.54-4.9,9.25-7.97,3.61-3.42,6.93-7.11,10.11-10.92,3.61-4.09,6.96-8.41,9.85-13.04-.42,3.32-1.85,6.37-2.72,9.58-.9,3.37-2.31,6.59-3.17,9.97-.25,1.69-.72,3.34-1.28,4.95-7.14,3.01-14.36,6.11-22.04,7.44"/>
      <path class="cls-6" d="M770.48,173.95c5.54.8,10.87-1.12,16.25-2.03,4.17-.29,8.3-.94,12.48-1.19,2.17-.08,3.96-1.46,5.85-2.35,2.25-1.06,4.51-2.36,5.9-4.49.85-1.28-.8-3.66,1.22-4.09,2.09.1,3.97,2.31,2.92,4.36-2.11,2.96-5.68,4.27-8.66,6.16,8.21.79,16.87-1.31,23.2-6.76-2.34-1.77-5.04-3-7.86-3.73-4.23-.99-8.14-3.04-12.42-3.79-2.95-.62-5.94.03-8.88.31-8.71,1.68-16.35,6.69-23.3,11.98-2.35,1.73-4.75,3.43-6.71,5.62"/>
      <path class="cls-6" d="M765.35,174.93c2.87-1.07,4.83-3.58,7.27-5.32,4.04-2.93,7.84-6.2,12.26-8.56,3.14-2.02,6.82-3.25,9.52-5.91-8.4,2.25-15.8,7.19-22.23,12.94-2.36,2.19-4.96,4.18-6.82,6.84"/>
      <path class="cls-6" d="M844.71,168.4c-1.02-.12-2.15-.86-3.12-.2-1.73,1.03-3.53,1.95-5.26,2.98,3.01.16,5.88-1.23,8.37-2.79"/>
      <path class="cls-6" d="M834.37,166.66c-4.49-.75-8.08,2.42-12.14,3.66,4.35.68,8.66-1.18,12.14-3.66"/>
      <path class="cls-6" d="M736.69,185.22c2.35.84,4.52-.56,6.7-1.22,3.54-1.06,6.12-3.84,9.17-5.79,3.5-3.06,6.66-6.5,10.18-9.55,3.81-3.9,8.34-6.93,12.83-9.98,1.76-1.23,3.93-2.13,4.97-4.14-4.73-.37-9.62.23-13.92,2.31-3.24,1.57-6.31,3.47-9.35,5.39-6.61,4.6-10.98,11.53-16.66,17.12-1.74,1.63-3.14,3.61-3.93,5.86"/>
      <path class="cls-6" d="M763.04,170.68c-2.4,2.56-5.33,4.68-7.18,7.71,1.02-.58,2-1.22,2.91-1.97,7.89-6.36,15.57-13.07,24.23-18.4,1.06-.66,2.02-1.45,2.84-2.39-2.11.26-4.1,1.09-5.99,2.01-6.08,3.67-11.86,7.92-16.81,13.03"/>
      <path class="cls-6" d="M808.56,171.83c7.69,2.84,15.55,5.24,23,8.7,10.73,4.77,21.46,9.77,31.2,16.38,3.4,2.06,6.44,5.08,10.49,5.79,3.52.61,6.36-2.12,8.81-4.24-2.91-3.41-5.98-6.67-9.09-9.88-1.98-1.86-3.79-3.97-6.17-5.34-4.22-2.52-8.51-4.99-13.2-6.53-5.88-2.57-12.33-3.35-18.64-4.21-8.79-.46-17.6-.97-26.4-.67"/>
      <path class="cls-6" d="M728.69,171.85c-3.91,7.37-8.52,14.32-12.81,21.45,5.23-1.21,9.92-4.04,14.42-6.87,3.65-2.2,6.4-5.5,9.41-8.44,5.7-5.79,10.34-12.87,12.17-20.85-3.69,2.37-7.61,4.31-11.71,5.88-4.29,2.16-9.25,4.29-11.48,8.84"/>
      <path class="cls-6" d="M855.48,194.17c-15.78-9.01-32.45-16.63-49.98-21.52-3.63-.59-7.33-.13-10.98,0,2.52.64,4.99,1.45,7.53,2.01,6.67,1.6,13.04,4.22,19.64,6.07,6.18,2.18,12.35,4.45,18.13,7.56,8.53,4.45,17.02,9,25.19,14.09,2.3,1.24,4.25,3.09,6.7,4.05.66-1.15-.69-1.77-1.39-2.41-4.79-3.5-9.74-6.78-14.84-9.84"/>
      <path class="cls-6" d="M856.55,199.31c-5.23-3.29-10.9-5.81-16.2-9.01-7.81-4.3-16.32-7.06-24.74-9.87-5.74-1.86-11.35-4.17-17.29-5.28-4.46-.91-9-2.23-13.58-1.4,4.1,1.38,8.39,2.08,12.54,3.36,10.37,2.42,20.63,5.48,30.43,9.69,7.39,2.85,14.3,6.75,21.41,10.21,4.96,2.87,9.78,5.98,14.59,9.1,1.38.82,3.23,2.09,4.75.86-3.55-3.17-7.94-5.09-11.9-7.66"/>
      <path class="cls-6" d="M718.46,185.95c3.95-7.34,9.37-14.06,11.36-22.29-1.59.26-3.17.58-4.76.85-.64,3.26-1.85,6.37-2.66,9.6-1,4.05-2.94,7.78-3.95,11.84"/>
      <path class="cls-6" d="M805.13,194.67c9.35,1.2,18.73,2.39,28.16,2.34,3.7-.14,7.42.3,11.11-.3-3.59-2.28-7.54-3.89-11.32-5.84-7.18-3.14-14.37-6.45-22.05-8.22-9.72-3.15-20.01-3.3-30.12-3.78-9.84.39-19.94,1.24-29.08,5.21-1.24.35-2.23,1.18-2.9,2.29,6.08,1.31,12.26,2.01,18.4,2.99,4.06.65,8.2.92,12.16,2.08,8.55,1.08,17.14,1.82,25.64,3.23"/>
      <path class="cls-6" d="M715.97,182.15c3.03-5.35,5.93-10.98,6.71-17.16-1.29.35-2.56.73-3.83,1.15-.65,3.29-1.55,6.53-2.72,9.67-1.93,6.41-5.61,12.09-8.38,18.13,3.29-3.5,5.66-7.75,8.22-11.78"/>
      <path class="cls-6" d="M845.61,199.94c-3.26-.27-6.53.03-9.79-.25-3.48-.37-6.98,0-10.47-.15-8.3.05-16.48-1.5-24.72-2.27-9.38-1.55-18.81-2.78-28.14-4.62-9.64-1.84-19.43-2.58-29.21-3.16-3.57.01-7.36-.3-10.65,1.35,2.25.43,4.55.42,6.82.54,7.24.12,14.5.37,21.7,1.24,5.19.83,10.41,1.46,15.57,2.47,10.62,2.12,21.42,3.06,32.1,4.85,9.75,1.48,19.64.94,29.46.78,2.28.39,4.53.92,6.83,1.2,3.07.39,5.87,1.74,8.85,2.5-.36-.91-.67-1.85-1.29-2.61-2.23-.98-4.67-1.41-7.04-1.86"/>
      <path class="cls-6" d="M666.98,211.15c-.9,2.41-1.07,5.05-1.18,7.61.18,2.15,2.63,2.64,4.36,2.1,5.1-1.93,9.17-5.67,13.64-8.66,4.26-3.12,9.12-5.36,12.98-9,4.39-2.98,7.3-7.52,10.08-11.91,2.83-6.42,4.44-13.37,4.77-20.38-5.21,1.03-9.98,3.48-14.69,5.83-5.9,3.21-11.32,7.4-15.69,12.52-5.93,6.42-10.85,13.83-14.27,21.89"/>
      <path class="cls-6" d="M745.43,194.89c-8.76-.45-17.72-1.34-26.33.88-5,.86-9.59,3.16-13.91,5.75,4.45-.48,8.86-1.24,13.33-1.42,5.25-.13,10.46-.88,15.7-1.14,8.18-.24,16.41.06,24.49,1.38,8.82,1.76,17.56,3.92,26.24,6.25,7.44,1.38,14.69,4.8,22.4,3.94,3.15-.41,6.35-.62,9.41-1.5-5.62-2.23-11.29-4.45-17.21-5.76-17.58-5.16-35.88-7.63-54.15-8.4"/>
      <path class="cls-6" d="M639.88,244.86c6.49-7.42,11.79-15.78,17.12-24.04,4.81-9,10.99-17.15,16.89-25.45,1.81-2.77,4.46-4.87,6.23-7.65-.39-3.89,1.5-7.37,3.16-10.74-5.98,2.23-11.15,6.04-16.27,9.75-7.55,6.05-13.84,13.67-18.36,22.23-4.09,9.06-6.64,18.73-8.52,28.47-.7,2.42-.53,4.95-.26,7.43"/>
      <path class="cls-6" d="M797.24,213.14c-3.98-1.63-7.91-3.44-12.12-4.42-4.27-1.47-8.64-2.61-13.06-3.51-8.88-1.3-17.71-3.35-26.72-3.44-5.77-.29-11.51.59-17.27.73-4.62-.02-9.27-.21-13.85.51-4.61.59-9.3,1.1-13.65,2.82,7.1-.77,14.15-1.95,21.29-2.34,5.2-.44,10.4-.15,15.6,0,14.21.43,28.17,3.45,41.89,6.96,5.3,1.43,10.39,3.47,15.56,5.3,1.22.47,2.55.6,3.86.56,1.02-1.3-.44-2.56-1.52-3.16"/>
      <path class="cls-6" d="M792.44,216.74c-13.46-5.61-27.84-8.56-42.21-10.68-12.94-1.33-26.08-1.97-38.98.03-4.56.39-9.22.72-13.45,2.64.9.24,1.8.39,2.72.43,10.06-.56,20.12-1.45,30.21-1.1,10.2-.03,20.35,1.19,30.4,2.8,7.93,1.19,15.63,3.54,23.33,5.7,3.52.95,6.88,2.92,10.61,2.78-.52-1.22-1.33-2.23-2.64-2.6"/>
      <path class="cls-6" d="M630.45,253.28c3.46-8.85,5.36-18.21,7.67-27.4-.52-.41-1.03-.81-1.54-1.2.32-1.67.4-3.36.36-5.05-.63-.45-1.27-.9-1.9-1.33.56,2.98,1.46,6.02.87,9.08-.64,3.46-1.47,6.88-2.36,10.29-3.83,11.62-10.57,21.93-16.9,32.3-1.41,2.43-3.41,4.46-4.74,6.94,2.39-2.47,4.45-5.25,6.65-7.89,3.78-5.4,9.16-9.65,11.91-15.74"/>
      <path class="cls-6" d="M750.22,256.83c-8.21-2.63-16.51-5.02-24.99-6.62-9.82-2.3-19.77-4.08-29.79-5.22-7.32-1.07-14.74-1.42-22.12-1.1-3.52-.04-7.06-.35-10.56.24-7.45.46-15.4,1.78-21.18,6.89-6.37,6.61-13.14,12.96-18.23,20.67,1.62.17,3.28.12,4.79-.56,10.24-4.21,20.57-8.44,31.47-10.63,7.49-1.57,15.08-2.56,22.68-3.45,7.16-.7,14.38-1.21,21.56-.51,8.94.86,17.5,3.81,25.77,7.19,4.34,1.42,8.37,3.58,12.33,5.82.38-1.95.38-4.17,1.85-5.69,2.38-2.78,5.96-3.96,9.39-4.84-.98-.75-1.87-1.65-2.97-2.21"/>
      <path class="cls-6" d="M625.53,283.44c6.05-2.79,12.38-4.92,18.76-6.78,4.44-1.67,9.12-2.57,13.66-3.91,9.64-2.93,19.78-3.25,29.77-3.84,14.47-.41,29.14,2.26,42.28,8.4,2,.59,4.07.95,6.1,1.41,2.3.46,4.44-.69,6.52-1.47-1.81-1.39-3.43-3.02-5.28-4.36-7.17-5.36-15.69-8.71-24.4-10.57-4.3-1.53-8.86-2.03-13.39-2.37-6.03-.23-12.11-.64-18.1.35-8.8,1.26-17.59,2.68-26.27,4.63-8.69,2.61-17.39,5.37-25.59,9.3-2.27,1.04-4.3,2.55-6.6,3.54-2.97,1.5-5.57,3.62-8.3,5.49-1.41.91-2.48,2.22-3.23,3.72.97.26,1.95.98,2.99.62,3.78-1.14,7.47-2.58,11.08-4.17"/>
      <path class="cls-6" d="M602.04,328.1c14.57-9.22,32.62-11.19,49.43-8.87,6.6,1.26,13.29,3.2,18.73,7.29,1.29,1.12,3.03,2.25,3.03,4.16-.34.86-1.01,1.56-1.53,2.33-1.42-.39-2.94-.52-4.27-1.17-3.17-2.07-6.51-3.88-9.71-5.9-7.28-2.89-15.12-4.83-23.01-4.42-6,.08-11.94,1.19-17.72,2.76,5.84.07,11.73-.31,17.52.71,3.63.77,7.42.82,10.88,2.27,4.39,1.1,8.59,2.76,12.82,4.35,6.76,2.42,13.11,6.01,18.66,10.58,2.53-1.85,4.22-5.2,3.34-8.32-.9-2.32-2.95-3.93-4.03-6.16,2.53-1.95,5.54-3.05,8.39-4.4.89-.32,1.31-1.14,1.16-2.05-1.43-2.91-5.29-3.73-6.38-6.85,3.63-.57,7.23-1.35,10.9-1.68,5.99-.57,11.64-2.88,16.95-5.58,7.03-4.55,12.8-10.7,18.18-17.04,1.39-1.83,3.19-3.69,3.18-6.14-.9-3.7-4.48-5.76-7.41-7.74-2.96-2.08-6.57-2.69-10.02-3.5-13.15-3.01-26.75-2.2-40.06-.92-7.38.87-14.5,3.08-21.51,5.45-13.57,3.91-26.52,10.02-38.09,18.13-4.83,3.24-10.11,6.68-12.53,12.21,2.17-1.03,3.9-2.72,5.86-4.07,8.83-6.76,18.85-11.67,28.83-16.47,4.86-1.93,9.68-4,14.72-5.42,7.38-2.19,14.7-5.04,22.46-5.48,3.41-.16,6.88-.99,10.26-.14,2.81.68,5.85,1.42,7.92,3.59,1.57,1.85,2.79,4.53,1.62,6.9-.67,1.93-2.9,2.48-4.69,2.82-1.59-.18-3.02-1.19-4.04-2.38-1.37-1.67.16-4.53,2.31-4.34,1.23-.3,2.03.8,2.93,1.43-1.29.43-2.6.76-3.91,1.11.67,1.68,2.82,2.43,4.38,1.49,1.78-.81,1.7-3.27.71-4.66-1.32-2.46-4.15-3.45-6.71-4.06-3.34-.98-6.79,0-10.18.04-3.89.08-7.69.97-11.41,2.04-11.88,3.56-23.93,7.06-34.8,13.17-6.46,3.19-12.77,6.71-18.55,11.04-5.62,4.14-10.29,9.51-13.83,15.52,4.3-2.07,8.43-4.55,13.08-5.78,5.29-1.34,10.58-2.73,16.03-3.14,5.57-.38,11.11-1.22,16.71-1.04,8.32.03,16.62-.55,24.9-1.36,11.32-.98,22.51-3.33,33.32-6.82,6.99-2,13.9-4.75,19.66-9.28,2.22-1.52,4.13-3.66,6.88-4.21-.79,1.34-1.65,2.65-2.78,3.74-4.23,3.81-8.56,7.64-13.8,10.03-4.59,2.8-9.77,4.32-14.77,6.18-7.61,2.67-15.54,4.31-23.52,5.34-13.09,1.37-26.27.12-39.39.72-7.08.33-14.1,2.08-20.57,4.97-5.69,2.92-10.71,6.95-15.55,11.09-3.6,3.49-7.16,7.18-9.55,11.63,2.09-2.19,4.12-4.46,6.42-6.43,3.57-3.15,7.98-5,12.13-7.23"/>
      <path class="cls-4" d="M800.49,156.35c2.94-.28,5.94-.94,8.88-.32,4.28.76,8.19,2.8,12.42,3.79,2.83.73,5.52,1.96,7.86,3.73-6.33,5.45-14.99,7.55-23.2,6.76,2.98-1.89,6.55-3.2,8.66-6.15,1.04-2.05-.83-4.26-2.93-4.36-2.03.43-.38,2.81-1.23,4.09-1.39,2.13-3.65,3.43-5.9,4.49-1.9.88-3.68,2.27-5.85,2.35-4.17.25-8.3.9-12.47,1.19-5.38.91-10.71,2.83-16.26,2.02,1.96-2.19,4.36-3.89,6.71-5.62,6.96-5.29,14.59-10.3,23.3-11.98"/>
      <path class="cls-4" d="M780.91,178.88c10.1.48,20.4.63,30.12,3.78,7.68,1.77,14.86,5.08,22.05,8.22,3.77,1.95,7.72,3.55,11.32,5.84-3.68.6-7.4.15-11.11.3-9.43.05-18.81-1.13-28.16-2.34-8.5-1.41-17.09-2.15-25.64-3.23-3.96-1.16-8.1-1.43-12.16-2.08-6.13-.98-12.32-1.67-18.4-2.99.67-1.1,1.66-1.93,2.9-2.29,9.14-3.97,19.24-4.82,29.08-5.21"/>
      <path class="cls-3" d="M784.88,161.06c-4.42,2.36-8.22,5.63-12.26,8.56-2.45,1.74-4.4,4.24-7.27,5.32,1.86-2.66,4.46-4.65,6.82-6.84,6.43-5.75,13.82-10.69,22.23-12.94-2.7,2.67-6.37,3.9-9.52,5.91"/>
      <path class="cls-9" d="M785.84,155.64c-.82.94-1.79,1.73-2.84,2.39-8.66,5.34-16.34,12.05-24.23,18.4-.9.75-1.89,1.38-2.91,1.97,1.85-3.03,4.78-5.15,7.18-7.71,4.95-5.12,10.73-9.36,16.81-13.03,1.9-.93,3.89-1.75,5.99-2.01"/>
      <path class="cls-2" d="M757.28,162.23c3.04-1.92,6.11-3.82,9.35-5.39,4.3-2.09,9.19-2.68,13.92-2.32-1.03,2.01-3.21,2.91-4.97,4.14-4.49,3.05-9.02,6.09-12.83,9.98-3.52,3.04-6.68,6.49-10.18,9.55-3.04,1.95-5.62,4.73-9.17,5.79-2.18.66-4.35,2.06-6.7,1.22.79-2.26,2.19-4.23,3.93-5.86,5.68-5.59,10.04-12.52,16.66-17.12"/>
      <path class="cls-4" d="M740.17,163.01c4.1-1.57,8.02-3.51,11.71-5.88-1.83,7.98-6.48,15.07-12.17,20.85-3.01,2.94-5.76,6.24-9.41,8.44-4.5,2.83-9.19,5.66-14.42,6.87,4.29-7.13,8.9-14.08,12.81-21.45,2.23-4.55,7.19-6.68,11.48-8.84"/>
      <path class="cls-9" d="M718.85,166.13c1.27-.41,2.54-.79,3.83-1.14-.78,6.18-3.67,11.81-6.71,17.16-2.56,4.03-4.93,8.28-8.22,11.78,2.77-6.04,6.45-11.71,8.38-18.13,1.18-3.14,2.07-6.38,2.72-9.66"/>
      <path class="cls-2" d="M696.94,176.74c4.71-2.35,9.49-4.81,14.7-5.83-.33,7-1.95,13.95-4.78,20.38-2.78,4.4-5.69,8.94-10.08,11.91-3.86,3.64-8.72,5.88-12.98,9-4.47,2.99-8.54,6.73-13.64,8.66-1.73.54-4.18.04-4.37-2.1.11-2.56.28-5.2,1.18-7.61,3.42-8.06,8.35-15.46,14.28-21.89,4.37-5.12,9.79-9.32,15.68-12.52"/>
      <path class="cls-3" d="M648.65,208.96c4.51-8.56,10.81-16.18,18.35-22.23,5.12-3.7,10.29-7.52,16.27-9.75-1.66,3.37-3.55,6.85-3.16,10.74-1.77,2.78-4.42,4.88-6.23,7.65-5.9,8.29-12.08,16.45-16.89,25.45-5.34,8.26-10.63,16.61-17.13,24.04-.27-2.47-.44-5.01.26-7.43,1.88-9.74,4.43-19.41,8.52-28.47"/>
      <path class="cls-2" d="M725.38,290.11c-5.38,6.34-11.15,12.49-18.17,17.04-5.32,2.7-10.96,5.01-16.95,5.58-3.67.34-7.26,1.11-10.9,1.68,1.08,3.12,4.95,3.95,6.38,6.85.15.91-.27,1.73-1.16,2.05-2.85,1.35-5.86,2.45-8.39,4.4,1.08,2.23,3.13,3.84,4.03,6.16.88,3.13-.8,6.48-3.34,8.32-5.55-4.56-11.9-8.15-18.66-10.58-4.23-1.59-8.43-3.25-12.82-4.35-3.46-1.45-7.25-1.5-10.88-2.26-5.79-1.02-11.68-.64-17.52-.71,5.78-1.57,11.72-2.68,17.72-2.76,7.89-.41,15.73,1.53,23.01,4.42,3.21,2.01,6.54,3.82,9.71,5.9,1.33.65,2.85.78,4.27,1.17.52-.77,1.19-1.46,1.53-2.32,0-1.91-1.75-3.03-3.03-4.16-5.44-4.09-12.13-6.04-18.73-7.29-16.81-2.32-34.86-.36-49.43,8.87-4.15,2.23-8.56,4.08-12.13,7.23-2.3,1.97-4.34,4.24-6.42,6.43,2.39-4.45,5.95-8.14,9.55-11.63,4.84-4.14,9.87-8.17,15.55-11.09,6.47-2.89,13.48-4.64,20.57-4.97,13.12-.59,26.29.65,39.39-.71,7.98-1.03,15.91-2.67,23.52-5.34,5-1.86,10.18-3.37,14.77-6.18,5.23-2.39,9.56-6.22,13.79-10.03,1.13-1.09,2-2.4,2.79-3.74-2.75.54-4.66,2.68-6.88,4.2-5.76,4.53-12.67,7.28-19.66,9.29-10.81,3.49-22,5.83-33.32,6.82-8.28.82-16.58,1.4-24.91,1.36-5.59-.17-11.14.67-16.71,1.04-5.45.41-10.74,1.8-16.03,3.14-4.65,1.23-8.79,3.71-13.08,5.78,3.54-6,8.2-11.38,13.83-15.52,5.78-4.33,12.1-7.85,18.55-11.04,10.87-6.11,22.92-9.61,34.8-13.17,3.72-1.07,7.52-1.96,11.41-2.04,3.39-.03,6.84-1.02,10.18-.04,2.55.61,5.38,1.6,6.7,4.06.99,1.4,1.07,3.85-.71,4.66-1.57.95-3.71.19-4.38-1.48,1.31-.35,2.62-.68,3.91-1.11-.9-.62-1.71-1.73-2.93-1.43-2.15-.19-3.68,2.68-2.31,4.35,1.02,1.19,2.45,2.2,4.04,2.38,1.79-.34,4.02-.89,4.68-2.82,1.17-2.37-.05-5.05-1.62-6.9-2.07-2.16-5.11-2.9-7.92-3.59-3.39-.85-6.85-.02-10.26.14-7.76.44-15.08,3.29-22.46,5.48-5.04,1.43-9.86,3.5-14.72,5.42-9.97,4.8-20,9.71-28.82,16.47-1.96,1.35-3.7,3.04-5.87,4.07,2.42-5.53,7.7-8.98,12.53-12.21,11.57-8.12,24.51-14.22,38.09-18.13,7.01-2.37,14.13-4.58,21.51-5.44,13.31-1.27,26.91-2.09,40.06.92,3.45.81,7.06,1.42,10.02,3.5,2.93,1.99,6.51,4.04,7.41,7.74,0,2.45-1.79,4.31-3.18,6.14"/>
      <path class="cls-4" d="M736.1,278.72c-2.03-.46-4.1-.81-6.1-1.4-13.14-6.14-27.81-8.8-42.28-8.4-9.99.59-20.13.9-29.77,3.84-4.54,1.35-9.22,2.24-13.66,3.91-6.39,1.85-12.72,3.99-18.76,6.78-3.61,1.59-7.3,3.03-11.08,4.17-1.04.36-2.02-.37-2.99-.62.75-1.49,1.82-2.8,3.23-3.72,2.73-1.88,5.33-3.99,8.3-5.49,2.3-.99,4.32-2.5,6.59-3.54,8.21-3.93,16.9-6.69,25.6-9.3,8.68-1.95,17.47-3.37,26.27-4.64,5.98-.99,12.07-.58,18.1-.35,4.53.34,9.1.84,13.39,2.37,8.72,1.86,17.23,5.2,24.4,10.57,1.86,1.34,3.47,2.97,5.28,4.36-2.08.77-4.22,1.93-6.52,1.47"/>
      <path class="cls-9" d="M743.79,263.88c-1.47,1.52-1.47,3.74-1.85,5.69-3.96-2.24-7.98-4.4-12.33-5.82-8.27-3.38-16.82-6.33-25.77-7.19-7.18-.7-14.4-.19-21.56.51-7.6.89-15.2,1.88-22.68,3.45-10.9,2.19-21.23,6.42-31.47,10.63-1.51.68-3.17.73-4.79.56,5.08-7.71,11.86-14.06,18.23-20.67,5.78-5.11,13.73-6.42,21.18-6.89,3.49-.59,7.03-.28,10.56-.24,7.38-.32,14.8.03,22.12,1.09,10.03,1.14,19.97,2.91,29.79,5.22,8.48,1.6,16.78,3.99,24.99,6.62,1.1.56,1.99,1.46,2.97,2.21-3.43.88-7.01,2.06-9.39,4.84"/>
      <path class="cls-4" d="M784.47,216.56c-7.71-2.16-15.4-4.51-23.33-5.7-10.05-1.61-20.2-2.83-30.4-2.8-10.09-.35-20.15.54-30.21,1.1-.92-.05-1.82-.19-2.72-.44,4.23-1.92,8.89-2.25,13.45-2.64,12.9-2,26.04-1.36,38.98-.03,14.37,2.12,28.76,5.07,42.21,10.68,1.32.37,2.13,1.37,2.64,2.6-3.73.14-7.09-1.83-10.61-2.78"/>
      <path class="cls-9" d="M798.76,216.3c-1.3.04-2.63-.09-3.86-.56-5.16-1.83-10.26-3.87-15.55-5.3-13.72-3.52-27.69-6.54-41.89-6.96-5.2-.15-10.4-.44-15.6,0-7.13.39-14.19,1.57-21.29,2.34,4.35-1.72,9.04-2.23,13.65-2.82,4.58-.72,9.23-.53,13.85-.51,5.76-.13,11.5-1.02,17.27-.73,9.02.09,17.84,2.14,26.72,3.44,4.42.89,8.79,2.04,13.06,3.51,4.21.98,8.14,2.79,12.12,4.42,1.08.6,2.54,1.86,1.52,3.16"/>
      <path class="cls-2" d="M807.38,210.54c-7.72.86-14.96-2.57-22.4-3.95-8.69-2.33-17.42-4.49-26.25-6.25-8.09-1.33-16.32-1.62-24.5-1.38-5.24.26-10.45,1.01-15.7,1.14-4.47.18-8.89.94-13.33,1.42,4.32-2.58,8.91-4.88,13.91-5.74,8.6-2.22,17.56-1.33,26.32-.88,18.28.77,36.57,3.23,54.15,8.39,5.92,1.31,11.59,3.53,17.2,5.76-3.07.88-6.26,1.09-9.41,1.5"/>
      <path class="cls-3" d="M845.1,201.91c-2.3-.28-4.55-.81-6.83-1.2-9.82.16-19.71.71-29.46-.78-10.68-1.79-21.48-2.73-32.1-4.85-5.16-1.01-10.38-1.65-15.57-2.47-7.2-.87-14.46-1.12-21.7-1.24-2.27-.12-4.57-.11-6.82-.54,3.29-1.65,7.08-1.34,10.65-1.35,9.78.58,19.58,1.32,29.21,3.16,9.33,1.84,18.76,3.07,28.14,4.62,8.24.77,16.42,2.33,24.72,2.28,3.49.15,6.98-.21,10.46.15,3.26.28,6.54-.02,9.8.25,2.38.45,4.81.88,7.04,1.86.63.76.93,1.7,1.29,2.61-2.97-.76-5.78-2.11-8.84-2.5"/>
      <path class="cls-4" d="M863.7,206.12c-4.81-3.12-9.63-6.23-14.59-9.1-7.11-3.46-14.02-7.36-21.41-10.21-9.8-4.21-20.06-7.27-30.43-9.7-4.14-1.28-8.43-1.98-12.54-3.36,4.58-.82,9.12.49,13.58,1.4,5.94,1.11,11.56,3.42,17.29,5.28,8.42,2.81,16.93,5.57,24.74,9.87,5.3,3.2,10.97,5.71,16.2,9.01,3.96,2.57,8.34,4.49,11.9,7.66-1.53,1.23-3.37-.04-4.75-.86"/>
      <path class="cls-3" d="M871.7,206.42c-2.45-.96-4.41-2.8-6.7-4.05-8.17-5.09-16.66-9.64-25.19-14.09-5.78-3.11-11.95-5.38-18.13-7.56-6.6-1.85-12.96-4.47-19.64-6.07-2.54-.56-5.01-1.37-7.53-2.01,3.66-.13,7.35-.59,10.98,0,17.53,4.89,34.2,12.51,49.98,21.52,5.09,3.05,10.05,6.34,14.84,9.84.7.65,2.05,1.26,1.39,2.41"/>
      <path class="cls-3" d="M873.25,202.7c-4.05-.71-7.09-3.73-10.49-5.79-9.74-6.61-20.47-11.61-31.2-16.38-7.45-3.46-15.32-5.86-23-8.7,8.8-.3,17.61.21,26.4.67,6.31.86,12.75,1.64,18.64,4.21,4.68,1.54,8.98,4.02,13.2,6.54,2.38,1.37,4.18,3.47,6.17,5.33,3.11,3.21,6.18,6.47,9.09,9.88-2.45,2.12-5.29,4.86-8.81,4.24"/>
      <path class="cls-2" d="M782.5,227.24c-.28,2.42-1.98,4.21-3.53,5.94-3.27,3.74-6.79,7.29-10.61,10.48-4.72,2.6-9.98,4.21-15.32,4.92-4.18.64-8.42,1.49-12.65.93-3.79-.8-7.7-.5-11.51-1.13-5.71-.58-11.23-2.21-16.88-3.08-8.92-1.19-17.72-3.3-26.74-3.67-8.44-.13-16.93-.74-25.34.33-3.35.15-6.7,1.08-10.06.58,2.97-2.67,6.96-3.68,10.63-5,7.08-1.26,14.29-1.99,21.5-1.53,6.65-.08,13.21,1.07,19.79,1.89,9.68,1.62,19.37,3.2,29.14,4.23,9.82,1.35,20.43,1.97,29.61-2.43,2.96-1.26,5.21-3.74,6.68-6.55,1.47-3.47-.41-7.21-2.57-9.93-3.44-4.51-11.46-3.56-13.96,1.46-1.27,2.23-.36,5.25,1.59,6.78,1.7.6,3.63-.18,5.01-1.2,1.1-1.8-.46-4.48-2.63-3.93.37.99.76,1.99,1.13,2.99-.91.17-1.82.4-2.74.51-1.03-1.23-1.27-3.04-.44-4.43,2.19-3.67,8.18-4.52,10.82-.86,1.7,2.34,3.79,5.71,1.74,8.48-2.79,4.7-8.25,6.61-13.3,7.7-4.51.76-9.11.76-13.66.6-7.77-1.02-15.59-1.64-23.3-3.06-7.53-.97-14.98-2.57-22.57-3.05-6.66-1.11-13.44-1.01-20.16-.94-5.08.11-10.01,1.57-15.07,1.73,4.07-3.4,8.16-6.77,12.38-9.97,5.87-5.75,13.16-9.77,20.5-13.33,5.8-1.81,11.93-2.1,17.94-2.61,5.06.15,10.11-.87,15.16-.1,11.87.68,23.69,2.27,35.32,4.78,7.59,1.76,15.4,3.6,21.92,8.08,1.27,1.08,3.09,2.5,2.2,4.39"/>
      <polygon class="cls-4" points="396.03 653.37 1203.32 653.37 1205.62 650.03 398.33 650.03 396.03 653.37"/>
      <path class="cls-8" d="M430.2,716.12c-.67-3.23-1.34-4.91-2.08-6.05-1.14-1.55-2.22-2.08-7.33-2.08h-4.7v33.14c0,5.24.54,5.98,6.86,6.38v1.88h-19.22v-1.88c6.11-.4,6.65-1.08,6.65-6.38v-33.14h-4.17c-5.58,0-6.92.54-7.8,2.08-.81,1.14-1.34,3.09-2.15,6.05h-1.95c.34-4.1.67-8.47.81-12.1h1.34c.94,1.55,1.82,1.68,3.7,1.68h26.55c1.82,0,2.35-.4,3.36-1.68h1.41c.07,3.03.34,8,.74,11.9l-2.02.2Z"/>
      <path class="cls-8" d="M496.35,707.58c-5.51.47-6.05.81-6.05,6.39v27.16c0,5.65.54,5.98,5.98,6.38v1.88h-18.01v-1.88c5.78-.4,6.32-.74,6.32-6.38v-13.38h-22.92v13.38c0,5.58.54,5.98,6.05,6.38v1.88h-17.68v-1.88c5.38-.4,5.92-.74,5.92-6.38v-27.16c0-5.65-.54-5.98-6.05-6.39v-1.88h17.41v1.88c-5.11.4-5.65.81-5.65,6.39v10.89h22.92v-10.89c0-5.58-.54-5.92-5.78-6.39v-1.88h17.55v1.88Z"/>
      <path class="cls-8" d="M548.99,738.77c-.4,2.22-1.75,8.54-2.35,10.62h-32.4v-1.88c6.12-.47,6.66-1.01,6.66-6.52v-26.75c0-5.98-.54-6.25-5.78-6.72v-1.82h29.98c0,1.62.34,6.18.54,9.68l-1.95.27c-.6-2.82-1.28-4.3-2.15-5.72-.94-1.48-2.76-1.95-7.6-1.95h-5.11c-2.08,0-2.22.2-2.22,2.15v15.33h6.32c6.12,0,6.45-.54,7.26-5.04h1.95v12.84h-1.95c-.88-4.77-1.34-5.18-7.19-5.18h-6.39v12.71c0,3.16.4,4.64,1.61,5.45,1.28.87,3.63.87,6.99.87,5.11,0,6.99-.54,8.47-2.29,1.14-1.35,2.42-3.63,3.36-6.32l1.95.27Z"/>
      <path class="cls-8" d="M632.88,749.86h-5.78l-24.87-31.73h-.14v12.37c0,7.06.27,10.76.54,12.84.34,2.35,2.15,3.23,6.59,3.43v2.62h-16.74v-2.62c2.96-.14,4.7-1.08,5.04-3.43.27-2.08.54-5.78.54-12.84v-12.37c0-4.98-.13-5.85-1.48-7.73-1.01-1.41-2.69-1.88-5.11-2.08v-2.62h14.85l22.38,27.9h.14v-9.01c0-7.06-.27-10.75-.54-12.84-.34-2.35-2.15-3.23-6.59-3.43v-2.62h17.14v2.62c-3.36.13-5.11,1.07-5.44,3.43-.27,2.08-.54,5.78-.54,12.84v25.28Z"/>
      <path class="cls-8" d="M671.07,746.77l2.02-.27c2.49-.34,2.62-1.01,1.75-3.43l-2.42-6.86h-11.02l-2.02,6.45c-.87,2.89-.87,3.56,2.22,3.9l1.95.2v2.62h-15.66v-2.62c3.43-.47,4.44-.74,6.66-6.39l13.44-34.75,4.64-.94,4.57,12.7c2.89,8,5.78,15.93,8.34,22.79,2.15,5.85,3.36,6.18,6.66,6.59v2.62h-21.11v-2.62ZM662.53,732.18h8.6l-4.23-12.84h-.2l-4.17,12.84Z"/>
      <path class="cls-8" d="M725.32,738.64c0,7.26.54,7.73,6.18,8.13v2.62h-23.53v-2.62c5.38-.4,5.91-.88,5.91-8.13v-29.44h-1.14c-4.5,0-6.32.81-7.4,2.02-.81,1.01-1.61,2.76-2.49,6.52h-2.83c.27-5.65.67-10.28.81-13.71h2.08c1.01,1.55,1.68,1.68,3.5,1.68h26.82c1.75,0,2.09-.4,3.16-1.68h2.08c.07,2.83.4,8.54.74,13.51l-2.96.2c-1.01-4.03-1.75-5.78-2.76-6.92-1.14-1.21-3.36-1.61-6.59-1.61h-1.61v29.44Z"/>
      <path class="cls-8" d="M788.98,718.54c-2.15-8.2-6.32-10.35-11.09-10.35-8.07,0-13.04,8.74-13.04,18.42,0,12.37,6.05,20.3,12.97,20.3,5.85,0,9.21-3.76,12.64-11.16l2.96.47c-.88,3.96-2.49,9.75-3.63,12.3-1.68.47-7.73,1.88-12.23,1.88-18.08,0-25.21-11.43-25.21-22.25,0-13.91,10.89-23.46,26.42-23.46,5.58,0,10.08,1.34,11.96,1.75.54,3.7.81,6.65,1.21,11.7l-2.96.4Z"/>
      <path class="cls-8" d="M839.8,724.25v-7.8c0-7.26-.54-7.73-4.77-8.13v-2.62h21.51v2.62c-4.77.4-5.31.87-5.31,8.13v22.18c0,7.26.54,7.73,5.18,8.13v2.62h-21.92v-2.62c4.77-.4,5.31-.87,5.31-8.13v-10.22h-13.91v10.22c0,7.26.54,7.73,4.91,8.13v2.62h-21.51v-2.62c4.64-.4,5.18-.87,5.18-8.13v-22.18c0-7.26-.54-7.73-5.44-8.13v-2.62h21.51v2.62c-4.1.4-4.64.87-4.64,8.13v7.8h13.91Z"/>
      <path class="cls-8" d="M879.19,716.45c0-7.26-.54-7.73-5.04-8.13v-2.62h31.86c.07,1.14.4,6.05.74,11.09l-2.96.2c-.67-3.29-1.41-5.17-2.49-6.25-1.08-1.14-3.29-1.54-6.86-1.54h-1.14c-2.55,0-2.69,0-2.69,2.35v12.97h3.36c5.78,0,5.98-.4,6.65-5.51h2.96v15.86h-2.96c-.67-5.91-.87-6.32-6.65-6.32h-3.36v10.96c0,3.5.14,5.18,1.34,5.78,1.08.54,2.62.6,4.71.6,2.69,0,5.65-.4,7.13-2.01,1.14-1.21,2.29-3.7,3.29-6.92l2.96.47c-.34,3.3-1.75,10.15-2.35,11.97h-34.22v-2.62c5.18-.4,5.72-.87,5.72-8.13v-22.18Z"/>
      <path class="cls-8" d="M939.29,745.49c1.48.27,3.9.4,6.99.4,4.44,0,9.28-.4,11.09-2.01,1.61-1.41,2.76-3.57,4.03-7.13l2.96.54c-.47,3.16-1.68,9.82-2.42,12.1h-36.77l-.61-1.14,23.93-39.05h-6.45c-5.98,0-7.8.81-8.87,2.02-.81,1.01-1.61,2.89-2.42,6.45l-2.89-.27c.27-5.31.67-9.95.81-13.38h1.82c1.01,1.55,1.68,1.68,3.49,1.68h28.1l.74.94-23.53,38.85Z"/>
      <path class="cls-8" d="M1054.04,707.58c-5.51.47-6.05.81-6.05,6.39v27.16c0,5.65.54,5.98,5.98,6.38v1.88h-18.01v-1.88c5.78-.4,6.32-.74,6.32-6.38v-13.38h-22.93v13.38c0,5.58.54,5.98,6.05,6.38v1.88h-17.68v-1.88c5.38-.4,5.92-.74,5.92-6.38v-27.16c0-5.65-.54-5.98-6.05-6.39v-1.88h17.41v1.88c-5.11.4-5.65.81-5.65,6.39v10.89h22.93v-10.89c0-5.58-.54-5.92-5.79-6.39v-1.88h17.55v1.88Z"/>
      <path class="cls-8" d="M1096.26,749.39v-1.88c4.23-.54,4.84-1.08,3.96-3.7-.87-2.62-2.22-6.25-3.69-10.35h-14.32c-1.08,3.02-2.08,5.85-2.96,8.6-1.41,4.3-.87,4.91,4.24,5.45v1.88h-14.66v-1.88c4.3-.61,5.24-1.01,7.53-6.99l13.91-35.22,2.09-.6c4.17,11.49,8.67,24.33,12.97,35.96,2.09,5.78,3.03,6.39,7.4,6.86v1.88h-16.47ZM1089.67,713.43h-.13c-2.16,5.71-4.24,11.63-6.32,17.14h12.37l-5.92-17.14Z"/>
      <path class="cls-8" d="M1159.99,738.84c-.41,2.08-1.82,8.47-2.42,10.55h-30.46v-1.88c5.65-.4,6.19-.87,6.19-6.59v-26.89c0-5.71-.4-6.05-5.92-6.45v-1.88h17.55v1.88c-5.31.4-5.92.74-5.92,6.45v26.55c0,3.63.34,4.98,1.55,5.65,1.34.74,3.63.87,6.45.87,3.7,0,5.98-.34,7.53-2.08,1.21-1.35,2.42-3.5,3.43-6.59l2.02.4Z"/>
      <path class="cls-8" d="M1204.15,715.78c-.6-2.62-1.01-3.96-1.88-5.38-1.14-1.88-2.55-2.42-7.66-2.42h-5.11c-2.02,0-2.22.2-2.22,2.15v16h6.92c6.12,0,6.46-.61,7.26-4.97h1.95v12.97h-1.95c-.8-4.64-1.14-5.38-7.26-5.38h-6.92v12.17c0,5.78.54,6.18,6.65,6.59v1.88h-18.28v-1.88c5.38-.4,5.92-.81,5.92-6.59v-26.82c0-5.85-.54-6.12-5.72-6.52v-1.88h29.58c.07,2.42.4,6.66.67,9.88l-1.95.2Z"/>
    </g>
  </g>
</svg>