<?xml version="1.0" encoding="utf-8"?>
<!-- Generator: Adobe Illustrator 26.2.1, SVG Export Plug-In . SVG Version: 6.00 Build 0)  -->
<svg version="1.1" id="Layer_1" xmlns="http://www.w3.org/2000/svg" xmlns:xlink="http://www.w3.org/1999/xlink" x="0px" y="0px"
	 viewBox="0 0 1024 1024" style="enable-background:new 0 0 1024 1024;" xml:space="preserve">
<circle cx="277.4" cy="258.2" r="87.7"/>
<path d="M339.9,382.2H215.6h-0.7h-27.6c-8,0-14.4,6.5-14.4,14.4v28.2c0,8,6.5,14.4,14.4,14.4h14.1v400.8c0,7.4,6,13.4,13.4,13.4
	h124.9c7.4,0,13.4-6,13.4-13.4V395.7C353.3,388.2,347.3,382.2,339.9,382.2z"/>
<path d="M616.3,205.6H424.8c-8,0-14.4,6.5-14.4,14.4v463.7c0,8.1,6.5,14.6,14.6,14.6h117.4c7.2,0,13-5.8,13-13v-346c0-3.9,3.2-7,7-7
	h53.9c101.5,0,144.1,74.5,144.1,197.3c0,122.8-42.5,197.3-144.1,197.3h-42.2h-18.7H425c-8.1,0-14.6,6.6-14.6,14.6v97.6
	c0,8,6.5,14.4,14.4,14.4h191.6c170.2,0,292.1-89.9,292.1-324C908.4,296.5,788.5,205.6,616.3,205.6z"/>
</svg>
