<?xml version="1.0" standalone="no"?>
<!DOCTYPE svg PUBLIC "-//W3C//DTD SVG 20010904//EN"
 "http://www.w3.org/TR/2001/REC-SVG-20010904/DTD/svg10.dtd">
<svg version="1.0" xmlns="http://www.w3.org/2000/svg"
 width="1024.000000pt" height="1024.000000pt" viewBox="0 0 1024.000000 1024.000000"
 preserveAspectRatio="xMidYMid meet">
<metadata>
Created by potrace 1.14, written by Peter Selinger 2001-2017
</metadata>
<g transform="translate(0.000000,1024.000000) scale(0.100000,-0.100000)"
fill="#000000" stroke="none">
<path d="M0 5120 l0 -5120 5120 0 5120 0 0 5120 0 5120 -5120 0 -5120 0 0
-5120z m5265 3620 c212 -21 371 -66 570 -164 453 -223 765 -633 867 -1138 32
-162 33 -443 0 -605 -130 -648 -610 -1135 -1257 -1273 -128 -28 -397 -38 -528
-20 -569 76 -1055 443 -1277 963 -91 214 -124 381 -125 627 0 215 15 318 76
503 233 713 936 1178 1674 1107z m-2711 -2369 c553 -334 936 -572 961 -597 23
-22 55 -63 71 -90 l29 -49 3 -1249 c2 -1110 1 -1252 -13 -1273 -19 -28 -60
-31 -95 -6 -36 25 -351 290 -515 433 -389 340 -602 551 -768 762 -261 331
-366 535 -403 781 -15 103 -12 137 11 137 8 0 59 -17 112 -39 206 -81 321
-110 330 -84 7 19 -158 185 -423 423 -217 196 -244 225 -276 286 -64 122 -69
153 -79 534 -12 390 -9 502 12 545 18 37 55 57 94 49 17 -3 444 -256 949 -563z
m6158 542 c34 -31 39 -104 32 -478 -10 -567 -25 -612 -283 -841 -356 -315
-524 -485 -503 -506 19 -19 224 40 385 111 79 34 87 31 87 -36 -1 -172 -92
-410 -239 -626 -99 -145 -262 -347 -377 -467 -225 -234 -995 -914 -1093 -964
-38 -20 -76 -15 -91 14 -7 13 -9 416 -8 1262 l3 1243 23 48 c13 26 43 66 65
90 29 29 335 220 967 604 509 308 934 563 945 566 28 7 67 -2 87 -20z m-2425
-1428 l23 -26 0 -572 c-1 -430 -4 -577 -13 -593 -7 -11 -83 -90 -169 -174
-167 -162 -190 -197 -120 -184 20 4 88 24 151 46 63 21 123 38 135 36 l21 -3
0 -495 0 -495 -25 -50 c-56 -114 -20 -94 -1149 -639 -1136 -548 -1103 -535
-1161 -478 l-30 30 0 492 c0 354 3 497 12 513 6 12 87 96 180 187 92 91 168
171 168 178 0 24 -74 12 -208 -34 -74 -25 -141 -43 -148 -40 -12 4 -14 99 -14
555 0 610 -1 601 66 692 18 25 51 57 71 71 30 19 1987 970 2077 1009 39 17
108 4 133 -26z m-533 -3070 c10 -11 12 -23 7 -43 -9 -31 -455 -818 -478 -844
-28 -32 -80 -42 -142 -28 -72 16 -116 38 -316 155 -179 105 -215 137 -215 191
0 63 27 80 480 295 665 316 634 303 664 274z"/>
<path d="M4922 7910 c-306 -80 -537 -335 -589 -650 -40 -243 37 -487 211 -669
322 -336 833 -336 1152 1 210 222 276 524 176 806 -92 260 -319 462 -580 517
-98 21 -280 18 -370 -5z"/>
</g>
</svg>
