<svg id="Layer_1" data-name="Layer 1" xmlns="http://www.w3.org/2000/svg" xmlns:xlink="http://www.w3.org/1999/xlink" viewBox="0 0 1600.32 900.24"><defs><style>.cls-1{fill:none;}.cls-2{clip-path:url(#clip-path);}.cls-3{fill:#231f20;}.cls-4{fill:#ec1c24;}.cls-5{fill:#fff;}</style><clipPath id="clip-path"><rect class="cls-1" width="1600.32" height="900.24"/></clipPath></defs><g class="cls-2"><polygon class="cls-3" points="969.01 541.34 789.52 541.34 789.52 499.77 879.08 399.37 833.58 399.37 833.58 421.85 791.88 421.85 791.88 359.5 968.36 359.5 968.36 396.36 874.24 501.47 926.66 501.47 926.66 476.63 969.01 476.63 969.01 541.34"/><polygon class="cls-3" points="1090.06 541.34 986.4 541.34 986.4 497.8 1003.13 497.8 1003.13 403.03 986.4 403.03 986.4 359.5 1090.06 359.5 1090.06 403.03 1073.47 403.03 1073.47 497.8 1090.06 497.8 1090.06 541.34"/><path class="cls-3" d="M1174.64,541.34h-72V497.8h13.85L1150.59,403l15.66-43.53H1236L1252,403l34.77,94.77h13.33v43.54h-94.91V501.47h16l-6.93-22.89h-46.53l-8,22.89h14.9Zm17.14-135.7L1174.64,456h32.56Z"/><polygon class="cls-3" points="806 574.26 812.8 607.88 812.94 607.88 819.81 574.26 834.01 574.26 834.01 621.88 825.21 621.88 825.21 583.87 825.08 583.87 816.61 621.88 809.14 621.88 800.67 583.87 800.53 583.87 800.53 621.88 791.73 621.88 791.73 574.26 806 574.26"/><path class="cls-3" d="M842,595.8a15.6,15.6,0,0,1,2.41-5.9,10.7,10.7,0,0,1,4.35-3.6,16.23,16.23,0,0,1,6.64-1.23,16.9,16.9,0,0,1,6.87,1.1,9.68,9.68,0,0,1,4.34,3.56,16.09,16.09,0,0,1,2.27,5.94,45.56,45.56,0,0,1,.67,8.27,41,41,0,0,1-.73,8.14,16,16,0,0,1-2.41,5.9,10,10,0,0,1-4.37,3.5,17.08,17.08,0,0,1-6.64,1.14,17.66,17.66,0,0,1-6.86-1,9.29,9.29,0,0,1-4.34-3.46,15.59,15.59,0,0,1-2.26-5.94,44.72,44.72,0,0,1-.67-8.24,40.33,40.33,0,0,1,.73-8.14m8.6,13.21a17.08,17.08,0,0,0,.64,4,5.6,5.6,0,0,0,1.5,2.6,3.76,3.76,0,0,0,2.66.94,3.89,3.89,0,0,0,3.87-2.93c.71-2,1.07-5.18,1.07-9.68s-.36-7.71-1.07-9.67a3.89,3.89,0,0,0-3.87-2.93,3.75,3.75,0,0,0-2.66.93,5.68,5.68,0,0,0-1.5,2.61,17.08,17.08,0,0,0-.64,4c-.09,1.56-.13,3.24-.13,5.06s0,3.51.13,5.07"/><polygon class="cls-3" points="903.91 586 894.91 621.89 884.25 621.89 874.97 586 884.58 586 889.71 611.68 889.84 611.68 894.71 586 903.91 586"/><path class="cls-3" d="M921.39,581.6h-9.21v-7.87h9.21Zm0,40.28h-9.21V586h9.21Z"/><path class="cls-3" d="M941.19,586v4.19h.14a9.27,9.27,0,0,1,3.8-3.89,11.12,11.12,0,0,1,5.33-1.24c2.93,0,5.19.79,6.77,2.4s2.37,4.2,2.37,7.8v26.62h-9.2V597.14a6.19,6.19,0,0,0-.94-3.91,3.75,3.75,0,0,0-3-1.1c-3.25,0-4.87,2-4.87,5.94v23.82h-9.21V586Z"/><path class="cls-3" d="M997.15,620.08q0,6.95-3.44,10.4T982.22,634q-5.88,0-9.05-2.51a8.51,8.51,0,0,1-3.16-7.09h8.79a3.22,3.22,0,0,0,1.41,2.73,6,6,0,0,0,1.43.73,5,5,0,0,0,1.64.27,4.27,4.27,0,0,0,3.93-1.8,8.2,8.2,0,0,0,1.13-4.47v-4.73h-.13a11,11,0,0,1-3.43,3.19,8.25,8.25,0,0,1-4.24,1.21,9.23,9.23,0,0,1-8.23-4.17c-1.86-2.78-2.77-7.45-2.77-14a58.47,58.47,0,0,1,.36-6.41,20.35,20.35,0,0,1,1.53-5.9,10.79,10.79,0,0,1,3.41-4.3,9.68,9.68,0,0,1,6-1.67,8.7,8.7,0,0,1,4,1.07,7.94,7.94,0,0,1,3.4,3.86h.13v-4h8.81Zm-18.24-11.47a11.09,11.09,0,0,0,.67,3,5,5,0,0,0,1.39,2.07,3.55,3.55,0,0,0,2.37.76,3.77,3.77,0,0,0,2.43-.76,5.29,5.29,0,0,0,1.55-2.1,12.58,12.58,0,0,0,.8-3.24,35.57,35.57,0,0,0,.22-4.16q0-6.55-1-9.28a3.81,3.81,0,0,0-3.78-2.74,4.26,4.26,0,0,0-2.46.67,4.37,4.37,0,0,0-1.47,2.17,15.15,15.15,0,0,0-.7,4c-.12,1.66-.17,3.7-.17,6.09a33.07,33.07,0,0,0,.17,3.54"/><path class="cls-3" d="M1048.06,582.77c-.83-1.58-2.32-2.36-4.5-2.36a4.46,4.46,0,0,0-3,1,6.29,6.29,0,0,0-1.83,3.14,26.39,26.39,0,0,0-.94,5.66c-.18,2.33-.27,5.2-.27,8.57a84.43,84.43,0,0,0,.37,8.74,19.23,19.23,0,0,0,1.13,5.17,4.73,4.73,0,0,0,1.94,2.47,5.62,5.62,0,0,0,2.71.62,6.18,6.18,0,0,0,2.36-.43,3.92,3.92,0,0,0,1.9-1.74,11,11,0,0,0,1.27-3.65,33.78,33.78,0,0,0,.46-6.24h9.61a43.2,43.2,0,0,1-.6,7.34,16.85,16.85,0,0,1-2.23,6.06,11.15,11.15,0,0,1-4.61,4.07,17.43,17.43,0,0,1-7.71,1.46,18,18,0,0,1-8.59-1.73,11.57,11.57,0,0,1-4.9-5,22.05,22.05,0,0,1-2.21-7.81,100,100,0,0,1,0-20,22.16,22.16,0,0,1,2.21-7.84,12.23,12.23,0,0,1,4.9-5.1,17.28,17.28,0,0,1,8.59-1.83,16.64,16.64,0,0,1,8.11,1.67,11.25,11.25,0,0,1,4.43,4.23,14.58,14.58,0,0,1,1.84,5.53,46.72,46.72,0,0,1,.37,5.57h-9.61c0-3.46-.4-6-1.23-7.56"/><path class="cls-3" d="M1068.58,595.8a15.44,15.44,0,0,1,2.4-5.9,10.66,10.66,0,0,1,4.36-3.6,16.15,16.15,0,0,1,6.63-1.23,17,17,0,0,1,6.88,1.1,9.74,9.74,0,0,1,4.34,3.56,15.92,15.92,0,0,1,2.26,5.94,45.49,45.49,0,0,1,.68,8.27,40.94,40.94,0,0,1-.74,8.14,15.78,15.78,0,0,1-2.4,5.9,10,10,0,0,1-4.38,3.5,17,17,0,0,1-6.64,1.14,17.66,17.66,0,0,1-6.86-1,9.29,9.29,0,0,1-4.34-3.46,15.59,15.59,0,0,1-2.26-5.94,44.72,44.72,0,0,1-.67-8.24,39.57,39.57,0,0,1,.74-8.14m8.59,13.21a17.62,17.62,0,0,0,.64,4,5.6,5.6,0,0,0,1.5,2.6,3.76,3.76,0,0,0,2.66.94,3.91,3.91,0,0,0,3.88-2.93c.71-2,1.07-5.18,1.07-9.68s-.36-7.71-1.07-9.67a3.91,3.91,0,0,0-3.88-2.93,3.75,3.75,0,0,0-2.66.93,5.68,5.68,0,0,0-1.5,2.61,17.62,17.62,0,0,0-.64,4c-.09,1.56-.13,3.24-.13,5.06s0,3.51.13,5.07"/><path class="cls-3" d="M1113.05,586v3.66h.15a10.46,10.46,0,0,1,3.89-3.53,11.6,11.6,0,0,1,5.17-1.07,9.37,9.37,0,0,1,5.37,1.46,7.3,7.3,0,0,1,2.91,4.28h.12a8.1,8.1,0,0,1,3.44-4.3,10.64,10.64,0,0,1,5.63-1.44q4.61,0,6.78,2.77c1.44,1.84,2.17,4.5,2.17,8v26.08h-9.21V596.81a6,6,0,0,0-.84-3.47,3.11,3.11,0,0,0-2.77-1.21,4.48,4.48,0,0,0-3.5,1.47,7,7,0,0,0-1.3,4.68v23.61h-9.2V596.81a6.11,6.11,0,0,0-.83-3.47,3.13,3.13,0,0,0-2.78-1.21,4.46,4.46,0,0,0-3.49,1.47,6.94,6.94,0,0,0-1.31,4.68v23.61h-9.2V586Z"/><path class="cls-3" d="M1168.15,586v3.79h.14a10.1,10.1,0,0,1,3.43-3.64,9.39,9.39,0,0,1,4.7-1.09q5.67,0,8.34,4.43t2.66,14.44q0,10-2.66,14.34t-8.34,4.34a8.52,8.52,0,0,1-7.73-4.07h-.14v14.87h-9.21V586Zm1.3,26.77a3.79,3.79,0,0,0,4,3,3.75,3.75,0,0,0,3.9-3,43.86,43.86,0,0,0,0-17.68,3.77,3.77,0,0,0-3.9-3,3.81,3.81,0,0,0-4,3,43.86,43.86,0,0,0,0,17.68"/><path class="cls-3" d="M1195.82,596.14a12.22,12.22,0,0,1,1-5.23,9.07,9.07,0,0,1,2.7-3.4,10.47,10.47,0,0,1,4-1.87,19.88,19.88,0,0,1,4.9-.57,23.24,23.24,0,0,1,6.67.79,9.31,9.31,0,0,1,3.94,2.28,7.64,7.64,0,0,1,1.9,3.5,18.7,18.7,0,0,1,.51,4.43V615a26.35,26.35,0,0,0,.22,3.93,13.75,13.75,0,0,0,.91,3h-8.81a8.21,8.21,0,0,1-.7-1.84c-.16-.64-.3-1.28-.43-1.9h-.14a7.81,7.81,0,0,1-3.7,3.64,15,15,0,0,1-5.43.83,9,9,0,0,1-4.06-.83,6.78,6.78,0,0,1-2.68-2.31,10.09,10.09,0,0,1-1.47-3.3,14.63,14.63,0,0,1-.46-3.63,15.65,15.65,0,0,1,.53-4.37,8.4,8.4,0,0,1,1.64-3.14,8.82,8.82,0,0,1,2.8-2.17,22.72,22.72,0,0,1,4.1-1.53L1209,600a5.64,5.64,0,0,0,2.87-1.47,4.15,4.15,0,0,0,.8-2.74,5,5,0,0,0-1-3.24,4.07,4.07,0,0,0-3.3-1.16,3.93,3.93,0,0,0-3.2,1.27,5.09,5.09,0,0,0-1.06,3.4v1h-8.28Zm14.8,9a11.51,11.51,0,0,1-1.92.63,7.11,7.11,0,0,0-4,2,5.69,5.69,0,0,0-1.2,3.81,7.28,7.28,0,0,0,.8,3.53,2.79,2.79,0,0,0,2.67,1.47,7.1,7.1,0,0,0,1.94-.3,5.57,5.57,0,0,0,1.83-1,5,5,0,0,0,1.36-1.73,5.55,5.55,0,0,0,.54-2.53v-7.08a8.5,8.5,0,0,1-2,1.17"/><path class="cls-3" d="M1240,586v4.19h.15a9.19,9.19,0,0,1,3.79-3.89,11.18,11.18,0,0,1,5.33-1.24c2.94,0,5.19.79,6.78,2.4s2.36,4.2,2.36,7.8v26.62h-9.2V597.14a6.27,6.27,0,0,0-.93-3.91,3.77,3.77,0,0,0-3-1.1c-3.25,0-4.87,2-4.87,5.94v23.82h-9.2V586Z"/><path class="cls-3" d="M1272.12,626.75a4.48,4.48,0,0,0,3.64-1.33,6.35,6.35,0,0,0,1.29-3.54L1267,586h9.6l5.33,24.82h.13l4.67-24.82h9.21l-8.67,33.48a69.08,69.08,0,0,1-2.3,7.24,12.67,12.67,0,0,1-2.6,4.27,7.14,7.14,0,0,1-3.6,2,25.28,25.28,0,0,1-5.31.47h-3.73v-6.86a16.17,16.17,0,0,0,2.4.19"/><rect class="cls-4" x="557.6" y="241.61" width="28.56" height="417.17" rx="9.92"/><path class="cls-4" d="M595.9,620.71a9.94,9.94,0,0,0,9.92,9.91h8.73a9.94,9.94,0,0,0,9.92-9.91v-341a9.94,9.94,0,0,0-9.92-9.91h-8.73a9.94,9.94,0,0,0-9.92,9.91Z"/><path class="cls-4" d="M519.31,673.72a9.94,9.94,0,0,0,9.92,9.92H538a9.94,9.94,0,0,0,9.92-9.92V226.65a9.94,9.94,0,0,0-9.92-9.91h-8.72a9.94,9.94,0,0,0-9.92,9.91Z"/><rect class="cls-4" x="481.01" y="241.61" width="28.56" height="417.17" rx="9.92"/><path class="cls-4" d="M442.71,620.71a10,10,0,0,0,9.92,9.91h8.73a10,10,0,0,0,9.92-9.91v-341a10,10,0,0,0-9.92-9.91h-8.73a10,10,0,0,0-9.92,9.91Z"/><rect class="cls-4" x="325" y="397.61" width="417.17" height="28.56" rx="9.92"/><rect class="cls-4" x="353.16" y="359.31" width="360.87" height="28.56" rx="9.92"/><path class="cls-4" d="M757.13,464.47a10,10,0,0,0,9.92-9.92v-8.73a10,10,0,0,0-9.92-9.91H310.05a9.93,9.93,0,0,0-9.91,9.91v8.73a9.94,9.94,0,0,0,9.91,9.92Z"/><rect class="cls-4" x="325" y="474.2" width="417.17" height="28.56" rx="9.92"/><rect class="cls-4" x="353.16" y="512.5" width="360.87" height="28.56" rx="9.92"/><path class="cls-4" d="M657.87,450.19A124.28,124.28,0,1,1,533.59,325.9,124.28,124.28,0,0,1,657.87,450.19"/><path class="cls-5" d="M628.38,450.19a94.79,94.79,0,1,1-94.79-94.79,94.78,94.78,0,0,1,94.79,94.79"/></g></svg>