<svg id="Layer_1" data-name="Layer 1" xmlns="http://www.w3.org/2000/svg" xmlns:xlink="http://www.w3.org/1999/xlink" viewBox="0 0 1600.32 900.24"><defs><style>.cls-1{fill-rule:evenodd;fill:url(#radial-gradient);}.cls-2{fill:none;}</style><radialGradient id="radial-gradient" cx="407.86" cy="473.88" r="1076.89" gradientUnits="userSpaceOnUse"><stop offset="0" stop-color="#c00"/><stop offset="0.99"/></radialGradient></defs><path class="cls-1" d="M290.18,396.62a59,59,0,0,0-9.52,3.15,52.61,52.61,0,0,0-8.23,4.45,76.13,76.13,0,0,0-6.91,5.13l2.82,3.43a21.41,21.41,0,0,1,3.48-2.34,8.57,8.57,0,0,1,3.89-.81q4.29,0,6.09,2.94a12.9,12.9,0,0,1,1.81,6.91v105.7a21.92,21.92,0,0,0,.48,4,10.18,10.18,0,0,0,2.47,4.79,16.36,16.36,0,0,0,6,4q4,1.71,11.12,1.71A32.87,32.87,0,0,0,315,538.12a17.42,17.42,0,0,0,6.36-3.84,10.25,10.25,0,0,0,2.81-4.79,18.7,18.7,0,0,0,.61-4.31V418.12a58.67,58.67,0,0,0-.47-7,17.18,17.18,0,0,0-2.75-7.47,17.42,17.42,0,0,0-7.09-5.89q-4.85-2.38-13.55-2.39A45.42,45.42,0,0,0,290.18,396.62Zm164.26-.82a19.94,19.94,0,0,0-4.56,1.37,14.88,14.88,0,0,0-3.82,2.33,4.3,4.3,0,0,0-1.6,3.42,12.91,12.91,0,0,0,1.2,5q1.2,2.82,2.68,7.06A77.13,77.13,0,0,1,451,425.44a81.44,81.44,0,0,1,1.2,15.27,156.44,156.44,0,0,1-2,25.73,119.4,119.4,0,0,1-5.3,21.08,47.8,47.8,0,0,1-7.63,14.25q-4.37,5.19-9.05,5.2-8.44,0-14.61-21.36t-11.11-62.85a85.57,85.57,0,0,0-1.75-8.61,27.7,27.7,0,0,0-4.08-9,23.52,23.52,0,0,0-7.85-7q-4.95-2.81-13-2.8a45.5,45.5,0,0,0-10.72,1.23,59,59,0,0,0-9.52,3.15,53.06,53.06,0,0,0-8.23,4.45,76.13,76.13,0,0,0-6.91,5.13l2.68,3.43a20.52,20.52,0,0,1,3.55-2.34,9,9,0,0,1,4-.81c2.85,0,4.89,1,6.09,3a23.32,23.32,0,0,1,2.62,8.49q1.06,7.94,2.48,19.78t3.75,25a263.32,263.32,0,0,0,6.09,26.36A117.78,117.78,0,0,0,381.14,516,55.3,55.3,0,0,0,395,533.11a29.81,29.81,0,0,0,19.29,6.58,28.79,28.79,0,0,0,17.22-5.54,55.65,55.65,0,0,0,13.8-14.79,104.59,104.59,0,0,0,10.53-21.15,194.78,194.78,0,0,0,7.3-24.64,234.65,234.65,0,0,0,4.28-25.33,209.42,209.42,0,0,0,1.42-23.14q0-7.39-.48-13.9a48.94,48.94,0,0,0-1.67-10.47,7.68,7.68,0,0,0-2.82-4.24q-1.74-1.1-5.63-1.1A23.31,23.31,0,0,0,454.44,395.8ZM676,518.88a11.2,11.2,0,0,1-4.49-4.31,26,26,0,0,1-3.08-8.29,62.22,62.22,0,0,1-1.14-13.14,50.66,50.66,0,0,1,1.87-14.45,33.08,33.08,0,0,1,5.1-10.47,22.2,22.2,0,0,1,7.43-6.43,19.07,19.07,0,0,1,8.92-2.19,8.35,8.35,0,0,1,5.49,1.78,6.36,6.36,0,0,1,2.14,5.2V500a20,20,0,0,1-1.34,7.12,23.57,23.57,0,0,1-3.62,6.43,19.71,19.71,0,0,1-5.35,4.72,12.52,12.52,0,0,1-6.57,1.85A12.13,12.13,0,0,1,676,518.88Zm-6.7-121.64a56,56,0,0,0-15.61,5.68,33.66,33.66,0,0,0-11.18,9.79,23.73,23.73,0,0,0-4.3,14.3q0,8.64,4.63,13.83a15.44,15.44,0,0,0,12.12,5.2,14.79,14.79,0,0,0,5.43-1,14,14,0,0,0,4.55-2.88,14.32,14.32,0,0,0,3.08-4.23,12.07,12.07,0,0,0,1.14-5.28q0-4.38-2.07-6.5a15.76,15.76,0,0,0-4.62-3.3c-1.7-.76-3.24-1.45-4.63-2a3,3,0,0,1-2.07-3,6.07,6.07,0,0,1,1.61-3.76,16.2,16.2,0,0,1,4.42-3.64,29,29,0,0,1,6.69-2.73,31.13,31.13,0,0,1,8.45-1.09q10.05,0,15.88,6.09t5.82,16.23a25.5,25.5,0,0,1-3.55,12.79,22,22,0,0,1-11.32,9.38q-10.46,4.25-20.43,8.08a84,84,0,0,0-17.82,9.24,43.65,43.65,0,0,0-12.67,13.34q-4.81,8-4.82,20.4,0,10.27,2.88,17.4a31.94,31.94,0,0,0,7.64,11.56,29.48,29.48,0,0,0,10.78,6.5,38.15,38.15,0,0,0,12.47,2.06,44.46,44.46,0,0,0,9.85-1.1,40.93,40.93,0,0,0,9.71-3.56,47.71,47.71,0,0,0,9.45-6.44,56.81,56.81,0,0,0,8.9-9.85q2,10.68,8.58,15.81a23.67,23.67,0,0,0,15,5.14,33.65,33.65,0,0,0,12.19-2.06,38,38,0,0,0,9.38-5.06,38.78,38.78,0,0,0,6.83-6.44c1.88-2.28,3.49-4.37,4.82-6.3L753.14,517a34.24,34.24,0,0,1-3.69,3.76,6.57,6.57,0,0,1-4.49,1.85,4.52,4.52,0,0,1-4.68-2.87,8.48,8.48,0,0,1-.68-2.74c-.08-1-.13-1.91-.13-2.74V436.87q0-11.08-4.35-18.89a38.09,38.09,0,0,0-11.66-12.87,49.94,49.94,0,0,0-16.82-7.39,84.89,84.89,0,0,0-37.38-.48Zm477.68.27a41.87,41.87,0,0,0-9.87,5.27,44.14,44.14,0,0,0-7.29,6.64,80.49,80.49,0,0,0-5,6.37l3.35,2.87a37.13,37.13,0,0,1,3.69-3.76,6.64,6.64,0,0,1,4.49-1.85,5,5,0,0,1,3.08.82A4.91,4.91,0,0,1,1141,416a9.75,9.75,0,0,1,.68,2.74c.08,1,.13,1.85.13,2.67v80c-.71.92-1.86,2.28-3.41,4.11a56,56,0,0,1-5.56,5.55,36.71,36.71,0,0,1-7.11,4.85,16.5,16.5,0,0,1-7.77,2.06,8,8,0,0,1-4.15-1,8.87,8.87,0,0,1-2.88-2.67,12.78,12.78,0,0,1-1.75-3.62,13.5,13.5,0,0,1-.6-3.9V415.24a20.42,20.42,0,0,0-1.47-7.74,17.09,17.09,0,0,0-4.43-6.29,21.63,21.63,0,0,0-7.36-4.25,31.06,31.06,0,0,0-10.32-1.57,34.65,34.65,0,0,0-12.4,2.12,41.73,41.73,0,0,0-9.85,5.27,43.82,43.82,0,0,0-7.3,6.64,80.15,80.15,0,0,0-5,6.37l3.35,2.87a36.86,36.86,0,0,1,3.67-3.76,6.72,6.72,0,0,1,4.5-1.85,5,5,0,0,1,3.09.82,5.07,5.07,0,0,1,1.6,2.12,9.73,9.73,0,0,1,.67,2.74c.09,1,.14,1.85.14,2.67v84.74a46.71,46.71,0,0,0,1.6,12.06A32.51,32.51,0,0,0,1074.1,529a25.8,25.8,0,0,0,9.18,7.74,29.76,29.76,0,0,0,13.74,2.94,31.93,31.93,0,0,0,8.3-1.1,46.07,46.07,0,0,0,8-2.94,69.3,69.3,0,0,0,7.5-4.17q3.63-2.34,6.84-4.79a105.33,105.33,0,0,0,14.07-13v6.16a20.42,20.42,0,0,0,1.47,7.74,16.55,16.55,0,0,0,4.5,6.3,22.42,22.42,0,0,0,7.36,4.25,30.42,30.42,0,0,0,10.25,1.57,34.44,34.44,0,0,0,12.46-2.13,41.42,41.42,0,0,0,9.78-5.26,44,44,0,0,0,7.31-6.65c2-2.32,3.68-4.45,5-6.36l-3.22-2.88c-1.17,1.28-2.41,2.53-3.75,3.77a6.57,6.57,0,0,1-4.56,1.85,4.91,4.91,0,0,1-3.08-.83,5,5,0,0,1-1.61-2.11,9.8,9.8,0,0,1-.67-2.75c-.09-1-.13-1.84-.13-2.67V415.24a20.43,20.43,0,0,0-1.48-7.74,16.94,16.94,0,0,0-4.42-6.29,21.58,21.58,0,0,0-7.37-4.25,30.91,30.91,0,0,0-10.31-1.57A34.52,34.52,0,0,0,1146.94,397.51Zm247.54,56.54c.1-3.69.36-7.55.81-11.57a119.49,119.49,0,0,1,1.94-12,49.29,49.29,0,0,1,3.48-10.61,22.88,22.88,0,0,1,5.63-7.59,12.23,12.23,0,0,1,8.24-2.95,9.13,9.13,0,0,1,6.43,2.47,19.44,19.44,0,0,1,4.43,6.16,31.54,31.54,0,0,1,2.48,7.87,44.2,44.2,0,0,1,.74,7.6,34.94,34.94,0,0,1-.34,5.27,13.93,13.93,0,0,1-1,3.56,7.7,7.7,0,0,1-1.81,2.46,20.88,20.88,0,0,1-2.89,2.13l-28.27,16.56C1394.35,460.87,1394.4,457.75,1394.48,454.05ZM1407,397.51a72.17,72.17,0,0,0-15.88,6.3,76,76,0,0,0-14.81,10.48A68.6,68.6,0,0,0,1364,428.94a73.74,73.74,0,0,0-8.37,18.75,80.09,80.09,0,0,0-3.09,22.86q0,17.26,5.17,30.12a63.63,63.63,0,0,0,13.72,21.49,56.37,56.37,0,0,0,19.64,12.94,61.87,61.87,0,0,0,22.71,4.31,67.6,67.6,0,0,0,20.77-2.94,66.59,66.59,0,0,0,16-7.39,64.83,64.83,0,0,0,11.65-9.51,92.3,92.3,0,0,0,7.9-9.32l-3.34-3.28c-2.14,1.91-4.29,3.72-6.43,5.41a51.55,51.55,0,0,1-6.7,4.45,34.65,34.65,0,0,1-7.51,3,33,33,0,0,1-8.7,1.1,33.76,33.76,0,0,1-12.34-2.19,38.9,38.9,0,0,1-10.25-5.89,46.8,46.8,0,0,1-8.17-8.41,55.91,55.91,0,0,1-6-9.93,57.47,57.47,0,0,1-3.67-10.34,39.13,39.13,0,0,1-1.28-9.51l52.93-31.9a33.76,33.76,0,0,0,9.64-9,19.56,19.56,0,0,0,3.63-11.57,22.64,22.64,0,0,0-2.42-10.2,24.12,24.12,0,0,0-7.3-8.55,38.13,38.13,0,0,0-12.26-5.89,61,61,0,0,0-17.29-2.19A61.71,61.71,0,0,0,1407,397.51ZM292.79,346.65a23,23,0,0,0-7,4.11,18.48,18.48,0,0,0-4.7,6.09,17.05,17.05,0,0,0,0,14.72,18,18,0,0,0,4.7,5.95,24.15,24.15,0,0,0,7,4.05,24.4,24.4,0,0,0,8.65,1.5,24,24,0,0,0,8.5-1.5,23.3,23.3,0,0,0,6.9-4.05,18.56,18.56,0,0,0,4.63-5.95,17.05,17.05,0,0,0,0-14.72,19.1,19.1,0,0,0-4.63-6.09,22.22,22.22,0,0,0-6.9-4.11,23.75,23.75,0,0,0-8.5-1.51A24.18,24.18,0,0,0,292.79,346.65ZM935,522.64q-3.42-3.35-3.42-11.16V362.8q0-10.26,3.89-14.23t12.6-4a34.59,34.59,0,0,1,8.24,1.16,29.05,29.05,0,0,1,9.45,4.52,44.12,44.12,0,0,1,9.44,9.31,59.85,59.85,0,0,1,8.24,15.47,120.28,120.28,0,0,1,5.83,23.13,204.76,204.76,0,0,1,2.21,32.25q0,27.8-3.48,46.13t-9.65,29.37q-6.16,11-14.67,15.54A38.89,38.89,0,0,1,945.07,526Q938.37,526,935,522.64ZM887.38,335.22q-19.36,2.4-33.9,8.76t-23,17.39q-8.44,11-8.44,28.13a34.07,34.07,0,0,0,1.88,11.37,26.87,26.87,0,0,0,5.49,9.3,25.34,25.34,0,0,0,8.78,6.23,28.53,28.53,0,0,0,11.59,2.26,28,28,0,0,0,8.38-1.3,21.83,21.83,0,0,0,7.49-4,20.76,20.76,0,0,0,5.37-6.64,20.17,20.17,0,0,0,2.07-9.44A17.4,17.4,0,0,0,872,390.8a14,14,0,0,0-2.61-4.31,9.92,9.92,0,0,0-3.35-2.4,9.13,9.13,0,0,0-3.42-.75,5.72,5.72,0,0,0-3.55,1.17L855.83,387a32.08,32.08,0,0,1-3.89,2.47,11.49,11.49,0,0,1-5.49,1.16,11.75,11.75,0,0,1-2.21-.35,6.77,6.77,0,0,1-3-1.64,10.91,10.91,0,0,1-2.62-3.9,17.66,17.66,0,0,1-1.14-7A21.51,21.51,0,0,1,840.89,366a32.4,32.4,0,0,1,9.05-9.31,48.78,48.78,0,0,1,27.33-8.42,12.13,12.13,0,0,1,6.9,2.12,7.32,7.32,0,0,1,3.15,6.51V510.25a56.51,56.51,0,0,0,1.6,14.72,16.7,16.7,0,0,0,6.43,9.31q4.83,3.5,13.74,4.93a153.71,153.71,0,0,0,23.52,1.43,114.82,114.82,0,0,0,41.2-7.32,95.79,95.79,0,0,0,33.5-21.35q14.27-14,22.51-34.71t8.24-47.37q0-26.7-7.77-45.24t-22.12-30.06q-14.32-11.5-34.49-16.63t-45.09-5.14A335.51,335.51,0,0,0,887.38,335.22Zm-388.29-9.51a60.4,60.4,0,0,0-9.58,3.14,49.34,49.34,0,0,0-8.24,4.45,80.7,80.7,0,0,0-6.84,5.14l2.69,3.28a16.72,16.72,0,0,1,3.54-2.26,9.65,9.65,0,0,1,4-.75c2.86,0,4.89,1,6.1,2.94a13,13,0,0,1,1.8,6.92V525.18a22.69,22.69,0,0,0,.47,4,10.61,10.61,0,0,0,2.41,4.79,15.7,15.7,0,0,0,6,4q4,1.71,11.12,1.71a33.47,33.47,0,0,0,11.33-1.57,18.08,18.08,0,0,0,6.43-3.77,9.92,9.92,0,0,0,2.82-4.66,18.28,18.28,0,0,0,.6-4.24V454.8q2.42-6,6.16-13.34a104.54,104.54,0,0,1,8.38-13.7,60.72,60.72,0,0,1,9.71-10.67q5.1-4.3,10.05-4.31a7,7,0,0,1,3.95,1,7.09,7.09,0,0,1,2.15,2.19,6.16,6.16,0,0,1,.87,2.54c.09.87.14,1.48.14,1.85a50.88,50.88,0,0,1-.94,8.89,39.67,39.67,0,0,1-4.7,11.92,88,88,0,0,1-11.11,15,141.75,141.75,0,0,1-20.24,18q9.51,23.28,18.35,40.66a302.55,302.55,0,0,0,17.22,30A146.4,146.4,0,0,0,590,565.57a88.55,88.55,0,0,0,15.75,13.14,52.72,52.72,0,0,0,15.47,6.84,64.42,64.42,0,0,0,15.62,1.92,119.45,119.45,0,0,0,15-.82,77,77,0,0,0,11.12-2.2,49.83,49.83,0,0,0,8.58-3.21q3.75-1.85,7.37-3.9l-2.55-4.79a31.88,31.88,0,0,1-3.08,1.37,22.24,22.24,0,0,1-2.95,1,12.56,12.56,0,0,1-3.21.41q-9.25,0-19.43-6t-21.24-18.69q-11.06-12.66-23-32.31A474.56,474.56,0,0,1,579,471.37a67.35,67.35,0,0,0,15.55-10.88,57.34,57.34,0,0,0,9.84-12.32,47.57,47.57,0,0,0,5.23-12.87,54.71,54.71,0,0,0,1.53-12.54,30.83,30.83,0,0,0-1.27-7.93,27.79,27.79,0,0,0-12.65-16.36,24.27,24.27,0,0,0-12.73-3.08,36.51,36.51,0,0,0-15.82,3.42,58.85,58.85,0,0,0-13.39,8.76,93,93,0,0,0-11.53,12q-5.37,6.65-10.05,13.08V347.05a59.6,59.6,0,0,0-.47-6.91,17.26,17.26,0,0,0-2.74-7.39,17.67,17.67,0,0,0-7.1-5.89q-4.83-2.39-13.54-2.39A45,45,0,0,0,499.09,325.71Zm725.9,0a59.74,59.74,0,0,0-9.58,3.14,49.44,49.44,0,0,0-8.25,4.45,80.49,80.49,0,0,0-6.83,5.14l2.68,3.28a16.76,16.76,0,0,1,3.55-2.26,9.62,9.62,0,0,1,4-.75c2.85,0,4.89,1,6.09,2.94a12.91,12.91,0,0,1,1.81,6.92V525.18a22.69,22.69,0,0,0,.47,4,10.61,10.61,0,0,0,2.41,4.79,15.7,15.7,0,0,0,6,4q4,1.71,11.12,1.71a33.41,33.41,0,0,0,11.32-1.57,18,18,0,0,0,6.44-3.77,9.89,9.89,0,0,0,2.81-4.66,18.35,18.35,0,0,0,.61-4.24V454.8q2.4-6,6.16-13.34a104.49,104.49,0,0,1,8.37-13.7,60.37,60.37,0,0,1,9.72-10.67q5.09-4.3,10-4.31a7,7,0,0,1,4,1,7.32,7.32,0,0,1,2.15,2.19,6.46,6.46,0,0,1,.87,2.54c.08.87.13,1.48.13,1.85a51.87,51.87,0,0,1-.94,8.89,39.35,39.35,0,0,1-4.69,11.92,88.15,88.15,0,0,1-11.12,15,142.3,142.3,0,0,1-20.24,18q9.52,23.28,18.37,40.66a298.7,298.7,0,0,0,17.21,30,147.12,147.12,0,0,0,16.35,20.82,88.16,88.16,0,0,0,15.74,13.14,52.66,52.66,0,0,0,15.48,6.84,64.22,64.22,0,0,0,15.61,1.92,119.33,119.33,0,0,0,15-.82,77.15,77.15,0,0,0,11.13-2.2,50,50,0,0,0,8.57-3.21q3.75-1.85,7.37-3.9l-2.54-4.79a31.88,31.88,0,0,1-3.08,1.37,23.24,23.24,0,0,1-3,1,12.75,12.75,0,0,1-3.22.41q-9.24,0-19.43-6t-21.23-18.69q-11.05-12.66-23-32.31a474.45,474.45,0,0,1-24.53-46.89,66.92,66.92,0,0,0,15.55-10.88,57.1,57.1,0,0,0,9.85-12.32,48.23,48.23,0,0,0,5.23-12.87,54.71,54.71,0,0,0,1.53-12.54,30.83,30.83,0,0,0-1.27-7.93,27.75,27.75,0,0,0-12.66-16.36,24.27,24.27,0,0,0-12.73-3.08,36.53,36.53,0,0,0-15.81,3.42,58.91,58.91,0,0,0-13.4,8.76,94.38,94.38,0,0,0-11.53,12q-5.36,6.65-10,13.08V347.05a59.6,59.6,0,0,0-.47-6.91,17.15,17.15,0,0,0-2.75-7.39,17.6,17.6,0,0,0-7.1-5.89q-4.83-2.39-13.54-2.39A44.9,44.9,0,0,0,1225,325.71ZM220.3,249.87a127.41,127.41,0,0,0-19.83,1.57,112,112,0,0,0-19,4.73A89.36,89.36,0,0,0,164.49,264a62.26,62.26,0,0,0-13.66,11,49.17,49.17,0,0,0-9.19,14.18,43.76,43.76,0,0,0-3.35,17.31,34.12,34.12,0,0,0,1.88,11.37,26.87,26.87,0,0,0,5.49,9.3,25.59,25.59,0,0,0,8.78,6.24A28.7,28.7,0,0,0,166,335.71a28.24,28.24,0,0,0,8.38-1.3,22.12,22.12,0,0,0,7.5-4,21,21,0,0,0,5.36-6.65,20.15,20.15,0,0,0,2.08-9.45,17.37,17.37,0,0,0-1.08-6.5,13.47,13.47,0,0,0-2.61-4.31,9.62,9.62,0,0,0-3.35-2.39,8.73,8.73,0,0,0-3.41-.76,5.67,5.67,0,0,0-3.55,1.17L172.06,304a31.47,31.47,0,0,1-3.88,2.46,11.44,11.44,0,0,1-5.5,1.17,11.87,11.87,0,0,1-2.21-.35,6.8,6.8,0,0,1-3-1.63,11.19,11.19,0,0,1-2.62-3.91,17.7,17.7,0,0,1-1.13-7,19.27,19.27,0,0,1,2.41-9.44,31.22,31.22,0,0,1,6.23-7.93,46.9,46.9,0,0,1,8.71-6.38,75.78,75.78,0,0,1,9.71-4.72,60.72,60.72,0,0,1,9.19-2.87,34.29,34.29,0,0,1,7.29-1,18.18,18.18,0,0,1,3.68.35,6.22,6.22,0,0,1,2.89,1.37A6.63,6.63,0,0,1,205.7,267a14.07,14.07,0,0,1,.67,4.79v84.51c0,4.73-3.94,6-5.9,6.29a112,112,0,0,0-19,4.72,90,90,0,0,0-16.95,7.87,62.26,62.26,0,0,0-13.66,11,49.12,49.12,0,0,0-9.19,14.17,43.84,43.84,0,0,0-3.35,17.32,34.07,34.07,0,0,0,1.88,11.37,27,27,0,0,0,5.49,9.3,25.43,25.43,0,0,0,8.78,6.23,29.28,29.28,0,0,0,20,1,22,22,0,0,0,7.5-4,20.84,20.84,0,0,0,5.36-6.64,20.14,20.14,0,0,0,2.08-9.44,17.39,17.39,0,0,0-1.08-6.51,13.59,13.59,0,0,0-2.61-4.31,9.78,9.78,0,0,0-3.35-2.4,9.08,9.08,0,0,0-3.41-.75,5.73,5.73,0,0,0-3.55,1.16c-1,.78-2.13,1.61-3.29,2.47a31.47,31.47,0,0,1-3.88,2.46,11.44,11.44,0,0,1-5.5,1.16,11.62,11.62,0,0,1-2.21-.34,6.8,6.8,0,0,1-3-1.63,11.29,11.29,0,0,1-2.62-3.91,17.65,17.65,0,0,1-1.13-7,19.31,19.31,0,0,1,2.41-9.45,31.61,31.61,0,0,1,6.23-7.94,47.27,47.27,0,0,1,8.71-6.36,77.33,77.33,0,0,1,9.71-4.74,61.88,61.88,0,0,1,9.19-2.87,35.54,35.54,0,0,1,7.29-1,18.18,18.18,0,0,1,3.68.35,6.14,6.14,0,0,1,2.89,1.38,6.6,6.6,0,0,1,1.88,2.8,14.11,14.11,0,0,1,.67,4.79V588.68A89.65,89.65,0,0,1,204,609.83a49.64,49.64,0,0,1-7.17,16.64,33.39,33.39,0,0,1-12.26,10.82,38.36,38.36,0,0,1-17.75,3.83,21.91,21.91,0,0,1-8.71-1.51,21.34,21.34,0,0,1-6-3.76,21.08,21.08,0,0,1-4-4.87c-1-1.73-1.94-3.35-2.75-4.85a29.5,29.5,0,0,0-2.35-3.77,3.25,3.25,0,0,0-2.61-1.51,7.37,7.37,0,0,0-4.35,1.37,12.37,12.37,0,0,0-3.29,3.43,15.73,15.73,0,0,0-2,4.59,19.69,19.69,0,0,0-.67,5,8.38,8.38,0,0,0,2.89,6.09,24.37,24.37,0,0,0,7.7,4.86,53.25,53.25,0,0,0,11.12,3.22A72.56,72.56,0,0,0,165,650.56,117.94,117.94,0,0,0,198.39,646a78,78,0,0,0,27.14-13.82,65.31,65.31,0,0,0,18.15-23.07q6.65-13.82,6.64-32.45V268.91a36.07,36.07,0,0,0-.54-5.48,12,12,0,0,0-3.41-6.3q-2.9-3-9-5.13T220.3,249.87Z"/><rect class="cls-2" width="1600.32" height="900.24"/></svg>