<svg id="Layer_1" data-name="Layer 1" xmlns="http://www.w3.org/2000/svg" xmlns:xlink="http://www.w3.org/1999/xlink" viewBox="0 0 1600.32 900.24"><defs><style>.cls-1{fill:none;}.cls-2{clip-path:url(#clip-path);}.cls-3,.cls-7{fill:#0f4a75;}.cls-4{fill:#fff;}.cls-5{fill:#ac1d40;}.cls-6{fill:#2e9a48;}.cls-7{fill-rule:evenodd;}</style><clipPath id="clip-path"><rect class="cls-1" width="1600.32" height="900.24"/></clipPath></defs><g class="cls-2"><path class="cls-3" d="M375.72,310.93v59.68a2.46,2.46,0,0,0,2.46,2.45l77.52,0a2.45,2.45,0,0,1,2.46,2.49c-.56,41.57-15,103.3-45.6,130.89a2.45,2.45,0,0,1-3.29,0c-32.88-29-43.83-96.93-44.59-119.78a2.45,2.45,0,0,0-2.45-2.38H305.44A2.53,2.53,0,0,0,303,387c0,14.84,4.14,47.28,7.9,58.72,5.43,16.38,22.6,88.11,98.5,145.54a2.49,2.49,0,0,0,3,0c75.92-57.43,93.22-129.16,98.6-145.56C521.11,415,522,326.83,522.12,310.94a2.45,2.45,0,0,0-2.46-2.47H378.18a2.46,2.46,0,0,0-2.46,2.46"/><path class="cls-3" d="M365.83,370.61V310.93a2.45,2.45,0,0,0-2.45-2.46H302.57a2.45,2.45,0,0,0-2.46,2.47c.06,8.41.49,32.86,1.93,59.74a2.46,2.46,0,0,0,2.45,2.32l58.88.07a2.46,2.46,0,0,0,2.46-2.46"/><path class="cls-4" d="M330.38,338.25V327.73a3.38,3.38,0,1,1-.32-6,3.38,3.38,0,1,1,5.83,0,3.38,3.38,0,1,1-.32,6v10.52h10.52a3.38,3.38,0,1,1,6-.32,3.39,3.39,0,1,1,0,5.84,3.37,3.37,0,1,1-6-.33H335.57V354a3.38,3.38,0,1,1,.32,5.95,3.38,3.38,0,1,1-5.83,0,3.38,3.38,0,1,1,.32-5.95V343.44H319.85a3.37,3.37,0,1,1-6,.33,3.39,3.39,0,1,1,0-5.84,3.38,3.38,0,1,1,6,.32Z"/><path class="cls-5" d="M375.54,386.85c.61,26.08,10.63,74.89,33.48,104.21a2.45,2.45,0,0,0,3.87,0c22.85-29.32,32.87-78.13,33.49-104.21a2.46,2.46,0,0,0-2.46-2.51H378a2.45,2.45,0,0,0-2.46,2.51"/><path class="cls-6" d="M511,445.9c10.14-30.66,11.07-118.85,11.15-134.75a2.42,2.42,0,0,0-.72-1.75l-64,64.62a2.43,2.43,0,0,1,.75,1.79c-.56,41.57-15,103.3-45.59,130.89a2.47,2.47,0,0,1-1.69.63V592a2.49,2.49,0,0,0,1.49-.49C488.29,534,505.59,462.31,511,445.9"/><polygon class="cls-3" points="578.85 480.53 609.16 480.53 609.16 485.25 584.21 485.25 584.21 504.37 606.05 504.37 606.05 509.01 584.21 509.01 584.21 529.96 609.4 529.96 609.4 534.68 578.85 534.68 578.85 480.53"/><path class="cls-3" d="M638,512.53h-8v22.15h-5.35V480.53H638c11.44,0,19.19,4,19.19,15.76,0,10.64-7.59,16.24-19.19,16.24m-.24-27.35H630V508h8c8.32,0,13.6-4.08,13.6-11.52,0-8.48-5.76-11.27-13.84-11.27"/><rect class="cls-3" x="670.44" y="480.53" width="5.36" height="54.15"/><path class="cls-3" d="M718.82,486.37a35.82,35.82,0,0,0-11.28-2.15c-6.31,0-11.43,2.55-11.43,9.35,0,15.19,24.71,7.92,24.71,27.19,0,10.64-8,15-17,15a33.44,33.44,0,0,1-14.31-3.28v-5a35.1,35.1,0,0,0,14.39,3.6c6.32,0,11.44-2.8,11.44-10,0-15.19-24.79-8.31-24.79-27.35,0-10.16,8-14.08,17-14.08a36.3,36.3,0,0,1,11.28,1.92Z"/><path class="cls-3" d="M757.77,484.13c-12.55,0-21.11,8.8-21.11,23.44,0,13.44,6.32,23.51,21.51,23.51a36,36,0,0,0,13.76-2.48v4.64a41.84,41.84,0,0,1-14.48,2.48c-18.71,0-26.31-12.07-26.31-27.75,0-19.2,11.44-28.32,25.59-28.32a38,38,0,0,1,14.08,2.4v4.8a34.14,34.14,0,0,0-13-2.72"/><path class="cls-3" d="M781.05,507.89c0-15.84,7.76-28.24,24.71-28.24s24.47,12.08,24.47,27.92-7.83,28.15-24.62,28.15c-17,0-24.56-11.68-24.56-27.83m43.75-.24c0-12.88-5.6-23.43-19.12-23.43s-19.11,10.71-19.11,23.43c0,13,5.6,23.43,19.11,23.43s19.12-10.56,19.12-23.43"/><path class="cls-3" d="M858.07,512.53h-8v22.15h-5.36V480.53h13.35c11.44,0,19.2,4,19.2,15.76,0,10.64-7.6,16.24-19.2,16.24m-.24-27.35h-7.75V508h8c8.32,0,13.59-4.08,13.59-11.52,0-8.48-5.75-11.27-13.83-11.27"/><path class="cls-3" d="M927.33,534.68h-5.59l-5.92-15.6H891.66l-5.92,15.6h-5.43l20.47-54.15h6.16Zm-34.47-20.23h21.6l-10.8-28.32Z"/><polygon class="cls-3" points="939.41 480.53 944.77 480.53 944.77 529.96 969.96 529.96 969.96 534.68 939.41 534.68 939.41 480.53"/><path class="cls-3" d="M1030,486.37a35.88,35.88,0,0,0-11.28-2.15c-6.31,0-11.43,2.55-11.43,9.35,0,15.19,24.71,7.92,24.71,27.19,0,10.64-8,15-17,15a33.42,33.42,0,0,1-14.32-3.28v-5a35.06,35.06,0,0,0,14.39,3.6c6.32,0,11.44-2.8,11.44-10,0-15.19-24.79-8.31-24.79-27.35,0-10.16,8-14.08,17-14.08a36.3,36.3,0,0,1,11.28,1.92Z"/><path class="cls-3" d="M1067.38,484.13c-12.55,0-21.11,8.8-21.11,23.44,0,13.44,6.31,23.51,21.51,23.51a36,36,0,0,0,13.76-2.48v4.64a41.84,41.84,0,0,1-14.48,2.48c-18.72,0-26.31-12.07-26.31-27.75,0-19.2,11.43-28.32,25.59-28.32a38,38,0,0,1,14.08,2.4v4.8a34.14,34.14,0,0,0-13-2.72"/><polygon class="cls-3" points="1127.53 509.09 1098.98 509.09 1098.98 534.68 1093.7 534.68 1093.7 480.53 1098.98 480.53 1098.98 504.37 1127.53 504.37 1127.53 480.53 1132.89 480.53 1132.89 534.68 1127.53 534.68 1127.53 509.09"/><path class="cls-3" d="M1145.76,507.89c0-15.84,7.76-28.24,24.72-28.24S1195,491.73,1195,507.57s-7.83,28.15-24.63,28.15c-17,0-24.56-11.68-24.56-27.83m43.76-.24c0-12.88-5.6-23.43-19.12-23.43s-19.11,10.71-19.11,23.43c0,13,5.59,23.43,19.11,23.43s19.12-10.56,19.12-23.43"/><path class="cls-3" d="M1204.79,507.89c0-15.84,7.76-28.24,24.71-28.24S1254,491.73,1254,507.57s-7.84,28.15-24.63,28.15c-17,0-24.56-11.68-24.56-27.83m43.75-.24c0-12.88-5.6-23.43-19.12-23.43s-19.11,10.71-19.11,23.43c0,13,5.6,23.43,19.11,23.43s19.12-10.56,19.12-23.43"/><polygon class="cls-3" points="1268.46 480.53 1273.82 480.53 1273.82 529.96 1299.01 529.96 1299.01 534.68 1268.46 534.68 1268.46 480.53"/><path class="cls-3" d="M596.15,353.39c0,22.83,62.09,22.26,62.09,54.52,0,22.7-19.84,36.11-40.54,36.11-13.84,0-23.26-5-28.54-6.28a38.45,38.45,0,0,0-9.14-.86c-2,0-3-.85-3-4.71,0-3,1-8.42,1-12.41-.14-5.57-.71-10.42-.71-11.71,0-1.86,1.43-2.43,2.71-2.43,2.14,0,2.71,2.57,3.57,5,5.71,15.84,18.55,25.41,35,25.41,14.41,0,21.26-10,21.26-17.28,0-28.4-63.94-24.54-63.94-55.66,0-23.83,24.27-30.4,38.11-30.4s19.55,3.14,23.12,3.14,6.42-1.28,8.42-1.28,3.29,1.57,3.29,5.42c0,7.28,1.85,20.27,1.85,22.55,0,1.86-1.43,2.43-2.71,2.43-2.14,0-3.28-2.71-4.43-5-6.27-12.13-14-18.84-30.4-18.84-10,0-17,4.43-17,12.28"/><path class="cls-3" d="M701.14,369.24c0-4.19-1.83-4.71-5.23-4.71-6.16,0-14.4,5-19.38,14.39-.91,1.71-1.44,3.15-3.14,3.15a2,2,0,0,1-1.83-2.23c0-1.83,2.75-11.78,2.75-17.54,0-3,1.31-4.58,4.05-4.58s22.12,1.44,31.28,1.44,28.54-1.44,31.15-1.44c2.89,0,4.06,1.57,4.06,4.58,0,5.76,2.75,15.71,2.75,17.54a2,2,0,0,1-1.83,2.23c-1.7,0-2.23-1.44-3.14-3.15-4.84-9.42-13.09-14.39-19.37-14.39-3.41,0-5.24.52-5.24,4.71v59.94c0,4.45,1.7,8.38,6.28,9.3,2.49.39,3.15.91,3.15,2.22,0,1.05-.92,1.83-2.62,1.83-2.62,0-11.65-1-15.19-1s-12.69,1-15.44,1c-1.57,0-2.62-.78-2.62-1.83,0-1.31.65-1.83,3.27-2.22,4.46-.79,6.29-4.85,6.29-9.3Z"/><path class="cls-7" d="M764.22,428a7.59,7.59,0,1,1-7.59,7.59A7.59,7.59,0,0,1,764.22,428Z"/><path class="cls-3" d="M849.2,428.46c0,3.85,3.56,6.14,7.28,6.14,8.42,0,14.41,0,25-3,9.84-2.71,16.27-8.71,23.12-20,1.57-2.57,2.57-3.57,4.14-3.57,1.28,0,2.28,1.14,2.28,3,0,2.28-7.14,18.69-7.14,26,0,3.86-1.57,5.86-5.14,5.86-3.85,0-14.55-1.72-61.08-1.72-4.57,0-13.71,1.43-17.13,1.43-2.14,0-3.57-.57-3.57-2.57,0-1.57.43-2,4.14-2.71,5.85-1.14,8.14-6.14,8.14-11.85V351.24c0-5.7-2.29-10.84-8.14-11.84-3.28-.57-4.14-1.28-4.14-2.86,0-1.42,1.28-2.42,3.42-2.42,3.43,0,14.28,1.42,18.85,1.42s15.27-1.42,18.69-1.42c2.14,0,3.43,1,3.43,2.42,0,1.58-.86,2.29-4.14,2.86-5.85,1.14-8,6.14-8,11.84Z"/><path class="cls-3" d="M965.19,443.84c-27.22,0-37.56-15.57-37.56-30.89V371.59c0-4.44-1.83-8.5-6.28-9.29-2.62-.39-3.27-1.05-3.27-2.22s1-1.84,2.61-1.84c2.75,0,11.78,1.05,15.45,1.05s12.56-1.05,15.18-1.05c1.7,0,2.62.66,2.62,1.84s-.66,1.83-3.15,2.22c-4.58.92-6.27,4.85-6.27,9.29v35.48c0,16.75,6.54,29.84,23.68,29.84,17.93,0,25-11.39,25-30.5,0,0-.13-23.69-.91-33.38-.4-5.23-2.1-9.68-7.6-11-2.88-.65-3.27-1.18-3.27-2.1,0-1.17,1.05-1.7,2.62-1.7,3.4,0,9.68.92,12.69.92s9.17-.92,12.57-.92c1.57,0,2.61.53,2.61,1.7,0,.92-.38,1.45-3.27,2.1-5.49,1.31-7.19,5.76-7.59,11-.78,9.69-.65,31.29-.65,34.16,0,21.21-9.56,36.65-35.21,36.65"/><path class="cls-3" d="M1054.84,402.88c-1.43,0-4.18,2.48-5.75,4.05v22.25c0,4.46,1.7,8.38,6.28,9.3,2.48.38,3.14.91,3.14,2.22,0,1.05-.92,1.83-2.62,1.83-2.62,0-13-1-16.49-1s-11.39,1-14.14,1c-1.57,0-2.61-.78-2.61-1.83,0-1.31.65-1.84,3.27-2.22,4.45-.79,6.28-4.84,6.28-9.3V371.33c0-4.44-1.83-8.5-6.28-9.29-2.62-.39-3.27-.92-3.27-2.23,0-1,1-1.83,2.61-1.83,2.75,0,10.48,1.18,14.14,1.18s13.87-1.18,16.49-1.18c1.7,0,2.62.79,2.62,1.83,0,1.31-.66,1.84-3.14,2.23-4.58.92-6.28,4.85-6.28,9.29v28c8.76-6.67,24.34-23.43,27.35-27.35,3.14-4.19,4.58-6.55,4.58-8s-1-2-3.93-2.35a1.78,1.78,0,0,1-1.83-1.84c0-.91.66-1.57,2.1-1.57,2.22,0,9.42.27,13.22.27,8.77,0,11.38-.53,14.66-.53,1.69,0,2.74.4,2.74,2,0,1.3-.26,2.09-3.14,2.61-4.58.92-7.46,1.71-13.74,7.07s-22.25,20.15-22.25,21.46S1095,427.22,1097,429.58c4.58,5.23,8,8,12.56,8.9,2.88.52,3.28.78,3.28,2.09,0,1.57-1.18,2-2.75,2-3.41,0-7.2-.52-16.1-.52-3.66,0-16.23.26-18.46.26-1.44,0-2.09-.66-2.09-1.57s.52-1.7,2-1.84c2.75-.38,3.8-.91,3.8-2.35s-1.44-3.8-4.45-8c0,0-17.8-25.65-19.9-25.65"/><path class="cls-3" d="M1149.6,406.93v23.69c0,3,2.75,4.84,5.63,4.84,1.18,0,16,.66,23.69-1.3s13.22-6.94,18.59-15.71c1.17-2,2-2.75,3.13-2.75s1.84.79,1.84,2.23c0,1.83-5.5,14.66-5.5,20.28,0,3-1.31,4.58-4.06,4.58-3,0-17.4-1.31-53.66-1.31-3.53,0-10.6,1-13.35,1-1.7,0-2.75-.39-2.75-2,0-1.18.4-1.57,3.27-2.09,4.45-.92,6.29-4.84,6.29-9.3V371.33c0-4.44-1.84-8.24-6.29-9.16-2.87-.52-3.27-.92-3.27-2.09,0-1.57,1-2.1,2.75-2.1s9.56.66,20.81.66c36.25,0,39-.79,42-.79,2.74,0,4,1.57,4,4.45,0,5.76,2.75,15.71,2.75,17.54a2,2,0,0,1-2,2.23c-1.57,0-2.23-1.31-3-3.15-5-9.42-10-14.91-29.45-14.91-10.08,0-11.52,2.22-11.52,5.62V392.4c0,3,.79,3.67,3.67,3.67,6.67,0,16.09,1.18,22.77-2.62,5-2.88,6-7.2,7.72-7.2a1.76,1.76,0,0,1,1.83,2c0,1.17-1.31,4.18-1.31,9.68s1.71,10.86,1.71,12.7c0,1.44-.79,2.22-1.71,2.22-1.83,0-3.4-5.1-7.06-7.46s-6.28-2-10.74-2c-15.44,0-16.88.13-16.88,3.53"/><path class="cls-3" d="M1226.42,351.31c0,9-9.94,17.93-12.82,17.93a2.24,2.24,0,0,1-2.48-2.36c0-1.7,4.44-3,4.44-8,0-3.27-3.4-4.84-3.4-8.51a7.06,7.06,0,0,1,7.46-7.07c4.71,0,6.8,3,6.8,8"/><path class="cls-3" d="M1251.82,373.17c0,17.8,48.29,17.4,48.29,42.53,0,17.67-15.44,28.14-31.54,28.14-10.73,0-18.19-3.92-22.25-4.84a30.18,30.18,0,0,0-7.07-.65c-1.56,0-2.35-.79-2.35-3.8,0-2.23.79-6.55.79-9.56-.14-4.45-.66-8.24-.66-9.16a2,2,0,0,1,2.22-2c1.57,0,2.09,2.09,2.75,3.93,4.45,12.3,14.4,19.76,27.23,19.76,11.25,0,16.35-7.72,16.35-13.35,0-20-49.6-19.24-49.6-43.45,0-18.59,18.85-23.69,29.71-23.69s15.18,2.48,18.06,2.48,5-1,6.55-1,2.48,1.17,2.48,4.18c0,5.76,1.44,15.84,1.44,17.67,0,1.44-1,1.84-2.09,1.84-1.7,0-2.49-2.1-3.4-3.93-5-9.42-10.87-14.66-23.69-14.66-7.86,0-13.22,3.54-13.22,9.56"/></g></svg>