<?xml version="1.0" encoding="UTF-8"?>
<svg id="Layer_1" data-name="Layer 1" xmlns="http://www.w3.org/2000/svg" xmlns:xlink="http://www.w3.org/1999/xlink" viewBox="0 0 1600 900">
  <defs>
    <style>
      .cls-1 {
        fill: none;
      }

      .cls-2 {
        fill: #706e6f;
      }

      .cls-3 {
        fill: #a61f30;
      }

      .cls-4 {
        clip-path: url(#clippath-1);
      }

      .cls-5 {
        clip-path: url(#clippath);
      }
    </style>
    <clipPath id="clippath">
      <rect class="cls-1" width="1600" height="900"/>
    </clipPath>
    <clipPath id="clippath-1">
      <rect class="cls-1" width="1600" height="900"/>
    </clipPath>
  </defs>
  <g class="cls-5">
    <g class="cls-4">
      <path class="cls-3" d="M350.5,390.89l-27.22,49.92c-1.06,1.93-4,1.02-3.79-1.17l5.46-54.13c.25-2.46,1.63-4.63,3.69-5.99,2.35-1.54,4-4.11,4.31-7.11.55-5.43-3.48-10.26-8.93-10.66-5.05-.36-9.66,3.4-10.32,8.42-.41,3.14.73,6.11,2.82,8.16,1.74,1.72,2.62,4.13,2.37,6.57l-5.46,54.14c-.22,2.19-3.29,2.5-3.94.39l-16.71-54.19c-1.09-3.52-1.19-7.26-.31-10.83l16.78-67.41c.48-1.95,2.33-3.25,4.32-3.04l32.76,3.3c2,.2,3.55,1.84,3.63,3.84l2.99,69.24c.16,3.67-.69,7.32-2.45,10.55"/>
      <path class="cls-3" d="M738.87,530.86c-2.31,1.7-4.81,2.85-7.49,3.47-2.68.61-5.38.92-8.1.92-9.31,0-17.58-1.37-24.81-4.13-7.23-2.75-13.59-6.54-19.06-11.36-5.47-4.82-10.12-10.5-13.96-17.02-3.84-6.52-7.03-13.55-9.58-21.09-2.55-7.54-4.5-15.42-5.86-23.64-1.36-8.22-2.28-16.42-2.75-24.61-.48-8.18-.6-16.2-.36-24.04.24-7.85.7-15.13,1.38-21.86-1.22,1.83-2.72,4.76-4.48,8.76-1.77,4.01-3.72,8.7-5.86,14.06-2.14,5.37-4.37,11.23-6.67,17.58-2.31,6.35-4.61,12.75-6.88,19.21-2.27,6.45-4.48,12.79-6.62,19-2.14,6.22-4.04,11.87-5.71,16.96-1.67,5.1-3.09,9.43-4.28,13-1.19,3.56-1.95,5.96-2.29,7.18-.27.82-.63,1.83-1.07,3.06-.44,1.22-.98,2.41-1.63,3.57-.65,1.15-1.39,2.14-2.24,2.96-.85.81-1.82,1.22-2.9,1.22-1.22,0-2.24-.49-3.06-1.48-.82-.99-1.48-2.16-1.99-3.52-.51-1.36-.92-2.71-1.22-4.08-.3-1.36-.53-2.44-.66-3.26-.41-2.85-.78-6.45-1.12-10.8-.34-4.35-.63-9.17-.86-14.47-.24-5.3-.43-10.95-.56-16.97-.14-6.01-.26-12.06-.36-18.14-.1-6.08-.17-12.06-.2-17.93-.04-5.87-.07-11.38-.1-16.51-.03-5.13-.05-9.73-.05-13.81v-9.78c-1.49,3.4-3.28,7.71-5.35,12.94-2.07,5.23-4.31,11.11-6.73,17.63-2.41,6.52-4.93,13.54-7.54,21.04-2.62,7.51-5.2,15.23-7.74,23.18-2.55,7.95-4.99,15.96-7.34,24.05-2.34,8.08-4.43,15.93-6.27,23.54-.2.68-.46,1.51-.76,2.5-.3.98-.7,1.92-1.17,2.8-.48.88-1.07,1.65-1.78,2.29-.71.65-1.58.97-2.6.97-.95,0-1.8-.3-2.55-.92-.75-.61-1.38-1.34-1.89-2.19-.51-.85-.91-1.77-1.22-2.75-.3-.99-.49-1.88-.56-2.7-.34-1.7-.63-3.57-.87-5.6-.24-2.04-.44-4.13-.61-6.27-.17-2.14-.32-4.25-.46-6.32-.14-2.07-.27-3.99-.41-5.76-.75-9.31-1.27-18.51-1.58-27.61-.3-9.1-.46-18.27-.46-27.51s.15-18.14.46-27.11c.31-8.97.76-18.03,1.38-27.21.2-2.65.51-5.62.92-8.91.41-3.29,1.2-6.4,2.39-9.32,1.19-2.92,2.92-5.36,5.2-7.34,2.28-1.97,5.38-2.95,9.33-2.95.95,0,1.77.22,2.45.66.68.44,1.02,1.21,1.02,2.29v1.02c-.61,4.08-1.22,8.14-1.83,12.18-.61,4.04-1.26,8.17-1.94,12.38-1.63,13.59-3,27.15-4.12,40.71-1.12,13.55-1.68,27.19-1.68,40.91,0,5.37.1,10.66.3,15.89.2,5.23.58,10.49,1.12,15.79,4.69-14.54,8.82-27.41,12.38-38.62,3.57-11.21,6.71-21.02,9.42-29.45,2.72-8.42,5.01-15.61,6.88-21.55,1.87-5.94,3.45-10.92,4.74-14.93,1.29-4.01,2.31-7.22,3.06-9.63.75-2.41,1.36-4.28,1.84-5.61.47-1.32.81-2.29,1.02-2.9.2-.61.41-1.15.61-1.63,1.02-2.31,2.41-4.38,4.18-6.22,1.77-1.83,4.04-2.75,6.83-2.75,1.9,0,3.45.48,4.63,1.43,1.19.95,2.12,2.14,2.8,3.57.68,1.43,1.14,2.99,1.38,4.69.24,1.7.36,3.26.36,4.69-.14,10.53-.44,20.94-.92,31.23-.48,10.29-.88,20.5-1.22,30.62-.34,10.12-.49,20.17-.46,30.16.03,9.99.49,19.94,1.38,29.86,2.72-8.02,5.23-15.57,7.54-22.67,2.31-7.1,4.5-13.87,6.57-20.33,2.07-6.45,4.08-12.67,6.01-18.64,1.93-5.98,3.94-11.89,6.01-17.73,2.07-5.84,4.23-11.68,6.47-17.52,2.24-5.84,4.72-11.85,7.44-18.04.61-1.22,1.29-2.46,2.04-3.72.75-1.26,1.6-2.4,2.55-3.41.95-1.02,2.04-1.87,3.26-2.55,1.22-.68,2.58-1.02,4.07-1.02,2.11,0,3.77.68,4.99,2.04,1.22,1.36,2.15,2.99,2.8,4.89.65,1.9,1.07,3.89,1.27,5.96.2,2.07.31,3.82.31,5.24,0,6.25-.2,13.16-.61,20.73-.41,7.58-.7,15.44-.86,23.59-.17,8.15-.09,16.4.25,24.76.34,8.35,1.26,16.44,2.75,24.25,1.49,7.81,3.7,15.11,6.62,21.91,2.92,6.79,6.86,12.72,11.82,17.78,4.96,5.06,11.09,9.05,18.39,11.97,7.3,2.92,16.08,4.38,26.34,4.38,1.56,0,3.07-.12,4.53-.36,1.46-.24,2.87-.66,4.23-1.27l.61,2.04Z"/>
      <path class="cls-3" d="M737.05,469.01c-1.56,2.58-3.41,4.94-5.55,7.08-2.14,2.14-4.48,4.01-7.03,5.6-2.55,1.6-5.27,2.84-8.15,3.72-2.89.88-5.86,1.32-8.92,1.32-3.81,0-7.18-.65-10.14-1.94-2.96-1.29-5.43-3.07-7.44-5.35-2.01-2.28-3.54-4.96-4.58-8.05-1.06-3.09-1.58-6.47-1.58-10.14,0-3.94.58-7.68,1.73-11.21,1.15-3.53,2.75-6.84,4.79-9.93,2.04-3.09,4.43-5.93,7.18-8.51,2.75-2.58,5.69-4.89,8.81-6.93l1.22.92c-3.33,3.94-6.03,8.35-8.1,13.25-2.07,4.89-3.11,9.98-3.11,15.28,0,3.06.36,6,1.07,8.82.71,2.82,1.83,5.31,3.36,7.49,1.53,2.17,3.48,3.91,5.86,5.19,2.38,1.29,5.26,1.94,8.66,1.94,4.01,0,7.83-.85,11.46-2.55,3.63-1.7,6.91-3.84,9.83-6.42l.61.41Z"/>
      <path class="cls-3" d="M708.52,401.36c0,1.36-.31,2.72-.92,4.07-.61,1.36-1.41,2.57-2.4,3.62-.98,1.05-2.12,1.92-3.41,2.6-1.29.68-2.62,1.02-3.97,1.02-1.77,0-3.18-.58-4.23-1.73-1.06-1.15-1.58-2.62-1.58-4.38,0-1.36.3-2.7.92-4.02.61-1.32,1.41-2.5,2.39-3.51.98-1.02,2.1-1.85,3.36-2.5,1.26-.65,2.57-.97,3.92-.97,1.76,0,3.19.54,4.28,1.63,1.09,1.09,1.63,2.48,1.63,4.18"/>
      <path class="cls-2" d="M867.84,556.62c0,1.36-.31,2.72-.92,4.07-.61,1.36-1.41,2.57-2.4,3.62-.98,1.05-2.12,1.92-3.41,2.6-1.29.68-2.62,1.02-3.97,1.02-1.77,0-3.18-.58-4.23-1.73-1.06-1.15-1.58-2.61-1.58-4.38,0-1.36.31-2.7.92-4.02.61-1.32,1.41-2.5,2.39-3.51.98-1.02,2.11-1.85,3.36-2.5,1.26-.65,2.57-.97,3.92-.97,1.76,0,3.19.54,4.28,1.63,1.09,1.09,1.63,2.48,1.63,4.18"/>
      <path class="cls-2" d="M1187.07,556.62c0,1.36-.31,2.72-.92,4.07-.61,1.36-1.41,2.57-2.39,3.62-.99,1.05-2.13,1.92-3.42,2.6-1.29.68-2.61,1.02-3.97,1.02-1.77,0-3.18-.58-4.23-1.73-1.05-1.15-1.58-2.61-1.58-4.38,0-1.36.31-2.7.92-4.02.61-1.32,1.41-2.5,2.39-3.51.99-1.02,2.11-1.85,3.36-2.5,1.26-.65,2.57-.97,3.93-.97,1.76,0,3.19.54,4.28,1.63,1.08,1.09,1.63,2.48,1.63,4.18"/>
      <path class="cls-3" d="M789.01,461.68c0,3.53-.65,6.86-1.94,9.98-1.29,3.13-3.09,5.84-5.4,8.15-2.31,2.31-5.01,4.14-8.1,5.5-3.09,1.36-6.43,2.04-10.03,2.04-2.38,0-4.73-.38-7.03-1.12-2.31-.75-4.43-1.82-6.37-3.21-1.93-1.39-3.62-3.07-5.04-5.04-1.43-1.97-2.45-4.14-3.06-6.52l2.34-.61c1.76,2.17,3.82,3.97,6.16,5.4,2.35,1.43,5.01,2.14,8,2.14,2.51,0,4.84-.54,6.98-1.63,2.14-1.09,3.97-2.51,5.5-4.28,1.53-1.77,2.72-3.82,3.57-6.17.85-2.34,1.27-4.74,1.27-7.18,0-2.92-.41-5.35-1.22-7.29-.81-1.94-1.89-3.57-3.21-4.89-1.33-1.33-2.8-2.48-4.43-3.47-1.63-.98-3.28-1.99-4.94-3.01-1.67-1.02-3.26-2.17-4.79-3.47-1.53-1.29-2.84-2.96-3.92-4.99-.07,4.01-.75,8.22-2.04,12.64-1.29,4.42-3.04,8.69-5.25,12.84-2.21,4.14-4.74,8.02-7.59,11.61-2.85,3.6-5.88,6.62-9.07,9.07l-.81-1.43c2.17-2.31,4.08-5.2,5.71-8.66,1.63-3.47,2.97-7.12,4.02-10.96,1.05-3.83,1.83-7.69,2.34-11.57.51-3.87.77-7.4.77-10.59,0-1.7-.17-3.36-.51-4.99-.34-1.63-.51-3.22-.51-4.79,0-1.9.56-3.36,1.68-4.38,1.12-1.02,2.56-1.53,4.33-1.53,1.36,0,2.45.3,3.26.92.81.61,1.56,1.41,2.24,2.39.68.99,1.36,2.11,2.04,3.36.68,1.26,1.55,2.55,2.6,3.88,1.05,1.32,2.38,2.61,3.97,3.87,1.59,1.26,3.65,2.36,6.16,3.31,2.92,1.09,5.72,2.33,8.41,3.72,2.68,1.39,5.06,3.04,7.13,4.94,2.07,1.9,3.72,4.16,4.94,6.78,1.22,2.62,1.83,5.69,1.83,9.22"/>
      <path class="cls-3" d="M841.65,461.68c0,3.53-.65,6.86-1.94,9.98-1.29,3.13-3.09,5.84-5.4,8.15-2.31,2.31-5.01,4.14-8.1,5.5-3.09,1.36-6.43,2.04-10.03,2.04-2.38,0-4.72-.38-7.03-1.12-2.31-.75-4.43-1.82-6.37-3.21-1.93-1.39-3.62-3.07-5.04-5.04-1.43-1.97-2.45-4.14-3.06-6.52l2.34-.61c1.76,2.17,3.82,3.97,6.16,5.4,2.35,1.43,5.01,2.14,8,2.14,2.51,0,4.84-.54,6.98-1.63,2.14-1.09,3.97-2.51,5.5-4.28,1.53-1.77,2.72-3.82,3.57-6.17.85-2.34,1.27-4.74,1.27-7.18,0-2.92-.41-5.35-1.22-7.29-.82-1.94-1.89-3.57-3.21-4.89-1.33-1.33-2.8-2.48-4.43-3.47-1.63-.98-3.28-1.99-4.94-3.01-1.67-1.02-3.26-2.17-4.79-3.47-1.53-1.29-2.84-2.96-3.92-4.99-.07,4.01-.75,8.22-2.04,12.64-1.29,4.42-3.04,8.69-5.25,12.84-2.21,4.14-4.74,8.02-7.59,11.61-2.85,3.6-5.88,6.62-9.07,9.07l-.81-1.43c2.17-2.31,4.08-5.2,5.71-8.66,1.63-3.47,2.97-7.12,4.02-10.96,1.05-3.83,1.83-7.69,2.34-11.57.51-3.87.77-7.4.77-10.59,0-1.7-.17-3.36-.51-4.99-.34-1.63-.51-3.22-.51-4.79,0-1.9.56-3.36,1.68-4.38,1.12-1.02,2.57-1.53,4.33-1.53,1.36,0,2.45.3,3.26.92.81.61,1.56,1.41,2.24,2.39.68.99,1.36,2.11,2.04,3.36.68,1.26,1.55,2.55,2.6,3.88,1.05,1.32,2.38,2.61,3.98,3.87,1.59,1.26,3.65,2.36,6.16,3.31,2.92,1.09,5.72,2.33,8.41,3.72,2.68,1.39,5.06,3.04,7.13,4.94,2.07,1.9,3.72,4.16,4.94,6.78,1.22,2.62,1.83,5.69,1.83,9.22"/>
      <path class="cls-3" d="M930.21,368.14c0,.68-.09,1.27-.26,1.78-.17.51-.36,1.04-.56,1.58-1.15,2.72-2.38,5.39-3.67,8-1.29,2.62-2.31,5.38-3.06,8.3-2.51,10.19-4.4,20.48-5.65,30.87-1.26,10.4-2.09,20.85-2.49,31.38,4.41.95,8.37,2.52,11.87,4.69,3.5,2.17,6.91,4.75,10.24,7.74,6.45-2.72,12.31-6.11,17.58-10.19,5.27-4.08,9.77-8.76,13.5-14.06,3.74-5.3,6.62-11.17,8.66-17.63,2.04-6.45,3.06-13.35,3.06-20.68,0-4.08-.6-8.24-1.78-12.48-1.19-4.25-2.85-8.37-4.99-12.38-2.14-4.01-4.68-7.78-7.64-11.31-2.95-3.53-6.23-6.6-9.83-9.22-3.6-2.61-7.45-4.69-11.56-6.22-4.11-1.53-8.37-2.29-12.79-2.29s-8.57.78-13.09,2.34c-4.52,1.56-8.65,3.75-12.38,6.57-3.74,2.82-6.79,6.2-9.17,10.14-2.38,3.94-3.57,8.26-3.57,12.94,0,1.83.22,3.48.66,4.94.44,1.46.92,2.8,1.43,4.03.51,1.22.98,2.36,1.43,3.41.44,1.06.66,2.12.66,3.21,0,1.97-.66,3.62-1.99,4.94-1.33,1.32-2.94,1.99-4.84,1.99-1.77,0-3.16-.48-4.18-1.43-1.02-.95-1.82-2.14-2.4-3.56-.58-1.43-.95-2.94-1.12-4.53-.17-1.6-.25-3.01-.25-4.23,0-5.98,1.43-11.37,4.28-16.2,2.85-4.82,6.52-9.17,11-13.04,2.85-2.45,5.72-4.59,8.61-6.42,2.89-1.84,5.87-3.4,8.97-4.69,3.09-1.29,6.3-2.26,9.63-2.9,3.33-.64,6.89-.97,10.7-.97,5.43,0,10.68.68,15.74,2.04,5.06,1.36,9.82,3.3,14.27,5.81,4.45,2.51,8.52,5.54,12.23,9.07,3.7,3.53,6.88,7.47,9.53,11.82,2.65,4.35,4.7,9.05,6.17,14.11,1.46,5.06,2.19,10.38,2.19,15.95,0,8.22-1.48,15.79-4.43,22.72-2.96,6.93-6.94,13.13-11.97,18.6-5.03,5.47-10.87,10.19-17.52,14.16-6.66,3.97-13.65,7.08-20.99,9.32.75.75,1.48,1.46,2.19,2.14.72.68,1.44,1.39,2.19,2.14,4.07,4.01,8.13,8.25,12.17,12.74,4.04,4.48,8.2,8.93,12.48,13.35,4.28,4.41,8.7,8.64,13.25,12.69,4.55,4.04,9.37,7.61,14.47,10.7,5.09,3.09,10.51,5.55,16.25,7.39,5.74,1.83,11.9,2.75,18.49,2.75,1.16,0,2.26-.05,3.31-.15,1.06-.1,2.16-.32,3.31-.66l.51,2.04c-2.99,1.56-6.14,2.68-9.47,3.36-3.33.68-6.73,1.02-10.19,1.02-7.2,0-13.76-.73-19.67-2.19-5.91-1.46-11.38-3.52-16.41-6.16-5.03-2.65-9.68-5.83-13.96-9.53-4.28-3.71-8.39-7.76-12.33-12.18-3.94-4.42-7.8-9.12-11.57-14.11-3.77-4.99-7.66-10.14-11.67-15.44-.89-1.15-1.75-2.33-2.6-3.51-.85-1.19-1.68-2.36-2.5-3.52-2.45.41-4.87.73-7.29.97-2.41.24-4.81.39-7.18.46,0,8.29.2,16.47.61,24.56.41,8.08.88,16.03,1.43,23.84l-1.93.61c-2.79-7.2-4.91-15.08-6.37-23.64-1.46-8.56-2.56-17.18-3.31-25.88-1.77-.27-3.5-.64-5.2-1.12-1.7-.47-3.24-1.14-4.64-1.99-1.39-.85-2.51-1.9-3.36-3.16-.85-1.26-1.28-2.77-1.28-4.53,0-1.63.41-3.04,1.22-4.23.82-1.19,1.89-2.17,3.21-2.95,1.33-.78,2.77-1.39,4.33-1.83,1.56-.44,3.12-.73,4.69-.87-.07-1.9-.1-3.79-.1-5.65v-5.45c0-2.78.02-6.25.05-10.39.04-4.14.2-8.56.51-13.25.31-4.69.8-9.46,1.48-14.32.67-4.86,1.61-9.43,2.8-13.7,1.19-4.28,2.72-8.08,4.59-11.41,1.87-3.33,4.16-5.77,6.88-7.34,1.02-.61,2.14-1.17,3.36-1.68,1.22-.51,2.51-.76,3.87-.76,2.1,0,3.16.95,3.16,2.85M893.74,459.54c0,.95.3,1.8.91,2.55.61.75,1.43,1.41,2.45,1.99,1.02.58,2.16,1.07,3.42,1.48,1.26.41,2.56.75,3.92,1.02-.14-2.31-.26-4.6-.36-6.88-.1-2.27-.22-4.53-.36-6.77-1.15,0-2.33.07-3.51.2-1.19.14-2.26.44-3.21.92-.95.48-1.73,1.14-2.35,1.99-.61.85-.91,2.02-.91,3.52M914.22,467.48c2.1,0,4.18-.14,6.22-.41,2.04-.27,4.04-.64,6.01-1.12-1.7-2.31-3.51-4.43-5.45-6.37-1.93-1.94-4.16-3.48-6.67-4.64-.07,2.11-.1,4.2-.1,6.27v6.27Z"/>
      <path class="cls-3" d="M1059.08,469.01c-1.77,2.58-3.89,4.99-6.37,7.23-2.48,2.24-5.2,4.18-8.15,5.81-2.96,1.63-6.05,2.92-9.28,3.87-3.22.95-6.47,1.43-9.73,1.43-4.62,0-8.93-.6-12.94-1.79-4.01-1.19-7.5-3-10.49-5.45-2.99-2.45-5.34-5.52-7.03-9.22-1.7-3.7-2.55-8.03-2.55-12.99s.9-9.46,2.7-13.71c1.8-4.24,4.28-7.95,7.44-11.11,3.16-3.16,6.88-5.65,11.16-7.49,4.27-1.83,8.86-2.75,13.75-2.75,2.31,0,4.47.32,6.47.97,2,.64,3.76,1.6,5.25,2.85,1.49,1.26,2.66,2.8,3.51,4.63.85,1.84,1.28,3.94,1.28,6.32,0,2.85-.58,5.36-1.73,7.54-1.16,2.17-2.69,4.08-4.59,5.71-1.9,1.63-4.06,2.99-6.47,4.08-2.41,1.09-4.92,1.97-7.54,2.65-2.62.68-5.19,1.17-7.74,1.48-2.55.31-4.88.46-6.98.46h-2.45c.88,6.18,3.33,10.9,7.34,14.16,4,3.26,9.54,4.89,16.6,4.89,5.03,0,9.94-.88,14.73-2.65,4.79-1.77,9.12-4.21,12.99-7.34l.82.41ZM1006.3,456.48h2.54c2.45,0,4.96-.39,7.54-1.17,2.58-.78,4.91-1.94,6.98-3.46,2.07-1.53,3.79-3.41,5.15-5.65,1.36-2.24,2.03-4.79,2.03-7.64s-.59-5.09-1.78-6.93c-1.19-1.83-3.24-2.75-6.16-2.75s-5.52.9-7.59,2.7c-2.07,1.8-3.76,4.01-5.05,6.62-1.29,2.61-2.22,5.36-2.8,8.25-.57,2.89-.86,5.45-.86,7.69v2.35Z"/>
      <path class="cls-3" d="M1152.51,469.01c-1.09,2.24-2.45,4.27-4.08,6.07-1.63,1.8-3.46,3.33-5.5,4.58-2.04,1.26-4.21,2.23-6.52,2.91-2.31.68-4.72,1.02-7.23,1.02-5.3,0-9.81-1.29-13.51-3.87-3.7-2.58-6.81-5.94-9.32-10.09-1.84,2.04-3.86,4.06-6.06,6.06-2.21,2-4.55,3.77-7.03,5.3-2.48,1.53-5.05,2.77-7.7,3.72-2.64.95-5.29,1.43-7.94,1.43-3.2,0-6.05-.65-8.56-1.93-2.52-1.29-4.65-3.01-6.42-5.15-1.77-2.14-3.13-4.59-4.08-7.33-.95-2.75-1.42-5.62-1.42-8.61,0-4.48,1-9,3-13.55,2.01-4.55,4.66-8.68,7.95-12.38,3.29-3.7,7.08-6.71,11.36-9.02,4.28-2.31,8.73-3.46,13.35-3.46,1.36,0,2.55.13,3.57.41v-4.28c0-1.97.06-4.59.2-7.85.13-3.26.41-6.88.81-10.85.41-3.98.94-8.15,1.58-12.53.65-4.38,1.5-8.73,2.55-13.04,1.05-4.31,2.29-8.42,3.72-12.33,1.43-3.91,3.09-7.34,4.99-10.29,1.9-2.96,4.08-5.31,6.53-7.08,2.44-1.77,5.19-2.65,8.25-2.65,3.6,0,6.52,1.05,8.76,3.16,2.24,2.11,4.01,4.7,5.3,7.79,1.29,3.09,2.15,6.37,2.6,9.83.44,3.46.66,6.56.66,9.27,0,3.53-.34,7.63-1.02,12.28-.68,4.65-1.63,9.58-2.85,14.78-1.23,5.2-2.69,10.51-4.38,15.95-1.7,5.43-3.54,10.66-5.51,15.69-1.97,5.03-4.09,9.7-6.37,14.01-2.27,4.31-4.57,7.96-6.87,10.95.88,2.65,1.95,5.1,3.21,7.34,1.25,2.24,2.73,4.18,4.43,5.81,1.7,1.63,3.63,2.9,5.81,3.82,2.17.92,4.65,1.37,7.43,1.37,6.39,0,11.62-2.55,15.7-7.64l.61.41ZM1085.06,475.02c3.87,0,7.45-.75,10.75-2.24,3.29-1.49,6.29-3.46,9.01-5.91-1.29-2.51-2.39-5.21-3.31-8.1-.91-2.89-1.7-5.81-2.34-8.76-.65-2.95-1.16-5.93-1.53-8.92-.38-2.99-.66-5.87-.87-8.66-.81-.88-1.83-1.61-3.05-2.19-1.23-.57-2.72-.87-4.49-.87-3.19,0-6.03.87-8.51,2.6-2.48,1.73-4.56,3.9-6.26,6.52-1.7,2.62-2.99,5.47-3.87,8.56-.89,3.09-1.33,6.03-1.33,8.81,0,2.59.29,5.04.87,7.39.57,2.35,1.51,4.38,2.8,6.11,1.29,1.73,2.94,3.11,4.94,4.12,2,1.02,4.4,1.53,7.19,1.53M1110.73,412.26v8.51c0,3.23.09,6.64.26,10.24.16,3.6.47,7.29.91,11.06.45,3.77,1.11,7.42,1.99,10.95,2.86-5.5,5.47-11.53,7.85-18.09,2.37-6.55,4.43-13.28,6.16-20.17,1.73-6.89,3.07-13.77,4.02-20.63.96-6.86,1.43-13.35,1.43-19.46,0-1.29-.07-3.16-.2-5.6-.14-2.44-.51-4.87-1.12-7.28-.61-2.41-1.53-4.52-2.75-6.32-1.23-1.8-2.89-2.7-5-2.7-1.63,0-3.09.76-4.38,2.29-1.29,1.53-2.41,3.57-3.36,6.11-.95,2.55-1.75,5.45-2.4,8.71-.64,3.26-1.18,6.66-1.63,10.19-.44,3.53-.78,7.03-1.01,10.49-.24,3.46-.41,6.67-.51,9.63-.11,2.96-.17,5.5-.21,7.64-.03,2.14-.05,3.62-.05,4.43"/>
      <path class="cls-2" d="M601.85,577.99l-10.54-29.79c-.79-2.23-1.48-3.35-2.07-3.35-.26,0-.57.03-.92.1-.35.07-.63-.06-.85-.36-.22-.31-.33-.69-.33-1.15s.18-.93.56-1.41c.37-.48.85-.9,1.41-1.25,1.27-.81,2.38-1.21,3.33-1.21s1.66.02,2.12.07c.46.04.9.2,1.31.46.83.55,1.53,1.79,2.1,3.71l8.44,28.57c2.08-6.13,3.43-10.18,4.04-12.15,2.17-7.31,3.61-12.72,4.33-16.22.15-.79.88-1.45,2.17-2,1.01-.41,1.86-.62,2.56-.62s1.17.05,1.39.15c.23.1.4.28.51.54.27.52.46,1.16.59,1.9l8.74,28.64c1.64-4.01,2.76-6.82,3.35-8.44l1.71-4.8c1.82-5.23,2.73-9.32,2.73-12.25,0-2.08-1.01-3.24-3.02-3.48-.22-.35-.33-.72-.33-1.1s.19-.76.56-1.14c.37-.38.85-.72,1.45-1,1.18-.55,2.38-.82,3.6-.82s2.15.07,2.81.2c.66.13,1.18.36,1.58.69.74.66,1.12,1.64,1.12,2.94s-.14,2.62-.43,3.94c-.28,1.33-.67,2.78-1.15,4.35-.48,1.58-1.04,3.23-1.68,4.96-2.39,6.35-4.13,10.71-5.22,13.07l-2.4,4.99c-.48.96-.85,1.66-1.12,2.1l-.82,1.28c-.92,1.42-2,2.13-3.25,2.13-1.36,0-2.47-.36-3.35-1.08-.35-.31-.6-.69-.76-1.15l-8.15-23.51c-2.19,6.85-3.58,11.14-4.17,12.87-1.8,5.04-2.88,7.93-3.25,8.69-.37.76-.7,1.37-.99,1.84-.29.47-.6.87-.95,1.2-.79.77-1.65,1.15-2.6,1.15-1.31,0-2.44-.38-3.38-1.15-.35-.28-.61-.65-.79-1.08"/>
      <path class="cls-2" d="M650.5,561.47c0-2.67.27-5.07.79-7.19.52-2.12,1.25-3.99,2.17-5.61.92-1.62,2-3,3.25-4.16,1.25-1.15,2.58-2.09,4.01-2.81,2.78-1.42,5.83-2.14,9.16-2.14,4.27,0,7.89,1.55,10.87,4.66,3.3,3.42,4.96,7.93,4.96,13.53,0,7.36-2,13.08-6.01,17.18-3.48,3.53-7.66,5.29-12.52,5.29s-9.15-1.78-12.21-5.35c-2.98-3.44-4.47-7.9-4.47-13.4M669.12,574.87c1.47,0,2.78-.35,3.94-1.03,1.16-.69,2.15-1.64,2.95-2.84,1.62-2.5,2.43-5.74,2.43-9.72,0-4.38-.85-8.1-2.56-11.17-1.93-3.52-4.7-5.29-8.31-5.29-2.91,0-5.24,1.12-7,3.35-1.86,2.36-2.79,5.67-2.79,9.92,0,5.32,1.17,9.52,3.52,12.61,2.1,2.78,4.71,4.17,7.82,4.17"/>
      <path class="cls-2" d="M709.32,579.76c-.46-.11-1.16-.16-2.1-.16h-11.13c-2.1,0-3.45-.37-4.04-1.12-.24-.29-.36-.61-.36-.99,0-.92.17-1.6.52-2.04.53.18,1.01.26,1.46.26s.83-.06,1.13-.18c.31-.12.55-.32.72-.61.3-.53.46-1.56.46-3.09v-21.48c0-2.06-.38-3.34-1.15-3.84-.31-.2-.71-.3-1.21-.3s-.9.08-1.2.23c-.3.15-.54.26-.72.33-.19.07-.35.06-.48-.02-.13-.08-.27-.19-.4-.35-.33-.39-.49-.77-.49-1.14s.14-.75.41-1.18c.27-.43.72-.92,1.33-1.48.61-.56,1.31-1.07,2.1-1.53,1.77-1.03,3.55-1.54,5.32-1.54,2.01,0,3.21,1.31,3.58,3.94.11.77.17,1.57.2,2.4,3.2-2.83,6.49-4.76,9.89-5.81,1.14-.35,2.17-.53,3.1-.53s1.69.13,2.3.39c.6.26,1.08.63,1.43,1.08.66.9.98,2.05.98,3.45s-.07,2.52-.2,3.35c-.13.83-.3,1.57-.49,2.2-.4,1.29-.77,2.11-1.12,2.46-.61.64-1.43.95-2.46.95s-1.58-.31-1.58-.92c0-2.34-.1-3.84-.3-4.5-.37-1.21-1.07-1.81-2.1-1.81s-1.96.11-2.79.35c-.83.23-1.64.54-2.43.93-1.6.79-3,1.81-4.2,3.06v21.84c.07,1.73.82,2.78,2.27,3.15.42.11.89.21,1.41.3.52.09.98.19,1.36.31.38.12.69.26.91.41.37.28.56.74.56,1.38,0,.79-.17,1.39-.49,1.81"/>
      <path class="cls-2" d="M751,575.49c-3.4,3.17-7.13,4.76-11.2,4.76-4.49,0-8.15-1.53-10.97-4.6-3.07-3.37-4.6-8.02-4.6-13.96,0-6.68,2.13-12.11,6.37-16.29,3.96-3.9,8.65-5.85,14.06-5.85,2.17,0,4.25.36,6.24,1.08v-9.49c0-1.53-.15-2.51-.46-2.92-.51-.7-1.33-1.05-2.46-1.05-.48,0-.96.05-1.43.15-.47.1-.8.1-.99,0-.19-.1-.33-.24-.44-.41-.44-.72.11-1.64,1.64-2.76,2.41-1.77,4.78-2.66,7.13-2.66,2.47,0,3.89,1.35,4.24,4.04.09.81.13,1.66.13,2.56v38.13c0,3.37.13,5.47.39,6.3.26.83.57,1.38.94,1.63.36.25.81.38,1.36.38s1-.09,1.35-.27l.98-.43c.29-.07.54.07.76.4.46.68.53,1.29.2,1.84-.33.55-.82,1.07-1.48,1.58-.66.5-1.39.94-2.2,1.31-3.55,1.6-6.2,1.63-7.95.1-.85-.74-1.39-1.94-1.61-3.58M750.9,547.31c-2.15-1.64-4.64-2.46-7.49-2.46-3.42,0-6.19,1.26-8.31,3.78-2.28,2.69-3.41,6.36-3.41,11,0,7.38,2.1,11.93,6.3,13.66,1.31.52,2.59.79,3.83.79s2.27-.1,3.11-.3c.83-.2,1.61-.46,2.33-.79,1.44-.66,2.66-1.45,3.65-2.4v-23.29Z"/>
      <path class="cls-2" d="M790.81,551.22c0-3.37-1.4-5.61-4.2-6.7-.9-.35-1.87-.53-2.91-.53s-2,.09-2.89.26c-.88.18-1.67.45-2.35.82-1.53.83-2.3,2.02-2.3,3.58s.64,2.78,1.9,3.88c1.4,1.16,4.01,2.59,7.82,4.29,3.81,1.7,6.75,3.55,8.82,5.55,2.07,2,3.1,4.31,3.1,6.91,0,2.93-1.2,5.41-3.61,7.42-2.83,2.34-6.73,3.52-11.73,3.52-6.11,0-10.33-1.3-12.68-3.91-.81-.92-1.21-2.09-1.21-3.51,0-3.44.84-5.44,2.53-6.01.42-.13.81-.2,1.18-.2,1.03,0,1.59.32,1.67.95.48,5.48,3.55,8.21,9.2,8.21,3.39,0,5.66-.95,6.8-2.86.37-.61.56-1.36.56-2.23s-.28-1.67-.84-2.4c-.56-.73-1.33-1.4-2.31-2.02-.99-.62-2.16-1.23-3.51-1.82l-4.37-1.97c-6.7-3.07-10.05-7.14-10.05-12.22,0-3.28,1.45-5.91,4.37-7.88,2.76-1.86,6.32-2.79,10.67-2.79,5.91,0,9.59,1.28,11.04,3.84.37.66.56,1.38.56,2.17s-.04,1.49-.13,2.12c-.09.62-.2,1.19-.33,1.69-.22.96-.47,1.64-.76,2.04-.57.42-1.38.62-2.45.62s-1.59-.27-1.59-.82"/>
      <path class="cls-2" d="M935.55,544.16c3.28-3.07,6.95-4.6,11-4.6,4.47,0,8.1,1.55,10.91,4.63,3.07,3.33,4.6,7.97,4.6,13.92,0,6.7-2.1,12.13-6.31,16.29-3.96,3.88-8.65,5.81-14.06,5.81-3.52,0-7.04-.8-10.54-2.4-1.14-.5-2.11-1.08-2.92-1.74v-44.93c0-1.51-.15-2.48-.46-2.92-.46-.7-1.27-1.05-2.43-1.05-.52,0-1.02.05-1.48.15-.46.1-.78.1-.95,0-.17-.1-.33-.23-.46-.41-.46-.7.09-1.62,1.64-2.76,2.41-1.77,4.78-2.66,7.13-2.66,2.5,0,3.9,1.35,4.2,4.04.09.81.13,1.66.13,2.56v16.06ZM935.55,549.38v23.02c2.06,1.71,4.52,2.56,7.39,2.56,3.39,0,6.15-1.26,8.28-3.77,2.26-2.67,3.38-6.34,3.38-11.01,0-4.9-.99-8.59-2.99-11.07-1.77-2.26-4.25-3.38-7.44-3.38s-6.06,1.21-8.62,3.64"/>
      <path class="cls-2" d="M966.75,561.47c0-2.67.26-5.07.79-7.19.52-2.12,1.25-3.99,2.17-5.61.92-1.62,2-3,3.25-4.16,1.25-1.15,2.58-2.09,4.01-2.81,2.78-1.42,5.84-2.14,9.16-2.14,4.27,0,7.89,1.55,10.87,4.66,3.31,3.42,4.96,7.93,4.96,13.53,0,7.36-2,13.08-6.01,17.18-3.48,3.53-7.65,5.29-12.51,5.29s-9.15-1.78-12.22-5.35c-2.98-3.44-4.47-7.9-4.47-13.4M985.38,574.87c1.47,0,2.78-.35,3.94-1.03,1.16-.69,2.15-1.64,2.96-2.84,1.62-2.5,2.43-5.74,2.43-9.72,0-4.38-.85-8.1-2.56-11.17-1.93-3.52-4.7-5.29-8.31-5.29-2.91,0-5.24,1.12-7,3.35-1.86,2.36-2.79,5.67-2.79,9.92,0,5.32,1.17,9.52,3.52,12.61,2.1,2.78,4.71,4.17,7.82,4.17"/>
      <path class="cls-2" d="M1007.12,561.47c0-2.67.26-5.07.79-7.19.52-2.12,1.25-3.99,2.17-5.61.92-1.62,2-3,3.25-4.16,1.25-1.15,2.58-2.09,4-2.81,2.78-1.42,5.84-2.14,9.17-2.14,4.27,0,7.89,1.55,10.87,4.66,3.3,3.42,4.96,7.93,4.96,13.53,0,7.36-2.01,13.08-6.01,17.18-3.48,3.53-7.65,5.29-12.52,5.29s-9.15-1.78-12.21-5.35c-2.98-3.44-4.47-7.9-4.47-13.4M1025.74,574.87c1.47,0,2.78-.35,3.94-1.03,1.16-.69,2.15-1.64,2.96-2.84,1.62-2.5,2.43-5.74,2.43-9.72,0-4.38-.86-8.1-2.56-11.17-1.93-3.52-4.7-5.29-8.31-5.29-2.91,0-5.25,1.12-7,3.35-1.86,2.36-2.79,5.67-2.79,9.92,0,5.32,1.17,9.52,3.52,12.61,2.1,2.78,4.7,4.17,7.81,4.17"/>
      <path class="cls-2" d="M1060.69,579.76c-.44-.11-1.14-.17-2.1-.17h-9.85c-2.11,0-3.45-.37-4.04-1.12-.24-.29-.36-.61-.36-.98,0-.92.17-1.6.52-2.04.53.18,1.13.26,1.81.26s1.18-.27,1.51-.82c.33-.55.48-1.57.46-3.06v-39.21c0-1.51-.16-2.49-.46-2.92-.46-.7-1.27-1.05-2.43-1.05-.35,0-.71.04-1.07.11-.36.08-.64.07-.82-.03-.19-.1-.33-.23-.44-.41-.29-.44-.26-.88.08-1.33.34-.45.82-.92,1.46-1.43.63-.5,1.34-.94,2.1-1.31,1.64-.86,3.06-1.28,4.26-1.28s2.07.17,2.66.52c.57.35,1.01.82,1.29,1.41.49.96.73,2.52.73,4.66v42.6c0,1.82.54,2.93,1.64,3.35.3.13.67.24,1.1.33.42.09.81.19,1.16.31.35.12.63.26.82.41.33.28.5.74.5,1.38,0,.77-.18,1.37-.53,1.81M1074.58,539.56c3.42,0,5.13,1.05,5.13,3.15,0,2.65-2.66,6.31-7.98,10.97-2.06,1.82-4.13,3.37-6.21,4.66,1.4,1.29,2.84,2.97,4.3,5.03l3.45,4.86c2.89,4.14,5.07,6.21,6.54,6.21,1.2,0,1.99-.12,2.38-.36.38-.24.66-.37.84-.39.17-.02.4.05.68.23.29.17.43.47.43.89s-.17.94-.51,1.56c-.34.63-.81,1.22-1.43,1.79-1.49,1.38-3.09,2.07-4.82,2.07s-3.19-.41-4.37-1.23c-1.18-.82-2.29-1.88-3.32-3.18-1.03-1.3-2-2.75-2.92-4.35l-2.73-4.66c-2.21-3.81-4.1-6.29-5.68-7.42-.92-.63-1.23-1.04-.92-1.21l.95-.52,5.29-3.78c2.26-1.69,3.81-3.01,4.66-3.97,1.67-1.86,2.5-3.42,2.5-4.66,0-.88-.87-1.38-2.63-1.51-.21-.35-.32-.72-.32-1.12s.21-.78.64-1.17c.42-.38.96-.7,1.62-.97,1.4-.59,2.88-.89,4.43-.89"/>
      <path class="cls-2" d="M1109.79,551.22c0-3.37-1.4-5.61-4.2-6.7-.9-.35-1.87-.53-2.91-.53s-2,.09-2.89.26c-.88.18-1.67.45-2.35.82-1.53.83-2.29,2.02-2.29,3.58s.63,2.78,1.9,3.88c1.4,1.16,4.01,2.59,7.82,4.29,3.81,1.7,6.74,3.55,8.82,5.55,2.06,2,3.1,4.31,3.1,6.91,0,2.93-1.21,5.41-3.61,7.42-2.83,2.34-6.74,3.52-11.73,3.52-6.11,0-10.33-1.3-12.68-3.91-.81-.92-1.21-2.09-1.21-3.51,0-3.44.84-5.44,2.53-6.01.41-.13.81-.2,1.18-.2,1.03,0,1.59.32,1.67.95.49,5.48,3.55,8.21,9.2,8.21,3.4,0,5.66-.95,6.8-2.86.37-.61.56-1.36.56-2.23s-.28-1.67-.84-2.4c-.56-.73-1.33-1.4-2.32-2.02-.98-.62-2.15-1.23-3.51-1.82l-4.37-1.97c-6.7-3.07-10.05-7.14-10.05-12.22,0-3.28,1.46-5.91,4.37-7.88,2.76-1.86,6.32-2.79,10.67-2.79,5.92,0,9.59,1.28,11.04,3.84.37.66.56,1.38.56,2.17s-.05,1.49-.13,2.12c-.09.62-.2,1.19-.33,1.69-.22.96-.47,1.64-.76,2.04-.57.42-1.38.62-2.44.62s-1.6-.27-1.6-.82"/>
      <path class="cls-3" d="M449.12,375.38c-68.62,13.24-113.72,71.25-131.81,99.14-.48.89-.92,1.72-1.36,2.55l-.19,1.22c16.94-24,62.66-79.46,134.25-97.99-.27-1.65-.57-3.29-.89-4.92"/>
      <path class="cls-3" d="M309.56,480.7c-9.66-23.13-48.16-103.43-125.71-127.19-.97,1.53-1.92,3.08-2.85,4.65,78.64,30.15,118.53,102.77,128.5,123.33l.06-.79Z"/>
      <path class="cls-3" d="M438.56,351.28c-61.52,17.69-103.49,85.04-121.77,120.33l-.37,2.36c18.12-32.57,60.47-96.6,123.48-119.09-.43-1.21-.88-2.41-1.34-3.61"/>
      <path class="cls-3" d="M309.89,476.23c-12.49-36.21-45.16-112.49-105.59-139.2-1.19,1.42-2.37,2.85-3.53,4.3,61.07,34.85,95.4,103.07,109.05,135.92l.07-1.03Z"/>
      <path class="cls-3" d="M1238.3,516.6c0,1.9-1.05,2.85-3.15,2.85-1.36,0-2.65-.26-3.88-.77-1.22-.51-2.34-1.07-3.36-1.68-2.1-1.16-3.96-2.85-5.55-5.1-1.6-2.24-2.96-4.82-4.08-7.74-1.12-2.92-2.07-6.1-2.85-9.53-.78-3.43-1.41-6.91-1.89-10.44-.47-3.53-.85-7.03-1.12-10.5-.27-3.46-.44-6.69-.5-9.68-1.98-.75-3.96-1.59-5.97-2.55-2-.95-3.8-2.02-5.4-3.21-1.59-1.19-2.9-2.48-3.92-3.87-1.02-1.39-1.53-2.87-1.53-4.43,0-1.22.29-2.33.87-3.31.57-.98,1.54-1.48,2.9-1.48,1.16,0,2.24.26,3.26.76,1.02.51,2.04,1.17,3.06,1.99,1.02.81,2.07,1.75,3.16,2.8,1.08,1.06,2.24,2.12,3.46,3.21,0-6.93.24-14.28.72-22.06.47-7.78,1.32-15.56,2.54-23.33,1.23-7.78,2.87-15.37,4.94-22.78,2.08-7.4,4.71-14.23,7.9-20.48l1.84.61c-2.32,11.75-4,23.52-5.05,35.3-1.05,11.79-1.58,23.59-1.58,35.41,0,4.35.12,8.65.36,12.89.24,4.25.59,8.48,1.07,12.69,2.04.82,4.31,1.46,6.83,1.94,2.51.48,5.29.71,8.35.71,5.16,0,9.97-.78,14.42-2.35,4.45-1.56,8.52-3.72,12.23-6.47,3.7-2.75,6.97-5.99,9.83-9.73,2.85-3.74,5.26-7.76,7.23-12.07,1.97-4.31,3.47-8.8,4.49-13.45,1.01-4.65,1.52-9.32,1.52-14.01s-.51-9.32-1.52-14.11c-1.02-4.79-2.54-9.44-4.54-13.96-2-4.52-4.45-8.74-7.33-12.69-2.89-3.94-6.21-7.39-9.94-10.34-3.74-2.96-7.86-5.3-12.38-7.03-4.52-1.73-9.39-2.6-14.62-2.6-4.28,0-8.7.78-13.25,2.35-4.55,1.56-8.68,3.75-12.38,6.57-3.7,2.82-6.76,6.2-9.17,10.14-2.41,3.94-3.61,8.25-3.61,12.94,0,1.84.21,3.48.66,4.94.44,1.46.92,2.8,1.42,4.03.51,1.22.99,2.36,1.43,3.41.44,1.05.66,2.12.66,3.21,0,1.97-.66,3.62-1.98,4.94-1.33,1.32-2.94,1.99-4.84,1.99-1.77,0-3.16-.48-4.18-1.43-1.02-.95-1.82-2.14-2.4-3.56-.58-1.43-.95-2.94-1.12-4.54-.17-1.6-.25-3.01-.25-4.23,0-5.97,1.41-11.39,4.23-16.25,2.82-4.86,6.5-9.18,11.05-12.99,2.86-2.45,5.73-4.6,8.61-6.47,2.89-1.87,5.86-3.43,8.92-4.69,3.05-1.26,6.26-2.21,9.63-2.85,3.36-.64,6.94-.97,10.75-.97,8.83,0,16.98,1.51,24.45,4.53,7.47,3.02,13.91,7.23,19.31,12.63,5.4,5.4,9.61,11.82,12.63,19.26,3.03,7.44,4.54,15.61,4.54,24.5s-1.62,17.75-4.84,25.73c-3.23,7.98-7.71,14.95-13.45,20.89-5.74,5.94-12.55,10.62-20.43,14.01-7.88,3.39-16.47,5.09-25.78,5.09-2.38,0-4.79-.13-7.23-.41-2.45-.27-4.86-.61-7.24-1.02,2.25,15.35,6.32,30.5,12.23,45.45.2.54.39,1.1.56,1.68.17.58.25,1.14.25,1.68"/>
      <path class="cls-3" d="M1367.16,469.01c-1.76,2.58-3.89,4.99-6.37,7.23-2.48,2.24-5.19,4.18-8.15,5.81-2.95,1.63-6.05,2.92-9.27,3.87-3.23.95-6.47,1.43-9.73,1.43-4.62,0-8.93-.6-12.94-1.79-4.01-1.19-7.51-3-10.49-5.45-2.99-2.45-5.34-5.52-7.04-9.22-1.7-3.7-2.54-8.03-2.54-12.99s.9-9.46,2.7-13.71c1.8-4.24,4.27-7.95,7.44-11.11,3.15-3.16,6.87-5.65,11.15-7.49,4.28-1.83,8.87-2.75,13.76-2.75,2.31,0,4.46.32,6.47.97,2,.64,3.75,1.6,5.25,2.85,1.49,1.26,2.66,2.8,3.51,4.63.85,1.84,1.27,3.94,1.27,6.32,0,2.85-.57,5.36-1.73,7.54-1.15,2.17-2.68,4.08-4.58,5.71-1.91,1.63-4.06,2.99-6.47,4.08-2.41,1.09-4.93,1.97-7.54,2.65-2.62.68-5.2,1.17-7.75,1.48-2.54.31-4.87.46-6.98.46h-2.44c.88,6.18,3.32,10.9,7.33,14.16s9.55,4.89,16.61,4.89c5.03,0,9.94-.88,14.73-2.65,4.78-1.77,9.12-4.21,12.99-7.34l.81.41ZM1314.38,456.48h2.55c2.45,0,4.96-.39,7.54-1.17,2.58-.78,4.91-1.94,6.98-3.46,2.07-1.53,3.79-3.41,5.15-5.65,1.35-2.24,2.03-4.79,2.03-7.64s-.59-5.09-1.78-6.93c-1.19-1.83-3.25-2.75-6.17-2.75s-5.51.9-7.58,2.7c-2.08,1.8-3.76,4.01-5.05,6.62-1.29,2.61-2.23,5.36-2.8,8.25-.58,2.89-.87,5.45-.87,7.69v2.35Z"/>
      <path class="cls-3" d="M1450.21,469.01c-1.3,2.45-2.67,4.79-4.13,7.03-1.46,2.24-3.11,4.21-4.94,5.91-1.84,1.7-3.91,3.06-6.22,4.08-2.31,1.02-4.96,1.53-7.94,1.53-3.4,0-6.32-.83-8.77-2.5-2.44-1.66-4.53-3.87-6.27-6.62-1.73-2.75-3.12-5.89-4.17-9.43-1.06-3.53-1.92-7.13-2.6-10.8-.68-3.67-1.19-7.29-1.53-10.85-.34-3.57-.65-6.78-.92-9.63-1.29,1.02-2.85,2.97-4.68,5.86-1.84,2.89-3.71,6.27-5.61,10.14-1.9,3.87-3.72,8.08-5.45,12.63-1.73,4.55-3.14,9.04-4.23,13.45-.2.95-.52,1.94-.97,2.96-.44,1.02-.98,1.95-1.62,2.8-.65.85-1.42,1.56-2.3,2.14-.88.58-1.87.86-2.95.86-1.77,0-3.04-.61-3.82-1.83-.79-1.22-1.35-2.62-1.69-4.18-1.97-8.63-3.34-16.88-4.12-24.76-.78-7.88-1.17-15.76-1.17-23.64,0-1.9.32-3.55.96-4.94.65-1.39,1.52-2.55,2.6-3.46,1.09-.92,2.38-1.59,3.88-2.04,1.49-.44,3.05-.66,4.68-.66h.97c.44,0,.87.05,1.27.15.41.1.75.25,1.02.46.27.2.37.48.31.82-1.77,8.9-2.62,17.95-2.55,27.15.07,9.2.54,18.05,1.43,26.55.74-3.4,1.85-7.25,3.31-11.57,1.46-4.31,3.16-8.66,5.09-13.05,1.94-4.38,4.04-8.56,6.32-12.53,2.28-3.97,4.6-7.32,6.98-10.04,1.15-1.29,2.32-2.4,3.52-3.31,1.18-.92,2.66-1.37,4.43-1.37,1.02,0,1.87.2,2.54.61.68.41,1.24.92,1.69,1.53.44.61.78,1.31,1.01,2.09.24.78.43,1.54.56,2.29.34,1.97.68,4.52,1.02,7.64.34,3.13.77,6.45,1.28,9.98.51,3.53,1.14,7.08,1.88,10.65.75,3.57,1.7,6.79,2.86,9.68,1.15,2.89,2.55,5.25,4.17,7.08,1.64,1.84,3.57,2.75,5.81,2.75,1.83,0,3.62-.36,5.35-1.07,1.73-.71,3.38-1.63,4.94-2.75,1.56-1.12,3.02-2.41,4.38-3.87,1.36-1.46,2.58-2.9,3.67-4.33l.72.41Z"/>
      <path class="cls-2" d="M1246.29,579.6c-3.37,0-5.06-.77-5.06-2.3,0-.79.18-1.4.53-1.84.52.18,1.01.26,1.44.26,2.04,0,3.04-1.29,2.99-3.88v-22c0-1.53-.21-2.6-.64-3.2-.42-.6-1.19-.9-2.28-.9-.81,0-1.54.1-2.2.29-.39.04-.68-.26-.85-.92-.16-.59-.07-1.11.26-1.56.33-.45.84-.92,1.52-1.42.7-.49,1.46-.92,2.29-1.3,1.79-.85,3.29-1.28,4.5-1.28s2.09.18,2.67.53c.58.35,1.03.82,1.34,1.41.48.96.72,2.52.72,4.66v26.24c.06,1.73.69,2.78,1.87,3.15.33.11.73.21,1.21.3.49.09.92.19,1.3.31.38.12.69.26.9.41.38.28.56.75.56,1.38,0,.79-.16,1.39-.49,1.8-.46-.11-1.16-.16-2.1-.16h-10.48ZM1248.3,533.45c-.75,0-1.44-.12-2.06-.34-.62-.23-1.16-.57-1.62-1-.97-.92-1.45-2.16-1.45-3.71s.57-2.75,1.71-3.78c1.09-1.03,2.41-1.54,3.94-1.54s2.76.46,3.68,1.38c.92.92,1.38,2.17,1.38,3.74,0,1.49-.55,2.75-1.64,3.78-1.08.98-2.39,1.48-3.94,1.48"/>
      <path class="cls-2" d="M1289.48,575.49c-3.39,3.17-7.12,4.76-11.2,4.76-4.48,0-8.14-1.53-10.97-4.6-3.06-3.37-4.6-8.02-4.6-13.96,0-6.68,2.13-12.11,6.38-16.29,3.96-3.9,8.65-5.85,14.06-5.85,2.16,0,4.24.36,6.23,1.08v-9.49c0-1.53-.15-2.51-.45-2.92-.51-.7-1.33-1.05-2.47-1.05-.48,0-.96.05-1.43.15-.47.1-.8.1-.98,0-.19-.1-.34-.24-.45-.41-.43-.72.11-1.64,1.65-2.76,2.4-1.77,4.78-2.66,7.12-2.66,2.48,0,3.89,1.35,4.24,4.04.09.81.13,1.66.13,2.56v38.13c0,3.37.13,5.47.4,6.3.26.83.57,1.38.93,1.63.36.25.82.38,1.36.38s1-.09,1.35-.27l.99-.43c.28-.07.53.07.75.4.46.68.53,1.29.2,1.84-.33.55-.82,1.07-1.48,1.58-.66.5-1.39.94-2.2,1.31-3.55,1.6-6.2,1.63-7.95.1-.85-.74-1.39-1.94-1.61-3.58M1289.38,547.31c-2.14-1.64-4.64-2.46-7.48-2.46-3.42,0-6.19,1.26-8.31,3.78-2.28,2.69-3.42,6.36-3.42,11,0,7.38,2.1,11.93,6.31,13.66,1.31.52,2.58.79,3.82.79s2.28-.1,3.11-.3c.83-.2,1.61-.46,2.33-.79,1.44-.66,2.66-1.45,3.64-2.4v-23.29Z"/>
      <path class="cls-2" d="M1306.76,561.93c0-2.65.27-5,.82-7.06.55-2.06,1.28-3.9,2.22-5.53.93-1.63,2.02-3.06,3.28-4.29,1.26-1.23,2.61-2.24,4.06-3.06,2.85-1.62,5.65-2.43,8.41-2.43s4.97.49,6.63,1.46c1.66.98,3.02,2.27,4.07,3.89,1.95,3.09,2.93,7.19,2.93,12.32,0,1.91-.8,2.88-2.4,2.92l-22.93.49c.14,4.75,1.36,8.26,3.68,10.54,1.97,1.93,4.52,2.89,7.65,2.89,4.67,0,8.46-.98,11.37-2.92.2,0,.44.16.72.49.55.66.82,1.23.82,1.71,0,1.05-1.31,2.4-3.94,4.04-3.02,1.88-6.55,2.83-10.58,2.83-5.25,0-9.38-1.67-12.38-5.02-2.95-3.28-4.43-7.71-4.43-13.27M1314.05,556.41c6.31-.31,12.08-.71,17.31-1.21.24-6.96-2.17-10.44-7.23-10.44-2.82,0-5.13,1.09-6.93,3.29-1.64,2.01-2.69,4.8-3.15,8.37"/>
      <path class="cls-2" d="M1367,575.43c-3.2,3.2-7.06,4.8-11.6,4.8-3.5,0-6.3-1.01-8.41-3.02-2.12-2.04-3.18-4.67-3.18-7.91,0-4.03,1.79-7.05,5.38-9.06,3.25-1.84,7.81-2.76,13.7-2.76h4.11c.02-.83.03-1.64.03-2.43v-2.46c0-2.93-.43-5-1.28-6.21-.96-1.36-2.61-2.04-4.93-2.04-5.32,0-8.06,1.9-8.21,5.71-.02.59-.01,1.08.03,1.48-.43.35-1.17.52-2.21.52s-1.8-.12-2.27-.36-.88-.57-1.23-.98c-.74-.85-1.12-1.94-1.12-3.27s.39-2.49,1.17-3.48c.77-.99,1.83-1.81,3.17-2.45,2.6-1.29,5.68-1.94,9.23-1.94s6.21.34,8,1.04c1.78.69,3.2,1.6,4.25,2.74,1.86,2.02,2.79,4.72,2.79,8.11l-.33,15.76c0,2.87.14,4.69.41,5.45.27.76.6,1.28.99,1.54.38.26.85.39,1.41.39s1.01-.09,1.36-.26l.92-.43c.31-.11.57.02.81.38.23.36.34.68.34.95s-.11.63-.34,1.07c-.24.44-.66.9-1.29,1.4-.62.49-1.32.92-2.11,1.3-4.36,2.06-7.33,1.58-8.9-1.45-.33-.59-.56-1.3-.69-2.13M1366.9,571.12c0-3.15.02-6.29.06-9.39-4.55.18-7.65.47-9.28.87-1.63.41-2.8.79-3.52,1.17-.73.37-1.3.81-1.71,1.31-.68.83-1.02,2.08-1.02,3.76s.59,3.01,1.77,4.01c1.18,1,2.88,1.49,5.09,1.49,3.13,0,6-1.07,8.61-3.22"/>
      <path class="cls-2" d="M1407.26,551.22c0-3.37-1.4-5.61-4.2-6.7-.9-.35-1.87-.53-2.91-.53s-2,.09-2.89.26c-.88.18-1.67.45-2.35.82-1.53.83-2.3,2.02-2.3,3.58s.64,2.78,1.91,3.88c1.4,1.16,4.01,2.59,7.82,4.29,3.81,1.7,6.74,3.55,8.82,5.55,2.06,2,3.1,4.31,3.1,6.91,0,2.93-1.21,5.41-3.61,7.42-2.83,2.34-6.74,3.52-11.73,3.52-6.11,0-10.33-1.3-12.68-3.91-.81-.92-1.21-2.09-1.21-3.51,0-3.44.84-5.44,2.53-6.01.41-.13.81-.2,1.18-.2,1.03,0,1.59.32,1.67.95.49,5.48,3.55,8.21,9.2,8.21,3.39,0,5.66-.95,6.8-2.86.37-.61.56-1.36.56-2.23s-.28-1.67-.84-2.4c-.56-.73-1.33-1.4-2.32-2.02-.98-.62-2.15-1.23-3.51-1.82l-4.37-1.97c-6.7-3.07-10.05-7.14-10.05-12.22,0-3.28,1.46-5.91,4.37-7.88,2.76-1.86,6.32-2.79,10.67-2.79,5.92,0,9.59,1.28,11.04,3.84.37.66.56,1.38.56,2.17s-.05,1.49-.13,2.12c-.09.62-.2,1.19-.33,1.69-.22.96-.47,1.64-.76,2.04-.57.42-1.38.62-2.44.62s-1.6-.27-1.6-.82"/>
      <path class="cls-2" d="M315.95,477.02l-11.5,73.9,5.3-72.8c-9.18-15.99-51.03-80.88-137.16-104.46-6.11,12.42-11.16,25.6-14.93,39.39-6.93,25.34-8.88,50.18-6.47,73.24,104.84,24.43,147.66,110.24,147.66,110.24,0,0,44.11-53.78,123.47-70.73,12.7-19.13,22.74-40.74,29.13-64.09,5.09-18.62,7.48-36.96,7.44-54.52-78.85,8.3-128.72,54.82-142.95,69.84"/>
    </g>
  </g>
</svg>