<svg id="Layer_1" data-name="Layer 1" xmlns="http://www.w3.org/2000/svg" xmlns:xlink="http://www.w3.org/1999/xlink" viewBox="0 0 1600.32 900.24"><defs><style>.cls-1{fill:none;}.cls-2{clip-path:url(#clip-path);}.cls-3{clip-path:url(#clip-path-2);}.cls-4{fill:#080504;}.cls-5{clip-path:url(#clip-path-3);}</style><clipPath id="clip-path"><rect class="cls-1" width="1600.32" height="900.24"/></clipPath><clipPath id="clip-path-2"><rect class="cls-1" x="457.37" y="478.91" width="97.06" height="31.9"/></clipPath><clipPath id="clip-path-3"><rect class="cls-1" x="1059.22" y="479.29" width="97.06" height="31.9"/></clipPath></defs><g class="cls-2"><g class="cls-3"><path class="cls-4" d="M554.3,497.89a13,13,0,0,1-5.55,9.5,10,10,0,0,1-5.38,1.57,11.93,11.93,0,0,1-3.49-.51h0a19.71,19.71,0,0,1-5-1.73,3.7,3.7,0,0,1-1.65-1.94s0,0,0,0a.07.07,0,0,0,0-.05,3.72,3.72,0,1,1,7.24-1.21,2.2,2.2,0,0,1,0,.44s0,0,0,0,0,0,0,0a3.61,3.61,0,0,1-.52,1.44c-.2.64-.21,1.16.45,1.29a8.57,8.57,0,0,0,7-1.44,10.06,10.06,0,0,0,3.53-7.7,12,12,0,0,0-2.71-8,12.78,12.78,0,0,0-7.18-4.19,19.76,19.76,0,0,0-4.34-.47c-.32,0-.75,0-1.18,0H535l-.14,0-.56,0c-.74.07-1.48.17-2.21.31a27.22,27.22,0,0,0-8.37,3.17c-5.3,3-10.18,7.22-15.72,11.13a59.59,59.59,0,0,1-18.86,9.57,44,44,0,0,1-10.79,1.59c-.93,0-1.88,0-2.67-.05-1,0-1.85-.11-2.78-.23a23.77,23.77,0,0,1-5.42-1.35,15.19,15.19,0,0,1-9.61-18.37,13.36,13.36,0,0,1,6.46-8.63A10.31,10.31,0,0,1,469.1,481v0l.38,0a1.92,1.92,0,0,1,.24,0l.18,0c3.26.14,6.29,1.17,7.73,3a4,4,0,0,1,.41.58l0,0a0,0,0,0,0,0,0,3.72,3.72,0,1,1-6.66.23s0,0,0,0c.68-1.12.63-1.7,0-1.84a8.81,8.81,0,0,0-6,1,10.65,10.65,0,0,0-4.71,7.36,12.12,12.12,0,0,0,1.51,8.55,11.61,11.61,0,0,0,6.8,4.9,18.71,18.71,0,0,0,4.38.68c.74,0,1.56,0,2.25,0,.87-.06,1.6-.13,2.34-.24a28.69,28.69,0,0,0,8.78-2.7c5.55-2.68,10.43-6.66,15.77-10.56s11.08-8,18-10.61A37.63,37.63,0,0,1,531.33,479c.94-.06,1.86-.09,2.79-.07l.7,0,.4,0,.31,0c.42,0,.82,0,1.34.1a25.71,25.71,0,0,1,5.55,1.15,17.58,17.58,0,0,1,9.26,6.73,15.91,15.91,0,0,1,2.62,10.93m-43.1-17.52a38.57,38.57,0,0,0-7.29.57,24,24,0,0,0-4.58,1.46c-.43.2-.85.39-1.26.6a130.82,130.82,0,0,0-11.51,7c-3.66,2.35-7.33,4.69-11.07,6a10.42,10.42,0,0,1-5.45.63,8.86,8.86,0,0,1-4.8-3.15.82.82,0,0,0-.9-.23.79.79,0,0,0-.47,1v0a9.82,9.82,0,0,0,5,5.56,13,13,0,0,0,7.76.67c4.92-1,9.06-3.25,13-5.49s7.65-4.75,11.25-7.2,7-5,11-6.2l.08,0a.83.83,0,0,0,.55-.56.75.75,0,0,0,0-.3c-.14-.27-.65-.44-1.32-.42"/></g><g class="cls-5"><path class="cls-4" d="M1059.34,498.26a13,13,0,0,0,5.56,9.51,10,10,0,0,0,5.37,1.57,11.68,11.68,0,0,0,3.5-.52h0a19,19,0,0,0,5-1.73,3.75,3.75,0,0,0,1.66-1.93v0s0,0,0-.05a3.72,3.72,0,1,0-7.24-1.2,3.29,3.29,0,0,0,0,.44s0,0,0,0v0a3.76,3.76,0,0,0,.52,1.45c.2.64.21,1.15-.44,1.29a8.59,8.59,0,0,1-7-1.44,10.05,10.05,0,0,1-3.52-7.7,12,12,0,0,1,2.7-8,12.82,12.82,0,0,1,7.18-4.18,19.76,19.76,0,0,1,4.34-.47c.32,0,.75,0,1.18,0h.39c-.09,0,0,0,0,0l.14,0,.56,0c.74.07,1.49.17,2.22.31a27.4,27.4,0,0,1,8.36,3.16c5.31,3,10.19,7.23,15.73,11.14s11.77,7.63,18.85,9.57a44.05,44.05,0,0,0,10.8,1.58c.92,0,1.87,0,2.67,0,1,0,1.84-.12,2.77-.23a23.16,23.16,0,0,0,5.42-1.36,15.19,15.19,0,0,0,9.62-18.36,13.4,13.4,0,0,0-6.46-8.63,10.31,10.31,0,0,0-4.76-1.14v0h-.39c-.08,0-.16,0-.24,0l-.17,0c-3.27.15-6.3,1.17-7.74,3a4.78,4.78,0,0,0-.41.59,0,0,0,0,1,0,0s0,0,0,0a3.73,3.73,0,1,0,6.66.23v0c-.68-1.12-.64-1.7,0-1.85a8.81,8.81,0,0,1,6,1,10.61,10.61,0,0,1,4.71,7.36,12.08,12.08,0,0,1-1.51,8.55,11.59,11.59,0,0,1-6.79,4.9,19.33,19.33,0,0,1-4.39.68c-.74,0-1.55,0-2.24,0-.88-.06-1.61-.14-2.35-.24a28.69,28.69,0,0,1-8.78-2.7c-5.54-2.68-10.43-6.66-15.77-10.56s-11.08-8-18-10.61a37.48,37.48,0,0,0-10.84-2.45c-.93-.07-1.86-.09-2.79-.07l-.7,0h-.4l-.31,0-1.34.11a24.93,24.93,0,0,0-5.54,1.15,17.59,17.59,0,0,0-9.27,6.73,16,16,0,0,0-2.62,10.92m43.1-17.51a38.53,38.53,0,0,1,7.29.57,23.21,23.21,0,0,1,4.59,1.46c.42.19.85.39,1.26.6a133,133,0,0,1,11.5,7c3.67,2.35,7.34,4.7,11.08,6a10.3,10.3,0,0,0,5.44.64,8.88,8.88,0,0,0,4.81-3.15.81.81,0,0,1,1.37.8v0a9.83,9.83,0,0,1-5,5.56,13,13,0,0,1-7.75.67c-4.93-1-9.07-3.26-13-5.49s-7.65-4.76-11.24-7.2-7-5-11-6.2l-.08,0a.84.84,0,0,1-.54-.56.81.81,0,0,1,0-.31c.14-.26.65-.43,1.32-.41"/></g><path class="cls-4" d="M472.74,698l-3.07-6.58c-3.73,5.26-18.41,8.55-25,8.55-10.08,0-19.51-2-27-8.55-5.48-4.6-6.58-9.42-9.65-10.74,2.63-2,3.51-3.94,3.51-5.7V556.87c0-2-.88-3.94-3.51-5.92,3.07-1.31,5.48-6.35,11.18-10.74,9.65-7.23,21.7-8.54,33.54-8.54,12.71,0,26.3,5,34.2,10.08-4.17,7.67-11,29.59-14.91,44.28a50,50,0,0,0-13.59-5.92l3.07-9.65a42.09,42.09,0,0,0,2.19-11.83c0-6.14-2.41-11.62-10.08-11.62-4.82,0-10.74,2-10.74,7.45V678.53c0,4.6,4.6,6.57,9,6.57,2.85,0,5.92-1.09,7.24-2.63V615.18a4.05,4.05,0,0,0-3.95-3.73h-3.07l3.07-6.57h37.7l3.07,6.57h-2.85c-2.63,0-5.26,1.76-5.26,4.17V698Z"/><path class="cls-4" d="M553.84,698l-3.07-6.58h3.07c2.19,0,3.5-1.75,3.5-4.16V651.13H540.68V687.3c0,2.41,2.41,4.16,4.83,4.16h2.84L545.51,698h-39l-2.85-6.58h4.16a3.88,3.88,0,0,0,3.95-3.72V557.09c0-2-1.1-3.94-3.51-5.92,3.07-1.31,5.48-6.35,11-10.74,8.33-6.57,19.29-8.77,29.81-8.77,10.09,0,21.27,2.42,29.59,8.77,5.71,4.39,8.12,9.43,11.18,10.74-2.41,2-3.5,4-3.5,5.92V687.3c0,2.41,2.85,4.16,5.26,4.16h2.85L591.54,698Zm3.5-144.89c0-4.39-4.16-6.58-8.33-6.58s-8.33,2.41-8.33,6.58v83.08h16.66Z"/><path class="cls-4" d="M672.64,698l-2.85-6.58h2.85c2.63,0,5.26-1.31,5.26-4.16V588.44l-25,47.13C647.43,615,627,601.15,626.39,588v99.3c0,2.85,3.28,4.16,5.69,4.16h3.07L632.08,698H604.91l-2.85-6.58h2.85c2.62,0,5.25-1.31,5.25-4.16V544.38c0-2.63-2.63-4.17-5.25-4.17h-2.85l2.85-6.57h35.94c.22,14.9,22.8,29.81,25.65,44.5l11.4-22.8v-11c0-2.63-2.63-4.17-5-4.17h-3.07l3.07-6.57h41.43l3.06,6.57h-2.84c-2.64,0-5.27,1.54-5.27,4.17V687.3c0,2.85,2.63,4.16,5.27,4.16h2.84L714.29,698Z"/><path class="cls-4" d="M733.57,698l-3.07-6.58h3.72c2.2,0,4.61-2,4.61-4.16V544.38a4.41,4.41,0,0,0-4.61-4.17H730.5l3.07-6.57H786c24.33,0,28.28,14.9,33.76,17.31-2.41,2-3.29,3.95-3.29,5.92v32.22c0,2,.88,3.95,3.29,5.92-5.26,1.1-11.39,7.24-21.48,8.11,10.09.88,18.19,7.68,23.23,8.77-2.63,2-3.5,4-3.5,5.7V674.8c0,2,.87,4,3.5,5.92C815.11,683.13,810.28,698,786,698ZM786,561c0-6.8-6.57-12.5-15.78-12.5v48c9,0,15.78-5,15.78-12.5Zm.66,62.69c0-9.65-8.11-12.27-16.44-12.27v71.67c7.45,0,16.44-2.85,16.44-12Z"/><path class="cls-4" d="M835.49,698l-3.07-6.58h3.07c2.63,0,5.26-1.31,5.26-4.16V544.38c0-2.63-2.63-4.17-5.26-4.17h-3.07l3.07-6.57h41.65l3.07,6.57h-3.07c-2.42,0-5,1.54-5,4.17V683.13c14.25-.21,27.84-39.67,29.6-48.88,4.6,3.07,6.79,4,12,5.7-3.72,9-9.2,47.35-9.2,58.09Z"/><path class="cls-4" d="M919.87,698,917,691.46h3.51a4.4,4.4,0,0,0,4.6-4.16V544.38a4.41,4.41,0,0,0-4.6-4.17H917l2.85-6.57H993.3C988.48,540.21,987,551,987,560.38v4.39a29.18,29.18,0,0,0-9.65,4.6c-.22-11.84-11.39-20.83-20.82-20.83v49.11c4.6-2.86,17.32-9.43,20.38-15.57V632.5c-3.06-5.7-16.43-12.94-20.38-16.22v66.85c18,0,28.28-38.36,30-48.88a54.68,54.68,0,0,0,12.06,5.7c-3.73,9-9.21,47.35-9.21,58.09Z"/><path class="cls-4" d="M1068.49,698l-22.58-67.95V687.3c0,2.85,2.63,4.16,5,4.16H1054L1051,698H1009.3l-3.07-6.58h3.07c2.41,0,5.26-1.31,5.26-4.16V544.38c0-2.63-2.85-4.17-5.26-4.17h-3.07l3.07-6.57H1061c24.33,0,30.47,14.9,36,17.31-2.41,2-3.51,3.95-3.51,5.92V613c0,2,1.1,3.94,3.51,5.92-3.51,1.53-10.08,8.55-18.85,10.52l19.73,57.87c.87,2.19,2.85,4.16,5.26,4.16h3.51l-2.85,6.58Zm-6.14-139.63c0-9.87-6.36-9.87-16.44-9.87v69.93c8.33,0,16.44,0,16.44-11Z"/><path class="cls-4" d="M1116.92,698l-4.82-6.58c4-7.45,6.14-27,6.14-45.59a183.19,183.19,0,0,0-1.32-23,66.73,66.73,0,0,0,17.76,8.77,121.86,121.86,0,0,0-1.1,16.66c0,17.32,3.51,36.82,17.1,36.82,9.86,0,16.66-9.2,16.66-21.91,0-14.25-8.55-32.67-31.13-46.91-14.24-9-24.11-26.53-24.11-43.84,0-20.17,14.47-38.8,35.51-38.8h30.47l5.7,6.57c-4,8.11-8.55,23.68-10.52,34.42a49.5,49.5,0,0,0-12.94-4.17c1.54-4.6,2-7.23,2-9.86,0-6.8-2.85-14-10.09-14-10.08,0-12,10.74-12,18.2,0,15.34,21.26,26.74,33.32,39a66.39,66.39,0,0,1,18.85,46c0,11-7,48.23-35.73,48.23Z"/><path class="cls-4" d="M599.81,424.83s8.58-10.39,8.58-18.51V218.52c0-8.12-8.58-18.51-8.58-18.51h46s-8.12,10.39-8.12,18.51V397.29h23.92c14,0,32.51-47.82,28.89-74.45a12.61,12.61,0,0,1-8.12,2.71,13.1,13.1,0,0,1,0-26.19c14.9,0,19.41,17.61,19.41,30.25v95.22Z"/><path class="cls-4" d="M742.9,424.83a16.67,16.67,0,0,1-16.7-16.71V281.28c0-7.23-7.67-16.7-7.67-16.7h34.76v129.1a5.59,5.59,0,0,0,5.87,5.41h23.92V281.28c0-7.23-7.67-16.7-7.67-16.7h34.75V408.12c0,7.23,7.68,16.71,7.68,16.71Z"/><path class="cls-4" d="M915,510.14V482.6c0-17.61,2.71-28,12.64-30.7,4.52-1.35,8.58,3.16,8.58,7.67,0,5-2.71,5.87-6.77,7.23-5.42,1.35-5.42,4.06-5.42,5.86,0,13.68-.45,11.75,9.93,11.75h36.93c7.67,0,15.8-5.87,15.8-12.64V424.83H946.49a16.67,16.67,0,0,1-16.7-16.71V281.28c0-7.23-7.67-16.7-7.67-16.7h34.75v129.1a5.59,5.59,0,0,0,5.87,5.41h23.93V281.28c0-7.23-7.68-16.7-7.68-16.7h34.76V493.89c0,10.38-9.48,16.25-16.25,16.25Z"/><path class="cls-4" d="M616.64,510.14l-1.13-2.42h1.13a1.34,1.34,0,0,0,1.29-1.52V492.93h-6.12V506.2a1.7,1.7,0,0,0,1.78,1.52h1l-1,2.42H599.27l-1-2.42h1.53a1.43,1.43,0,0,0,1.45-1.36V458.42a2.89,2.89,0,0,0-1.29-2.17c1.13-.48,2-2.33,4-3.94,3.06-2.41,7.08-3.21,10.94-3.21a18.15,18.15,0,0,1,10.86,3.21c2.09,1.61,3,3.46,4.1,3.94a2.89,2.89,0,0,0-1.29,2.17V506.2c0,.88,1.05,1.52,1.93,1.52h1l-1,2.42ZM617.93,457c0-1.61-1.53-2.41-3.06-2.41s-3.06.88-3.06,2.41v30.48h6.12Z"/><path class="cls-4" d="M660.54,510.14l-1.12-2.42h1.12c.89,0,1.94-.48,1.94-1.52V491.07c0-10.29-14.72-12.7-16.41-22.51V506.2c0,1,1,1.52,1.93,1.52h1l-1.28,2.42h-9.49l-1.13-2.42h1.13a1.66,1.66,0,0,0,1.85-1.52V453.76a1.72,1.72,0,0,0-1.85-1.53h-1.13l1.13-2.41h9.57c.16,5.47,14.56,15.12,14.64,19.78V453.76c0-1-1.05-1.53-1.94-1.53h-1.12l1.12-2.41h9.74l1.12,2.41h-1.12c-.89,0-1.94.57-1.94,1.53V506.2c0,1,1,1.52,1.94,1.52h1.12L670,510.14Z"/><path class="cls-4" d="M679,510.14l-1.13-2.42h1.29a1.56,1.56,0,0,0,1.69-1.44v-52.6a1.56,1.56,0,0,0-1.69-1.45h-1.29l1.13-2.41h19.86c8.93,0,10.21,5.47,12.22,6.35a2.78,2.78,0,0,0-1.2,2.18v43.34a2.74,2.74,0,0,0,1.2,2.09c-2,.89-3.29,6.36-12.22,6.36Zm19.86-50.27c0-4.58-2.82-4.58-6.19-4.58v49.38c3.37,0,6.19,0,6.19-4.51Z"/><path class="cls-4" d="M757.92,510.14l-1.12-2.42h1.12c.89,0,1.93-.48,1.93-1.52V454.57c-5.87,0-5.87,9.56-5.87,13.91a14.15,14.15,0,0,0-3.62-1.69v-1.61c0-3.46-.56-12.95-2.33-15.36h35.06c-1.76,2.41-2.33,11.9-2.33,15.36v1.61a15.29,15.29,0,0,0-3.54,1.69c-.08-4.35,0-13.91-5.87-13.91l-.08,51.63c0,1,1.05,1.52,1.93,1.52h1.13l-1.13,2.42Z"/><path class="cls-4" d="M809.63,510.14l-1.13-2.42h.56c1,0,1.93-.48,1.93-1.52V478.37H804.4V506.2c0,1,1,1.52,1.93,1.52h.48l-1,2.42H791.05l-1.13-2.42h1.29a1.61,1.61,0,0,0,1.69-1.52V453.76a1.61,1.61,0,0,0-1.69-1.53h-1.29l1.13-2.41h14.72l1,2.41h-.48a1.74,1.74,0,0,0-1.93,1.53v18.66H811V453.76a1.74,1.74,0,0,0-1.93-1.53h-.56l1.13-2.41h14.8l1,2.41h-1.29a1.62,1.62,0,0,0-1.69,1.53V506.2a1.62,1.62,0,0,0,1.69,1.52h1.29l-1,2.42Z"/><path class="cls-4" d="M835,510.14l-1.12-2.42h1.28a1.62,1.62,0,0,0,1.7-1.52V453.76a1.62,1.62,0,0,0-1.7-1.53h-1.28l1.12-2.41H862c-1.76,2.41-2.33,6.35-2.33,9.81v1.61a10.13,10.13,0,0,0-3.61,1.69,8.15,8.15,0,0,0-7.64-7.64v17.13H858v5.95h-9.64v26.3c6.59,0,10.45-14.08,11-17.94a20.38,20.38,0,0,0,4.51,2.09c-1.45,3.3-3.46,17.38-3.46,21.32Z"/><path class="cls-4" d="M912,381.07c-3.61-3.61-6.32-.91-5.87,1.8,1.81,9.48-1.8,19-10.83,19h-29.8a5.59,5.59,0,0,1-5.41-5.87v-97.5a5.59,5.59,0,0,1,5.41-5.87h13.1c21,0,25.86,7.71,10.53,29.6-1.8-1.71-2.5-7-8.51-7a10.09,10.09,0,0,0,0,20.18c14.83,0,30.48-31.74,30.48-35.52V283.56c0-9-7.23-16.7-16.25-16.7H849.69a16.66,16.66,0,0,0-16.7,16.7v127.3a16.66,16.66,0,0,0,16.7,16.7h50.56c9,0,16.25-7.67,17.61-16.7,1.35-12.64.45-23.93-5.87-29.79"/><path class="cls-4" d="M908.07,259c-1.07-.07-.67.43,0-.43,5.54-7.59,48.85-29.21,48.85,6L926,270c-.93,0-3.91-10.19-17.95-11"/></g></svg>