<svg width="40" height="40" viewBox="0 0 40 40" fill="none" xmlns="http://www.w3.org/2000/svg">
<path d="M33.27 5H6.02C3.8 5 2 6.8 2 9.02V30.98C2 33.2 3.8 35 6.02 35H33.27C35.49 35 37.29 33.2 37.29 30.98V9.02C37.29 6.8 35.49 5 33.27 5ZM34.29 30.98C34.29 31.54 33.83 32 33.27 32H6.02C5.46 32 5 31.54 5 30.98V9.02C5 8.46 5.46 8 6.02 8H33.27C33.83 8 34.29 8.46 34.29 9.02V30.98Z" fill="white" fill-opacity="0.96"/>
<path d="M7.9 29.5L11.9 27.5L15.9 29.5V19.5H7.9V29.5Z" fill="white" fill-opacity="0.96"/>
<path d="M11.9 18.5C14.1091 18.5 15.9 16.7091 15.9 14.5C15.9 12.2909 14.1091 10.5 11.9 10.5C9.69086 10.5 7.9 12.2909 7.9 14.5C7.9 16.7091 9.69086 18.5 11.9 18.5Z" fill="white" fill-opacity="0.96"/>
</svg>
