<svg width="40" height="40" viewBox="0 0 40 40" fill="none" xmlns="http://www.w3.org/2000/svg">
<path d="M33.71 4H6.28C5.02 4 4 5.04 4 6.31V33.69C4 34.96 5.02 36 6.28 36H33.71C34.97 36 36 34.96 36 33.69V6.31C36 5.04 34.97 4 33.71 4ZM13.67 31.43H8.93V16.16H13.68V31.43H13.67ZM11.3 14.07C9.78 14.07 8.55 12.83 8.55 11.32C8.55 9.81 9.78 8.57 11.3 8.57C12.82 8.57 14.05 9.81 14.05 11.32C14.05 12.83 12.82 14.07 11.3 14.07V14.07ZM31.45 31.43H26.71V24C26.71 22.23 26.67 19.95 24.25 19.95C21.83 19.95 21.4 21.88 21.4 23.87V31.43H16.66V16.16H21.21V18.25H21.27C21.91 17.05 23.46 15.79 25.76 15.79C30.56 15.79 31.45 18.95 31.45 23.07V31.44V31.43Z" fill="white" fill-opacity="0.96"/>
</svg>
