<svg width="210" height="48" viewBox="0 0 210 48" fill="none" xmlns="http://www.w3.org/2000/svg">
<path fill-rule="evenodd" clip-rule="evenodd" d="M53.1016 17.4458L60.5662 16.7834V10.822H53.1016V17.4458ZM60.2523 19.1889H58.9268L53.3806 19.6422V36.9688H60.2523V19.1889ZM70.6122 18.9798C65.6939 18.9798 62.9382 21.6293 62.9382 24.8018C62.9382 31.7045 71.0308 29.7174 71.0308 31.4256C71.0308 31.9486 70.2285 31.9486 68.7983 31.9486C67.6472 31.9486 65.3799 31.7045 63.6358 31.3211H63.3568V36.8642C64.9265 37.1779 66.7054 37.422 68.5542 37.422C73.2283 37.422 78.042 36.3064 78.042 31.4954C78.042 24.9412 69.9145 26.9284 69.9145 25.1853C69.9145 24.7321 70.6122 24.4532 71.6237 24.4532C72.5656 24.4532 74.5538 24.6275 76.6467 25.2899H77.0653V19.6422C75.1119 19.1541 73.1585 18.9798 70.6122 18.9798ZM93.1109 20.2697V19.2587C90.2506 18.9449 88.0879 19.5376 86.588 22.0477H86.4485L86.0997 19.1889H85.2625L80.2047 19.6422V36.9688H87.0763V28.0091C88.053 26.3706 89.5181 25.2899 92.7621 25.499L93.1109 20.2697ZM110.796 26.3706C110.796 21.1064 108.04 18.9798 102.808 18.9798C100.471 18.9798 97.8199 19.3633 95.4828 20.1651L95.9363 25.3944C98.2036 24.6275 100.959 24.244 102.215 24.244C103.82 24.244 103.924 24.8715 103.924 25.8128V26.1614L101.762 26.4403C98.0292 26.9633 94.2969 27.6256 94.2969 31.9486C94.2969 35.6091 96.7735 37.2128 99.1105 37.2825C101.727 37.3174 103.157 36.3412 104.343 35.3999H104.482V37.3174H104.831C106.401 37.1431 109.226 37.0036 110.761 36.8642V26.3706H110.796ZM103.924 31.9834C103.401 32.2972 102.808 32.5064 102.285 32.5064C101.692 32.5064 101.273 32.1577 101.273 31.3211C101.273 30.5541 101.901 30.31 102.564 30.2055L103.889 30.0311V31.9834H103.924ZM120.354 36.9688V10.6128H118.993L113.482 11.1706V37.0036H120.354V36.9688ZM138.213 31.2513H136.294V18.4568H138.213C142.05 18.4568 143.62 20.9321 143.62 24.8715C143.62 28.811 142.05 31.2513 138.213 31.2513ZM150.98 24.8715C150.98 16.1559 145.747 12.7394 138.248 12.7394H129.039V36.9688H138.248C145.678 36.9688 150.98 33.622 150.98 24.8715ZM171.316 36.2715V19.1889H170.095L164.444 19.6422V30.5889C163.537 31.2165 162.665 31.5651 161.898 31.5651C160.886 31.5651 160.293 30.9724 160.293 29.6128V19.1541H159.072L153.421 19.6422V30.7981C153.421 35.8183 156.421 37.422 159.456 37.422C161.688 37.422 163.502 36.3761 165.037 35.3999V37.422H165.874L171.316 36.2715ZM180.978 10.6128H179.618L174.106 11.1706V37.0036H180.978V30.5889L185.373 37.0036H193.954L187.187 28.2183L193.675 19.4678H185.094L181.013 25.6385V10.6128H180.978ZM200.093 25.7082C200.233 24.488 200.512 23.6862 201.907 23.6862C202.849 23.6862 203.198 24.4183 203.198 25.4293V25.7082H200.093ZM209.302 30.9027C207.872 31.3559 205.604 31.9137 204.035 31.9137C201.279 31.9137 200.093 31.6348 200.093 29.4036H209.825C209.93 28.7064 210 28.044 210 26.7541C210 22.9541 208.116 18.9798 201.907 18.9798C195.628 18.9798 192.733 23.3724 192.733 28.3577C192.733 34.3192 195.628 37.3871 202.43 37.3871C204.139 37.3871 206.546 37.1082 209.302 36.3412V30.9027Z" fill="white"/>
<g clip-path="url(#clip0_20_48)">
<circle cx="24" cy="24" r="24" fill="#E00034"/>
<path fill-rule="evenodd" clip-rule="evenodd" d="M24 10.8044C26.0587 10.8044 27.7431 12.4883 27.7431 14.5464C27.7431 16.6045 26.0587 18.2885 24 18.2885C21.9413 18.2885 20.2569 16.6045 20.2569 14.5464C20.2569 12.4883 21.9413 10.8044 24 10.8044ZM24 7C28.1798 7 31.5486 10.399 31.5486 14.5464C31.5486 18.725 28.1798 22.0929 24 22.0929C19.8202 22.0929 16.4514 18.6938 16.4514 14.5464C16.4514 10.399 19.8514 7 24 7ZM8.65321 23.5273C9.18349 23.7456 10.8055 24.4004 10.6807 24.0886C10.556 23.7144 7.71743 21.2509 7.71743 21.2509C7.71743 21.2509 7 20.596 7.03119 19.0992C7.03119 19.068 7.03119 19.068 7.03119 19.0369L7 16.854C7 16.4798 7 16.1992 7 16.1992C7 15.1389 7.74862 15.5755 7.74862 15.5755L16.1706 20.6896C16.6073 20.9391 16.9817 21.5004 16.9817 21.9369V33.1007C16.9817 33.5372 16.6697 33.662 16.2954 33.3189C16.2954 33.3189 11.9908 29.7952 10.6807 28.1425C9.62018 26.8016 8.55963 25.4607 8.49725 23.652C8.49725 23.5897 8.55963 23.4961 8.65321 23.5273ZM39.3468 23.5273C39.4716 23.4961 39.5339 23.5897 39.5339 23.6209C39.4716 25.4607 38.411 26.8016 37.3193 28.1425C36.0092 29.7952 31.7046 33.3189 31.7046 33.3189C31.3303 33.6308 31.0183 33.5372 31.0183 33.1007V21.9369C31.0183 21.5004 31.3927 20.9391 31.8294 20.6896L40.2514 15.5755C40.2514 15.5755 41 15.1389 41 16.1992C41 16.1992 41 16.4798 41 16.854L40.9688 19.0369C40.9688 19.068 40.9688 19.068 40.9688 19.0992C40.9688 20.596 40.2514 21.2509 40.2514 21.2509C40.2514 21.2509 37.4128 23.7144 37.2881 24.0886C37.1945 24.4004 38.8165 23.7768 39.3468 23.5273ZM18.6972 33.0695C18.6349 33.1007 18.4789 33.1942 18.4789 32.9136C18.4477 32.0716 18.4789 27.9866 18.4789 27.9866C18.4789 27.55 18.8532 26.9887 19.3211 26.7704L28.7413 22.2176C29.2092 21.9993 29.5835 22.1864 29.5835 22.623V27.6747C29.5835 27.6747 29.5835 27.7995 29.4899 27.9242C29.2092 28.236 28.0239 29.2963 27.9615 29.4834C27.8991 29.7017 28.6789 29.421 29.3339 29.1715C29.5835 29.078 29.6147 29.2027 29.6147 29.3274V33.5684C29.6147 34.005 29.2404 34.5663 28.7725 34.7846L19.3523 39.3374C18.8844 39.5557 18.5101 39.3686 18.5101 38.932V34.691C18.5101 34.5975 18.5413 34.4104 18.7284 34.2233C19.4459 33.5684 20.1321 32.9136 20.1945 32.7265C20.2257 32.5082 19.3523 32.82 18.6972 33.0695ZM23.4697 40.7406C24.0312 41.0213 24.5927 41.146 24.8422 40.7406L26.9321 37.061C27.1505 36.6556 26.9633 36.4997 26.4954 36.718L21.9725 38.8696C21.5046 39.0879 21.4734 39.5245 21.8789 39.8051L23.4697 40.7406Z" fill="white"/>
</g>
<defs>
<clipPath id="clip0_20_48">
<rect width="48" height="48" fill="white"/>
</clipPath>
</defs>
</svg>
