<?xml version="1.0" encoding="UTF-8"?>
<svg id="Layer_1" data-name="Layer 1" xmlns="http://www.w3.org/2000/svg" viewBox="0 0 1600 900">
  <defs>
    <style>
      .cls-1 {
        fill: none;
      }

      .cls-2 {
        fill: #5191cd;
      }

      .cls-3 {
        fill: #439539;
      }

      .cls-4 {
        fill: #eeb111;
      }

      .cls-5 {
        fill: #d1e2ca;
      }
    </style>
  </defs>
  <polygon class="cls-2" points="300.83 358.52 300.83 214.87 391.12 214.87 391.12 253.38 348.78 253.38 348.78 266.88 382.11 266.88 382.11 306.51 348.78 306.51 348.78 320.02 395.62 320.02 395.62 358.52 300.83 358.52"/>
  <path class="cls-2" d="M498.96,358.52l-6.76-22.52h-38.5l-6.76,22.52h-44.36l51.79-143.65h40.3l51.79,143.65h-47.51ZM476,277.92c-1.13-3.38-2.25-7.2-2.93-11.48h-.45c-.67,4.28-1.8,8.33-2.7,11.48l-6.53,22.29h19.14l-6.53-22.29Z"/>
  <path class="cls-2" d="M638.56,358.52l-31.75-49.99h-4.5v49.99h-45.71v-143.65h61.7c29.05,0,49.53,20.04,49.53,46.83,0,14.41-8.33,29.5-18.69,34.9l42.33,61.92h-52.91ZM611.99,251.35h-9.68v20.72h9.68c5.18,0,11.03-3.38,11.03-10.36s-5.85-10.36-11.03-10.36"/>
  <polygon class="cls-2" points="767.13 252.02 767.13 358.52 719.17 358.52 719.17 251.8 678.64 251.8 678.64 214.87 807.43 214.87 807.43 252.02 767.13 252.02"/>
  <polygon class="cls-2" points="901.32 358.52 901.32 307.41 864.4 307.41 864.4 358.52 816.44 358.52 816.44 214.87 864.4 214.87 864.4 265.98 901.32 265.98 901.32 214.87 949.28 214.87 949.28 358.52 901.32 358.52"/>
  <path class="cls-2" d="M641.72,543.69h-52.91v-143.65h52.91c42.56,0,76.33,28.82,76.33,71.83s-33.77,71.82-76.33,71.82M637.44,441.47h-2.93v60.79h2.93c17.34,0,32.65-11.03,32.65-30.39s-15.31-30.4-32.65-30.4"/>
  <path class="cls-2" d="M799.78,543.69l-6.76-22.51h-38.5l-6.75,22.51h-44.36l51.79-143.65h40.3l51.79,143.65h-47.51ZM776.81,463.08c-1.12-3.38-2.25-7.2-2.93-11.48h-.45c-.68,4.28-1.8,8.33-2.7,11.48l-6.53,22.29h19.14l-6.53-22.29Z"/>
  <path class="cls-2" d="M909.88,481.54v62.15h-46.16v-60.57l-52.46-83.08h50.89l18.47,28.6c2.25,3.6,5.18,9.01,7.2,14.19h.45c2.03-5.18,5.18-10.81,7.43-14.19l18.46-28.6h47.51l-51.79,81.51Z"/>
  <path class="cls-4" d="M985.14,220.55h20.24c10.43,0,15.65,1.22,20.45,4.67,6.67,4.87,10.64,16.23,10.64,29.42,0,17.45-4.8,26.18-17.11,31.86,15.02,4.06,20.45,12.58,20.45,32.47,0,15.83-3.55,25.57-11.48,31.25-6.26,4.67-10.85,5.68-24.2,5.68h-18.99v-135.36ZM998.08,231.51v48.91h6.88c13.77,0,18.36-6.29,18.36-24.76s-3.96-24.15-17.11-24.15h-8.13ZM998.08,291.58v53.57h6.88c15.44,0,21.49-7.31,21.49-25.37s-6.88-28.21-20.86-28.21h-7.51Z"/>
  <path class="cls-4" d="M1088.28,220.55l27.75,135.36h-13.77l-5.21-27.8h-29.43l-5.21,27.8h-13.77l27.54-135.36h12.1ZM1094.96,317.15l-9.18-47.69c-2.51-13.19-3.13-18.06-3.97-31.86-1.04,14.61-1.87,22.93-3.54,31.86l-8.56,47.69h25.25Z"/>
  <polygon class="cls-4" points="1168.32 220.55 1168.32 232.11 1147.45 232.11 1147.45 355.91 1134.51 355.91 1134.51 232.11 1113.65 232.11 1113.65 220.55 1168.32 220.55"/>
  <path class="cls-4" d="M1244.13,287.72c0,48.1-10.64,70.01-34.01,70.01s-34.43-22.93-34.43-69.61,11.27-69.41,34.22-69.41,34.22,22.32,34.22,69M1230.99,287.72c0-39.98-6.26-56.82-20.87-56.82s-21.28,18.06-21.28,57.23,6.67,57.43,21.28,57.43,20.87-16.64,20.87-57.84"/>
  <path class="cls-4" d="M1321.33,220.55v135.36h-11.26l-30.89-89.29-1.25-4.06-1.88-6.09-1.45-5.07-1.05-3.86.42,3.86c.42,5.48.83,14.2.83,20.09v84.42h-11.26v-135.36h11.26l31.51,91.93,1.04,3.25,2.09,6.7,1.25,4.06.63,2.03c-.84-7.51-1.25-12.99-1.25-19.68v-88.28h11.26Z"/>
  <path class="cls-4" d="M1000.16,470.95v66.16h-14.19v-135.36h17.53c13.15,0,18.57,1.01,23.99,3.85,10.02,5.28,15.03,15.63,15.03,30.85,0,23.75-8.14,34.3-27.54,35.72l32.34,64.94h-14.82l-32.34-66.16ZM1000.16,413.31v47.69h8.56c14.4,0,19.4-6.29,19.4-23.74s-5.21-23.95-21.07-23.95h-6.89Z"/>
  <path class="cls-4" d="M1119.09,468.92c0,48.1-10.64,70.01-34.01,70.01s-34.42-22.93-34.42-69.61,11.26-69.4,34.21-69.4,34.22,22.32,34.22,69M1105.95,468.92c0-39.98-6.26-56.82-20.87-56.82s-21.28,18.06-21.28,57.23,6.68,57.43,21.28,57.43,20.87-16.64,20.87-57.84"/>
  <path class="cls-4" d="M1188.57,401.74v94.77c0,20.09-1.25,26.58-7.09,33.28-5.01,6.09-12.52,9.13-22.12,9.13-13.76,0-24.2-7.1-27.33-18.88-1.67-5.68-1.88-10.55-1.88-23.54v-94.77h12.94v93.76c0,25.16,3.13,31.25,16.27,31.25s16.28-6.29,16.28-31.25v-93.76h12.93Z"/>
  <path class="cls-4" d="M1230.93,465.67h31.92v27.19c0,18.27-1.46,26.38-6.26,33.89-5,8.12-13.14,12.18-23.36,12.18-17.95,0-27.75-11.77-30.47-35.92-1.25-11.77-2.08-25.78-2.08-36.93,0-25.57,2.5-40.99,8.55-51.55,5.01-9.13,14.4-14.61,25.25-14.61,14.81,0,23.37,7.71,28.16,25.57l-12.72,4.87c-2.72-13.19-7.1-18.26-15.44-18.26-14.4,0-20.66,15.83-20.66,52.97,0,21.92,1.67,38.76,4.38,48.5,2.51,8.52,8.14,13.19,15.86,13.19,12.73,0,15.86-7.31,15.86-37.14v-12.38h-18.99v-11.57Z"/>
  <polygon class="cls-4" points="1320.45 401.74 1320.45 413.31 1289.98 413.31 1289.98 461 1319.61 461 1319.61 472.57 1289.98 472.57 1289.98 525.54 1320.45 525.54 1320.45 537.1 1277.04 537.1 1277.04 401.74 1320.45 401.74"/>
  <polygon class="cls-3" points="587.79 579.67 617.86 579.67 617.86 589.37 599.11 589.37 599.11 616.43 615.72 616.43 615.72 626.14 599.11 626.14 599.11 655.11 617.86 655.11 617.86 664.82 587.79 664.82 587.79 579.67"/>
  <path class="cls-3" d="M628.18,579.67h13.97c9.69,0,14.72,2.04,19.01,7.79,4.41,5.87,6.42,12.26,7.17,23.62.25,4.09.38,8.3.38,12.38,0,18-2.39,28.47-8.06,34.6-4.66,4.98-10.82,6.77-23.28,6.77h-9.19v-85.15ZM639.51,654.86h.5c13.09,0,16.86-6.89,16.86-31.02,0-26.43-3.65-34.47-15.98-34.47h-1.38v65.49Z"/>
  <path class="cls-3" d="M679.91,579.67h11.08v60.13c0,12.26,1.64,15.32,8.18,15.32s8.3-2.55,8.3-13.66v-61.79h11.08v61.79c0,12.51-1.64,17.62-6.67,21.07-3.4,2.3-7.42,3.45-12.83,3.45-9.82,0-16.24-4.34-18-12.39-.88-3.44-1.13-6.77-1.13-13.79v-60.13Z"/>
  <path class="cls-3" d="M764.35,581.07v10.34c-3.52-1.79-5.04-2.17-7.3-2.17-6.29,0-11.33,4.72-13.21,12.39-1.51,5.74-2.14,12.77-2.14,21.19,0,21.7,5.16,31.92,15.98,31.92,2.39,0,3.78-.25,6.67-1.66v10.47c-3.52,2.04-4.91,2.43-9.19,2.43-16.99,0-25.42-14.17-25.42-42.26,0-30.51,8.18-45.07,25.17-45.07,3.9,0,5.54.38,9.44,2.42"/>
  <path class="cls-3" d="M788.82,579.67h8.94l17.87,85.15h-11.2l-3.15-16.6h-16.61l-3.15,16.6h-10.95l18.25-85.15ZM799.64,639.41l-2.39-13.66c-1.51-7.66-3.27-20.94-4.15-29.49-.51,5.1-.76,7.15-1.39,11.87-1.01,7.4-1.64,10.98-3.4,20.3l-2.01,10.98h13.34Z"/>
  <polygon class="cls-3" points="813.75 579.67 850.62 579.67 850.62 589.75 837.91 589.75 837.91 664.82 826.84 664.82 826.84 589.75 813.75 589.75 813.75 579.67"/>
  <polygon class="cls-3" points="856.79 579.67 886.87 579.67 886.87 589.37 868.11 589.37 868.11 616.43 884.73 616.43 884.73 626.14 868.11 626.14 868.11 655.11 886.87 655.11 886.87 664.82 856.79 664.82 856.79 579.67"/>
  <polygon class="cls-3" points="899.83 652.95 908.89 655.63 898.19 685.63 892.4 683.97 899.83 652.95"/>
  <path class="cls-3" d="M985.16,581.07v10.34c-3.52-1.79-5.04-2.17-7.3-2.17-6.29,0-11.33,4.72-13.21,12.39-1.51,5.74-2.14,12.77-2.14,21.19,0,21.7,5.16,31.92,15.98,31.92,2.39,0,3.78-.25,6.67-1.66v10.47c-3.52,2.04-4.91,2.43-9.19,2.43-16.99,0-25.42-14.17-25.42-42.26,0-30.51,8.18-45.07,25.17-45.07,3.9,0,5.53.38,9.44,2.42"/>
  <polygon class="cls-3" points="994.59 579.67 1024.67 579.67 1024.67 589.37 1005.92 589.37 1005.92 616.43 1022.53 616.43 1022.53 626.14 1005.92 626.14 1005.92 655.11 1024.67 655.11 1024.67 664.82 994.59 664.82 994.59 579.67"/>
  <polygon class="cls-3" points="1034.99 579.67 1046.32 579.67 1046.32 655.11 1064.82 655.11 1064.82 664.82 1034.99 664.82 1034.99 579.67"/>
  <polygon class="cls-3" points="1071.87 579.67 1101.94 579.67 1101.94 589.37 1083.19 589.37 1083.19 616.43 1099.8 616.43 1099.8 626.14 1083.19 626.14 1083.19 655.11 1101.94 655.11 1101.94 664.82 1071.87 664.82 1071.87 579.67"/>
  <path class="cls-3" d="M1112.27,579.67h15.35c12.21,0,17.99,7.4,17.99,22.72,0,11.49-2.64,16.34-10.57,19.15,9.06,3.7,11.83,8.43,11.83,19.92,0,15.83-6.42,23.36-19.75,23.36h-14.85v-85.15ZM1122.96,617.2h.76c7.93,0,10.95-3.96,10.95-14.17,0-9.58-3.15-14.04-9.82-14.04h-1.89v28.21ZM1122.96,654.99c9.57-.25,12.21-3.32,12.21-13.91s-3.15-14.81-12.21-14.81v28.73Z"/>
  <path class="cls-3" d="M1158.08,579.67h14.97c6.17,0,9.19.76,12.21,3.19,4.65,3.71,7.17,10.34,7.17,18.9,0,12.13-4.15,19.92-11.58,21.7l15.48,41.37h-11.57l-15.36-41.62v41.62h-11.32v-85.15ZM1169.4,617.45c8.81-.13,12.08-3.7,12.08-13.53,0-10.6-2.89-14.81-10.19-14.81h-1.89v28.34Z"/>
  <path class="cls-3" d="M1220.54,579.67h8.93l17.87,85.15h-11.2l-3.15-16.6h-16.61l-3.14,16.6h-10.95l18.25-85.15ZM1231.36,639.41l-2.39-13.66c-1.51-7.66-3.27-20.94-4.16-29.49-.5,5.1-.75,7.15-1.38,11.87-1,7.4-1.64,10.98-3.4,20.3l-2.01,10.98h13.34Z"/>
  <polygon class="cls-3" points="1245.46 579.67 1282.34 579.67 1282.34 589.75 1269.63 589.75 1269.63 664.82 1258.55 664.82 1258.55 589.75 1245.46 589.75 1245.46 579.67"/>
  <polygon class="cls-3" points="1288.5 579.67 1318.58 579.67 1318.58 589.37 1299.83 589.37 1299.83 616.43 1316.44 616.43 1316.44 626.14 1299.83 626.14 1299.83 655.11 1318.58 655.11 1318.58 664.82 1288.5 664.82 1288.5 579.67"/>
  <path class="cls-2" d="M306.32,541.85c0,54.12,45.92,97.99,102.57,97.99s102.56-43.87,102.56-97.99-45.92-97.98-102.56-97.98-102.57,43.87-102.57,97.98"/>
  <path class="cls-5" d="M402.11,456.98l-29.63-9.23,31.65,10.08c-.65-.32-1.31-.63-2.02-.85"/>
  <path class="cls-5" d="M290.41,580.41c22.84,92.5,113.45,99.63,157.98,86.19,59.52-17.22,87.77-55.44,127.35-108.82,0,0-146.3-25.04-226.74,42.37-23.23,19.64-37.3-34.56-35.45-60.56,1.59-22.28,16.14-48.89,56.5-53.67l1.96,3.37s6.14-2.25,28.89-3.81c15.47-.56,14.6-22.24,3.24-28.03,0,0-14.34-11.2-31.65-9.71-3.34.79-108.78,24.53-82.08,132.66"/>
  <path class="cls-3" d="M376.33,465.89c0-4.11,3.35-7.43,7.49-7.43s7.49,3.32,7.49,7.43-3.35,7.43-7.49,7.43-7.49-3.33-7.49-7.43"/>
  <path class="cls-4" d="M427.78,552.66c-71.39-2.44-62.4-65.4-57.73-66.74,5.11-.61,13.99-1.94,29.87-1.23,15.38.68,16.87-19.89,3.95-27.41-3.73-1.2,130.35,38.06,130.35,38.06-27.74,9.86-40.22,59.58-106.44,57.32"/>
  <path class="cls-3" d="M334.18,655.38c62.67,44.37,174.26-52.41,161.23-44.29-152.71,95.3-193.43,2.16-193.43,2.16,0,0,.9,19.97,32.21,42.13"/>
  <path class="cls-3" d="M572.33,557.48c-36.41,49.02-68.36,91.56-123.94,109.12-44.36,14-135.14,6.31-157.98-86.19-23.3-94.37,63.63-128.08,86.71-132.83l-4.64.16s-29.99,2.45-58.96,28.38c-85.6,76.57.17,241.29,128.85,202.08,78.31-23.87,133.36-120.42,133.36-120.42l-3.41-.31Z"/>
  <path class="cls-3" d="M389.53,653.32c14.21-.84,34.83-16.32,42.56-26.85-2.5,7.01-12.89,17.98-19.44,22.61-5.27,3.73-15.57,4.98-22.05,4.81"/>
  <path class="cls-3" d="M436.77,642.55c10.58-3.71,22.85-19.89,26.43-29.53-.38,5.85-5.88,16.4-9.83,21.32-3.19,3.96-10.72,7.13-15.66,8.41"/>
  <rect class="cls-1" x="0" width="1600.56" height="900.48"/>
</svg>