<svg id="Layer_1" data-name="Layer 1" xmlns="http://www.w3.org/2000/svg" xmlns:xlink="http://www.w3.org/1999/xlink" viewBox="0 0 1920 1080"><defs><style>.cls-1,.cls-2{fill:none;}.cls-1{clip-rule:evenodd;}.cls-3{clip-path:url(#clip-path);}.cls-4{clip-path:url(#clip-path-2);}.cls-5{clip-path:url(#clip-path-3);}.cls-6{isolation:isolate;}.cls-7{clip-path:url(#clip-path-5);}.cls-8{fill:#943192;}.cls-9{clip-path:url(#clip-path-7);}.cls-10{fill:#df1e37;}.cls-11{clip-path:url(#clip-path-9);}.cls-12{fill:#0782bb;}.cls-13{clip-path:url(#clip-path-11);}.cls-14{clip-path:url(#clip-path-13);}.cls-15{fill:#fff;}</style><clipPath id="clip-path"><path class="cls-1" d="M1164.69,635.53h14.94l-7.43-28ZM867.76,645.85c11.06,0,15.74-7.68,15.74-20.82s-4.77-20.81-15.74-20.81h-7.6v41.63ZM1429,654.58h-10.43V633.32l-17.07-37.83h11.85l10.52,26.72,10.61-26.72H1446l-17,37.83Zm-41.56-38.28.62-12.44a31.09,31.09,0,0,0-6.28-.7c-8.13,0-15.21,6.79-15.21,21.34,0,16.94,6.72,22.41,15.21,22.41,4,0,9-1.06,14.86-3.53l2.21,8.64a47.34,47.34,0,0,1-18.13,3.53c-18.13,0-24.85-12.88-24.85-31,0-18.78,11.06-30,27.06-30a51.54,51.54,0,0,1,14.5,2.47l-.71,19.31Zm-53.67,38.28-14.68-25.84-8.49-19.58v45.42h-10.34V595.49h12.38l14.14,26,9.11,20.73V595.49h10.35v59.09Zm-77.37,0V595.49h34.22v8.73h-23.79V620H1287v8.55h-20.16v17.29h24v8.73Zm-10-26.2v22.67a52.82,52.82,0,0,1-20.87,4.5c-17.51,0-25.82-12.17-25.82-30.78s11.23-30.25,28.21-30.25a42.93,42.93,0,0,1,15.65,2.55v9.71a35.78,35.78,0,0,0-15-3.71c-10.09,0-18,6.09-18,21.52,0,16.23,6.9,22.32,16.09,22.32a18.55,18.55,0,0,0,9.37-2.3V628.38ZM1162,644.08l-3,10.5H1148l18.13-59.09h12.2l18,59.09h-11l-3-10.5Zm-52.87,10.5-14.68-25.84L1086,609.16v45.42h-10.35V595.49H1088l14.15,26,9.11,20.73V595.49h10.34v59.09Zm-43.51-26.2v22.67a52.82,52.82,0,0,1-20.87,4.5c-17.5,0-25.81-12.17-25.81-30.78s11.22-30.25,28.2-30.25c5.75,0,11.32.79,15.65,2.55v9.71a35.75,35.75,0,0,0-15-3.71c-10.08,0-18,6.09-18,21.52,0,16.23,6.9,22.32,16.1,22.32a18.59,18.59,0,0,0,9.37-2.3V628.38Zm-60.13,17.82h8.76v8.38H986.42V646.2h8.67V604h-8.67v-8.46h27.86V604h-8.76Zm-39.61-51.77a40.91,40.91,0,0,1,12.73,1.94l-.79,9.88a37.22,37.22,0,0,0-12.73-2.74c-5,0-9,2.65-9,7.68,0,4.58,4.86,7,9.9,9.26,6.9,3.08,15,7,15,16.93,0,13-9.46,18.26-21.4,18.26a65.42,65.42,0,0,1-14.76-1.85l1-9.35a54.2,54.2,0,0,0,13.79,2.2c5.57,0,10.7-2.12,10.7-7.76,0-4.68-4.68-6.88-9.46-8.91-7-3-15.38-6.88-15.38-18.34S954.42,594.43,965.91,594.43ZM904,654.58V595.49h34.21v8.73H914.45V620h20.16v8.55H914.45v17.29h24v8.73ZM894.29,625c0,21.35-11.14,29.55-26.44,29.55H849.73V595.49h18.12C883.32,595.49,894.29,603.86,894.29,625Zm435.64-46.92V426.67h116l-3.63,35.71h-67.08v20.8h57.56v35h-57.56V542.4h66.85l3.4,35.71Zm-12.92,0h-57.56L1218,524.32v53.79h-45.32V426.67H1218v61l36.26-61h55.07l-50.54,77.08Zm-241.8,2.71c-39.43,0-67.31-21.69-67.31-57.18v-97h45.33v95.84c0,15.37,10.42,22.38,22,22.38s22-7,22-22.38V426.67h45.33v97C1142.52,559.13,1114.64,580.82,1075.21,580.82ZM907.06,542.4c24,0,33.77-15.37,33.77-40s-9.75-40-33.77-40h-12v80Zm80-40c0,54.7-33.32,75.72-79.78,75.72H849.73V426.67h57.55C954.2,426.67,987.06,447.91,987.06,502.39Z"/></clipPath><clipPath id="clip-path-2"><rect class="cls-2" width="1920" height="1080"/></clipPath><clipPath id="clip-path-3"><rect class="cls-2" x="474" y="370" width="340" height="340" rx="81.3"/></clipPath><clipPath id="clip-path-5"><rect class="cls-2" x="474" y="370" width="340" height="340"/></clipPath><clipPath id="clip-path-7"><polygon class="cls-1" points="813.72 710 814 709.72 814 483.24 587.24 710 813.72 710"/></clipPath><clipPath id="clip-path-9"><polygon class="cls-1" points="474 370.28 474 596.76 700.76 370 474.28 370 474 370.28"/></clipPath><clipPath id="clip-path-11"><path class="cls-1" d="M658.61,639,628.7,655.86c-3.11,1.76-3.37,5-.57,7.26l10.4,7.35c3.67,2.21,7.51,3.23,9.06,0l13.87-28.86c1.07-2.22.79-3.48-.49-3.48A5.25,5.25,0,0,0,658.61,639Zm14.81-113.37-62.54,35.68a12.17,12.17,0,0,0-5.57,9.52s-.24,31.85,0,38.48c.08,2.18,1,1.53,1.49,1.29,4.47-2,10.24-4.4,9.73-2.63-.42,1.49-4.88,6.52-9.73,11.74a5.5,5.5,0,0,0-1.49,3.58v33c0,3.49,2.51,4.92,5.57,3.17l62.54-35.67a12.18,12.18,0,0,0,5.57-9.52v-33c0-.93-.22-2-1.86-1.23-4.37,1.92-9.52,4-9,2.32.44-1.53,8.4-9.9,10.22-12.25a3.38,3.38,0,0,0,.68-1.9V528.75c0-2.48-1.26-3.91-3.09-3.91A5.14,5.14,0,0,0,673.42,525.58ZM529.19,478.75s0,2.18,0,5.05l.11,17.16c0,.13,0,.26,0,.39-.07,11.68,4.79,16.86,4.79,16.86s18.84,19.34,19.66,22.2c.69,2.38-9.94-2.67-13.55-4.45-.73-.36-1.16.38-1.15.81.51,14.27,7.54,24.83,14.69,35.45C562.4,585.1,591,612.66,591,612.66c2.45,2.53,4.46,1.73,4.46-1.79V523.6a12.86,12.86,0,0,0-5.45-9.79l-55.94-40a4.18,4.18,0,0,0-2.09-.7C530.67,473.15,529.19,474.18,529.19,478.75Zm221-4.9-55.93,40a12.88,12.88,0,0,0-5.46,9.79v87.27c0,3.52,2,4.32,4.46,1.79,0,0,28.63-27.56,37.3-40.44,7.15-10.62,14.17-21.18,14.68-35.45a.81.81,0,0,0-1.15-.81c-3.61,1.78-14.23,6.83-13.55,4.45.82-2.86,19.66-22.2,19.66-22.2s4.87-5.18,4.79-16.86c0-.13,0-.26,0-.39l.11-17.16c0-2.87,0-5.05,0-5.05,0-4.57-1.48-5.6-2.81-5.6A4.19,4.19,0,0,0,750.2,473.85Zm-167-8.08a58.94,58.94,0,1,0,58.94-59.07A59,59,0,0,0,583.21,465.77Z"/></clipPath><clipPath id="clip-path-13"><rect class="cls-2" x="529" y="406" width="227" height="268"/></clipPath></defs><g class="cls-3"><g class="cls-4"><rect x="844.73" y="421.67" width="606.23" height="238.97"/></g></g><g class="cls-5"><g class="cls-4"><g class="cls-6"><g class="cls-7"><g class="cls-7"><rect class="cls-8" x="469" y="365" width="350" height="350"/></g><g class="cls-9"><g class="cls-7"><rect class="cls-10" x="582.24" y="478.24" width="236.76" height="236.76"/></g></g><g class="cls-11"><g class="cls-7"><rect class="cls-12" x="469" y="365" width="236.76" height="236.76"/></g></g></g></g></g></g><g class="cls-13"><g class="cls-4"><g class="cls-6"><g class="cls-14"><g class="cls-14"><rect class="cls-15" x="524.17" y="401.7" width="235.95" height="275.83"/></g></g></g></g></g></svg>