<svg id="Layer_1" data-name="Layer 1" xmlns="http://www.w3.org/2000/svg" xmlns:xlink="http://www.w3.org/1999/xlink" viewBox="0 0 1920 1080"><defs><style>.cls-1{fill:none;}.cls-2{clip-path:url(#clip-path);}.cls-3{clip-path:url(#clip-path-2);}.cls-4{fill:#294358;}.cls-5{clip-path:url(#clip-path-3);}.cls-6{clip-path:url(#clip-path-5);}.cls-7{clip-path:url(#clip-path-7);}.cls-8{clip-path:url(#clip-path-9);}.cls-9{fill:#b0d136;}.cls-10{clip-path:url(#clip-path-11);}.cls-11{clip-path:url(#clip-path-13);}.cls-12{clip-path:url(#clip-path-15);}.cls-13{clip-path:url(#clip-path-17);}.cls-14{clip-path:url(#clip-path-19);}.cls-15{clip-path:url(#clip-path-21);}.cls-16{clip-path:url(#clip-path-23);}.cls-17{clip-path:url(#clip-path-25);}.cls-18{clip-path:url(#clip-path-27);}.cls-19{clip-path:url(#clip-path-29);}.cls-20{clip-path:url(#clip-path-31);}.cls-21{clip-path:url(#clip-path-33);}.cls-22{clip-path:url(#clip-path-35);}.cls-23{clip-path:url(#clip-path-37);}.cls-24{clip-path:url(#clip-path-39);}</style><clipPath id="clip-path"><path class="cls-1" d="M609.29,505l67-13.15V479.48c0-13.56-8.21-22.61-33.28-22.61-25.48,0-33.28,9.05-33.28,22.61C609.29,479.48,609.29,505,609.29,505Zm96.56,4.52c0,4.11-1.64,4.52-5.75,6.17l-90.81,18.49v21c0,14,6.57,22.6,33.28,22.6s33.28-8.62,33.28-22.6v-3.69c0-4.52,1.65-6.58,6.58-6.58h16.85c4.52,0,6.57,2.06,6.57,6.58v5.75c0,27.53-16.44,46-64.1,46-47.26-.41-63.7-18.49-63.7-46V477.42c0-27.53,17.26-46,64.52-46s63.28,18.49,63.28,46Z"/></clipPath><clipPath id="clip-path-2"><rect class="cls-1" width="1920" height="1080"/></clipPath><clipPath id="clip-path-3"><path class="cls-1" d="M768.31,440.44l.82,10.68c9.45-8.22,27.94-19.72,55.48-19.72,31.22,0,47.25,18.08,47.25,42.73V593.3c0,4.52-1.64,6.57-6.16,6.57H846.38c-4.52,0-6.16-2-6.16-6.57V481.94c0-13.56-6.57-22.19-24.65-22.19-21.37,0-38.22,11.51-45.62,17.26V593.3c0,4.52-1.64,6.57-6.16,6.57H744.48c-4.52,0-6.58-2-6.58-6.57V440.44c0-4.52,1.65-6.17,6.58-6.17h17.67c4.52,0,5.75,2.06,6.16,6.17"/></clipPath><clipPath id="clip-path-5"><path class="cls-1" d="M949.93,600.29c-4.51,0-5.75-1.65-6.57-6.17l-52.6-153.27c-1.23-4.52,1.24-6.58,5.76-6.58h20.54c4.52,0,6.16,2.88,7,6.58L956.1,537l5.34,16.44,5.34-16,33.29-96.57c1.23-4.11,2.87-6.58,7.39-6.58H1026c4.53,0,7,2.47,5.76,6.58l-53,153.27c-1.23,4.52-2.47,6.17-6.58,6.17Z"/></clipPath><clipPath id="clip-path-7"><path class="cls-1" d="M1343.18,477.42v6.16c0,4.53-1.64,6.17-6.16,6.17h-18.08c-4.52,0-6.58-1.64-6.58-6.17v-3.69c0-14-7.8-22.19-33.28-22.19-25.06,0-32.87,8.22-32.87,22.19v74.78c0,14,7.81,22.19,32.87,22.19,25.48,0,33.28-7.8,33.28-22.19V548.1c0-4.52,1.65-6.58,6.58-6.58H1337c4.52,0,6.16,2.06,6.16,6.58v9c0,27.53-17.25,46-64.1,46-47.26,0-64.1-18.49-64.1-46V477.42c0-27.53,16.84-46,64.1-46s64.1,18.49,64.1,46"/></clipPath><clipPath id="clip-path-9"><path class="cls-1" d="M1154.16,479.89c0-14.39-9.86-22.6-34.93-22.6s-35.33,8.21-35.33,22.6v74.37c0,14.39,9.86,22.6,35.33,22.6,25.07,0,34.93-7.8,34.93-22.6Zm-102.32-2.47c0-27.53,19.73-46,67-46s67,18.49,67,46v79.72c0,27.53-19.72,46-67,46s-67-18.49-67-46Z"/></clipPath><clipPath id="clip-path-11"><path class="cls-1" d="M1155.81,376.75c6.16,0,8.21,2.05,8.21,7.8V401.4c0,5.75-2.46,7.81-8.21,7.81h-76.44c-6.16,0-8.63-2.47-8.63-7.81V384.55c0-6.16,2.47-7.8,8.63-7.8Z"/></clipPath><clipPath id="clip-path-13"><path class="cls-1" d="M898.57,678v-6.58H887.89c-3.7,0-4.93,1.65-4.93,4.52v1.65c0,2.87,1.64,4.11,5.34,4.11A17.34,17.34,0,0,0,898.57,678Zm-21.78-18.9c0-6.17,4.11-10.28,14.38-10.28,10.69,0,14.39,4.11,14.39,10.28v26.71c0,1.23-.42,1.64-1.24,1.64h-4.1c-1.24,0-1.24-.41-1.65-1.64V683.7a19,19,0,0,1-11.92,4.52c-7,0-10.68-4.11-10.68-9.45v-3.7c0-4.93,3.7-9.45,10.68-9.45h11.92v-5.75c0-3.29-1.64-5.34-7.4-5.34s-7.39,1.64-7.39,4.93v.82c0,1.23-.41,1.64-1.65,1.64H878c-.82,0-1.23-.41-1.23-1.64Z"/></clipPath><clipPath id="clip-path-15"><path class="cls-1" d="M955.69,660.28c0-2.88-1.23-4.93-5.76-4.93-4.92,0-8.62,2.88-10.27,4.11v18.08a17.4,17.4,0,0,0,10.27,3.7c4.53,0,5.76-2.47,5.76-4.93ZM933.91,687.4c-1.23,0-1.64-.41-1.64-1.64V635.21c0-1.23.41-1.64,1.64-1.64h4.52c.82,0,1.23.41,1.23,1.64v17.67a19.73,19.73,0,0,1,12.74-4.52c7.4,0,10.69,4.11,10.69,10.28v18.49c0,6.16-3.29,10.27-10.69,10.27a19.73,19.73,0,0,1-12.74-4.52v2.47c0,1.23-.41,1.64-1.64,1.64Z"/></clipPath><clipPath id="clip-path-17"><path class="cls-1" d="M977.06,664.39h15.2v-4.93c0-2.88-2-4.93-7.81-4.93s-7.81,2.05-7.81,4.93v4.93Zm22.18,4.11a1.09,1.09,0,0,1-1.23,1.23h-21v7c0,3.28,1.64,4.93,7.8,4.93s7.81-2.06,7.81-4.93v-.83a1.5,1.5,0,0,1,1.65-1.64H998a1.51,1.51,0,0,1,1.65,1.64v1.24c0,6.16-3.7,10.68-14.8,10.68-10.68,0-14.79-4.11-14.79-10.68V659.05c0-6.17,3.7-10.69,14.79-10.69,10.69,0,14.38,4.11,14.38,10.69Z"/></clipPath><clipPath id="clip-path-19"><path class="cls-1" d="M1027.6,649.6c.82,0,1.64.41,1.64,1.23v2.87c0,1.24-.41,1.65-1.64,1.65h-7.81v20.54c0,3.29,2.06,4.94,7.81,4.94h1.64a1.51,1.51,0,0,1,1.65,1.64v3.29c0,1.23-.41,1.64-1.65,1.64h-2.46c-10.69,0-14-3.7-14-10.68V655.35h-4.11c-1.24,0-1.65-.41-1.65-1.65v-2.87c0-.82.41-1.23,1.65-1.65l3.7-.41h.41V641c0-1.24.41-1.65,1.64-1.65H1019c.82,0,1.23.41,1.23,1.65v7.8Z"/></clipPath><clipPath id="clip-path-21"><path class="cls-1" d="M1055.54,649.6c.82,0,1.65.41,1.65,1.23v2.87c0,1.24-.42,1.65-1.65,1.65h-7.81v20.54c0,3.29,2.06,4.94,7.81,4.94h1.65a1.5,1.5,0,0,1,1.64,1.64v3.29c0,1.23-.41,1.64-1.64,1.64h-2.47c-10.68,0-14-3.7-14-10.68V655.35h-4.11c-1.23,0-1.64-.41-1.64-1.65v-2.87c0-.82.41-1.23,1.64-1.65l3.7-.41h.41V641c0-1.24.41-1.65,1.64-1.65h4.52c.82,0,1.24.41,1.24,1.65v7.8Z"/></clipPath><clipPath id="clip-path-23"><path class="cls-1" d="M1072.39,664.39h15.2v-4.93c0-2.88-2-4.93-7.8-4.93s-7.81,2.05-7.81,4.93C1072.39,659.46,1072.39,664.39,1072.39,664.39Zm22.19,4.11a1.09,1.09,0,0,1-1.23,1.23h-21v7c0,3.28,1.64,4.93,7.81,4.93s7.8-2.06,7.8-4.93v-.83a1.51,1.51,0,0,1,1.65-1.64h3.7a1.5,1.5,0,0,1,1.64,1.64v1.24c0,6.16-3.7,10.68-14.79,10.68-10.69,0-14.8-4.11-14.8-10.68V659.05c0-6.17,3.7-10.69,14.8-10.69,10.68,0,14.38,4.11,14.38,10.69Z"/></clipPath><clipPath id="clip-path-25"><path class="cls-1" d="M1124.16,650v3.69c0,1.24-.41,1.65-1.64,1.65a20.23,20.23,0,0,0-11.91,4.93v25.48c0,1.23-.42,1.64-1.24,1.64h-4.52c-1.23,0-1.64-.41-1.64-1.64V650.83a1.51,1.51,0,0,1,1.64-1.65H1109c1.23,0,1.23.42,1.65,1.65l.41,3.29a17,17,0,0,1,11.91-5.35A1.09,1.09,0,0,1,1124.16,650Z"/></clipPath><clipPath id="clip-path-27"><path class="cls-1" d="M1167.72,650v3.69c0,1.24-.41,1.65-1.64,1.65a20.26,20.26,0,0,0-11.92,4.93v25.48c0,1.23-.41,1.64-1.23,1.64h-4.52c-1.23,0-1.65-.41-1.65-1.64V650.83a1.52,1.52,0,0,1,1.65-1.65h4.11c1.23,0,1.23.42,1.64,1.65l.41,3.29c2.06-2.06,6.17-5.35,11.92-5.35A1.31,1.31,0,0,1,1167.72,650Z"/></clipPath><clipPath id="clip-path-29"><path class="cls-1" d="M1180.46,664.39h15.2v-4.93c0-2.88-2.05-4.93-7.8-4.93s-7.81,2.05-7.81,4.93C1180.46,659.46,1180.46,664.39,1180.46,664.39Zm22.19,4.11a1.09,1.09,0,0,1-1.23,1.23h-21v7c0,3.28,1.64,4.93,7.81,4.93s7.81-2.06,7.81-4.93v-.83a1.5,1.5,0,0,1,1.64-1.64h3.7a1.5,1.5,0,0,1,1.64,1.64v1.24c0,6.16-3.7,10.68-14.79,10.68-10.69,0-14.8-4.11-14.8-10.68V659.05c0-6.17,3.7-10.69,14.8-10.69,10.68,0,14.38,4.11,14.38,10.69Z"/></clipPath><clipPath id="clip-path-31"><path class="cls-1" d="M1232.65,678v-6.58H1222c-3.7,0-4.93,1.65-4.93,4.52v1.65c0,2.87,1.65,4.11,5.34,4.11A17.38,17.38,0,0,0,1232.65,678Zm-21.78-18.9c0-6.17,4.11-10.28,14.38-10.28,10.69,0,14.38,4.11,14.38,10.28v26.71c0,1.23-.41,1.64-1.23,1.64h-4.11c-1.23,0-1.23-.41-1.64-1.64V683.7a19,19,0,0,1-11.92,4.52c-7,0-10.68-4.11-10.68-9.45v-3.7c0-4.93,3.69-9.45,10.68-9.45h11.92v-5.75c0-3.29-1.65-5.34-7.4-5.34s-7.4,1.64-7.4,4.93v.82c0,1.23-.41,1.64-1.64,1.64h-4.11c-.82,0-1.23-.41-1.23-1.64Z"/></clipPath><clipPath id="clip-path-33"><path class="cls-1" d="M1256.48,685.76c0,1.23-.41,1.64-1.23,1.64h-4.52c-1.24,0-1.65-.41-1.65-1.64V635.21c0-1.23.41-1.64,1.65-1.64h4.52c.82,0,1.23.41,1.23,1.64Z"/></clipPath><clipPath id="clip-path-35"><path class="cls-1" d="M1274.56,685.76c0,1.23-.41,1.64-1.23,1.64h-4.52c-1.24,0-1.65-.41-1.65-1.64V650.83c0-1.23.41-1.65,1.65-1.65h4.52c.82,0,1.23.42,1.23,1.65Zm0-43.56c0,.82-.41,1.64-1.23,1.64h-4.52c-1.24,0-1.65-.41-1.65-1.64v-7c0-1.23.41-1.64,1.65-1.64h4.52c.82,0,1.23.41,1.23,1.64Z"/></clipPath><clipPath id="clip-path-37"><path class="cls-1" d="M1303.32,649.6c.83,0,1.65.41,1.65,1.23v2.87c0,1.24-.41,1.65-1.65,1.65h-7.8v20.54c0,3.29,2,4.94,7.8,4.94H1305a1.5,1.5,0,0,1,1.64,1.64v3.29c0,1.23-.41,1.64-1.64,1.64h-2.47c-10.68,0-14-3.7-14-10.68V655.35h-4.11c-1.23,0-1.64-.41-1.64-1.65v-2.87c0-.82.41-1.23,1.64-1.65l3.7-.41h.41V641c0-1.24.41-1.65,1.65-1.65h4.52c.82,0,1.23.41,1.23,1.65v7.8Z"/></clipPath><clipPath id="clip-path-39"><path class="cls-1" d="M1325.93,673a21.93,21.93,0,0,1,1.23,5.34c0-.41.82-2.88,1.23-4.93l7.4-22.19c.41-.82.82-1.64,1.64-1.64h4.11c.82,0,1.64.41,1.23,1.64l-17.25,50.13c-.42.82-.42,1.65-1.65,1.65h-3.29c-1.23,0-1.64-.42-1.23-1.65l4.11-13.56-12.74-37c-.41-.82.41-1.65,1.23-1.65h4.52c.83,0,1.24.42,1.65,1.65Z"/></clipPath></defs><g class="cls-2"><g class="cls-3"><rect class="cls-4" x="573.05" y="426.4" width="137.8" height="181.76"/></g></g><g class="cls-5"><g class="cls-3"><rect class="cls-4" x="732.9" y="426.4" width="143.96" height="178.48"/></g></g><g class="cls-6"><g class="cls-3"><rect class="cls-4" x="885.45" y="429.27" width="151.58" height="176.01"/></g></g><g class="cls-7"><g class="cls-3"><rect class="cls-4" x="1209.98" y="426.4" width="138.21" height="181.76"/></g></g><g class="cls-8"><g class="cls-3"><rect class="cls-9" x="1046.84" y="426.4" width="143.96" height="181.76"/></g></g><g class="cls-10"><g class="cls-3"><rect class="cls-9" x="1065.74" y="371.75" width="103.28" height="42.46"/></g></g><g class="cls-11"><g class="cls-3"><rect class="cls-9" x="870.97" y="643.77" width="39.59" height="49.45"/></g></g><g class="cls-12"><g class="cls-3"><rect class="cls-9" x="927.27" y="628.57" width="40.82" height="63.83"/></g></g><g class="cls-13"><g class="cls-3"><rect class="cls-9" x="965.07" y="643.36" width="39.59" height="49.45"/></g></g><g class="cls-14"><g class="cls-3"><rect class="cls-9" x="1002.05" y="634.32" width="33.83" height="58.08"/></g></g><g class="cls-15"><g class="cls-3"><rect class="cls-9" x="1030" y="634.32" width="33.83" height="58.08"/></g></g><g class="cls-16"><g class="cls-3"><rect class="cls-9" x="1060.4" y="643.36" width="39.59" height="49.45"/></g></g><g class="cls-17"><g class="cls-3"><rect class="cls-9" x="1098.21" y="643.77" width="30.96" height="48.63"/></g></g><g class="cls-18"><g class="cls-3"><rect class="cls-9" x="1141.76" y="643.77" width="30.96" height="48.63"/></g></g><g class="cls-19"><g class="cls-3"><rect class="cls-9" x="1168.47" y="643.36" width="39.59" height="49.45"/></g></g><g class="cls-20"><g class="cls-3"><rect class="cls-9" x="1205.05" y="643.77" width="39.59" height="49.45"/></g></g><g class="cls-21"><g class="cls-3"><rect class="cls-9" x="1244.08" y="628.57" width="17.4" height="63.83"/></g></g><g class="cls-22"><g class="cls-3"><rect class="cls-9" x="1262.16" y="628.57" width="17.4" height="63.83"/></g></g><g class="cls-23"><g class="cls-3"><rect class="cls-9" x="1277.78" y="634.32" width="33.83" height="58.08"/></g></g><g class="cls-24"><g class="cls-3"><rect class="cls-9" x="1305.61" y="644.18" width="42.27" height="63.83"/></g></g></svg>