<svg id="Layer_1" data-name="Layer 1" xmlns="http://www.w3.org/2000/svg" xmlns:xlink="http://www.w3.org/1999/xlink" viewBox="0 0 1920 1080"><defs><style>.cls-1{fill:none;}.cls-2{clip-path:url(#clip-path);}.cls-3{clip-path:url(#clip-path-2);}.cls-4{fill:#ca4546;}.cls-5{clip-path:url(#clip-path-3);}.cls-6{clip-path:url(#clip-path-5);}.cls-7{clip-path:url(#clip-path-6);}.cls-8{clip-path:url(#clip-path-8);}.cls-9{clip-path:url(#clip-path-9);}.cls-10{clip-path:url(#clip-path-11);}.cls-11{clip-path:url(#clip-path-13);}.cls-12{clip-path:url(#clip-path-15);}.cls-13{clip-path:url(#clip-path-17);}.cls-14{clip-path:url(#clip-path-19);}.cls-15{clip-path:url(#clip-path-21);}.cls-16{clip-path:url(#clip-path-23);}.cls-17{clip-path:url(#clip-path-25);}.cls-18{clip-path:url(#clip-path-27);}.cls-19{clip-path:url(#clip-path-29);}.cls-20{clip-path:url(#clip-path-31);}</style><clipPath id="clip-path"><path class="cls-1" d="M412.59,562.14l-2.36-8.87c-1.18-4.73-1.77-13-.59-18.34,1.77-12.42,15.34-39.64,21.83-44.37,2.94-1.77,4.72-4.14,4.72-4.73-.59-.59-.59-1.18,0-1.18a1.27,1.27,0,0,1,1.17,1.18v3.55c0,1.18-3.54,5.91-7.66,10.65-8.26,8.87-17.11,36.68-17.11,53.24Zm187,74.54c.59,1.77,2.36,3.54,3,3.54,1.18,0,1.18-1.77.59-3.54s-2.36-3.55-3-3.55A3.32,3.32,0,0,0,599.56,636.68ZM622,672.76c4.73,7.69,4.73,7.69-10.61-4.73-3.54-3-8.26-5.33-10.62-5.33s-4.72-1.77-5.89-4.73c-.6-2.37-3-4.73-4.73-4.73-2.35,0-2.94-1.19-1.76-4.14,1.18-2.37,2.36-7.1,3.54-11.24s3.54-8.28,5.89-8.87c5.31-1.78,11.8,7.69,11.8,17.15,0,4.73,1.77,10.65,4.13,13.6C615.49,663.89,619.62,669.21,622,672.76Zm-65.46-76.31c-.59,2.37-1.18,4.14-.59,4.73s1.77-.59,2.35-3,1.19-4.14.6-4.73C558.87,592.9,557.69,594.08,556.51,596.45Zm17.69,92.28c2.36,7.1-18.87-17.15-23-27.21-2.36-4.73-4.72-14.2-5.9-20.7-.59-6.51-2.36-11.83-2.95-11.83-3,0-11.2-22.48-8.85-23.67,1.18-.59,1.77-2.36,1.18-3-1.18-1.78,17.7-13.61,22.42-13.61,1.77,0,4.12,1.77,5.3,3.55,2.36,2.37,1.77,5.32-1.76,13-8.26,16.57-8.26,33.13-1.18,55.61a64.86,64.86,0,0,0,8.84,16.56C570.66,681,573.61,686.37,574.2,688.73ZM519.94,532.56c0,1.19.59,2.37,1.18,2.37s1.77-1.18,2.36-2.37.59-2.36-1.18-2.36A2.54,2.54,0,0,0,519.94,532.56Zm-13.57,89.33c0,16,9.44,43.18,20,59.15,4.73,7.1,8.85,13.61,8.85,14.79,0,3.55-14.15-12.42-21.82-23.66-11.21-17.75-16.51-34.31-16.51-54.42S499.3,584,502.24,584c1.18,0,1.77-.6,1.18-1.78-.59-.59-.59-3,1.18-4.73,1.18-1.78,1.77-3.55,1.18-4.73-.59-.6-2.95.59-4.72,3-4.71,5.92-4.12,3.55,1.18-11.23,4.13-10.06,5.9-12.43,8.85-11.83,5.31,1.18,9.44-12.43,6.49-18.93-1.77-3-1.18-4.74,1.18-5.33,1.77-.59,3-2.36,2.36-3.55s.59-1.18,3,0,8.25,2.37,13,2.37c20.65,0,22.42,10.06,4.13,19.52C530,552.08,527,555,519.94,567.46c-7.08,11.83-8.26,16-7.67,23.67.59,5.91.59,7.69-1.18,5.32-1.77-3-1.77-2.37-2.36.59a40.67,40.67,0,0,1-1.18,7.69Zm-47.77-39c-.59-11.24,3.54-24.25,5.9-30.16,1.76-4.74,2.95-17.16,23.59-39.64,1.18-1.18,2.36-3.55,4.13-3.55a7.28,7.28,0,0,0,4.72-2.36c1.17-1.78.58-1.78-1.77-.6-1.77,1.19,1.18-2.95,6.48-8.28,10-10.65,30.67-22.48,38.34-24.25,8.26-1.78,30.67-2.37,30.67-2.37,8.85,7.1,10,10.06,7.67,13.61-1.77,3.55-5.9,4.14-21.23,4.14s-21.24,1.18-31.85,5.91c-10,4.74-13.57,7.69-16.52,14.79-1.77,4.74-4.13,8.88-5.31,9.47-5.31,3.55-20.05,30.76-24.77,45.55-4.13,13-5.31,21.29-5.31,40.82,0,17.15-.59,23.66-2.36,23.07-7.07-3,7.67,36.67,20.65,56.19,5.31,8.29,10,15.38,10,15.38,0,.6-4.13-1.77-9.43-5.32-9.44-5.92-31.85-27.8-30.08-29.58.58-.59,2.36.59,4.71,3,6.49,6.51,8.26,2.36,3.54-7.69-10-24.25-13.56-42.59-12.38-54.42C458.6,600.59,458.6,585.8,458.6,582.84Zm95.55,133.7c-.59-2.37-1.77-4.74-2.95-4.74s-2.36-1.77-3-3.54c-1.77-4.74,1.18-4.15,7.67,1.77,3,3,7.08,5.32,8.84,5.32s3.54,2.37,4.13,5.33c.59,4.73,0,5.32-12.38,5.32-9.44,0-14.75-1.18-19.47-4.73-4.72-3-5.3-4.73-2.95-4.73a7.48,7.48,0,0,1,5.31,2.36c.59,1.18,4.72,2.37,8.85,2.37Zm-3.54-356.71c-.59-5.32-19.46,5.92-3.54,1.18C547.66,361,550.61,360.42,550.61,359.83Zm-63.7,53.24c-1.18.59-1.77,1.18-3,1.18a8,8,0,0,0-4.13,3.55c-.59.59-1.18,1.18-.59,1.78,2.36,0,4.72-1.78,6.49-3,1.18-1.19,2.36-1.78,2.95-3.55C488.09,412.48,488.09,412.48,486.91,413.07Zm46,39a4.48,4.48,0,0,0-2.36.59c-1.76.6-3.53,2.37-4.71,3.55l-7.08,7.1a.58.58,0,0,1-.59.59h1.77c1.18-.59,1.77-1.18,2.95-1.77,1.77-1.18,3-3,5.31-4.14s4.12-3,6.48-2.37c1.18,0,1.77-.59,1.77-1.18a5.91,5.91,0,0,0-3-2.37ZM655.6,637.86c1.17,3.55,7.07,4.14,6.48,1.18a6.87,6.87,0,0,0-6.48-1.18C656.77,639.63,656.19,637.86,655.6,637.86ZM524.66,403c5.3,0,9.43-3,13.56-5.91-2.36-.6-14.15,1.77-13.56,5.91C525.84,403,524.66,402.42,524.66,403Zm69.59-21.29c0,5.91,14.16,13.6,15.93,6.5,0-4.73-13-10.64-15.93-6.5C594.25,382.31,594.85,381.13,594.25,381.72Zm-63.1-5.33c2.94-1.18,8.25-1.18,10.61-2.36s7.08-1.78,9.44-1.78a45.54,45.54,0,0,0,8.85-1.18c3.54-.59,6.48-.59,10-1.18,1.77-.59,3.54-.59,4.72-1.78,1.77-1.18,1.18-3.55,3-4.73,6.49-4.14,17.11.59,23-3.55-3-3-10-1.18-13.56-1.77a60.66,60.66,0,0,0-14.75,0,77.22,77.22,0,0,1-16.51,0c-5.9-1.19,5.89-3.55,7.08-3.55,11.2-1.19,22.41,0,33.61.59,8.26,0,15.93,2.36,23.6,3,3.54,0,7.66,2.95,11.2,1.18,2.36-3,2.36-3,5.9-3,1.77.59,1.77,3,3,3.55,3.54,2.37,9.44,3,13.56,4.73L668,369.89c2.36.59,11.8,4.14,11.8,1.77-2.36-3.55-8.26-5.91-12.39-7.69a74.16,74.16,0,0,0-14.74-5.32,18.2,18.2,0,0,1-7.08-3c-2.36-1.78,2.95-1.18,4.72-1.18h0c3,.59,13,3.55,15.33,4.73a210,210,0,0,1,20,9.46c10,5.33,20.65,12.43,28.91,20.71,4.13,4.14,8.84,7.69,13,11.23s8.26,8.29,13.57,11.24c1.77,1.19,6.49,3.55,6.49-.59,0-3.55.59-5.32-3-10.65a24.42,24.42,0,0,0-4.13-6.5c-2.36-2.37-8.26-5.92-7.67-7.69,1.77-3.55,14.75,8.28,17.7,11.24a147.92,147.92,0,0,1,14.74,17.74c10,13,20.05,27.81,24.78,43.19,4.12,6.51,5.89,16,7.66,23.07,1.77,6.5,2.36,13,4.13,18.93a129.73,129.73,0,0,1,2.36,16c.59,8.28,1.77,17.16,1.77,25.44,0,13.6-.59,26.62-4.13,39.63-3.54,15.38-10.62,29.58-18.28,43.19-16.52,28.39-42.47,54.42-71.37,69.21A104.88,104.88,0,0,1,668,705.89c-8.26.59-14.74-3-21.82-6.51-2.95-1.77-7.67-3.55-8.85-7.1-1.18-4.14,6.49-4.73,8.85-4.73,3,0,6.49-.59,9.44,0,1.76.59,5.3,1.18,7.07.59,5.9-1.77-1.77-17.16-2.95-20.7-1.77-4.74-12.38-34.9.59-33.72,7.67.59,14.16,8.87,20.65,13,7.08,4.73,15.92,9.46,24.18,11.24a39.84,39.84,0,0,0,8.26,1.18c3,0,6.49-.59,9.44-.59,4.12.59,18.28-5.32,11.79-10.65-5.31-4.73-8.26-11.23-13.57-16.56-4.71-5.32-13-11.83-13.56-18.93-.59-6.5,14.75-6.5,18.28-6.5,8.26,0,16.52.59,24.19-1.19a46.45,46.45,0,0,0,17.69-7.1c4.72-3,14.16-10,10.62-17.15s-13.57-9.47-20.06-11.83-13.56-.6-20.05-3.55c-7.08-3.55-4.13-10.06.59-14.2,6.49-5.32,14.74-7.69,21.23-13.6a63.83,63.83,0,0,0,14.16-18.93c3-5.92,6.49-16,1.18-21.89-4.72-4.74-13-2.37-18.29-1.19-8.25,1.78-14.15,6.51-21.23,9.47-8.26,3.55-12.39-.59-11.21-8.88,1.18-8.87,8.26-16,9.44-24.25,2.36-10.64,1.18-27.21-4.72-36.67-10.61-17.16-27.13,8.28-31.85,17.74-1.77,4.15-6.48,11.83-12.38,10.06s-6.49-11.24-7.67-16c-3.54-13-9.44-24.85-19.47-33.72-4.13-3.55-10-8.88-15.92-8.88s-8.26,5.33-8.85,10.65c-.59,6.51-1.77,12.43-1.77,18.34,0,6.51,3,16-.59,21.89-3,5.92-10.61-3-13-5.32a136.8,136.8,0,0,0-14.16-11.84,63.78,63.78,0,0,0-17.1-7.69c-5.9-1.77-14.16-4.14-20.65-1.77-5.89,2.37-10,7.69-15.33,10.65-5.9,3-11.8,6.51-17.7,9.46-5.89,2.37-11.79,4.14-17.1,7.69-2.95,1.78-3.54,4.74-7.67,4.74s-4.13-1.78-2.95-4.74c-3.54,0-7.08,3.55-10,5.33a91.23,91.23,0,0,0-11.8,9.46c-3.54,3-6.49,6.51-10,10.06-1.18,1.77-8.25,8.87-7.67,10.64,7.08-2.95,12.39-10.05,18.29-14.19,1.18-1.19,7.08-5.92,8.26-4.73,1.18,2.95-4.13,6.5-5.9,8.28-14.16,11.83-24.77,28.39-33,44.36a94.18,94.18,0,0,0-9.44,25.44c-1.18,7.69-1.77,15.38-3,23.07-1.18,8.87-.59,18.93-.59,28.4,0,4.73-.59,9.46-.59,14.19,0,4.15.59,8.29-1.18,11.84C435,622.48,435,611.83,435,605.32c-.59-10.64-.59-21.89-.59-32.53,0-2.37,0-4.74-1.17-6.51s-3.54-.59-4.13-2.37c-2.95-4.73,0-11.23.59-16,1.77-9.46,6.49-19.52,10.61-28.39,10-21.89,23.6-41.41,41.29-57.38,8.26-7.69,18.29-13.61,26.54-20.11,2.36-1.78,10.62-7.69,7.67-11.24-1.18-1.78-2.95,0-3.54-1.78s1.18-4.73,1.77-6.51c-4.13-.59-8.85,3-12.39,4.74-4.13,1.77-7.66,4.14-11.79,5.91-6.49,3.55-13,5.33-19.47,8.28-7.07,3.55-13.56,9.47-18.87,14.79-2.95,2.37-5.31,5.33-8.26,7.69-1.77,1.78-7.07,6.51-9.44,5.92,0-7.1,9.44-14.2,14.16-18.34l4.72-4.73c0-2.37,4.13-2.37,5.31-3,3.54-1.77,6.49-5.32,9.44-8.87,13-15.38,34.2-21.3,50.72-31.95-3.54-.59-6.49.59-10,1.78-1.77,1.77-2.95,3.55-5.9,4.14a9.84,9.84,0,0,1-7.07-.59c0-4.15,4.13-3.55,6.48-5.33s1.18-4.14,3-5.91c3.54,1.18,4.72,4.73,7.08.59,1.77-3.55,2.36-1.19,5.31-3,3-1.18,4.72-4.14,6.49-5.91-4.13-1.78-15.34,3.54-18.88,5.32-6.49,3-12.38,5.91-18.87,9.46-12.39,7.69-24.18,17.75-37.16,24.26-.59-3,4.72-7.69,6.49-10.06,2.36-3,5.9-5.92,8.85-8.87,6.48-6.51,15.33-10.65,23.59-14.79s17.69-9.47,26-13C517.58,381.72,531.15,376.39,531.15,376.39Z"/></clipPath><clipPath id="clip-path-2"><rect class="cls-1" width="1920" height="1080"/></clipPath><clipPath id="clip-path-3"><path class="cls-1" d="M895.85,466v27.71h45.2c2.93,0,5.28-.59,6.45-1.77a9.43,9.43,0,0,0,2.35-6.49v-11.2c0-3.53-.59-5.3-2.35-6.48-1.17-1.18-3.52-1.77-6.45-1.77ZM880,458h64c5.87,0,10,1.18,12.91,3.54S961,468,961,473.33V491c0,5.31-1.17,9.43-4.11,11.79s-7,3.54-12.91,3.54H893.5V537H880.59V458Z"/></clipPath><clipPath id="clip-path-5"><rect class="cls-1" x="1007" y="458" width="13" height="80"/></clipPath><clipPath id="clip-path-6"><path class="cls-1" d="M1072.18,458h8.25L1140,511.33a50.67,50.67,0,0,1,8.84,10.08,61.26,61.26,0,0,1-.59-10.08V458H1160v80h-7.66L1091,482.3a25.21,25.21,0,0,0-4.13-3.56,20.7,20.7,0,0,1-4.12-5.33,45,45,0,0,1,.59,8.89V538H1071V458Z"/></clipPath><clipPath id="clip-path-8"><rect class="cls-1" x="1215" y="458" width="13" height="80"/></clipPath><clipPath id="clip-path-9"><path class="cls-1" d="M1356,527.48V470h-66.06v58.07H1356ZM1278,477a46.26,46.26,0,0,1,1.18-9.48,18.46,18.46,0,0,1,3-5.92,13.75,13.75,0,0,1,5.89-3,39.07,39.07,0,0,1,8.85-.59h54.85a39,39,0,0,1,8.84.59,18.29,18.29,0,0,1,5.9,3,13.86,13.86,0,0,1,3,5.92c.59,2.37.59,5.33.59,9.48V519a48.1,48.1,0,0,1-.59,9.48,18.56,18.56,0,0,1-3,5.92,13.84,13.84,0,0,1-5.9,3,39,39,0,0,1-8.84.59h-54.85a39.07,39.07,0,0,1-8.85-.59,18.54,18.54,0,0,1-5.89-3,13.86,13.86,0,0,1-3-5.92c-1.18-2.37-1.18-5.93-1.18-9.48Z"/></clipPath><clipPath id="clip-path-11"><path class="cls-1" d="M1423.18,458.59h8.25L1491,511.92A51.28,51.28,0,0,1,1499.8,522a65.61,65.61,0,0,1-1.18-10.67V458H1511v80h-7.66L1442,482.3a25.21,25.21,0,0,0-4.13-3.56,20.77,20.77,0,0,1-4.12-5.34,45.16,45.16,0,0,1,.59,8.9V538H1422V458.59Z"/></clipPath><clipPath id="clip-path-13"><path class="cls-1" d="M982,619a20.9,20.9,0,0,1-10.8,3,19.09,19.09,0,0,1-13.8-5.35q-5.4-5.34-5.4-14.26c0-6.53,1.8-11.88,5.4-15.45,3.6-4.16,9-5.94,15-5.94a20.18,20.18,0,0,1,9,1.78v6.54a18.19,18.19,0,0,0-9.6-3,13.19,13.19,0,0,0-10.2,4.16c-3,3-3.6,6.53-3.6,11.29s1.2,8.32,3.6,10.69a14.21,14.21,0,0,0,9.6,4.16,14.83,14.83,0,0,0,9.6-3.56V619Z"/></clipPath><clipPath id="clip-path-15"><path class="cls-1" d="M1019.76,585c-4.09,0-7,1.19-9.36,4.16s-3.51,6.54-3.51,11.29,1.18,8.32,3.51,10.7c2.34,3,5.27,4.16,9.36,4.16s7-1.19,9.35-4.16c2.34-2.38,3.51-6.54,3.51-11.29s-1.17-8.91-3.51-11.29S1023.85,585,1019.76,585Zm-2,37c-5.85,0-10.53-1.78-13.45-5.35-3.51-3.56-5.26-8.32-5.26-14.85s1.75-11.89,5.26-15.45,8.19-5.35,14.62-5.35c5.84,0,10.52,1.78,13.44,5.35,3.51,3.56,4.68,8.32,4.68,14.85s-1.75,11.29-5.26,14.86C1028.23,620.22,1023.55,622,1017.71,622Z"/></clipPath><clipPath id="clip-path-17"><path class="cls-1" d="M1091.41,619.81h-6.48v-6a12.35,12.35,0,0,1-11.79,7.17c-9.43,0-14.14-5.37-14.14-16.72V581h6.48v22.69c0,8.36,3,12.53,9.43,12.53,2.94,0,5.3-1.19,7.66-3.58a14.77,14.77,0,0,0,3-8.95V581H1092v38.81Z"/></clipPath><clipPath id="clip-path-19"><path class="cls-1" d="M1136,588.17a11.16,11.16,0,0,0-4.8-1.2c-3,0-4.8,1.2-6.6,3.58a17,17,0,0,0-3,10.15V621H1115V581.6h6.6V590a17.77,17.77,0,0,1,4.2-6.56,8.63,8.63,0,0,1,6-2.39c1.8,0,3,0,3.6.6v6.57Z"/></clipPath><clipPath id="clip-path-21"><path class="cls-1" d="M1151,619.62v-6.53a18.91,18.91,0,0,0,11,3.56c5.23,0,8.14-1.78,8.14-5.35,0-1.18,0-1.78-.59-2.37l-1.74-1.79a13.09,13.09,0,0,0-2.91-1.78,8.14,8.14,0,0,0-3.49-1.18,17.84,17.84,0,0,1-4.65-2.38c-1.16-.6-2.32-1.78-3.48-2.38-.58-.6-1.75-1.78-1.75-3s-.58-2.38-.58-4.16a11.5,11.5,0,0,1,1.16-4.76,10.18,10.18,0,0,1,3.49-3.56,11.66,11.66,0,0,1,4.65-2.38,15.92,15.92,0,0,1,5.24-.59,19,19,0,0,1,8.71,1.78v6.54a17.65,17.65,0,0,0-9.88-3c-1.16,0-2.32,0-2.91.59a3,3,0,0,0-2.32,1.19l-1.74,1.78c-.59.6-.59,1.19-.59,2.38s0,1.78.59,2.38l1.74,1.78a4.43,4.43,0,0,0,2.32,1.19,8.23,8.23,0,0,0,3.49,1.18,40.6,40.6,0,0,1,4.65,1.79c1.17.59,2.33,1.78,3.49,2.37a6,6,0,0,1,2.33,3,9,9,0,0,1,.58,4.16,17.39,17.39,0,0,1-1.17,5.34,10,10,0,0,1-3.48,3.57,11.66,11.66,0,0,1-4.65,2.38,17.68,17.68,0,0,1-5.81.59A18.74,18.74,0,0,1,1151,619.62Z"/></clipPath><clipPath id="clip-path-23"><path class="cls-1" d="M1228.55,596.3a14.31,14.31,0,0,0-2.64-8.32,11.57,11.57,0,0,0-7.93-3,14.84,14.84,0,0,0-8.59,3c-2,2.38-4,4.76-4,8.32ZM1233,603h-27.55c0,4.16,1.17,7.73,3.52,10.11s5.27,3.56,9.37,3.56a17.78,17.78,0,0,0,11.73-4.16v5.94c-3.52,2.38-7.62,3.57-13.48,3.57-5.28,0-10-1.78-12.9-5.35s-4.69-8.32-4.69-14.85c0-5.94,1.76-11.29,5.28-14.86s7.62-5.94,12.89-5.94a15.33,15.33,0,0,1,11.73,4.75c2.93,3,4.1,7.73,4.1,13.67Z"/></clipPath><clipPath id="clip-path-25"><path class="cls-1" d="M1301,581l-11.83,39h-6.5l-8.28-27.77a7.52,7.52,0,0,1-.59-3.55c0,1.18-.6,2.37-.6,3.55L1264.33,620h-6.5L1246,581h6.5l8.28,29.54c0,1.19.6,1.78.6,3.55h.59c0-1.18.59-2.36.59-3.55l8.87-28.95h5.91l8.28,29.55c0,1.18.59,2.36.59,3.54h.6a7.48,7.48,0,0,1,.59-3.54l7.68-29.55H1301Z"/></clipPath><clipPath id="clip-path-27"><path class="cls-1" d="M1343.05,600.77l-10.85,1.17c-3.4.58-6.11,1.17-7.46,2.34a7,7,0,0,0-2.72,5.27,6.16,6.16,0,0,0,2,4.69q2,1.75,6.1,1.76a11.72,11.72,0,0,0,8.82-3.52c2-2.34,3.39-4.68,3.39-8.2v-3.51Zm6,20.06h-6.56V615c-3,4.69-6.56,7-11.92,7-4.17,0-7.16-1.17-9-2.93-2.38-1.76-3.57-4.68-3.57-8.2,0-7,4.17-11.13,13.12-12.88l11.92-1.76c0-6.44-3-10-8.35-10-4.77,0-8.94,1.76-13.12,4.69v-6.45a24.4,24.4,0,0,1,13.12-3.51c9.54,0,13.71,4.69,13.71,14.64v25.19Z"/></clipPath><clipPath id="clip-path-29"><path class="cls-1" d="M1391,588.17a11.16,11.16,0,0,0-4.8-1.2c-3,0-4.8,1.2-6.6,3.58a17,17,0,0,0-3,10.15V621H1370V581.6h6.6V590a17.77,17.77,0,0,1,4.2-6.56,8.63,8.63,0,0,1,6-2.39c1.8,0,3,0,3.6.6v6.57Z"/></clipPath><clipPath id="clip-path-31"><path class="cls-1" d="M1434.43,596.3a15.57,15.57,0,0,0-2.34-8.32,9.67,9.67,0,0,0-7-3,12.28,12.28,0,0,0-7.62,3c-1.76,2.38-3.52,4.76-3.52,8.32ZM1440,603h-27.55c0,4.16,1.17,7.73,3.51,10.11s5.28,3.56,9.39,3.56a17.77,17.77,0,0,0,11.72-4.16v5.94c-3.52,2.38-7.62,3.57-13.48,3.57-5.28,0-10-1.78-12.9-5.35s-4.69-8.32-4.69-14.85c0-5.94,1.76-11.29,5.28-14.86s7.62-5.94,12.89-5.94a15.32,15.32,0,0,1,11.73,4.75c2.93,3,4.1,7.73,4.1,13.67Z"/></clipPath></defs><g class="cls-2"><g class="cls-3"><rect class="cls-4" x="404" y="349" width="407" height="382"/></g></g><g class="cls-5"><g class="cls-3"><rect class="cls-4" x="875" y="453" width="91" height="89"/></g></g><g class="cls-6"><rect class="cls-4" x="1002" y="453" width="23" height="90"/></g><g class="cls-7"><g class="cls-3"><rect class="cls-4" x="1066" y="453" width="99" height="90"/></g></g><g class="cls-8"><rect class="cls-4" x="1210" y="453" width="23" height="90"/></g><g class="cls-9"><g class="cls-3"><rect class="cls-4" x="1273" y="453" width="102" height="90"/></g></g><g class="cls-10"><g class="cls-3"><rect class="cls-4" x="1417" y="453" width="99" height="90"/></g></g><g class="cls-11"><g class="cls-3"><rect class="cls-4" x="947" y="576" width="40" height="51"/></g></g><g class="cls-12"><g class="cls-3"><rect class="cls-4" x="994" y="576" width="48" height="51"/></g></g><g class="cls-13"><g class="cls-3"><rect class="cls-4" x="1054" y="576" width="43" height="50"/></g></g><g class="cls-14"><g class="cls-3"><rect class="cls-4" x="1110" y="576" width="31" height="50"/></g></g><g class="cls-15"><g class="cls-3"><rect class="cls-4" x="1146" y="576" width="35" height="51"/></g></g><g class="cls-16"><g class="cls-3"><rect class="cls-4" x="1194" y="576" width="44" height="51"/></g></g><g class="cls-17"><g class="cls-3"><rect class="cls-4" x="1241" y="576" width="65" height="49"/></g></g><g class="cls-18"><g class="cls-3"><rect class="cls-4" x="1313" y="576" width="41" height="51"/></g></g><g class="cls-19"><g class="cls-3"><rect class="cls-4" x="1365" y="576" width="31" height="50"/></g></g><g class="cls-20"><g class="cls-3"><rect class="cls-4" x="1401" y="576" width="44" height="51"/></g></g></svg>