<svg id="Layer_1" data-name="Layer 1" xmlns="http://www.w3.org/2000/svg" xmlns:xlink="http://www.w3.org/1999/xlink" viewBox="0 0 1920 1080"><defs><style>.cls-1,.cls-6{fill:none;}.cls-2{clip-path:url(#clip-path);}.cls-3{clip-path:url(#clip-path-2);}.cls-4{fill:#a6c639;}.cls-5{clip-path:url(#clip-path-3);}.cls-6{stroke:#a6c639;stroke-miterlimit:10;}</style><clipPath id="clip-path"><path class="cls-1" d="M580.86,475.36c0,27.39,2,37,9.86,45.18,5.45,6.05,12.93,8.89,27.9,10.67l54.44,7.12c8.17,1.06,10.54,1.78,12.24,3.56,1.71,2.13,2.73,5,2.73,14.57,0,10.32-.68,13.52-2.39,14.94-1.35,1.43-3.73,2.5-10.2,2.5H636.31c-6.46,0-8.5-.71-9.87-2.5-1.69-2.13-2.37-5.68-2.71-20.27H578.48c.67,34.86,3.73,45.18,11.22,53,5.79,6.4,15.65,9.24,32.32,9.24h72.47c13.61,0,21.78-2.49,27.56-8.54C729.87,596.66,735,583.15,735,554c0-25.26-2-38.77-8.83-45.89-5.11-5.34-12.26-8.19-26.54-10L642.44,491c-8.17-1.06-10.21-1.78-12.25-3.55-2.38-2.14-3.07-5.34-3.07-14.23,0-9.26,1-12.1,2.73-13.87s4.08-2.14,10.21-2.14h33.68c6.13,0,8.51.71,9.86,2.49,1.7,2.13,2.39,4.26,3.07,18.85h45.25c-.68-33.08-3.4-44.46-10.89-52.29-5.44-5.69-15.31-8.54-32-8.54H621.34c-14.29,0-21.77,2.85-27.55,8.9C586.3,434.45,580.86,448.68,580.86,475.36Zm293.27,95.69H844.86c-8.5,0-11.91-.72-13.26-2.13-2-2.14-2.73-5-2.73-13.52v-95h45.6V417.73h-45.6V369H778.18v48.73H753v42.69h25.17v108.5c0,19.92,2.38,28.81,8.5,35.22,6.47,6.75,15.32,10.67,33,10.67a146.09,146.09,0,0,0,35-4.27l19.39-5V571.05ZM1033,613.38h75.87V571.05H1083.7V417.73h-76.89v42.33H1033v102.1c-12.6,5.69-20.76,8.17-29.6,8.17H993.2c-9.19,0-12.59-1.41-15.65-4.61-2.72-2.85-4.08-7.48-4.08-16v-132H898.62v42.69h24.15v95.34c0,28.45,3.07,38.77,10.89,47,7.15,7.47,17,11,33.34,11h17c17,0,24.83-3.91,49-26.32Zm172.48-195.65h-75.86v42.69h25.18V571.05h-25.18v42.33h95.94v-42h-20.08V469c12.6-6,20.76-8.18,29.61-8.18h10.21c9.18,0,12.59,1.06,15.65,4.26,2.72,3.2,4.08,7.84,4.08,16v90.36H1245v42h94.92V571.05h-24.16V475.36c0-28.81-3.06-39.12-10.88-47-7.15-7.47-17-11-33.34-11h-17c-17.35,0-24.84,3.55-49,26.32v-26Z"/></clipPath><clipPath id="clip-path-2"><rect class="cls-1" width="1920" height="1080"/></clipPath><clipPath id="clip-path-3"><path class="cls-1" d="M607.75,651.6H585.91v4h5.64v34h-5.64v4h21.84c4.09,0,6.22-.78,8-2.58,2.29-2.47,3.73-7.16,3.73-18.47s-1.44-16-3.73-18.47C614,652.38,611.84,651.6,607.75,651.6Zm-11.94,4h11.65c2.59,0,3.69.3,4.84,1.5,1.56,1.57,2.6,5,2.6,15.59s-1,13.9-2.6,15.46c-1.1,1.2-2.25,1.51-4.84,1.51H595.81Zm38.52,0v34H628.7v4H660V680.58h-4.26v9.1H638.6V673.77h12.67v-3.86H638.6V655.63h16.78V664h4.26V651.6H628.7v4ZM701,682.1c0-5.59-.52-7.76-2-9.26-1.09-1.15-2.82-1.69-5.87-2l-11.83-1.2c-2.18-.24-3-.42-3.56-1.09-.8-.84-1-1.8-1-5.59,0-3.61.23-5.48,1-6.26s1.5-.9,3.33-.9h10.42c1.83,0,2.64.18,3.22.84.74.78,1,1.92,1.09,7.34h4.43c-.12-7.22-.58-9-2.19-10.64-1.21-1.33-2.93-1.75-5.92-1.75H680.47c-3,0-4.66.66-5.81,1.87-1.79,1.8-2.37,4.38-2.37,9.56,0,5.42.47,7.52,1.9,9,1.1,1.2,2.77,1.74,5.93,2L692,675.25c2.18.24,3,.48,3.56,1.14.86.84,1,1.87,1,5.78s-.29,5.65-1,6.44-1.49.9-3.39.9H680.53c-1.9,0-2.64-.18-3.22-.84s-1-1.75-1.09-7.65h-4.43c.06,7.65.63,9.33,2.19,11,1.21,1.32,2.93,1.74,5.86,1.74h13c3,0,4.71-.66,5.87-1.86C700.41,690.11,701,687.7,701,682.1Zm21.21,7.58v-34h5.86v-4H712v4h5.87v34H712v4h16.08v-4Zm47-25.29c-.17-6.65-.63-9.24-2.53-11.16-1-1.14-2.7-1.63-6-1.63H748.22c-3.45,0-4.83.49-6,1.69-2,2-2.76,5.11-2.76,19.44s.75,17.26,2.76,19.3c1.15,1.2,2.53,1.68,6,1.68h12.61c3.32,0,4.93-.48,6.19-1.8,1.77-1.92,2.46-4.08,2.46-15.39v-3.86H754.92v3.86h10.21v1.33c0,8.17-.52,9.92-1.38,10.82-.52.6-1.27.84-3.52.84H749c-2.31,0-2.94-.24-3.52-.84-.86-1-1.38-3.07-1.38-15.94s.52-15.11,1.38-16.08c.58-.6,1.21-.84,3.52-.84h11c2.31,0,3,.3,3.51.84.87.91,1.16,2.72,1.27,7.74Zm41.32,23.25h-.75l-15.87-34.36c-.63-1.32-1-1.68-2.47-1.68H780.41v4h5.64v34h-5.64v4H796v-4h-5.86V656.83h.74l16.22,35.26c.63,1.32,1,1.62,2.47,1.62h5.06V655.63h5.53v-4H804.68v4h5.87Zm50-34.62c-2.84,0-4.31.39-5.35,1.48-1.27,1.33-1.6,3.11-1.6,8a11,11,0,0,0,1,5.49l-.33,0c-2.47.3-3.93.94-4.74,1.78-1.36,1.43-1.55,2.82-1.55,7.81,0,4.8.42,6.93,1.84,8.46,1.18,1.24,2.74,1.63,5.63,1.63h3.4c2.65,0,3.83-.84,5.26-3l1.55-2.52h.29l4.58,5.48h5.72v-3.36h-3.78l-4.72-5.49,4.72-7.57H876v-3.36h-5.49l-4.77,8.21h-.33l-5.72-6.92a10.54,10.54,0,0,1-1.95-2.82,11.43,11.43,0,0,1-.52-3.81c0-3.76.15-4.9.71-5.54s1.23-.74,2.89-.74H863c1.37,0,2.08.14,2.55.69s.81,1.58.81,5.69h3.54c0-5.05-.38-6.93-1.65-8.26-.9-.94-2.37-1.33-4.69-1.33Zm-2.37,31.45h-1.94c-2.17,0-3-.25-3.59-.89-.81-.84-1.09-2.13-1.09-6s.28-4.85.81-5.44a4.36,4.36,0,0,1,2.5-1.14l1.47-.34c1.27,1.53,4.73,5.44,7.38,8.7l-2.09,3.22A3.3,3.3,0,0,1,858.13,684.47ZM912,689.68v-34h5.87v-4H901.73v4h5.88v34h-5.88v4h16.09v-4Zm45.2-2h-.75l-15.87-34.36c-.63-1.32-1-1.68-2.47-1.68H927v4h5.64v34H927v4H942.6v-4h-5.87V656.83h.75l16.22,35.26c.63,1.32,1,1.62,2.46,1.62h5.07V655.63h5.52v-4H951.28v4h5.87Zm37.25,2v-34h10.54V665h4.26V651.6H975.27V665h4.25v-9.39h10.54v34h-5.93v4h16.21v-4Zm29.57-34v34h-5.63v4h31.27V680.58h-4.26v9.1h-17.11V673.77h12.67v-3.86h-12.67V655.63H1045V664h4.26V651.6h-30.94v4Zm66.59,26.7c-.23-6.74-1.44-8.37-5.35-9.2V673c4-.83,5.81-2.57,5.81-9.91,0-6.14-.75-8.12-2.3-9.75-1.26-1.26-3-1.74-5.88-1.74h-23.18v4h5.64v34h-5.64v4h15.79v-4h-5.89V674.8h10.75c2.25,0,3.4.36,4.38,1.33.81.84,1.27,2.11,1.39,6.27.23,8.49.57,9.69,1.32,10.47.52.54,1.21.84,2.93.84h6v-4.09H1091C1090.84,688.06,1090.73,686.25,1090.56,682.33Zm-21-11.3v-15.4h12.07c2,0,2.94.24,3.53.84s1.26,2,1.26,6.86-.57,6-1.26,6.68-1.51,1-3.59,1ZM1117,693.71v-4h-5.81l3-10.07c3.67,0,12.23-.05,15.28-.05l3.06,10.12h-5.82v4h15.36v-4h-4.83l-11.16-36.45c-.46-1.45-.86-1.81-2.47-1.81h-3.1c-1.61,0-2,.36-2.47,1.81l-11.16,36.45h-4.83v4Zm4.31-38.19h1.09l6,20.24h-13Zm47.46,38.19c3.22,0,5-.48,6.15-1.62,1.9-2,2.36-4.63,2.53-12.15h-4.42c-.18,6.08-.47,7.76-1.33,8.67-.57.6-1.26.9-3.44.9h-11c-2.3,0-2.93-.24-3.51-.84-.86-1-1.38-3.07-1.38-16s.52-15,1.38-16c.58-.6,1.21-.84,3.51-.84h11c2.23,0,2.92.3,3.44.84.86.9,1.21,2.83,1.33,8.06h4.37c-.18-7-.64-9.56-2.48-11.48-1.09-1.14-2.76-1.62-6.09-1.62h-12.31c-3.45,0-4.83.48-6,1.68-2,2-2.76,5.11-2.76,19.37s.74,17.33,2.76,19.37c1.14,1.2,2.52,1.68,6,1.68Zm37.24-4v-34h10.53V665h4.26V651.6H1186.9V665h4.26v-9.39h10.53v34h-5.92v4H1212v-4Zm34.49,0v-34h5.87v-4h-16.09v4h5.87v34h-5.87v4h16.09v-4Zm18.46-34,11,36.45c.46,1.44.92,1.8,2.53,1.8h2.88c1.61,0,2.07-.36,2.53-1.8l11-36.45h4.83v-4h-15v4h5.81l-9.88,33.87h-1.15l-9.83-33.87h5.82v-4h-15.43v4Zm47.87,0v34h-5.64v4h31.28V680.58h-4.26v9.1h-17.11V673.77h12.67v-3.86h-12.67V655.63h16.78V664h4.26V651.6h-31v4Z"/></clipPath></defs><g class="cls-2"><g class="cls-3"><rect class="cls-4" x="573.48" y="364" width="771.41" height="255.81"/></g></g><g class="cls-5"><g class="cls-3"><rect class="cls-4" x="580.91" y="646.42" width="756.59" height="52.45"/></g></g><line class="cls-6" x1="576" y1="634.08" x2="1342.85" y2="634.08"/><line class="cls-6" x1="576" y1="708.4" x2="1342.85" y2="708.4"/></svg>