<?xml version="1.0" encoding="UTF-8"?>
<svg id="Layer_1" data-name="Layer 1" xmlns="http://www.w3.org/2000/svg" viewBox="0 0 1600 900">
  <defs>
    <style>
      .cls-1 {
        fill: none;
      }

      .cls-2 {
        fill: #707c7c;
      }

      .cls-3 {
        fill: #fff;
      }

      .cls-4 {
        fill: #0063a8;
      }
    </style>
  </defs>
  <polygon class="cls-4" points="833.33 363.85 763.83 363.85 763.83 403.26 821.47 403.26 821.47 431.24 763.83 431.24 763.83 472.77 837.36 472.77 837.36 500.75 730.76 500.75 730.76 335.87 833.33 335.87 833.33 363.85"/>
  <path class="cls-2" d="M635.46,635.92c-2.91,6.53-8.16,8.09-12.1,8.09-1.81,0-6.61,0-10.69-4.6-4.08-4.6-4.85-11.92-4.85-16.83s.13-10.69,2.72-16.25c1.42-2.98,4.99-7.77,12.17-7.77,4.86,0,8.74,1.75,11.53,5.83,2.72,4.01,3.95,10.62,3.95,16.96s-1.1,11.01-2.72,14.57M623.03,602.18c-5.96,0-8.22,5.37-8.8,6.8-1.88,4.6-1.88,10.55-1.88,12.82,0,3.24.2,8.81,2.27,12.95,2.07,4.01,5.11,5.63,8.22,5.63,3.95,0,6.86-2.27,8.55-5.89,2.26-4.72,2.26-9.58,2.26-13.14,0-6.28-.97-19.16-10.62-19.16"/>
  <path class="cls-2" d="M656.85,599.46h14.05c6.99,0,9.26,1.94,10.74,3.3,1.24,1.16,3.18,3.43,3.18,8.41s-2.46,11.59-11.72,11.91l13.53,19.36h-5.44l-12.43-19.03h-7.45v19.03h-4.46v-42.99ZM668.57,619.53c4.33,0,11.59,0,11.59-8.16,0-7.64-5.63-8.03-9.65-8.03h-9.19v16.18h7.26Z"/>
  <polygon class="cls-2" points="728.73 599.46 728.73 603.22 714.94 603.22 714.94 642.45 710.35 642.45 710.35 603.22 696.62 603.22 696.62 599.46 728.73 599.46"/>
  <polygon class="cls-2" points="746.63 599.46 751.16 599.46 751.16 618.05 770 618.05 770 599.46 774.53 599.46 774.53 642.45 770 642.45 770 621.8 751.16 621.8 751.16 642.45 746.63 642.45 746.63 599.46"/>
  <path class="cls-2" d="M820.91,635.92c-2.91,6.53-8.16,8.09-12.1,8.09-1.81,0-6.61,0-10.69-4.6-4.08-4.6-4.85-11.92-4.85-16.83s.14-10.69,2.72-16.25c1.42-2.98,4.98-7.77,12.17-7.77,4.85,0,8.74,1.75,11.52,5.83,2.72,4.01,3.95,10.62,3.95,16.96s-1.1,11.01-2.72,14.57M808.47,602.18c-5.95,0-8.22,5.37-8.8,6.8-1.88,4.6-1.88,10.55-1.88,12.82,0,3.24.2,8.81,2.27,12.95,2.07,4.01,5.11,5.63,8.22,5.63,3.95,0,6.86-2.27,8.55-5.89,2.26-4.72,2.26-9.58,2.26-13.14,0-6.28-.97-19.16-10.62-19.16"/>
  <path class="cls-2" d="M842.55,599.46h12.49c5.05,0,8.67.71,11.27,2.85,2.78,2.26,4.27,5.63,4.27,9.65,0,4.92-2.4,8.15-3.95,9.58-3.17,2.92-7.18,2.92-10.74,2.92h-8.8v18h-4.53v-42.99ZM847.09,603.02v17.67h7.51c8.09,0,11.52-2.2,11.52-8.41,0-7.51-4.85-9.26-11.39-9.26h-7.64Z"/>
  <polygon class="cls-2" points="890.23 599.46 917.36 599.46 917.36 603.22 894.7 603.22 894.7 617.85 914.18 617.85 914.18 621.8 894.7 621.8 894.7 638.57 918.07 638.57 918.07 642.45 890.23 642.45 890.23 599.46"/>
  <path class="cls-2" d="M937.38,599.46h11.14c5.96,0,11.59.78,15.86,7.57,2.78,4.53,3.17,9.52,3.17,14.24,0,6.02-1.75,11.66-5.37,15.93-4.2,4.86-9.58,5.24-14.95,5.24h-9.85v-42.99ZM941.85,638.57h6.08c5.7,0,9.71-.97,12.69-6.28,2.2-3.89,2.59-9.78,2.59-11.33,0-6.93-1.62-12.62-6.28-15.67-3.17-2.07-4.92-2.07-15.08-2.07v35.35Z"/>
  <polygon class="cls-2" points="982.34 639.93 987.07 639.93 987.07 601.99 982.34 601.99 982.34 599.46 996.32 599.46 996.32 601.99 991.6 601.99 991.6 639.93 996.32 639.93 996.32 642.45 982.34 642.45 982.34 639.93"/>
  <path class="cls-2" d="M1036.67,611.83c-.52-5.5-3.43-9.71-9-9.71-10.68,0-11.45,15.6-11.45,19.36,0,3.36,0,18.9,11.19,18.9,6.73,0,9.07-5.76,9.78-10.49l3.89,1.17c-.46,3.75-3.11,12.95-13.53,12.95-2.08,0-7.58,0-11.72-5.89-2.66-3.82-3.95-9-3.95-15.02,0-4.66.32-11.46,3.43-16.96,4.27-7.58,10.74-7.58,12.95-7.58,6.79,0,11.52,4.86,12.3,11.98l-3.89,1.3Z"/>
  <path class="cls-2" d="M1078.97,609.44c-.84-2.34-2.59-7.25-9.25-7.25-1.82,0-7.84.71-7.84,7.38,0,4.66,4.47,6.6,6.6,7.51,1.69.71,4.54,1.74,6.22,2.46,6.28,2.66,9.64,5.31,9.64,12.43,0,3.88-2,7.58-4.46,9.39-3.56,2.66-7.9,2.66-9.65,2.66-7.06,0-11.26-4.53-13.79-10.03l3.89-1.88c1.42,4.27,4.27,6.28,5.18,6.8,2.39,1.36,4.72,1.42,6.21,1.42,3.11,0,8.35-1.69,8.35-8.16,0-3.17-1.49-5.83-4.59-7.32l-2.14-1.03c-2.65-1.36-5.51-2.33-8.22-3.56-1.88-.91-4.41-2.07-6.15-5.5-.84-1.75-1.17-3.82-1.17-5.12,0-6.34,4.08-11.07,12.37-11.07,5.43,0,9.38,2.07,12.81,8.87l-4.01,2.01Z"/>
  <path class="cls-2" d="M1158.96,622.19c-1.16,3.69-3.43,8.35-7.64,13.08,1.69,2,3.69,4.4,7.12,4.4,1.75,0,2.46-.45,3.31-.97v4.46c-.97.33-2.01.71-3.57.71-4.92,0-7.83-3.17-9.83-5.31-4.93,4.86-10.75,5.37-12.37,5.37-9.78,0-13.73-7.38-13.73-13.01,0-7.96,6.93-11.78,10.55-13.79-2.01-3.24-3.62-6.02-3.62-9.97,0-4.6,3.95-8.61,8.93-8.61,7.19,0,9.13,5.44,9.13,8.54,0,6.22-6.27,9.84-8.93,11.27,3.69,5.89,5.89,8.55,10.3,14.05,2-2.59,4.59-6.15,6.47-11.98l3.88,1.75ZM1145.62,635.39c-4.85-5.37-8.02-10.36-10.94-14.95-4.14,2.52-7.89,4.86-7.89,10.55,0,1.56.84,8.87,9.12,8.87,4.92,0,8.35-2.85,9.71-4.47M1143.1,606.91c0-4.02-3.24-5.05-4.99-5.05-3.94,0-4.91,3.36-4.91,5.31,0,3.3,2.52,7.12,3.17,8.09,2.46-1.36,6.73-3.75,6.73-8.35"/>
  <path class="cls-2" d="M1219.86,609.44c-.85-2.34-2.6-7.25-9.26-7.25-1.81,0-7.84.71-7.84,7.38,0,4.66,4.47,6.6,6.61,7.51,1.68.71,4.53,1.74,6.21,2.46,6.28,2.66,9.65,5.31,9.65,12.43,0,3.88-2.01,7.58-4.47,9.39-3.56,2.66-7.9,2.66-9.64,2.66-7.06,0-11.27-4.53-13.79-10.03l3.88-1.88c1.43,4.27,4.27,6.28,5.18,6.8,2.4,1.36,4.73,1.42,6.21,1.42,3.11,0,8.36-1.69,8.36-8.16,0-3.17-1.49-5.83-4.6-7.32l-2.14-1.03c-2.65-1.36-5.5-2.33-8.21-3.56-1.89-.91-4.41-2.07-6.16-5.5-.84-1.75-1.16-3.82-1.16-5.12,0-6.34,4.07-11.07,12.36-11.07,5.44,0,9.39,2.07,12.82,8.87l-4.01,2.01Z"/>
  <path class="cls-2" d="M1245.78,599.46h12.49c5.05,0,8.68.71,11.27,2.85,2.78,2.26,4.27,5.63,4.27,9.65,0,4.92-2.4,8.15-3.95,9.58-3.17,2.92-7.19,2.92-10.75,2.92h-8.8v18h-4.53v-42.99ZM1250.31,603.02v17.67h7.51c8.09,0,11.52-2.2,11.52-8.41,0-7.51-4.86-9.26-11.39-9.26h-7.64Z"/>
  <polygon class="cls-2" points="1289.69 639.93 1294.42 639.93 1294.42 601.99 1289.69 601.99 1289.69 599.46 1303.68 599.46 1303.68 601.99 1298.96 601.99 1298.96 639.93 1303.68 639.93 1303.68 642.45 1289.69 642.45 1289.69 639.93"/>
  <path class="cls-2" d="M1330.76,599.46l11.26,27.26c1.04,2.53,2.46,6.73,3.5,9.26.45,1.1.84,2.52,1.48,2.52.2,0,.53-.33.53-.97v-38.07h4.27v42.99h-7.84l-11.91-29.2c-1.36-3.36-1.49-3.69-2.71-6.93-.72-1.88-.91-2.91-1.43-2.91-.33,0-.52.33-.52.59v38.45h-4.27v-42.99h7.64Z"/>
  <polygon class="cls-2" points="1372.28 599.46 1399.41 599.46 1399.41 603.22 1376.74 603.22 1376.74 617.85 1396.23 617.85 1396.23 621.8 1376.74 621.8 1376.74 638.57 1400.12 638.57 1400.12 642.45 1372.28 642.45 1372.28 599.46"/>
  <polygon class="cls-4" points="642.1 473.34 710.77 473.34 710.77 501.32 609.05 501.32 609.05 336.45 642.1 336.45 642.1 473.34"/>
  <polygon class="cls-4" points="926.7 501.23 896.61 501.23 846.39 336.36 880.5 336.36 911.44 458.85 911.86 458.85 942.81 336.36 976.92 336.36 926.7 501.23"/>
  <polygon class="cls-4" points="1094.6 364.43 1025.1 364.43 1025.1 403.83 1082.74 403.83 1082.74 431.82 1025.1 431.82 1025.1 473.34 1098.63 473.34 1098.63 501.32 992.04 501.32 992.04 336.45 1094.6 336.45 1094.6 364.43"/>
  <polygon class="cls-4" points="1152.24 473.34 1220.89 473.34 1220.89 501.32 1119.18 501.32 1119.18 336.45 1152.24 336.45 1152.24 473.34"/>
  <polygon class="cls-4" points="1374.08 475.25 1399.51 475.25 1399.51 501.32 1315.6 501.32 1315.6 475.25 1341.03 475.25 1341.03 367.18 1315.6 367.18 1315.6 349.16 1350.36 336.45 1374.08 336.45 1374.08 475.25"/>
  <path class="cls-2" d="M524.31,418.31c0,89.52-72.57,162.1-162.09,162.1s-162.1-72.58-162.1-162.1,72.58-162.09,162.1-162.09,162.09,72.57,162.09,162.09"/>
  <polygon class="cls-2" points="424.45 642.46 424.45 642.45 431.07 642.46 406.26 590.14 397.75 590.14 397.76 383.18 329.76 383.18 329.76 642.46 424.45 642.46"/>
  <path class="cls-3" d="M362.22,269.18c82.36,0,149.12,66.77,149.12,149.13s-66.76,149.13-149.12,149.13-149.13-66.77-149.13-149.13,66.76-149.13,149.13-149.13"/>
  <path class="cls-4" d="M362.22,283.74c-74.33,0-134.58,60.24-134.58,134.57s60.25,134.58,134.58,134.58,134.58-60.26,134.58-134.58-60.25-134.57-134.58-134.57"/>
  <path class="cls-3" d="M397.77,325.73h-67.98s-6.62,0-6.62,0l-17.79,52.32h24.41l-.02,185.59c10.49,2.14,21.33,3.26,32.45,3.26,12.22,0,24.11-1.39,35.55-3.96v-237.2Z"/>
  <rect class="cls-1" y="0" width="1600.32" height="900.24"/>
</svg>