<?xml version="1.0" encoding="UTF-8"?>
<svg id="Layer_1" data-name="Layer 1" xmlns="http://www.w3.org/2000/svg" viewBox="0 0 1600 900">
  <defs>
    <style>
      .cls-1, .cls-2 {
        fill: none;
      }

      .cls-3 {
        fill: #005ca6;
      }

      .cls-4 {
        fill: #fff;
      }

      .cls-2 {
        stroke: #271f1d;
        stroke-miterlimit: 10;
        stroke-width: .03px;
      }

      .cls-5 {
        fill: #0091ba;
      }
    </style>
  </defs>
  <path class="cls-5" d="M516.76,408.11c.59.26,1.22.83,1.89,1.72l101.57,135.94c-.22-2.22-.33-4.36-.33-6.43v-131.62h9.98v156.9h-5.43c-1.7,0-3.07-.74-4.1-2.21l-102.01-136.16c.22,2.22.33,4.32.33,6.32v132.06h-9.87v-156.9h5.54c1.04,0,1.85.13,2.44.39"/>
  <path class="cls-5" d="M702.04,452.52c7.91,0,14.99,1.35,21.23,4.05,6.25,2.7,11.51,6.52,15.8,11.48,4.28,4.95,7.55,10.92,9.81,17.9,2.25,6.99,3.38,14.8,3.38,23.45s-1.13,16.45-3.38,23.4c-2.26,6.95-5.53,12.9-9.81,17.85-4.29,4.95-9.56,8.76-15.8,11.42-6.25,2.66-13.32,3.99-21.23,3.99s-14.99-1.33-21.23-3.99c-6.25-2.66-11.53-6.47-15.86-11.42-4.32-4.95-7.61-10.91-9.87-17.85-2.26-6.94-3.38-14.75-3.38-23.4s1.13-16.46,3.38-23.45c2.25-6.98,5.54-12.95,9.87-17.9,4.32-4.95,9.61-8.78,15.86-11.48,6.24-2.7,13.32-4.05,21.23-4.05M702.04,557.74c6.58,0,12.33-1.13,17.24-3.38,4.91-2.25,9.02-5.49,12.31-9.7,3.28-4.21,5.75-9.3,7.37-15.24,1.63-5.95,2.44-12.62,2.44-20.02s-.81-13.97-2.44-19.96c-1.62-5.99-4.09-11.1-7.37-15.36-3.29-4.25-7.39-7.52-12.31-9.82-4.92-2.29-10.67-3.44-17.24-3.44s-12.33,1.15-17.24,3.44c-4.92,2.29-9.02,5.57-12.31,9.82-3.29,4.25-5.76,9.37-7.43,15.36-1.67,5.99-2.5,12.64-2.5,19.96s.83,14.07,2.5,20.02c1.66,5.95,4.14,11.03,7.43,15.24,3.29,4.21,7.39,7.45,12.31,9.7,4.91,2.25,10.66,3.38,17.24,3.38"/>
  <path class="cls-5" d="M775.56,564.62v-110.33h5.54c1.26,0,2.16.26,2.72.78.56.52.87,1.4.95,2.66l.89,23.28c3.55-8.94,8.28-15.95,14.19-21.01,5.91-5.06,13.19-7.59,21.84-7.59,3.33,0,6.39.35,9.2,1.05,2.81.7,5.47,1.72,7.98,3.05l-1.44,7.32c-.22,1.18-.96,1.77-2.22,1.77-.44,0-1.07-.15-1.88-.45-.82-.29-1.83-.63-3.05-1-1.22-.37-2.72-.7-4.49-1-1.77-.29-3.81-.44-6.1-.44-8.36,0-15.21,2.59-20.57,7.76-5.36,5.18-9.7,12.64-13.03,22.4v71.74h-10.53Z"/>
  <path class="cls-5" d="M893.64,566.39c-7.47,0-13.27-2.07-17.41-6.21-4.14-4.14-6.21-10.53-6.21-19.18v-75.4h-15.86c-.81,0-1.48-.22-2-.67-.52-.44-.78-1.07-.78-1.88v-4.11l18.85-1.33,2.63-39.47c.07-.67.35-1.25.82-1.77.47-.52,1.11-.78,1.92-.78h4.94v42.13h34.7v7.87h-34.7v74.85c0,3.03.39,5.64,1.16,7.82.78,2.18,1.85,3.97,3.22,5.38,1.37,1.41,2.97,2.44,4.82,3.1,1.85.67,3.84,1,5.99,1,2.66,0,4.95-.39,6.88-1.17,1.92-.77,3.58-1.62,4.99-2.55,1.4-.92,2.55-1.77,3.44-2.55.89-.78,1.59-1.17,2.11-1.17.59,0,1.18.37,1.78,1.11l2.88,4.65c-2.81,3.11-6.38,5.6-10.7,7.49-4.32,1.88-8.82,2.83-13.47,2.83"/>
  <path class="cls-5" d="M942.54,564.62v-161.33h10.53v69.86c5.1-6.28,10.92-11.29,17.46-15.03,6.54-3.73,13.88-5.6,22.01-5.6,6.06,0,11.4.96,16.03,2.88,4.61,1.92,8.44,4.69,11.47,8.31,3.03,3.62,5.32,7.98,6.87,13.08,1.56,5.1,2.33,10.87,2.33,17.3v70.52h-10.53v-70.52c0-10.35-2.36-18.46-7.1-24.34-4.73-5.88-11.97-8.82-21.73-8.82-7.25,0-13.97,1.87-20.18,5.6-6.21,3.73-11.75,8.85-16.63,15.36v82.72h-10.53Z"/>
  <path class="cls-5" d="M1121.06,468.04c-.52,1.04-1.33,1.55-2.44,1.55-.81,0-1.87-.46-3.16-1.39-1.29-.92-2.99-1.96-5.1-3.11-2.11-1.15-4.7-2.18-7.76-3.11-3.07-.92-6.82-1.39-11.26-1.39-3.99,0-7.63.57-10.92,1.72-3.29,1.14-6.1,2.67-8.43,4.59-2.32,1.92-4.14,4.14-5.43,6.69-1.29,2.54-1.94,5.21-1.94,8.02,0,3.47.89,6.34,2.66,8.62,1.78,2.29,4.11,4.24,6.99,5.86,2.88,1.62,6.15,3.02,9.81,4.2,3.66,1.18,7.41,2.36,11.25,3.54,3.85,1.18,7.6,2.49,11.26,3.93,3.66,1.44,6.93,3.24,9.81,5.38,2.88,2.15,5.21,4.77,6.99,7.87,1.77,3.11,2.66,6.88,2.66,11.31,0,4.8-.87,9.28-2.61,13.41-1.73,4.14-4.25,7.73-7.54,10.76-3.28,3.03-7.33,5.43-12.14,7.2-4.8,1.77-10.27,2.66-16.41,2.66-7.76,0-14.45-1.24-20.07-3.71-5.62-2.48-10.64-5.71-15.08-9.7l2.55-3.77c.37-.59.78-1.03,1.22-1.33.45-.3,1.07-.45,1.89-.45.96,0,2.14.59,3.55,1.77,1.4,1.19,3.23,2.46,5.48,3.83,2.26,1.37,5.07,2.64,8.43,3.83,3.36,1.18,7.52,1.78,12.48,1.78,4.65,0,8.76-.65,12.3-1.94,3.55-1.29,6.51-3.05,8.88-5.27,2.36-2.22,4.15-4.83,5.37-7.82,1.22-2.99,1.83-6.16,1.83-9.48,0-3.7-.89-6.77-2.66-9.2-1.78-2.44-4.11-4.51-6.99-6.21-2.88-1.7-6.15-3.14-9.81-4.32-3.66-1.18-7.43-2.36-11.31-3.55-3.88-1.18-7.65-2.47-11.31-3.88-3.66-1.4-6.93-3.17-9.81-5.32-2.88-2.14-5.21-4.75-6.99-7.82-1.77-3.07-2.66-6.89-2.66-11.48,0-3.92.85-7.68,2.55-11.31,1.7-3.62,4.12-6.8,7.27-9.54,3.14-2.73,6.96-4.92,11.47-6.54,4.51-1.62,9.57-2.44,15.19-2.44,6.73,0,12.7.98,17.91,2.92,5.21,1.95,10,4.93,14.36,8.94l-2.33,3.66Z"/>
  <path class="cls-5" d="M1183.49,566.39c-7.47,0-13.27-2.07-17.41-6.21-4.14-4.14-6.21-10.53-6.21-19.18v-75.4h-15.86c-.81,0-1.48-.22-1.99-.67-.52-.44-.78-1.07-.78-1.88v-4.11l18.85-1.33,2.63-39.47c.08-.67.35-1.25.82-1.77.48-.52,1.12-.78,1.93-.78h4.93v42.13h34.71v7.87h-34.71v74.85c0,3.03.39,5.64,1.17,7.82.78,2.18,1.84,3.97,3.21,5.38,1.37,1.41,2.98,2.44,4.83,3.1,1.84.67,3.84,1,5.98,1,2.66,0,4.95-.39,6.88-1.17,1.92-.77,3.58-1.62,4.99-2.55,1.4-.92,2.55-1.77,3.43-2.55.89-.78,1.59-1.17,2.11-1.17.59,0,1.18.37,1.78,1.11l2.88,4.65c-2.81,3.11-6.38,5.6-10.7,7.49-4.33,1.88-8.81,2.83-13.47,2.83"/>
  <path class="cls-5" d="M1301.69,564.62c-2.22,0-3.59-1.04-4.11-3.11l-1.55-14.08c-3.03,2.96-6.04,5.62-9.03,7.98-3,2.37-6.12,4.36-9.37,5.99-3.26,1.63-6.77,2.87-10.54,3.71-3.77.85-7.91,1.27-12.42,1.27-3.77,0-7.43-.55-10.97-1.66-3.55-1.11-6.7-2.81-9.43-5.1-2.73-2.29-4.93-5.23-6.6-8.82-1.66-3.58-2.49-7.89-2.49-12.92,0-4.66,1.33-8.98,3.99-12.98,2.66-3.99,6.82-7.46,12.48-10.42,5.65-2.96,12.93-5.32,21.84-7.1,8.91-1.78,19.61-2.81,32.1-3.11v-11.53c0-10.2-2.2-18.05-6.6-23.56-4.4-5.51-10.92-8.26-19.57-8.26-5.32,0-9.85.74-13.58,2.22-3.74,1.48-6.9,3.11-9.48,4.88-2.59,1.77-4.7,3.4-6.32,4.88-1.63,1.48-3,2.22-4.1,2.22-1.48,0-2.59-.67-3.33-1.99l-1.89-3.22c5.77-5.77,11.83-10.13,18.19-13.08,6.35-2.95,13.56-4.44,21.62-4.44,5.91,0,11.09.94,15.52,2.83,4.44,1.89,8.11,4.58,11.04,8.1,2.91,3.51,5.11,7.76,6.59,12.75,1.48,4.99,2.22,10.55,2.22,16.68v71.85h-4.21ZM1257.33,558.74c4.29,0,8.23-.46,11.81-1.39,3.59-.92,6.92-2.22,9.98-3.88,3.07-1.66,5.93-3.64,8.59-5.93,2.67-2.29,5.29-4.77,7.88-7.43v-28.72c-10.5.29-19.53,1.09-27.11,2.38-7.58,1.29-13.83,3.05-18.74,5.26-4.92,2.22-8.54,4.86-10.87,7.93-2.33,3.07-3.49,6.56-3.49,10.48,0,3.7.61,6.89,1.83,9.59,1.22,2.7,2.83,4.92,4.82,6.65,2,1.74,4.33,3.01,6.99,3.82,2.66.82,5.43,1.22,8.31,1.22"/>
  <path class="cls-5" d="M1336.83,564.62v-110.33h5.55c1.25,0,2.16.26,2.71.78.56.52.87,1.4.95,2.66l.88,23.28c3.55-8.94,8.28-15.95,14.2-21.01,5.91-5.06,13.19-7.59,21.84-7.59,3.33,0,6.39.35,9.2,1.05,2.81.7,5.47,1.72,7.99,3.05l-1.44,7.32c-.23,1.18-.96,1.77-2.22,1.77-.44,0-1.07-.15-1.89-.45-.81-.29-1.83-.63-3.05-1-1.21-.37-2.71-.7-4.49-1-1.77-.29-3.8-.44-6.09-.44-8.36,0-15.22,2.59-20.58,7.76-5.35,5.18-9.7,12.64-13.02,22.4v71.74h-10.54Z"/>
  <path class="cls-3" d="M459.14,291.92h-246.1c-7.12,0-12.89,5.77-12.89,12.89v246.08c0,7.12,5.77,12.89,12.89,12.89h246.1c7.12,0,12.89-5.77,12.89-12.89v-246.08c0-7.12-5.77-12.89-12.89-12.89Z"/>
  <path class="cls-2" d="M459.14,291.92h-246.1c-7.12,0-12.89,5.77-12.89,12.89v246.08c0,7.12,5.77,12.89,12.89,12.89h246.1c7.12,0,12.89-5.77,12.89-12.89v-246.08c0-7.12-5.77-12.89-12.89-12.89Z"/>
  <path class="cls-4" d="M236.66,427.81h39.4c.68,0,1.34.27,1.83.75l93.86,93.84c.48.49.76,1.14.76,1.83v39.42c0,1.42-1.15,2.57-2.58,2.57h-39.4c-.68,0-1.34-.27-1.82-.75l-93.86-93.89c-.49-.48-.76-1.14-.76-1.82v-39.37c0-1.43,1.16-2.58,2.58-2.58M329.74,474.23l38.36,38.35c1.62,1.62,4.4.48,4.4-1.82v-82.92l-42.76,42.74c-1.01,1.01-1.01,2.64,0,3.65M276.9,519.86l-38.42-38.42c-1.62-1.62-4.4-.47-4.4,1.82v80.34c0,1.43,1.16,2.58,2.58,2.58h38.42c1.43,0,2.58-1.15,2.58-2.58v-41.91c0-.68-.27-1.34-.75-1.82"/>
  <path class="cls-3" d="M230.67,659.78c.27,0,.52.11.75.33l1.96,2.14c-1.51,1.76-3.35,3.12-5.5,4.1-2.16.98-4.76,1.47-7.8,1.47-2.67,0-5.08-.46-7.25-1.38-2.17-.92-4.01-2.21-5.54-3.87-1.53-1.66-2.71-3.65-3.56-5.97-.84-2.32-1.26-4.88-1.26-7.66s.45-5.34,1.35-7.66c.9-2.32,2.17-4.31,3.8-5.98,1.63-1.67,3.59-2.96,5.86-3.88,2.28-.92,4.79-1.38,7.54-1.38s5.05.42,7.02,1.26c1.97.84,3.72,1.99,5.25,3.43l-1.62,2.29c-.12.17-.26.32-.41.43-.15.11-.38.17-.67.17-.22,0-.46-.08-.71-.24-.25-.16-.55-.37-.89-.61-.34-.24-.75-.5-1.21-.77-.46-.27-1.01-.53-1.65-.77-.63-.24-1.38-.44-2.22-.61-.84-.16-1.82-.24-2.91-.24-1.98,0-3.79.34-5.42,1.02-1.64.68-3.06,1.64-4.24,2.9-1.19,1.25-2.11,2.78-2.77,4.59-.66,1.8-.99,3.83-.99,6.06s.33,4.35.99,6.16c.66,1.8,1.56,3.33,2.71,4.57,1.14,1.25,2.5,2.2,4.06,2.85,1.57.65,3.25.98,5.05.98,1.1,0,2.09-.07,2.96-.19.88-.13,1.69-.33,2.44-.61.75-.27,1.44-.62,2.09-1.04.65-.42,1.29-.92,1.95-1.51.29-.26.58-.39.85-.39"/>
  <path class="cls-3" d="M298,640.88c1.91,0,3.63.32,5.17.96,1.54.64,2.84,1.54,3.92,2.71,1.07,1.17,1.9,2.58,2.47,4.24.58,1.66.86,3.51.86,5.56s-.29,3.92-.86,5.57c-.57,1.65-1.4,3.06-2.47,4.23-1.08,1.17-2.38,2.07-3.92,2.7-1.54.63-3.26.94-5.17.94s-3.63-.31-5.17-.94c-1.54-.63-2.85-1.53-3.93-2.7-1.08-1.17-1.92-2.57-2.5-4.23-.58-1.65-.88-3.51-.88-5.57s.29-3.9.88-5.56c.59-1.66,1.42-3.07,2.5-4.24,1.08-1.17,2.4-2.07,3.93-2.71,1.54-.64,3.26-.96,5.17-.96M298,664.19c2.58,0,4.5-.86,5.77-2.59,1.27-1.73,1.91-4.14,1.91-7.23s-.64-5.53-1.91-7.27c-1.27-1.74-3.2-2.6-5.77-2.6-1.31,0-2.44.22-3.4.67-.96.45-1.77,1.09-2.41,1.93-.64.84-1.12,1.88-1.44,3.11-.32,1.23-.48,2.62-.48,4.16s.16,2.93.48,4.15c.32,1.22.8,2.25,1.44,3.08.64.84,1.45,1.48,2.41,1.92.96.45,2.1.67,3.4.67"/>
  <path class="cls-3" d="M385.29,667.41h-2.04c-.45,0-.81-.07-1.08-.21-.27-.14-.45-.43-.54-.88l-.52-2.42c-.69.62-1.36,1.17-2.01,1.66-.65.49-1.34.9-2.06,1.24-.72.33-1.49.59-2.31.76-.82.17-1.72.26-2.72.26s-1.97-.14-2.85-.43c-.89-.29-1.65-.71-2.31-1.28-.65-.57-1.17-1.29-1.56-2.16-.39-.87-.58-1.9-.58-3.09,0-1.04.28-2.03.85-2.99.57-.96,1.48-1.81,2.75-2.55,1.26-.74,2.92-1.35,4.96-1.83,2.05-.47,4.55-.71,7.5-.71v-2.05c0-2.04-.43-3.59-1.3-4.63-.87-1.04-2.15-1.57-3.85-1.57-1.12,0-2.06.14-2.82.43-.77.28-1.43.6-1.98.95-.56.35-1.04.67-1.45.95-.4.29-.8.43-1.2.43-.31,0-.58-.08-.81-.25-.23-.16-.42-.36-.56-.61l-.83-1.47c1.44-1.39,3-2.43,4.67-3.12,1.66-.69,3.52-1.03,5.54-1.03,1.46,0,2.76.24,3.9.72,1.13.48,2.09,1.15,2.86,2.01.77.86,1.36,1.9,1.76,3.12.39,1.22.59,2.56.59,4.02v16.7ZM373.38,664.6c.81,0,1.55-.08,2.22-.24.67-.16,1.3-.39,1.89-.7.59-.3,1.16-.66,1.7-1.1.54-.43,1.07-.92,1.59-1.47v-5.39c-2.11,0-3.91.13-5.39.4-1.48.27-2.68.62-3.61,1.05-.93.43-1.6.94-2.02,1.53-.42.59-.63,1.25-.63,1.97s.11,1.29.33,1.79c.22.5.52.91.9,1.23.38.32.83.55,1.34.7.52.15,1.07.22,1.68.22"/>
  <path class="cls-3" d="M461.62,645.94c-.14.19-.28.34-.41.44-.14.11-.33.15-.59.15s-.54-.11-.84-.32c-.3-.22-.68-.45-1.15-.71-.46-.26-1.03-.5-1.69-.71-.66-.22-1.47-.32-2.44-.32-1.27,0-2.4.23-3.38.68-.98.46-1.8,1.11-2.46,1.97-.66.86-1.16,1.9-1.5,3.12-.33,1.22-.5,2.59-.5,4.1s.18,2.99.54,4.22c.36,1.23.87,2.26,1.52,3.09.65.84,1.45,1.47,2.38,1.91.94.44,1.99.66,3.16.66s2.04-.13,2.76-.4c.72-.27,1.32-.56,1.8-.89.48-.33.88-.62,1.19-.89.31-.27.62-.4.93-.4.4,0,.69.15.88.44l1.29,1.67c-1.14,1.39-2.55,2.41-4.26,3.06-1.7.64-3.5.97-5.39.97-1.63,0-3.15-.3-4.55-.9-1.4-.6-2.62-1.48-3.65-2.62-1.03-1.14-1.84-2.55-2.43-4.21-.6-1.67-.89-3.57-.89-5.7,0-1.94.27-3.74.81-5.38.54-1.65,1.33-3.07,2.37-4.26,1.04-1.2,2.32-2.13,3.85-2.8,1.53-.67,3.28-1.01,5.26-1.01,1.82,0,3.44.3,4.85.89,1.41.59,2.66,1.43,3.74,2.52l-1.21,1.65Z"/>
  <path class="cls-3" d="M519.18,667.41v-37.97h4.59v15.36c1.12-1.19,2.36-2.14,3.71-2.85,1.36-.71,2.92-1.07,4.69-1.07,1.42,0,2.69.24,3.78.71,1.09.47,2,1.14,2.73,2.01.73.87,1.29,1.91,1.66,3.13.38,1.22.57,2.57.57,4.04v16.63h-4.59v-16.63c0-1.98-.45-3.51-1.35-4.6-.9-1.09-2.28-1.64-4.14-1.64-1.36,0-2.63.33-3.8.98-1.18.65-2.26,1.54-3.26,2.65v19.23h-4.59Z"/>
  <path class="cls-3" d="M605.28,633.1c0,.45-.09.86-.27,1.25-.18.39-.42.73-.72,1.03-.3.3-.65.54-1.04.71-.4.17-.82.26-1.26.26s-.86-.08-1.25-.26c-.39-.17-.73-.41-1.03-.71-.3-.3-.54-.64-.71-1.03-.17-.39-.26-.8-.26-1.25s.08-.87.26-1.28c.17-.4.41-.76.71-1.05.3-.3.64-.54,1.03-.71.39-.17.8-.26,1.25-.26s.87.09,1.26.26c.39.17.74.41,1.04.71.3.3.54.65.72,1.05.18.4.27.83.27,1.28M604.25,667.41h-4.59v-26.12h4.59v26.12Z"/>
  <path class="cls-3" d="M663.64,667.41v-26.11h2.73c.65,0,1.07.32,1.24.96l.36,2.83c1.13-1.25,2.4-2.27,3.8-3.04,1.4-.77,3.02-1.16,4.86-1.16,1.42,0,2.69.24,3.78.71,1.09.47,2,1.14,2.73,2.01.73.87,1.28,1.91,1.66,3.13.38,1.22.57,2.57.57,4.04v16.63h-4.59v-16.63c0-1.98-.45-3.51-1.35-4.6-.9-1.09-2.28-1.64-4.14-1.64-1.36,0-2.63.33-3.8.98-1.18.65-2.26,1.54-3.26,2.65v19.23h-4.59Z"/>
  <path class="cls-3" d="M752.4,640.86c1.13,0,2.2.12,3.18.37.99.25,1.88.62,2.69,1.1h7.09v1.7c0,.57-.36.93-1.08,1.08l-2.96.41c.58,1.12.88,2.37.88,3.74,0,1.27-.24,2.43-.73,3.47-.49,1.04-1.17,1.93-2.04,2.67-.87.74-1.9,1.3-3.09,1.7-1.2.4-2.51.59-3.93.59-1.22,0-2.37-.15-3.46-.44-.55.35-.97.74-1.25,1.15-.28.41-.42.81-.42,1.2,0,.64.25,1.12.75,1.46.5.33,1.16.56,1.98.7.83.14,1.76.21,2.81.21h3.21c1.09,0,2.16.1,3.21.29,1.05.19,1.98.5,2.81.94.83.44,1.48,1.04,1.98,1.8.5.77.75,1.76.75,2.97,0,1.13-.28,2.23-.84,3.29-.56,1.06-1.36,2-2.41,2.83-1.05.82-2.33,1.48-3.84,1.98-1.51.49-3.22.74-5.13.74s-3.58-.19-5.01-.57c-1.44-.38-2.63-.89-3.57-1.52-.95-.64-1.66-1.37-2.13-2.21-.47-.83-.71-1.71-.71-2.62,0-1.29.41-2.39,1.23-3.29.82-.9,1.94-1.62,3.36-2.15-.74-.34-1.32-.8-1.76-1.38-.44-.57-.66-1.34-.66-2.3,0-.38.07-.77.21-1.17.14-.4.35-.8.63-1.2.28-.39.63-.77,1.04-1.13.41-.36.89-.68,1.45-.95-1.29-.72-2.3-1.68-3.03-2.88-.73-1.19-1.1-2.59-1.1-4.19,0-1.27.25-2.42.73-3.47.49-1.04,1.18-1.93,2.05-2.65.88-.73,1.92-1.29,3.13-1.69,1.21-.39,2.54-.59,3.98-.59M760.54,668.74c0-.66-.18-1.2-.54-1.6-.36-.4-.85-.72-1.47-.94-.62-.22-1.33-.38-2.14-.49-.81-.1-1.66-.16-2.56-.16h-2.73c-.93,0-1.81-.12-2.65-.35-.98.46-1.78,1.03-2.39,1.7-.61.67-.91,1.47-.91,2.4,0,.58.15,1.13.45,1.64s.76.95,1.38,1.32c.62.37,1.4.66,2.34.88.93.22,2.04.32,3.31.32s2.35-.11,3.33-.34c.98-.23,1.81-.55,2.49-.97.68-.42,1.2-.92,1.56-1.5.36-.58.54-1.22.54-1.92M752.4,654.65c.93,0,1.75-.13,2.46-.39.71-.26,1.31-.62,1.79-1.08.48-.46.84-1.02,1.08-1.66.24-.64.36-1.35.36-2.13,0-1.6-.48-2.87-1.46-3.82-.97-.94-2.39-1.42-4.24-1.42s-3.25.47-4.22,1.42c-.97.95-1.45,2.22-1.45,3.82,0,.77.12,1.48.37,2.13.25.65.61,1.2,1.09,1.66.48.46,1.08.83,1.78,1.08.7.26,1.51.39,2.42.39"/>
  <path class="cls-3" d="M902.66,636.24c-.15.26-.32.45-.49.58-.17.13-.4.19-.67.19-.3,0-.63-.14-1.02-.44-.39-.29-.88-.62-1.47-.97-.59-.35-1.31-.68-2.14-.97-.83-.29-1.84-.44-3.03-.44-1.12,0-2.11.15-2.97.45-.86.3-1.58.71-2.15,1.23-.58.51-1.01,1.12-1.3,1.82-.29.69-.44,1.45-.44,2.25,0,1.03.25,1.89.76,2.57.51.68,1.18,1.26,2.01,1.74.83.48,1.78.9,2.84,1.25,1.06.35,2.14.72,3.25,1.1,1.11.38,2.19.8,3.25,1.27,1.05.48,2,1.07,2.83,1.79.84.72,1.5,1.61,2.01,2.66.51,1.04.76,2.33.76,3.86,0,1.62-.27,3.13-.83,4.55-.55,1.42-1.35,2.65-2.41,3.7-1.06,1.05-2.35,1.87-3.89,2.48-1.54.6-3.29.9-5.25.9-2.39,0-4.57-.43-6.53-1.3-1.97-.87-3.65-2.04-5.04-3.52l1.44-2.37c.14-.19.31-.35.5-.48.2-.13.42-.19.65-.19.36,0,.78.19,1.24.58.47.39,1.04.81,1.74,1.28.7.46,1.54.89,2.53,1.28.99.39,2.2.58,3.62.58,1.18,0,2.24-.16,3.17-.49.93-.33,1.72-.79,2.36-1.38.64-.59,1.14-1.3,1.48-2.13.34-.82.52-1.74.52-2.76,0-1.12-.25-2.03-.76-2.75-.51-.71-1.17-1.31-2-1.79-.82-.48-1.76-.89-2.82-1.22-1.05-.34-2.14-.68-3.25-1.03-1.11-.35-2.19-.76-3.25-1.23-1.05-.46-1.99-1.07-2.82-1.8-.83-.74-1.49-1.66-2-2.77-.51-1.11-.76-2.48-.76-4.11,0-1.31.25-2.57.76-3.79.51-1.22,1.24-2.3,2.21-3.25.96-.95,2.15-1.7,3.57-2.27,1.42-.57,3.05-.85,4.89-.85,2.06,0,3.94.32,5.64.98,1.7.65,3.19,1.6,4.46,2.83l-1.21,2.37Z"/>
  <path class="cls-3" d="M968.78,675.12c-.15.34-.35.62-.58.82-.23.21-.59.31-1.07.31h-3.4l4.77-10.36-10.78-24.59h3.97c.4,0,.7.1.93.3.22.2.38.42.49.66l6.98,16.44c.16.38.29.76.4,1.13.11.38.21.77.3,1.16.12-.4.24-.78.36-1.16.12-.38.26-.76.41-1.16l6.78-16.42c.1-.27.28-.5.53-.68.25-.18.52-.27.81-.27h3.66l-14.57,33.82Z"/>
  <path class="cls-3" d="M1054.03,645.6c-.2.38-.52.57-.95.57-.26,0-.55-.1-.88-.28-.33-.19-.73-.4-1.2-.63-.47-.23-1.03-.45-1.68-.64-.66-.2-1.43-.3-2.33-.3-.77,0-1.47.1-2.08.3-.63.2-1.15.47-1.59.81-.44.34-.77.74-1,1.2-.24.46-.35.95-.35,1.48,0,.67.19,1.23.58,1.68.38.45.9.83,1.53,1.16s1.36.61,2.17.87c.8.25,1.63.51,2.48.8.85.29,1.68.6,2.49.94.81.35,1.53.78,2.17,1.29.63.52,1.14,1.15,1.53,1.9.39.75.58,1.65.58,2.69,0,1.2-.22,2.32-.64,3.34-.43,1.02-1.07,1.91-1.91,2.65-.85.75-1.87,1.34-3.09,1.76-1.23.43-2.63.65-4.23.65-1.82,0-3.47-.29-4.95-.89-1.48-.59-2.73-1.35-3.77-2.28l1.08-1.75c.14-.22.31-.39.5-.51.19-.12.44-.18.74-.18s.64.12.98.36c.35.24.77.51,1.25.8.49.29,1.09.56,1.78.8.7.24,1.57.36,2.62.36.89,0,1.68-.12,2.35-.35.67-.23,1.22-.54,1.67-.94.45-.39.78-.85.99-1.37.22-.51.33-1.06.33-1.65,0-.72-.2-1.32-.59-1.79-.38-.47-.89-.88-1.53-1.21-.64-.33-1.36-.63-2.18-.88-.81-.25-1.65-.51-2.5-.78-.85-.27-1.68-.59-2.5-.94-.81-.35-1.54-.8-2.18-1.33-.63-.53-1.15-1.19-1.53-1.97-.39-.78-.58-1.73-.58-2.85,0-1,.21-1.96.62-2.88.41-.92,1.01-1.73,1.81-2.43.79-.69,1.75-1.25,2.9-1.66,1.16-.41,2.47-.62,3.95-.62,1.72,0,3.26.27,4.63.81,1.36.54,2.55,1.28,3.54,2.23l-1.03,1.68Z"/>
  <path class="cls-3" d="M1120.67,667.82c-2.06,0-3.65-.58-4.76-1.73-1.11-1.15-1.66-2.81-1.66-4.98v-15.98h-3.15c-.27,0-.5-.08-.69-.25-.19-.16-.28-.42-.28-.76v-1.83l4.27-.54,1.06-8.07c.03-.26.15-.47.34-.63.18-.16.43-.25.72-.25h2.32v9h7.47v3.32h-7.47v15.67c0,1.1.26,1.92.8,2.45.53.53,1.22.8,2.06.8.48,0,.9-.06,1.25-.19.35-.13.66-.27.92-.43.25-.15.47-.29.65-.43.18-.13.34-.19.48-.19.24,0,.45.15.65.44l1.34,2.19c-.8.74-1.75,1.32-2.87,1.74-1.11.42-2.27.63-3.45.63"/>
  <path class="cls-3" d="M1193.88,640.88c1.56,0,3.01.26,4.33.79,1.32.52,2.47,1.28,3.43,2.27.96.99,1.71,2.21,2.25,3.66.55,1.45.81,3.11.81,4.96,0,.72-.07,1.2-.22,1.45-.16.24-.45.36-.88.36h-17.37c.03,1.65.25,3.09.66,4.31.42,1.22.98,2.24,1.7,3.05.73.82,1.59,1.43,2.59,1.83.99.4,2.11.61,3.34.61,1.16,0,2.15-.13,2.98-.4.83-.26,1.55-.55,2.15-.86.61-.31,1.11-.6,1.51-.86.4-.27.75-.4,1.05-.4.38,0,.67.14.87.44l1.29,1.68c-.57.69-1.24,1.28-2.03,1.79-.79.51-1.64.92-2.55,1.25-.9.33-1.83.57-2.79.74-.96.16-1.92.25-2.86.25-1.81,0-3.47-.31-4.99-.92-1.52-.61-2.84-1.5-3.95-2.68-1.1-1.18-1.96-2.63-2.59-4.37-.61-1.74-.92-3.73-.92-5.98,0-1.82.28-3.52.83-5.1.56-1.58,1.37-2.95,2.42-4.11,1.04-1.16,2.32-2.07,3.83-2.73,1.52-.66,3.22-.99,5.11-.99M1193.98,644.26c-2.21,0-3.96.64-5.23,1.92-1.27,1.28-2.06,3.06-2.37,5.32h14.2c0-1.06-.14-2.04-.43-2.92-.3-.89-.73-1.65-1.3-2.29-.56-.65-1.25-1.14-2.07-1.5-.82-.35-1.75-.53-2.8-.53"/>
  <path class="cls-3" d="M1261.08,667.41v-26.11h2.74c.65,0,1.06.32,1.23.96l.34,2.68c.96-1.19,2.04-2.16,3.23-2.91,1.2-.76,2.59-1.14,4.17-1.14,1.77,0,3.2.49,4.29,1.47,1.09.98,1.88,2.3,2.36,3.97.36-.95.84-1.76,1.43-2.45.59-.69,1.26-1.25,2-1.7.74-.45,1.52-.77,2.36-.98.83-.21,1.68-.31,2.54-.31,1.37,0,2.59.22,3.67.66,1.08.44,1.98,1.08,2.73,1.92.75.85,1.32,1.88,1.72,3.11.39,1.23.59,2.63.59,4.21v16.63h-4.59v-16.63c0-2.04-.45-3.59-1.34-4.65-.89-1.06-2.19-1.59-3.89-1.59-.76,0-1.48.13-2.16.4s-1.27.66-1.79,1.17c-.51.51-.92,1.16-1.22,1.95-.3.78-.45,1.69-.45,2.72v16.63h-4.59v-16.63c0-2.1-.42-3.66-1.26-4.69-.85-1.03-2.07-1.55-3.69-1.55-1.14,0-2.19.3-3.16.91-.97.61-1.86,1.44-2.67,2.49v19.46h-4.59Z"/>
  <path class="cls-3" d="M1369.14,645.6c-.2.38-.52.57-.95.57-.26,0-.55-.1-.88-.28-.32-.19-.72-.4-1.2-.63-.46-.23-1.03-.45-1.68-.64-.66-.2-1.43-.3-2.32-.3-.77,0-1.47.1-2.09.3-.62.2-1.15.47-1.59.81-.43.34-.77.74-1,1.2-.23.46-.35.95-.35,1.48,0,.67.19,1.23.58,1.68.39.45.9.83,1.54,1.16.63.33,1.35.61,2.16.87.81.25,1.64.51,2.49.8.85.29,1.68.6,2.49.94.8.35,1.52.78,2.16,1.29.64.52,1.15,1.15,1.53,1.9.39.75.59,1.65.59,2.69,0,1.2-.22,2.32-.65,3.34-.43,1.02-1.06,1.91-1.91,2.65-.84.75-1.87,1.34-3.09,1.76-1.22.43-2.63.65-4.23.65-1.82,0-3.47-.29-4.95-.89-1.47-.59-2.73-1.35-3.76-2.28l1.08-1.75c.14-.22.3-.39.49-.51.19-.12.44-.18.75-.18s.64.12.98.36c.34.24.76.51,1.25.8.49.29,1.08.56,1.78.8.69.24,1.57.36,2.61.36.9,0,1.68-.12,2.35-.35.67-.23,1.23-.54,1.67-.94.45-.39.78-.85,1-1.37.21-.51.32-1.06.32-1.65,0-.72-.2-1.32-.58-1.79-.39-.47-.9-.88-1.53-1.21-.64-.33-1.37-.63-2.18-.88-.82-.25-1.65-.51-2.5-.78-.85-.27-1.69-.59-2.5-.94-.82-.35-1.55-.8-2.18-1.33-.64-.53-1.15-1.19-1.54-1.97-.38-.78-.58-1.73-.58-2.85,0-1,.21-1.96.63-2.88.41-.92,1-1.73,1.8-2.43.79-.69,1.76-1.25,2.91-1.66,1.15-.41,2.47-.62,3.94-.62,1.72,0,3.26.27,4.63.81,1.37.54,2.55,1.28,3.55,2.23l-1.04,1.68Z"/>
  <polygon class="cls-4" points="378.15 424.09 378.13 424.1 378.38 424.48 428.39 566.22 429.59 566.22 387.3 437.87 472.82 566.22 476.15 566.22 393.96 440.47 515.98 566.22 521.45 566.22 400.95 441.58 512.62 514.19 389.79 429.38 624.65 496.89 395.89 426.84 990.38 426.5 990.38 423.01 388.51 422.56 509.76 378.79 392.35 416.96 577.48 244.24 390.52 413.13 515.76 223.94 511.17 223.94 387.5 409.96 442.4 249.93 378.19 423.9 378.18 423.9 378.18 423.91 378.13 424.04 378.14 424.04 378.12 424.07 378.15 424.09"/>
  <rect class="cls-1" width="1600.32" height="900.48"/>
</svg>