<?xml version="1.0" encoding="UTF-8"?>
<svg id="Layer_1" data-name="Layer 1" xmlns="http://www.w3.org/2000/svg" viewBox="0 0 1600 900">
  <defs>
    <style>
      .cls-1, .cls-2, .cls-3, .cls-4, .cls-5, .cls-6, .cls-7, .cls-8 {
        fill: none;
      }

      .cls-9 {
        fill: #c6c6c8;
      }

      .cls-10 {
        fill: #939395;
      }

      .cls-2, .cls-3, .cls-4, .cls-5, .cls-6, .cls-7, .cls-8 {
        stroke: #251f1e;
      }

      .cls-2, .cls-6 {
        stroke-width: .19px;
      }

      .cls-3 {
        stroke-width: 1.11px;
      }

      .cls-11 {
        fill: #bdbdbe;
      }

      .cls-12 {
        fill: #fff;
      }

      .cls-4, .cls-6, .cls-7, .cls-8 {
        stroke-linecap: square;
        stroke-linejoin: round;
      }

      .cls-5 {
        stroke-width: 4px;
      }

      .cls-13 {
        fill: #251f1e;
      }

      .cls-7 {
        stroke-width: .74px;
      }

      .cls-8 {
        stroke-width: .56px;
      }
    </style>
  </defs>
  <path class="cls-13" d="M611.48,443.59h806.44c3.98,0,7.21,3.23,7.21,7.21v99.37c0,3.98-3.23,7.21-7.21,7.21h-806.44c-3.98,0-7.21-3.23-7.21-7.21v-99.37c0-3.98,3.23-7.21,7.21-7.21Z"/>
  <path class="cls-13" d="M661.5,368.35h23.4v-6.27c0-13.39-3.02-27.27-28.71-27.27-31.01,0-31.01,18.1-31.01,44.76s0,44.76,31.01,44.76c21.11,0,29.2-11.58,29.2-31.73v-5.43h-23.4v6.64c0,10.74-1.57,14.6-5.43,14.6-5.91,0-6.52-3.62-6.52-28.83s.24-28.83,6.52-28.83c4.95,0,4.95,6.88,4.95,10.62v7Z"/>
  <polygon class="cls-13" points="699.27 422.64 752.24 422.64 752.24 403.09 723.4 403.09 723.4 388.13 749.34 388.13 749.34 369.31 723.4 369.31 723.4 356.04 751.15 356.04 751.15 336.5 699.27 336.5 699.27 422.64"/>
  <path class="cls-13" d="M766.73,422.64h24.13v-33.9h4.46c4.22,0,6.64,1.33,6.64,8.69,0,4.22.36,8.57.36,12.79s.24,10.5,1.81,12.43h25.58v-1.21c-1.09-.48-1.93-1.33-2.53-2.53-.6-1.21-1.09-5.31-1.09-10.14v-7.12c0-5.07-.12-10.86-2.29-14.72-2.29-4.1-6.64-6.51-11.46-6.88v-.24c8.45-1.21,14.36-7,14.36-20.75s-7.12-22.56-23.77-22.56h-36.19v86.14ZM790.85,353.87h2.78c5.43,0,8.93,1.69,8.93,8.81,0,8.32-4.22,10.13-8.2,10.13h-3.5v-18.94Z"/>
  <polygon class="cls-13" points="835.75 356.76 852.16 356.76 852.16 422.64 876.28 422.64 876.28 356.76 892.69 356.76 892.69 336.5 835.75 336.5 835.75 356.76"/>
  <rect class="cls-13" x="908.02" y="336.5" width="24.13" height="86.14"/>
  <polygon class="cls-13" points="947.49 422.64 971.62 422.64 971.62 388.13 997.56 388.13 997.56 369.31 971.62 369.31 971.62 356.04 999.36 356.04 999.36 336.5 947.49 336.5 947.49 422.64"/>
  <rect class="cls-13" x="1014.03" y="336.5" width="24.13" height="86.14"/>
  <polygon class="cls-13" points="1053.5 422.64 1106.46 422.64 1106.46 403.09 1077.63 403.09 1077.63 388.13 1103.57 388.13 1103.57 369.31 1077.63 369.31 1077.63 356.04 1105.38 356.04 1105.38 336.5 1053.5 336.5 1053.5 422.64"/>
  <path class="cls-13" d="M1120.95,422.64h35.11c25.09,0,25.82-24.25,25.82-43.07,0-20.51-.85-25.09-4.59-31.85-3.86-7-10.86-11.22-21.59-11.22h-34.75v86.14ZM1145.08,353.87h3.5c7.48,0,8.44,4.46,8.44,13.15v25.09c0,6.51-.96,13.15-6.99,13.15h-4.95v-51.4Z"/>
  <polygon class="cls-12" points="657.3 491.35 647.42 491.35 647.42 464.8 626.84 464.8 626.84 538.28 647.42 538.28 647.42 508.64 657.3 508.64 657.3 538.28 677.89 538.28 677.89 464.8 657.3 464.8 657.3 491.35"/>
  <path class="cls-12" d="M682.76,501.54c0,23.46,0,38.18,26.45,38.18s26.45-14.72,26.45-38.18,0-38.18-26.45-38.18-26.45,15.44-26.45,38.18M714.46,501.54c0,21.51-.82,24.6-5.25,24.6s-5.25-3.09-5.25-24.6.82-24.6,5.25-24.6,5.25,3.09,5.25,24.6"/>
  <polygon class="cls-12" points="740.54 538.28 759.89 538.28 759.89 484.77 760.09 484.77 769.15 538.28 783.97 538.28 793.03 484.77 793.23 484.77 793.23 538.28 812.58 538.28 812.58 464.8 783.35 464.8 776.66 509.77 776.46 509.77 770.39 464.8 740.54 464.8 740.54 538.28"/>
  <polygon class="cls-12" points="823.2 538.28 868.38 538.28 868.38 521.61 843.78 521.61 843.78 508.85 865.91 508.85 865.91 492.79 843.78 492.79 843.78 481.47 867.45 481.47 867.45 464.8 823.2 464.8 823.2 538.28"/>
  <rect class="cls-12" x="904.94" y="464.8" width="20.58" height="73.48"/>
  <polygon class="cls-12" points="968.46 509.67 968.26 509.67 957.76 464.8 935.42 464.8 935.42 538.28 954.16 538.28 954.16 493 954.36 493 965.78 538.28 987.81 538.28 987.81 464.8 968.46 464.8 968.46 509.67"/>
  <path class="cls-12" d="M1024.34,485.9h19.35c0-12.25-3.5-22.54-24.29-22.54-8.02,0-13.27,2.06-16.77,4.53-4.74,3.4-7.82,8.95-7.82,19.14,0,10.91,3.71,14.92,14.82,20.48,3.7,1.85,7.41,3.29,10.19,4.84,2.67,1.54,4.42,2.57,4.42,7.31,0,3.19-1.23,6.48-5.04,6.48-3.6,0-5.15-2.88-5.15-6.48v-3.4h-19.96v1.96c0,16.16,8.64,21.51,24.39,21.51,19.04,0,26.96-6.79,26.96-23.88,0-26.24-30.67-18.73-30.67-33.35,0-2.98,1.65-5.56,4.74-5.56,3.5,0,4.83,2.88,4.83,5.97v2.99Z"/>
  <path class="cls-12" d="M1050.11,538.28h20.59v-27.68h6.27c13.9,0,24.19-6.59,24.19-22.95s-8.03-22.85-23.77-22.85h-27.28v73.48ZM1070.7,479.62h2.26c5.25,0,7,2.98,7,8.03,0,7.41-3.19,8.13-7,8.13h-2.26v-16.16Z"/>
  <polygon class="cls-12" points="1104.09 538.28 1149.27 538.28 1149.27 521.61 1124.68 521.61 1124.68 508.85 1146.8 508.85 1146.8 492.79 1124.68 492.79 1124.68 481.47 1148.35 481.47 1148.35 464.8 1104.09 464.8 1104.09 538.28"/>
  <path class="cls-12" d="M1184.68,491.97h19.96v-5.35c0-11.42-2.57-23.26-24.49-23.26-26.45,0-26.45,15.44-26.45,38.18s0,38.18,26.45,38.18c18.01,0,24.9-9.88,24.9-27.07v-4.63h-19.96v5.66c0,9.16-1.34,12.45-4.63,12.45-5.05,0-5.56-3.09-5.56-24.6s.2-24.6,5.56-24.6c4.22,0,4.22,5.87,4.22,9.06v5.97Z"/>
  <polygon class="cls-12" points="1208.98 482.09 1222.98 482.09 1222.98 538.28 1243.56 538.28 1243.56 482.09 1257.56 482.09 1257.56 464.8 1208.98 464.8 1208.98 482.09"/>
  <rect class="cls-12" x="1262.73" y="464.8" width="20.58" height="73.48"/>
  <path class="cls-12" d="M1291.05,501.54c0,23.46,0,38.18,26.45,38.18s26.44-14.72,26.44-38.18,0-38.18-26.44-38.18-26.45,15.44-26.45,38.18M1322.74,501.54c0,21.51-.82,24.6-5.24,24.6s-5.25-3.09-5.25-24.6.82-24.6,5.25-24.6,5.24,3.09,5.24,24.6"/>
  <polygon class="cls-12" points="1386.06 509.67 1385.85 509.67 1375.35 464.8 1353.02 464.8 1353.02 538.28 1371.75 538.28 1371.75 493 1371.96 493 1383.38 538.28 1405.4 538.28 1405.4 464.8 1386.06 464.8 1386.06 509.67"/>
  <polygon class="cls-13" points="555.72 539.72 555.48 464.85 596.79 453.54 555.91 399.55 555.91 399.55 555.91 399.55 589.03 406.77 589.02 406.77 589.03 406.77 519.71 348.07 519.62 348.05 486.64 340.3 445.81 286.37 281.92 331.25 322.99 385.48 285.76 415.9 324.03 448.32 324.03 525.81 430.75 614.32 593.23 570.02 593.23 570.02 593.23 570.02 555.72 539.72"/>
  <polygon class="cls-5" points="555.72 539.72 555.48 464.85 596.79 453.54 555.91 399.55 555.91 399.55 555.91 399.55 589.03 406.77 589.02 406.77 589.03 406.77 519.71 348.07 519.62 348.05 486.64 340.3 445.81 286.37 281.92 331.25 322.99 385.48 285.76 415.9 324.03 448.32 324.03 525.81 430.75 614.32 593.23 570.02 593.23 570.02 593.23 570.02 555.72 539.72"/>
  <polygon class="cls-13" points="589.03 406.77 519.71 348.07 486.63 340.3 556.19 399.48 589.03 406.77"/>
  <polygon class="cls-3" points="589.03 406.77 519.71 348.07 486.63 340.3 556.19 399.48 589.03 406.77"/>
  <polygon class="cls-13" points="555.24 538.4 555.73 538.81 555.46 461.11 555.91 399.55 555.24 399.73 555.24 398.97 486.52 340.85 324.03 385.14 287.88 413.35 324.03 443.96 324.03 525.81 392.76 583.92 555.24 539.63 555.24 538.4"/>
  <polygon class="cls-3" points="555.24 538.4 555.73 538.81 555.46 461.11 555.91 399.55 555.24 399.73 555.24 398.97 486.52 340.85 324.03 385.14 287.88 413.35 324.03 443.96 324.03 525.81 392.76 583.92 555.24 539.63 555.24 538.4"/>
  <polygon class="cls-13" points="393.02 584.02 430.75 614.32 593.23 570.02 555.5 539.72 393.02 584.02"/>
  <polygon class="cls-3" points="393.02 584.02 430.75 614.32 593.23 570.02 555.5 539.72 393.02 584.02"/>
  <polygon class="cls-11" points="555.24 398.96 486.52 340.85 324.03 385.14 324.03 524.84 486.52 480.55 555.73 538.81 555.24 398.96"/>
  <polygon class="cls-2" points="555.24 398.96 486.52 340.85 324.03 385.14 324.03 524.84 486.52 480.55 555.73 538.81 555.24 398.96"/>
  <polygon class="cls-12" points="392.91 489.92 324.18 431.8 390.81 411.44 460.03 469.71 392.91 489.92"/>
  <polygon class="cls-8" points="392.91 489.92 324.18 431.8 390.81 411.44 460.03 469.71 392.91 489.92"/>
  <polygon class="cls-13" points="519.71 348.07 589.03 406.77 556.19 399.48 486.87 340.78 519.71 348.07"/>
  <polygon class="cls-12" points="504.52 455.76 554.56 440.71 485.34 382.45 435.79 397.65 435.71 397.98 435.71 485.78 504.93 544.04 504.45 456.09 504.52 455.76"/>
  <polygon class="cls-7" points="504.52 455.76 554.56 440.71 485.34 382.45 435.79 397.65 435.71 397.98 435.71 485.78 504.93 544.04 504.45 456.09 504.52 455.76"/>
  <polygon class="cls-12" points="504.45 456.09 435.72 397.97 435.72 485.78 504.93 544.05 504.45 456.09"/>
  <polygon class="cls-6" points="504.45 456.09 435.72 397.97 435.72 485.78 504.93 544.05 504.45 456.09"/>
  <polygon class="cls-12" points="504.52 455.76 435.79 397.65 485.34 382.45 554.56 440.71 504.52 455.76"/>
  <polygon class="cls-6" points="504.52 455.76 435.79 397.65 485.34 382.45 554.56 440.71 504.52 455.76"/>
  <polygon class="cls-6" points="555.24 399.93 392.76 444.23 392.76 583.92 555.24 539.63 555.24 399.93"/>
  <polygon class="cls-9" points="555.24 399.93 392.76 444.23 392.76 583.92 555.24 539.63 555.24 399.93"/>
  <polygon class="cls-10" points="471.23 472.96 416.66 487.57 416.66 577.29 471.23 562.69 471.23 472.96"/>
  <polygon class="cls-10" points="537.5 454.86 482.93 469.46 482.93 518.26 537.5 503.66 537.5 454.86"/>
  <polygon class="cls-12" points="462.03 483.5 425.17 494.05 425.17 529.19 462.03 518.64 462.03 483.5"/>
  <polygon class="cls-12" points="532.6 465.03 487.64 477.61 487.64 512.75 532.6 500.18 532.6 465.03"/>
  <polygon class="cls-13" points="593.23 570.02 430.75 614.32 393.02 584.02 555.5 539.72 593.23 570.02"/>
  <polygon class="cls-13" points="445.81 286.37 281.92 331.25 322.99 385.48 486.87 340.6 445.81 286.37"/>
  <path class="cls-12" d="M433.9,598.25l5.58-1.52,15.8,12.37-5.59,1.53-15.79-12.37ZM443.08,583.34l5.54-1.51,26.91,21.74-5.54,1.51-26.91-21.74ZM474.52,587.17l5.58-1.52,15.79,12.37-5.59,1.53-15.79-12.38ZM483.7,572.27l5.54-1.51,26.92,21.74-5.54,1.51-26.92-21.74ZM515.14,576.1l5.59-1.53,15.79,12.38-5.59,1.52-15.79-12.37ZM524.32,561.2l5.54-1.51,26.92,21.74-5.55,1.51-26.92-21.74ZM555.76,565.03l5.58-1.53,15.79,12.37-5.59,1.52-15.79-12.37Z"/>
  <polygon class="cls-9" points="324.03 386.11 392.76 444.23 392.76 583.92 324.03 525.81 324.03 386.11"/>
  <polygon class="cls-4" points="324.03 386.11 392.76 444.23 392.76 583.92 324.03 525.81 324.03 386.11"/>
  <polygon class="cls-13" points="323.44 385.52 392.76 444.23 355.08 474.61 285.76 415.9 323.44 385.52"/>
  <polygon class="cls-13" points="555.91 399.55 392.76 444.23 433.64 498.21 596.79 453.54 555.91 399.55"/>
  <rect class="cls-1" width="1600.32" height="900.48"/>
</svg>