<?xml version="1.0" encoding="UTF-8"?>
<svg id="Layer_1" data-name="Layer 1" xmlns="http://www.w3.org/2000/svg" xmlns:xlink="http://www.w3.org/1999/xlink" viewBox="0 0 1600 900">
  <defs>
    <style>
      .cls-1 {
        fill: none;
      }

      .cls-2 {
        fill: #090605;
      }

      .cls-3 {
        clip-path: url(#clippath-1);
      }

      .cls-4 {
        fill: #717073;
      }

      .cls-5 {
        fill: #b81e50;
      }

      .cls-6 {
        fill: #816d5f;
      }

      .cls-7 {
        clip-path: url(#clippath);
      }
    </style>
    <clipPath id="clippath">
      <rect class="cls-1" width="1600" height="900"/>
    </clipPath>
    <clipPath id="clippath-1">
      <rect class="cls-1" width="1600" height="900"/>
    </clipPath>
  </defs>
  <g class="cls-7">
    <g class="cls-3">
      <path class="cls-2" d="M1052.88,376.98c-.1-96.49-16.22-146.49-23.63-173.44-3.89-12.14-21.63-12.27-21.63-12.27h-155.66s-17.76.13-21.64,12.27c-7.4,26.95-23.52,76.94-23.62,173.44,0,0-.06,1.5-.06,2.25,0,92.4,40.26,153.45,94.44,174.22,6.78,2.42,13.51,3.48,20.63,4.58-2.47-17.71-5.78-48.33-18.59-53.61-48.34-18.55-71.88-48.85-71.88-137.44,0-.72.04-2.16.04-2.16.09-89.85,7.47-133.32,14.29-158.79,3.62-12.8,18.28-12.06,18.28-12.06h138.03s8.47-.74,12.08,12.06c6.82,25.47,14.19,68.94,14.29,158.79,0,0,.05,1.44.05,2.16,0,88.59-23.54,118.89-71.88,137.44-12.81,5.27-16.11,35.9-18.59,53.61,7.12-1.1,13.86-2.16,20.63-4.58,54.2-20.78,94.45-81.82,94.45-174.22,0-.75-.05-2.25-.05-2.25"/>
      <path class="cls-6" d="M1052.93,379.23c0,92.4-40.25,153.44-94.44,174.22-6.77,2.42-13.51,3.48-20.63,4.58,2.48-17.71,5.78-48.34,18.59-53.61,48.34-18.55,71.88-48.85,71.88-137.44,0-.72-.04-2.16-.04-2.16-.11-89.85-7.48-133.32-14.3-158.8-3.61-12.8-12.08-12.06-12.08-12.06h-138.03s-14.65-.74-18.28,12.06c-6.82,25.48-14.21,68.95-14.29,158.8,0,0-.04,1.44-.04,2.16,0,88.59,23.53,118.89,71.88,137.44,12.81,5.27,16.11,35.9,18.58,53.61-7.12-1.1-13.85-2.16-20.63-4.58-54.18-20.77-94.44-81.82-94.44-174.22,0-.76.06-2.25.06-2.25.09-96.5,16.21-146.49,23.61-173.44,3.89-12.13,21.64-12.27,21.64-12.27h155.66s17.74.13,21.63,12.27c7.41,26.95,23.53,76.94,23.64,173.44,0,0,.04,1.5.04,2.25M513.11,531.7v-31.6c-15.92-2.03-21.49-4.86-25.98-7.12-4.51-2.24-9.01-6.84-13.51-13.77l-64.96-96.14c12.47-3.12,23.21-7.62,32.22-13.51,9.01-5.89,16.45-12.55,22.34-20,5.89-7.45,10.22-15.59,12.99-24.43,2.77-8.83,4.16-17.74,4.16-26.76,0-29.1-8.75-51.61-26.24-67.55-17.5-15.93-41.32-23.91-71.46-23.91h-107.57v323.74h46.24v-142.9h40.54l72.75,111.21c8.32,13.17,17.31,22.26,27.02,27.28,9.7,5.02,20.61,7.54,32.73,7.54,6.93,0,13.16-.7,18.71-2.08M321.36,353.98v-110.69h50.93c20.79,0,36.12,4.6,45.99,13.77,9.87,9.18,14.81,23.12,14.81,41.83,0,16.63-5.03,29.97-15.07,40.01-10.06,10.06-25.29,15.07-45.73,15.07h-50.93ZM702.35,521.3c18.18-9,33.26-21.22,45.21-36.63,11.96-15.41,20.8-33.17,26.5-53.27,5.72-20.08,8.58-41.05,8.58-62.88,0-23.21-2.85-44.86-8.58-64.96-5.71-20.09-14.55-37.58-26.5-52.49-11.95-14.89-27.02-26.67-45.21-35.33-18.19-8.66-39.76-12.99-64.69-12.99s-46.51,4.51-64.7,13.51c-18.18,9.01-33.26,21.22-45.21,36.64-11.96,15.42-20.78,33.18-26.5,53.27-5.73,20.1-8.58,41.05-8.58,62.88,0,23.21,2.85,44.87,8.58,64.96,5.71,20.1,14.54,37.6,26.5,52.48,11.95,14.9,27.02,26.68,45.21,35.33,18.19,8.67,39.76,12.99,64.7,12.99s46.5-4.5,64.69-13.51M594.78,487.01c-11.95-6.24-21.82-14.89-29.61-25.99-7.8-11.08-13.52-24.51-17.15-40.27-3.64-15.76-5.47-32.99-5.47-51.71s1.83-35.93,5.47-51.71c3.63-15.76,9.34-29.27,17.15-40.53,7.79-11.25,17.67-20.01,29.61-26.24,11.96-6.24,26.24-9.36,42.88-9.36s30.91,3.12,42.87,9.36c11.95,6.23,21.82,14.9,29.61,25.98,7.8,11.09,13.59,24.52,17.41,40.27,3.81,15.77,5.72,33,5.72,51.71s-1.91,35.94-5.72,51.71c-3.82,15.76-9.61,29.28-17.41,40.53-7.79,11.26-17.66,20-29.61,26.24-11.96,6.23-26.24,9.35-42.87,9.35s-30.92-3.12-42.88-9.35M1050.88,530.66h46.77l82.1-136.67,86.26,136.67h52.49l-110.69-170.96,96.66-152.26h-49.37l-70.16,120.04-75.34-120.04h-52.49l99.26,152.26-105.49,170.96Z"/>
      <path class="cls-5" d="M845.8,330.03s-3.29,55.84,3.61,91.68c5.77,29.95,15.89,38.72,21.58,44.04,24.39,22.87,58.09,26.95,58.71,27.03h0s.03,0,.03,0h.03s0,0,0,0c.63-.08,34.32-4.16,58.72-27.03,5.68-5.32,15.81-14.1,21.57-44.04,6.91-35.84,3.62-91.68,3.62-91.68h-167.87Z"/>
      <path class="cls-4" d="M273.05,619.57h11.86l12.55,40.81c.62,1.95,1.15,3.91,1.6,5.87.45,1.96.89,3.87,1.33,5.73h.27c.54-2.04,1.02-4,1.46-5.87.45-1.86,1.03-3.82,1.74-5.87l8.67-26.54-4.54-14.14h11.74l12.27,40.81c.62,2.13,1.18,4.13,1.67,6,.48,1.86.96,3.74,1.41,5.6h.26c.44-2.04.91-3.95,1.41-5.73.48-1.78,1.04-3.78,1.67-6l11.2-40.68h11.2l-19.74,65.09h-12.28l-11.2-36.81h-.26l-11.34,36.81h-12.54l-20.41-65.09ZM405.49,607.43c-2.13,0-3.93-.73-5.4-2.2-1.47-1.46-2.2-3.22-2.2-5.27s.73-3.8,2.2-5.27c1.47-1.47,3.26-2.2,5.4-2.2s3.82.73,5.34,2.2c1.5,1.47,2.27,3.22,2.27,5.27s-.76,3.8-2.27,5.27c-1.52,1.47-3.29,2.2-5.34,2.2M399.76,619.57h11.47v65.09h-11.47v-65.09ZM457.11,619.57h11.34v5.2c1.61-1.24,3.93-2.6,7.01-4.07,3.07-1.47,6.74-2.2,11-2.2,3.91,0,7.22.58,9.95,1.73,2.71,1.16,4.88,2.78,6.53,4.87,1.65,2.09,2.84,4.54,3.61,7.33.75,2.8,1.13,5.85,1.13,9.14v43.08h-11.47v-41.21c0-4.88-.91-8.69-2.73-11.4-1.82-2.71-5.41-4.07-10.74-4.07-2.84,0-5.49.49-7.94,1.47-2.45.98-4.51,2.04-6.2,3.2v52.01h-11.47v-65.09ZM578.62,685.73c-5.42,0-10.12-.82-14.08-2.47-3.96-1.65-7.25-3.93-9.87-6.87-2.63-2.94-4.56-6.44-5.8-10.54-1.24-4.09-1.87-8.62-1.87-13.61s.67-9.38,2-13.48c1.34-4.08,3.25-7.64,5.74-10.67,2.48-3.02,5.56-5.38,9.2-7.07,3.64-1.69,7.78-2.54,12.4-2.54s8.53.82,11.74,2.46c3.2,1.65,5.8,3.83,7.8,6.54,2,2.71,3.42,5.78,4.27,9.2.85,3.43,1.26,6.92,1.26,10.47,0,.89-.02,1.75-.06,2.6-.05.85-.12,1.67-.2,2.47h-42.42c0,3.65.38,6.96,1.13,9.93.75,2.99,1.96,5.54,3.61,7.67,1.64,2.13,3.73,3.78,6.27,4.94,2.53,1.16,5.62,1.73,9.27,1.73,3.91,0,7.37-.38,10.4-1.13,3.03-.75,5.69-1.71,8-2.87v9.47c-2.04.98-4.75,1.85-8.14,2.6-3.38.76-6.94,1.14-10.67,1.14M589.69,644.38v-.66c0-2.05-.29-4.05-.87-6.01-.58-1.95-1.42-3.68-2.54-5.2-1.11-1.51-2.53-2.71-4.27-3.6-1.73-.89-3.71-1.34-5.93-1.34-2.05,0-4,.31-5.87.93-1.87.62-3.56,1.6-5.07,2.93-1.51,1.34-2.78,3.07-3.8,5.21-1.03,2.13-1.72,4.71-2.07,7.73h30.41Z"/>
      <path class="cls-4" d="M773.15,709.21c-3.77,0-7.05-.99-10.03-3.01-3.28-2.23-6.5-5.03-9.57-8.33l-2.08-2.24-2.28,2.04c-3.33,2.99-7.88,5.7-13.51,8.05-5.57,2.32-11.59,3.5-17.88,3.5s-11.36-.77-15.95-2.28c-4.52-1.48-8.39-3.56-11.5-6.15-3.05-2.55-5.37-5.58-6.91-8.99-1.55-3.43-2.34-7.15-2.34-11.06,0-6.54,1.76-11.85,5.36-16.25,3.78-4.59,9.86-9.21,18.08-13.74l3.46-1.9-2.66-2.93c-4.69-5.18-8.21-9.78-10.45-13.67-2.08-3.62-3.14-7.75-3.14-12.28,0-3.62.71-6.95,2.12-9.86,1.41-2.94,3.36-5.45,5.81-7.45,2.49-2.05,5.56-3.69,9.1-4.87,3.58-1.2,7.62-1.8,12.01-1.8,4.1,0,7.87.6,11.2,1.78,3.3,1.18,6.15,2.78,8.45,4.76,2.28,1.95,4.1,4.29,5.4,6.94,1.28,2.62,1.93,5.46,1.93,8.45,0,5.61-1.89,10.4-5.74,14.64-4.11,4.52-10.63,9.25-19.38,14.04l-3.36,1.85,2.48,2.92c2.14,2.52,4.9,5.53,8.17,8.93,3.16,3.27,6.21,6.58,9.07,9.81,3.4,3.78,6.9,7.6,10.54,11.47l2.85,3.05,2.12-3.6c2.19-3.74,4.18-7.85,5.91-12.21,1.4-3.5,2.58-7.27,3.52-11.22l8.09,1.38c-2.45,10.68-6.87,20.25-13.16,28.49l-1.69,2.22,2.01,1.93c3.05,2.93,5.83,5.38,8.26,7.31,2.92,2.31,6.22,3.47,9.79,3.47,1,0,1.96-.05,2.86-.15v5.99c-.59.2-1.22.38-1.89.53-1.38.32-3.1.48-5.09.48M709.76,653.87c-5.85,3.19-10.4,6.91-13.53,11.05-3.26,4.33-4.93,9.46-4.93,15.24,0,6.39,2.43,11.8,7.21,16.07,4.68,4.19,11.36,6.31,19.84,6.31,5.16,0,10.18-1.06,14.92-3.17,4.64-2.05,8.37-4.34,11.11-6.79l2.37-2.14-2.2-2.32c-4.48-4.74-8.72-9.22-12.7-13.46-3.35-3.6-6.78-7.3-10.26-11.1-3.41-3.72-6.09-6.73-7.94-8.96l-1.64-1.97-2.25,1.23ZM720.6,601.32c-5.77,0-10.54,1.7-14.17,5.03-3.71,3.41-5.59,7.73-5.59,12.87,0,3.75,1,7.52,2.99,11.2,1.9,3.53,5.25,7.74,10.24,12.85l1.67,1.71,2.09-1.17c7.21-4.07,12.39-7.88,15.83-11.65,3.7-4.06,5.58-8.73,5.58-13.88,0-4.46-1.73-8.44-5.12-11.84-3.4-3.4-7.95-5.12-13.52-5.12"/>
      <path class="cls-4" d="M876.59,685.73c-3.56,0-7.13-.31-10.67-.94-3.56-.62-6.49-1.51-8.8-2.67v-9.47c1.06.45,2.28.91,3.66,1.4,1.38.49,2.87.94,4.47,1.34,1.6.4,3.22.71,4.87.93,1.64.22,3.22.33,4.73.33,9.06,0,13.6-3.29,13.6-9.87,0-1.6-.27-2.91-.79-3.94-.54-1.02-1.36-1.91-2.47-2.67-1.11-.76-2.52-1.47-4.2-2.14-1.69-.66-3.65-1.4-5.87-2.2-5.33-1.78-9.6-4.09-12.8-6.94-3.2-2.85-4.81-6.84-4.81-12.01,0-6.31,2.08-10.96,6.21-13.93,4.13-2.98,9.57-4.47,16.33-4.47,3.38,0,6.51.31,9.4.93,2.89.62,5.09,1.28,6.6,2v9.61c-1.6-.71-3.82-1.46-6.67-2.27-2.84-.8-5.83-1.2-8.94-1.2-4,0-6.98.73-8.94,2.2-1.96,1.47-2.94,3.54-2.94,6.2s.91,4.56,2.74,5.93c1.83,1.38,4.82,2.78,9.01,4.21,2.21.71,4.48,1.55,6.8,2.54,2.31.97,4.4,2.22,6.26,3.73,1.87,1.51,3.4,3.38,4.61,5.6,1.2,2.23,1.8,4.94,1.8,8.14,0,6.13-2.13,10.94-6.4,14.4-4.27,3.47-9.86,5.21-16.8,5.21M939.66,619.58h11.47v5.2c1.25-1.42,3.25-2.82,6.01-4.2,2.75-1.38,6.04-2.07,9.87-2.07,8.89,0,15.58,2.8,20.08,8.4,4.48,5.6,6.73,13.87,6.73,24.81,0,4.71-.69,9.13-2.07,13.27-1.38,4.13-3.36,7.73-5.94,10.8-2.58,3.06-5.71,5.49-9.4,7.27-3.69,1.77-7.89,2.67-12.6,2.67-3.03,0-5.65-.29-7.88-.87-2.22-.57-3.82-1.14-4.8-1.67v25.47h-11.47v-89.09ZM962.08,676.39c6.76,0,11.69-2.15,14.8-6.47,3.11-4.31,4.67-10.25,4.67-17.81,0-3.73-.29-7.07-.87-10-.57-2.93-1.55-5.44-2.93-7.53-1.38-2.09-3.2-3.69-5.47-4.8-2.27-1.11-5.09-1.67-8.47-1.67-2.49,0-4.85.4-7.07,1.2-2.23.8-4.1,1.83-5.61,3.07v41.75c1.25.62,2.82,1.16,4.73,1.6,1.92.45,3.98.67,6.2.67M1040.51,607.44c-2.15,0-3.94-.73-5.41-2.2-1.46-1.47-2.2-3.22-2.2-5.27s.74-3.8,2.2-5.26c1.47-1.47,3.26-2.2,5.41-2.2s3.81.73,5.33,2.2c1.51,1.47,2.27,3.22,2.27,5.26s-.76,3.8-2.27,5.27c-1.52,1.47-3.29,2.2-5.33,2.2M1034.77,619.58h11.47v65.08h-11.47v-65.08ZM1091.86,619.58h11.47v6.8c1.86-2.31,4.13-4.2,6.8-5.67,2.66-1.47,5.82-2.2,9.46-2.2.89,0,1.86.09,2.87.27,1.03.18,1.94.36,2.74.53v10.54c-.8-.18-1.75-.38-2.87-.61-1.11-.22-2.42-.33-3.93-.33-3.83,0-6.86.6-9.07,1.8-2.23,1.2-4.23,2.56-6,4.07v49.88h-11.47v-65.08ZM1169.74,607.44c-2.13,0-3.93-.73-5.39-2.2-1.47-1.47-2.21-3.22-2.21-5.27s.74-3.8,2.21-5.26c1.46-1.47,3.26-2.2,5.39-2.2s3.83.73,5.34,2.2,2.27,3.22,2.27,5.26-.76,3.8-2.27,5.27c-1.51,1.47-3.28,2.2-5.34,2.2M1164.01,619.58h11.48v65.08h-11.48v-65.08ZM1240.84,685.73c-5.96,0-10.41-1.38-13.35-4.14-2.93-2.75-4.39-7.47-4.39-14.14v-39.21h-8.93v-8.67h8.93l2.14-17.34h9.19v17.34h14.94v8.67h-14.94v37.61c0,3.74.71,6.4,2.13,8,1.43,1.6,3.69,2.4,6.81,2.4,1.61,0,3.11-.15,4.54-.46,1.42-.32,2.62-.69,3.6-1.14v9.34c-1.07.36-2.53.74-4.4,1.13-1.87.4-3.96.6-6.27.6M1304.06,685.73c-3.55,0-7.12-.31-10.67-.94-3.56-.62-6.49-1.51-8.8-2.67v-9.47c1.06.45,2.28.91,3.67,1.4,1.38.49,2.86.94,4.47,1.34,1.59.4,3.21.71,4.85.93,1.65.22,3.23.33,4.74.33,9.07,0,13.61-3.29,13.61-9.87,0-1.6-.27-2.91-.8-3.94-.53-1.02-1.35-1.91-2.46-2.67-1.12-.76-2.52-1.47-4.22-2.14-1.68-.66-3.63-1.4-5.86-2.2-5.33-1.78-9.6-4.09-12.8-6.94-3.2-2.85-4.81-6.84-4.81-12.01,0-6.31,2.07-10.96,6.2-13.93,4.15-2.98,9.58-4.47,16.35-4.47,3.38,0,6.51.31,9.4.93,2.89.62,5.09,1.28,6.61,2v9.61c-1.6-.71-3.83-1.46-6.68-2.27-2.84-.8-5.82-1.2-8.93-1.2-4,0-6.98.73-8.94,2.2-1.96,1.47-2.94,3.54-2.94,6.2s.92,4.56,2.74,5.93c1.82,1.38,4.82,2.78,9,4.21,2.22.71,4.49,1.55,6.81,2.54,2.31.97,4.4,2.22,6.27,3.73,1.86,1.51,3.39,3.38,4.6,5.6,1.19,2.23,1.8,4.94,1.8,8.14,0,6.13-2.14,10.94-6.4,14.4-4.27,3.47-9.88,5.21-16.81,5.21"/>
    </g>
  </g>
</svg>