<svg id="Layer_1" data-name="Layer 1" xmlns="http://www.w3.org/2000/svg" viewBox="0 0 1600.32 900.24"><defs><style>.cls-1,.cls-2{fill:#005288;}.cls-1{fill-rule:evenodd;}</style></defs><path class="cls-1" d="M539.49,407.56V390.15s-155.61-101-210.19-41.81S513.93,623.53,513.93,623.53s25.56,27.85,27.88-7a426.06,426.06,0,0,0,0-60.36s67.35,11.59,62.71,89.39-87.1,133-87.1,133V800s118.46-70.82,117.3-154.43-65-211.31-37.17-319.3,88.26-217.12,88.26-217.12,7-12.77-13.94-8.13S532.52,167.21,547.62,282.15,579,480.72,597.55,550.37c0,0-27.86-44.11-63.87-63.85L496.52,533s18.57,9.29,27.88,18.58l4.63,43s-2.31,17.42-17.41,0-131.23-141.67-101-193.91,128.91,7,128.91,7"/><path class="cls-2" d="M697.48,416.52V368.21h7.79c17.35,0,24.94,10,24.94,24.15s-7.59,24.16-24.94,24.16Zm-10.56,9.37h18.94c22,0,35.3-13.71,35.3-33.53s-13.41-33.52-35.3-33.52H686.92Z"/><path class="cls-2" d="M804,407.15H782l11.14-26.52S804.14,407.15,804,407.15Zm-26,9.37h30l3.85,9.37H823l-29.49-68.43h-.59l-29.38,68.43h10.65Z"/><polygon class="cls-2" points="849.17 425.89 900.44 425.89 900.44 416.52 866.13 416.52 901.53 359.43 901.53 358.84 854.59 358.84 854.59 368.21 884.57 368.21 849.17 425.3 849.17 425.89"/><rect class="cls-2" x="933.92" y="358.84" width="10.55" height="67.05"/><polygon class="cls-2" points="980.62 425.89 991.17 425.89 991.17 405.38 1019.67 405.38 1019.67 396.01 991.17 396.01 991.17 368.21 1022.43 368.21 1022.43 358.84 980.62 358.84 980.62 425.89"/><path class="cls-2" d="M1084,407.15h-22.09L1073,380.63S1084.05,407.15,1084,407.15Zm-26,9.37h30l3.85,9.37h11.14l-29.48-68.43h-.6l-29.38,68.43h10.65Z"/><path class="cls-2" d="M1144.07,400.84V368.21h6.21c12.82,0,18.14,6.11,18.14,16.27s-5.22,16.36-18.14,16.36Zm21.79,6c8.78-4,13.41-12,13.41-22.38,0-15.48-10.16-25.64-28.6-25.64h-17.15v67.05h10.55v-16h6.6a37,37,0,0,0,4.84-.3l11.43,16.27h12.53Z"/><polygon class="cls-2" points="1212.56 425.89 1222.52 425.89 1222.52 382.41 1245.3 409.72 1245.79 409.72 1268.67 382.41 1268.67 425.89 1278.63 425.89 1278.63 357.46 1278.13 357.46 1245.79 395.22 1213.06 357.46 1212.56 357.46 1212.56 425.89"/><path class="cls-2" d="M692.55,538V476.7h11.34c21.79,0,32.73,12.62,32.73,30.67S725.68,538,703.89,538Zm-3.16,2.86h15c22.58,0,35.5-13.71,35.5-33.52s-13-33.53-35.5-33.53h-15Z"/><polygon class="cls-2" points="790.59 540.89 830.62 540.89 830.62 538.13 793.74 538.13 793.74 517.52 825.59 517.52 825.59 514.76 793.74 514.76 793.74 476.6 829.24 476.6 829.24 473.84 790.59 473.84 790.59 540.89"/><path class="cls-2" d="M876.7,528.57c4.14,7.78,11.53,13.11,22.08,13.11,12.52,0,19.92-6.8,19.92-16.76,0-9.07-4.73-14.3-16-19.82l-6-3c-8.87-4.34-12.92-7-12.92-14.3,0-6.9,5.43-12,13.12-12,7,0,11.73,2.57,15.18,8.09l2.37-1.38c-4-6.51-9.47-9.47-17.55-9.47-9,0-16.17,5.82-16.17,14.79,0,8.58,5.12,12.23,14.59,16.86l6.11,3c9.86,4.73,14.2,9.07,14.2,17.26s-6.11,13.9-16.86,13.9a21.26,21.26,0,0,1-19.42-11.73Z"/><rect class="cls-2" x="970.89" y="473.84" width="3.16" height="67.05"/><path class="cls-2" d="M1059.07,541.68c12.52,0,20.31-3.85,26.92-10v-17h-25.24v2.76h22.08v13c-4.83,4.53-11.83,8.28-23.76,8.28-17.75,0-31.16-13.41-31.16-31.45s13.21-31.46,30.47-31.46c10.75,0,17.65,3.85,22.78,9.66l2.26-2.07c-5.71-6.4-13.8-10.45-25-10.45-18.44,0-33.72,14.5-33.72,34.32C1024.66,527.38,1040,541.68,1059.07,541.68Z"/><polygon class="cls-2" points="1187.48 542.57 1187.87 542.57 1187.87 473.84 1185.02 473.84 1185.02 534.48 1138.08 472.17 1137.69 472.17 1137.69 540.89 1140.55 540.89 1140.55 480.25 1187.48 542.57"/><path class="cls-2" d="M1237.21,528.57c4.14,7.78,11.53,13.11,22.08,13.11,12.53,0,19.92-6.8,19.92-16.76,0-9.07-4.73-14.3-16-19.82l-6-3c-8.87-4.34-12.91-7-12.91-14.3,0-6.9,5.42-12,13.11-12,7,0,11.73,2.57,15.18,8.09l2.37-1.38c-4-6.51-9.47-9.47-17.55-9.47-9,0-16.17,5.82-16.17,14.79,0,8.58,5.13,12.23,14.59,16.86l6.11,3c9.87,4.73,14.2,9.07,14.2,17.26s-6.11,13.9-16.86,13.9a21.27,21.27,0,0,1-19.42-11.73Z"/></svg>