<svg id="Layer_1" data-name="Layer 1" xmlns="http://www.w3.org/2000/svg" xmlns:xlink="http://www.w3.org/1999/xlink" viewBox="0 0 1920 1080"><defs><style>.cls-1{fill:#4786c6;}.cls-2{fill:#102a4d;}.cls-3{fill:url(#linear-gradient);}</style><linearGradient id="linear-gradient" x1="-37.47" y1="187.49" x2="138.29" y2="8.01" gradientUnits="userSpaceOnUse"><stop offset="0" stop-color="#102a4d"/><stop offset="1" stop-color="#4786c6"/></linearGradient><symbol id="icon" data-name="icon" viewBox="0 0 173.15 173.15"><polygon class="cls-1" points="172.11 13.78 159.37 1.04 146.63 13.78 159.37 26.52 172.11 13.78"/><polyline class="cls-2" points="141.23 19.42 153.47 31.65 91.95 93.17 79.71 80.94 141.23 19.42"/><path class="cls-3" d="M38.08,86.56h0a48.49,48.49,0,0,1,68.74-44.05l27.9-27.9A86.58,86.58,0,1,0,73.49,172.17,120.78,120.78,0,0,1,38.08,86.58Z"/><path class="cls-2" d="M158.32,38.11,130.48,66a48.5,48.5,0,0,1-79.59,53.45,112.62,112.62,0,0,0,28.33,47.18q3.45,3.45,7.15,6.56h.21a86.58,86.58,0,0,0,71.74-135Z"/></symbol><symbol id="icon_w_Abbreviation" data-name="icon w Abbreviation" viewBox="0 0 464.69 173.15"><path class="cls-2" d="M198.17,86.74c0-29.41,18.22-48.54,45.68-48.54s45.42,19.13,45.42,48.54c0,29.15-17.7,48.15-45.42,48.15C215.87,134.89,198.17,116,198.17,86.74Zm63.64.39c0-20.95-7.55-28.63-18-28.63s-18,7.68-18,28.63c0,20.3,7.61,27.46,18,27.46S261.81,107.43,261.81,87.13Z"/><path class="cls-2" d="M296.75,39.5h79V61.75H348.81v71.84H323.43V61.75H296.75Z"/><path class="cls-2" d="M382.57,105h25.77c1.43,6.64,7.16,10.54,15.81,10.54,7.75,0,15.23-2,15.23-8.59,0-5.72-7.68-7-15.49-8.33l-14.38-2.47c-14.44-2.34-23.94-11.71-24.27-27.72-.26-19,17.31-30.06,38.65-30.06,25.77,0,39.83,12.23,40.22,29.67H439c-.78-7.29-5.92-10.15-14.58-10.15-9.69,0-12.62,4-12.62,7.42,0,4.29,2,6.76,10.09,8.2l14.44,2.47c26.81,4.68,28.37,21.6,28.37,31,0,16-17.31,28-40.41,28C404.89,134.89,384.2,125.26,382.57,105Z"/><use width="173.15" height="173.15" xlink:href="#icon"/></symbol></defs><use width="464.69" height="173.15" transform="translate(497.22 367.56) scale(1.99)" xlink:href="#icon_w_Abbreviation"/></svg>