<?xml version="1.0" encoding="UTF-8"?>
<svg id="Layer_1" xmlns="http://www.w3.org/2000/svg" xmlns:xlink="http://www.w3.org/1999/xlink" version="1.1" viewBox="0 0 1600.32 900.24">
  <!-- Generator: Adobe Illustrator 29.6.1, SVG Export Plug-In . SVG Version: 2.1.1 Build 9)  -->
  <defs>
    <style>
      .st0 {
        fill: none;
      }

      .st1 {
        mask: url(#mask);
      }

      .st2 {
        fill: #eb6852;
      }

      .st3 {
        fill: url(#linear-gradient1);
      }

      .st4 {
        fill: #f4b233;
      }

      .st5 {
        fill: url(#linear-gradient);
      }

      .st6 {
        fill: #e64c38;
      }

      .st7 {
        clip-path: url(#clippath-1);
      }

      .st8 {
        clip-path: url(#clippath-3);
      }

      .st9 {
        clip-path: url(#clippath-2);
      }

      .st10 {
        fill: #fff;
        stroke: #000;
        stroke-miterlimit: 10;
      }

      .st11 {
        clip-path: url(#clippath);
      }
    </style>
    <clipPath id="clippath">
      <rect class="st0" x="326.45" y="213.26" width="947.42" height="473.71"/>
    </clipPath>
    <clipPath id="clippath-1">
      <rect class="st0" x="326.45" y="213.26" width="947.42" height="473.71"/>
    </clipPath>
    <clipPath id="clippath-2">
      <path class="st0" d="M793.85,371.88s-2.53,42.88,2.77,70.4c4.43,22.99,12.2,29.73,16.57,33.82,18.72,17.56,39.84,20.75,45.08,20.75s26.4-3.19,45.13-20.75c4.37-4.09,12.14-10.83,16.57-33.82,5.3-27.52,2.77-70.4,2.77-70.4h-128.89Z"/>
    </clipPath>
    <linearGradient id="linear-gradient" x1="-582.91" y1="688.2" x2="-579.62" y2="688.2" gradientTransform="translate(-25284.57 22515.1) rotate(90) scale(37.99 -37.99)" gradientUnits="userSpaceOnUse">
      <stop offset="0" stop-color="#000"/>
      <stop offset="1" stop-color="#fff"/>
    </linearGradient>
    <mask id="mask" x="791.32" y="371.88" width="133.94" height="124.96" maskUnits="userSpaceOnUse">
      <rect class="st5" x="791.32" y="371.88" width="133.94" height="124.96"/>
    </mask>
    <linearGradient id="linear-gradient1" x1="-582.91" y1="688.2" x2="-579.62" y2="688.2" gradientTransform="translate(-25284.57 22515.1) rotate(90) scale(37.99 -37.99)" gradientUnits="userSpaceOnUse">
      <stop offset="0" stop-color="#f4b233"/>
      <stop offset="1" stop-color="#f4b233"/>
    </linearGradient>
    <clipPath id="clippath-3">
      <rect class="st0" x="326.45" y="213.26" width="947.42" height="473.71"/>
    </clipPath>
  </defs>
  <rect class="st10" width="1600.32" height="900.24"/>
  <g class="st11">
    <g class="st7">
      <path class="st2" d="M952.85,407.93c-.08-74.09-12.46-112.47-18.15-133.17-2.99-9.32-16.61-9.42-16.61-9.42h-119.52s-13.63.1-16.61,9.42c-5.68,20.69-18.06,59.08-18.13,133.17,0,0-.05,1.15-.05,1.73,0,70.95,30.91,117.82,72.51,133.77,5.2,1.86,10.37,2.67,15.84,3.52-1.9-13.6-4.44-37.11-14.27-41.16-37.11-14.24-55.19-37.51-55.19-105.53,0-.56.03-1.66.03-1.66.07-68.99,5.73-102.36,10.97-121.92,2.78-9.83,14.03-9.26,14.03-9.26h105.98s6.5-.57,9.28,9.26c5.24,19.56,10.9,52.93,10.97,121.92,0,0,.03,1.11.03,1.66,0,68.02-18.07,91.29-55.19,105.53-9.84,4.05-12.37,27.56-14.27,41.16,5.47-.85,10.64-1.66,15.84-3.52,41.61-15.95,72.51-62.82,72.51-133.77,0-.58-.03-1.73-.03-1.73"/>
      <path class="st6" d="M952.88,409.66c0,70.95-30.91,117.82-72.51,133.77-5.2,1.86-10.37,2.67-15.84,3.52,1.9-13.6,4.43-37.11,14.27-41.16,37.12-14.24,55.18-37.51,55.18-105.53,0-.56-.03-1.66-.03-1.66-.08-68.99-5.74-102.36-10.97-121.92-2.78-9.83-9.28-9.26-9.28-9.26h-105.98s-11.25-.57-14.03,9.26c-5.24,19.56-10.91,52.94-10.97,121.92,0,0-.03,1.11-.03,1.66,0,68.02,18.07,91.29,55.19,105.53,9.83,4.05,12.37,27.56,14.27,41.16-5.47-.85-10.64-1.66-15.84-3.52-41.6-15.95-72.51-62.82-72.51-133.77,0-.58.05-1.73.05-1.73.07-74.09,12.45-112.48,18.13-133.17,2.98-9.32,16.62-9.42,16.62-9.42h119.52s13.62.1,16.61,9.42c5.69,20.69,18.06,59.08,18.15,133.17,0,0,.03,1.15.03,1.73M538.41,526.72v-24.26c-12.22-1.56-16.5-3.73-19.95-5.46-3.46-1.72-6.92-5.25-10.38-10.57l-49.87-73.81c9.58-2.39,17.82-5.85,24.74-10.38,6.91-4.52,12.63-9.64,17.16-15.36,4.52-5.72,7.85-11.97,9.98-18.75,2.13-6.78,3.19-13.62,3.19-20.55,0-22.34-6.72-39.63-20.15-51.87-13.43-12.23-31.72-18.35-54.86-18.35h-82.59v248.57h35.5v-109.73h31.12l55.86,85.39c6.39,10.11,13.29,17.09,20.75,20.95,7.44,3.85,15.82,5.78,25.13,5.78,5.32,0,10.11-.54,14.37-1.6M391.18,390.27v-84.99h39.1c15.96,0,27.73,3.53,35.31,10.57,7.58,7.05,11.37,17.75,11.37,32.12,0,12.77-3.86,23.01-11.57,30.72-7.72,7.72-19.42,11.57-35.11,11.57h-39.1ZM683.71,518.74c13.96-6.91,25.53-16.29,34.71-28.13,9.18-11.83,15.97-25.47,20.35-40.9,4.4-15.42,6.59-31.52,6.59-48.28,0-17.82-2.19-34.45-6.59-49.87-4.38-15.42-11.17-28.86-20.35-40.3-9.17-11.43-20.75-20.48-34.71-27.13-13.97-6.65-30.52-9.97-49.67-9.97s-35.71,3.46-49.68,10.37c-13.96,6.92-25.53,16.29-34.71,28.13-9.18,11.84-15.96,25.47-20.35,40.9-4.39,15.43-6.59,31.52-6.59,48.28,0,17.82,2.19,34.45,6.59,49.87,4.39,15.43,11.17,28.87,20.35,40.3,9.17,11.44,20.75,20.48,34.71,27.13,13.97,6.65,30.52,9.98,49.68,9.98s35.7-3.45,49.67-10.38M601.11,492.41c-9.17-4.79-16.76-11.43-22.74-19.95-5.99-8.51-10.38-18.82-13.17-30.92-2.8-12.1-4.2-25.34-4.2-39.7s1.4-27.59,4.2-39.7c2.79-12.1,7.17-22.47,13.17-31.12,5.98-8.64,13.56-15.36,22.74-20.15,9.18-4.79,20.15-7.18,32.92-7.18s23.73,2.39,32.92,7.18c9.17,4.79,16.75,11.44,22.74,19.95,5.99,8.52,10.44,18.82,13.37,30.92,2.92,12.11,4.39,25.34,4.39,39.7s-1.46,27.6-4.39,39.7c-2.93,12.11-7.38,22.48-13.37,31.12-5.98,8.65-13.56,15.36-22.74,20.15-9.18,4.79-20.15,7.18-32.92,7.18s-23.74-2.39-32.92-7.18M951.31,525.93h35.91l63.04-104.94,66.24,104.94h40.3l-84.99-131.27,74.21-116.91h-37.9l-53.87,92.17-57.85-92.17h-40.3l76.21,116.91-80.99,131.27Z"/>
    </g>
    <g class="st9">
      <g class="st1">
        <rect class="st3" x="791.32" y="371.88" width="133.94" height="124.96"/>
      </g>
    </g>
    <g class="st8">
      <polygon class="st4" points="355.67 601.51 375.27 601.46 375.27 604.86 355.67 604.81 355.67 601.51"/>
      <polygon class="st4" points="388.33 601.42 407.92 601.37 407.92 604.95 388.33 604.9 388.33 601.42"/>
      <polygon class="st4" points="420.99 601.33 440.58 601.28 440.58 605.04 420.99 604.99 420.99 601.33"/>
      <polygon class="st4" points="453.64 601.24 473.24 601.19 473.24 605.14 453.64 605.08 453.64 601.24"/>
      <polygon class="st4" points="1022.48 599.7 1042.07 599.64 1042.07 606.68 1022.48 606.63 1022.48 599.7"/>
      <polygon class="st4" points="1055.14 599.61 1074.73 599.55 1074.73 606.77 1055.14 606.72 1055.14 599.61"/>
      <polygon class="st4" points="1087.79 599.52 1107.39 599.46 1107.39 606.86 1087.79 606.81 1087.79 599.52"/>
      <polygon class="st4" points="1120.45 599.43 1140.04 599.37 1140.04 606.95 1120.45 606.9 1120.45 599.43"/>
      <polygon class="st4" points="1159.64 599.34 1169.51 599.31 1169.51 607.02 1159.64 606.99 1159.64 599.34"/>
      <path class="st4" d="M1244.63,603.16s0-.06,0-.1h-.02c-.45-3-11.36-5.41-24.93-5.51h0s-5.34,0-5.34,0c-2.48,0-4.45-2.33-4.45-2.33l-3.64-3.65c.74-.1,1.45-.22,2.1-.36v-5.9c-2.43-.5-5.49-.8-8.82-.8-.11,0-.21,0-.32,0l-13.08-13.11h-2.82s3.93,7.88,6.49,14.11c-1.14.28-2.11.6-2.85.96v3.58c1.16.56,2.85,1.03,4.89,1.37.07.35.11.65.11.89,0,3.63-1.3,5.23-3.07,5.23l-23.43,1.85s-1.37.15-1.78-.27c-.32-.33-4.12-4.12-5.77-5.78-.67-.68-1.31-.76-1.31-.76h-.38l1.57,6.71h1.26c0,.06.02.13.02.17,0,1.04-.06,1.46-.62,1.71-.07.02-.13.05-.19.07-.03,0-.06.02-.09.03h0c-2.22.78-3.77,1.46-4.46,1.78h-.41s.07.03.2.1c-.13.06-.2.1-.2.1h.41c.69.32,2.25,1,4.46,1.78h0s.06.02.09.03c.07.02.13.05.19.07.55.24.62.67.62,1.71,0,.05,0,.11-.02.17h-1.26l-1.57,6.71h.38s.64-.09,1.31-.76c1.64-1.66,5.44-5.45,5.77-5.78.41-.41,1.78-.27,1.78-.27l23.43,1.85c1.76,0,3.07,1.61,3.07,5.23,0,.24-.04.54-.11.89-2.04.34-3.73.81-4.89,1.37v3.58c.75.36,1.71.68,2.85.96-2.56,6.23-6.49,14.11-6.49,14.11h2.82l13.08-13.11c.11,0,.21,0,.32,0,3.33,0,6.39-.3,8.82-.8v-5.9c-.65-.13-1.36-.25-2.1-.36l3.64-3.65s1.98-2.33,4.45-2.33h5.34c13.56-.1,24.47-2.51,24.93-5.51h.02s0-.06,0-.1"/>
      <path class="st4" d="M519.69,580h9.1l9.61,31.27c.47,1.5.88,3,1.23,4.5.34,1.5.68,2.96,1.02,4.39h.21c.41-1.57.78-3.07,1.12-4.5.34-1.43.78-2.93,1.33-4.5l6.64-20.34-3.47-10.83h8.99l9.4,31.27c.48,1.63.9,3.17,1.28,4.6.37,1.43.73,2.86,1.07,4.3h.2c.34-1.57.7-3.03,1.07-4.39.38-1.36.8-2.9,1.28-4.6l8.58-31.17h8.59l-15.13,49.87h-9.41l-8.58-28.21h-.21l-8.68,28.21h-9.61l-15.64-49.87Z"/>
      <path class="st4" d="M602.17,570.71c-1.63,0-3.02-.56-4.14-1.69-1.13-1.13-1.68-2.47-1.68-4.04s.56-2.91,1.68-4.04,2.51-1.69,4.14-1.69,2.93.56,4.09,1.69c1.16,1.13,1.74,2.47,1.74,4.04s-.58,2.91-1.74,4.04c-1.16,1.13-2.52,1.69-4.09,1.69M597.77,580.01h8.79v49.87h-8.79v-49.87Z"/>
      <path class="st4" d="M620.67,580h8.69v3.98c1.23-.95,3.02-1.99,5.37-3.12,2.35-1.13,5.16-1.69,8.43-1.69,3,0,5.54.44,7.61,1.33,2.08.89,3.75,2.13,5.01,3.73,1.26,1.6,2.18,3.48,2.76,5.62.58,2.14.87,4.48.87,7v33.01h-8.79v-31.58c0-3.75-.7-6.66-2.1-8.74-1.4-2.08-4.14-3.12-8.23-3.12-2.18,0-4.2.38-6.08,1.13-1.87.75-3.46,1.57-4.75,2.45v39.86h-8.79v-49.87Z"/>
      <path class="st4" d="M694.76,630.7c-4.16,0-7.75-.63-10.78-1.89-3.03-1.26-5.55-3.02-7.56-5.26-2.01-2.25-3.49-4.94-4.45-8.08-.95-3.13-1.43-6.61-1.43-10.42s.51-7.19,1.53-10.32c1.02-3.13,2.49-5.86,4.39-8.17,1.91-2.32,4.26-4.12,7.05-5.42,2.8-1.29,5.96-1.94,9.51-1.94s6.54.63,8.99,1.89c2.45,1.26,4.44,2.93,5.98,5.01s2.62,4.43,3.27,7.05c.65,2.63.97,5.3.97,8.02,0,.68-.02,1.35-.05,2-.04.64-.09,1.27-.15,1.89h-32.5c0,2.8.29,5.33.87,7.61.58,2.29,1.5,4.24,2.76,5.88,1.26,1.63,2.86,2.89,4.8,3.78,1.94.89,4.31,1.33,7.11,1.33,3,0,5.65-.29,7.97-.87,2.32-.58,4.36-1.31,6.14-2.2v7.26c-1.57.75-3.65,1.41-6.24,1.99-2.59.58-5.31.87-8.17.87M703.25,599.01v-.51c0-1.57-.22-3.1-.66-4.6-.45-1.5-1.09-2.82-1.94-3.98-.85-1.16-1.94-2.08-3.27-2.76-1.33-.68-2.85-1.02-4.55-1.02-1.57,0-3.07.24-4.49.71-1.43.48-2.73,1.23-3.89,2.25-1.16,1.02-2.13,2.35-2.91,3.99-.78,1.63-1.31,3.61-1.58,5.93h23.3Z"/>
      <path class="st4" d="M783.78,630.7c-4.57,0-7.97-1.06-10.22-3.17-2.25-2.11-3.38-5.72-3.38-10.83v-30.05h-6.85v-6.64h6.85l1.63-13.29h7.05v13.29h11.44v6.64h-11.44v28.82c0,2.86.54,4.9,1.63,6.13,1.09,1.23,2.83,1.84,5.21,1.84,1.23,0,2.39-.12,3.47-.36,1.09-.24,2.01-.53,2.76-.87v7.16c-.82.27-1.94.56-3.37.87-1.43.31-3.03.46-4.8.46"/>
      <path class="st4" d="M822.42,630.7c-3.82,0-7.12-.66-9.92-1.99-2.8-1.33-5.1-3.13-6.9-5.42-1.8-2.28-3.15-4.99-4.03-8.12-.89-3.14-1.33-6.51-1.33-10.12,0-3.34.44-6.57,1.33-9.71.88-3.13,2.23-5.89,4.03-8.28,1.81-2.39,4.11-4.29,6.9-5.73,2.79-1.43,6.13-2.14,10.01-2.14s7.22.66,10.02,2c2.8,1.33,5.09,3.15,6.9,5.47,1.8,2.32,3.13,5.06,3.98,8.23.85,3.17,1.28,6.56,1.28,10.17,0,3.34-.44,6.56-1.33,9.66-.89,3.1-2.25,5.82-4.09,8.17-1.84,2.35-4.16,4.24-6.95,5.67-2.79,1.43-6.1,2.15-9.91,2.15M822.51,623.75c2.66,0,4.84-.54,6.54-1.63,1.7-1.09,3.03-2.52,3.98-4.29.95-1.77,1.62-3.78,2-6.03.37-2.25.56-4.5.56-6.75s-.19-4.6-.56-6.85c-.38-2.25-1.06-4.26-2.05-6.03-.99-1.77-2.33-3.22-4.04-4.35-1.71-1.12-3.89-1.68-6.54-1.68s-4.82.56-6.49,1.68c-1.67,1.13-3,2.57-3.98,4.35-.99,1.77-1.65,3.78-1.99,6.03-.34,2.25-.51,4.53-.51,6.85s.19,4.5.56,6.75c.38,2.25,1.04,4.26,2,6.03.95,1.77,2.28,3.2,3.98,4.29,1.7,1.09,3.88,1.63,6.54,1.63"/>
      <path class="st4" d="M872.08,630.7c-3.07,0-5.62-.45-7.66-1.33-2.04-.88-3.71-2.13-5.01-3.73-1.29-1.6-2.21-3.48-2.76-5.62s-.82-4.48-.82-7v-33.01h8.79v31.58c0,3.75.7,6.68,2.1,8.79,1.39,2.12,4.14,3.17,8.23,3.17,2.18,0,4.2-.39,6.08-1.17,1.87-.79,3.46-1.59,4.75-2.4v-39.96h8.79v49.87h-8.69v-3.99c-1.23.96-3.01,2-5.37,3.12-2.35,1.13-5.16,1.69-8.43,1.69"/>
      <path class="st4" d="M909.69,580h8.79v5.21c1.43-1.77,3.17-3.22,5.21-4.34,2.04-1.13,4.46-1.69,7.26-1.69.68,0,1.41.07,2.2.2.78.14,1.48.27,2.1.41v8.07c-.62-.13-1.35-.29-2.2-.46-.85-.17-1.86-.25-3.02-.25-2.93,0-5.25.46-6.95,1.38-1.7.92-3.24,1.96-4.6,3.12v38.22h-8.79v-49.87Z"/>
      <path class="st4" d="M958.44,630.7c-2.73,0-5.45-.24-8.18-.72-2.72-.47-4.97-1.16-6.74-2.04v-7.26c.82.34,1.75.7,2.81,1.07,1.06.38,2.2.71,3.42,1.02,1.23.31,2.47.55,3.73.72,1.26.17,2.47.25,3.63.25,6.95,0,10.42-2.52,10.42-7.56,0-1.23-.21-2.23-.62-3.02-.41-.78-1.04-1.46-1.89-2.04-.86-.58-1.93-1.13-3.22-1.63-1.29-.51-2.79-1.07-4.49-1.69-4.09-1.36-7.36-3.13-9.81-5.31-2.45-2.18-3.68-5.25-3.68-9.2,0-4.84,1.58-8.4,4.75-10.68,3.17-2.28,7.34-3.42,12.52-3.42,2.59,0,4.99.24,7.2.72,2.21.48,3.9.99,5.06,1.53v7.36c-1.22-.55-2.93-1.13-5.11-1.74-2.18-.61-4.46-.92-6.85-.92-3.06,0-5.35.56-6.85,1.68-1.5,1.13-2.25,2.71-2.25,4.75s.7,3.49,2.09,4.55c1.39,1.06,3.7,2.13,6.9,3.22,1.7.55,3.44,1.19,5.21,1.94,1.77.75,3.37,1.71,4.8,2.86,1.43,1.16,2.61,2.59,3.53,4.29.92,1.71,1.38,3.78,1.38,6.24,0,4.7-1.63,8.38-4.9,11.04s-7.56,3.99-12.88,3.99"/>
    </g>
  </g>
</svg>